<svg width="1920" height="1080" viewBox="0 0 1920 1080" fill="none" xmlns="http://www.w3.org/2000/svg">
<rect width="1920" height="1080" fill="white"/>
<mask id="mask0_1420_1136" style="mask-type:alpha" maskUnits="userSpaceOnUse" x="0" y="0" width="960" height="1080">
<rect width="960" height="1080" fill="white"/>
</mask>
<g mask="url(#mask0_1420_1136)">
<path d="M-131.761 771.895C-76.8974 748.628 -26.5337 678.971 35.7266 662.239C90.9255 647.398 183.442 654.747 242.567 668.917C283.452 678.732 367.04 678.301 408.906 682.346C449.79 686.296 482.895 672.173 522.224 669.659C622.496 663.196 719.561 652.066 814.52 693.046C895.858 728.138 942.511 759.112 958.693 852.443C972.337 931.076 875.966 1004.99 819.068 1038.89C746.969 1081.83 648.468 1103.21 604.472 1172.41C542.786 1269.43 501.854 1358.57 391.073 1323.02C282.087 1288.07 174.251 1259.78 87.6701 1180.24C22.4655 1120.32 -43.7445 1039.85 -62.7984 951.016C-79.6741 872.383 -172.813 819.529 -131.761 771.871V771.895Z" fill="#DEE2E6"/>
<path d="M259.037 807.563C259.037 807.563 236.831 787.827 194.685 797.785C152.513 807.743 147.855 836.458 156.166 853.543C164.452 870.602 194.325 868.003 219.875 869.058C245.425 870.113 268.531 854.701 269.715 837.487C270.898 820.274 259.037 807.563 259.037 807.563Z" fill="#343A40"/>
<path d="M205.002 590.604C206.752 538.242 204.513 405.01 204.513 405.01L218.382 404.702C218.382 404.702 216.761 462.775 216.684 492.159C216.607 521.543 218.253 659.819 217.379 687.067C216.529 714.316 217.559 825.368 217.559 825.368L203.69 824.956C203.69 824.956 203.278 642.94 205.028 590.604H205.002Z" fill="#343A40"/>
<path d="M119.398 417.516C119.398 417.516 122.614 418.956 131.131 420.938C131.851 421.118 132.623 421.298 133.447 421.452C138.027 422.456 143.893 423.588 151.303 424.746C152.075 424.849 152.847 424.977 153.645 425.08C158.791 425.852 164.606 426.598 171.167 427.345C172.454 427.499 173.74 427.628 175.027 427.756C175.824 427.833 176.622 427.911 177.42 427.988C185.756 428.734 194.042 429.146 202.198 429.274C202.996 429.274 203.793 429.3 204.591 429.326C214.832 429.429 224.789 429.12 234.181 428.528C234.979 428.502 235.751 428.425 236.548 428.374C244.808 427.808 252.604 427.036 259.783 426.161C260.58 426.084 261.352 425.981 262.15 425.852C266.962 425.235 271.464 424.591 275.607 423.897C279.775 423.228 283.403 422.61 286.491 422.096C287.314 421.941 288.086 421.813 288.832 421.684C302.444 419.265 304.811 418.468 304.811 418.468C304.811 418.468 276.276 303.813 273.471 288.838C270.693 273.863 266.73 265.192 266.73 265.192L251.961 265.32H249.516L238.787 265.449H236.394L227.285 265.552H224.892L212.079 265.68H209.686L203.022 265.758H200.551L189.539 265.886H187.069L177.034 265.989H174.512L164.812 266.092C164.812 266.092 135.711 358.464 129.664 378.56C123.592 398.681 119.423 417.49 119.423 417.49L119.398 417.516Z" fill="#F8F8F8"/>
<path d="M131.105 420.963C131.825 421.144 132.597 421.324 133.421 421.478C135.196 413.476 137.023 405.474 138.876 397.497C149.219 352.984 161.518 309.062 176.982 266.015H174.461C170.73 276.359 167.179 286.754 163.808 297.174C150.609 337.88 140.548 379.332 131.105 420.963Z" fill="#343A40"/>
<path d="M151.278 424.771C152.05 424.874 152.822 425.003 153.619 425.106C154.88 417.181 156.218 409.307 157.659 401.434C165.918 355.762 176.571 310.528 189.513 265.886H187.043C183.75 277.182 180.636 288.477 177.651 299.876C166.896 341.07 158.071 382.754 151.304 424.771H151.278Z" fill="#343A40"/>
<path d="M174.975 427.782C175.773 427.859 176.571 427.936 177.368 428.014C177.574 424.72 177.806 421.401 178.089 418.107C182.206 366.775 190.542 315.803 202.97 265.783H200.5C197.798 276.719 195.302 287.628 192.987 298.615C187.944 322.57 183.827 346.731 180.662 370.969C179.067 383.037 177.729 395.156 176.622 407.301C176.056 413.321 175.567 419.317 175.13 425.363C175.078 426.161 175.027 426.984 174.95 427.782H174.975Z" fill="#343A40"/>
<path d="M174.229 443.169C174.332 444.121 174.486 445.124 174.743 444.739C175.206 444.07 174.821 443.426 174.229 443.169Z" fill="#343A40"/>
<path d="M202.147 429.3C202.944 429.3 203.742 429.326 204.539 429.352C204.822 425.055 205.08 420.783 205.337 416.486C208.27 366.261 210.535 315.983 212.053 265.706H209.66C209.274 278.443 208.836 291.154 208.373 303.864C206.804 345.728 204.745 387.54 202.147 429.326V429.3Z" fill="#343A40"/>
<path d="M224.841 265.552C225.458 276.539 226.076 287.526 226.719 298.512C229.189 341.842 231.634 385.198 234.104 428.528C234.901 428.503 235.673 428.425 236.471 428.374C236.188 423.279 235.905 418.21 235.596 413.116C232.817 363.919 230.013 314.723 227.234 265.526H224.841V265.552Z" fill="#343A40"/>
<path d="M236.342 265.474C238.401 277.053 240.356 288.606 242.235 300.185C249.053 342.048 254.894 384.04 259.706 426.161C260.503 426.084 261.275 425.981 262.073 425.852C261.378 419.831 260.683 413.759 259.937 407.738C254.174 360.137 247.072 312.664 238.761 265.449H236.368L236.342 265.474Z" fill="#343A40"/>
<path d="M249.465 265.346C252.141 276.744 254.843 288.143 257.519 299.567C267.142 340.427 276.765 381.287 286.388 422.121C287.212 421.967 287.983 421.838 288.73 421.71C287.495 416.538 286.311 411.366 285.076 406.194C274.012 359.262 262.948 312.278 251.884 265.32H249.439L249.465 265.346Z" fill="#343A40"/>
<path d="M164.786 266.118C164.786 266.118 168.877 252.198 174.718 249.084C187.969 242.008 208.347 241.7 230.064 245.122C251.78 248.544 264.62 256.469 266.678 265.217C268.737 273.966 259.937 282.843 247.303 288.014C234.644 293.212 199.007 294.37 181.691 287.14C164.374 279.909 164.812 266.144 164.812 266.144L164.786 266.118Z" fill="#343A40"/>
<path d="M577.013 565.028C581.799 565.851 587.408 566.494 587.408 566.494C587.408 566.494 591.782 568.784 595.719 571.28C599.656 573.776 606.32 578.33 609.845 579.797C613.37 581.264 620.446 586.23 620.446 586.23L621.475 594.746L568.085 565.877C568.085 565.877 572.227 564.204 577.013 565.054V565.028Z" fill="#343A40"/>
<path d="M518.425 732.044C518.425 732.044 520.921 771.926 521.538 784.38C522.156 796.833 524.034 827.993 527.765 854.161C531.496 880.328 534.609 928.933 534.609 928.933L523.391 930.812C523.391 930.812 519.017 908.375 517.782 898.417C516.547 888.459 509.677 852.308 509.059 842.325C508.442 832.341 500.336 801.825 497.841 789.346C495.345 776.892 487.883 736.367 487.883 736.367L518.425 731.993V732.044Z" fill="#343A40"/>
<path d="M427.468 745.115C427.468 745.115 431.842 792.485 433.695 808.669C435.573 824.88 436.808 836.715 438.069 847.934C439.304 859.152 443.678 882.207 444.296 897.156C444.913 912.106 449.905 938.917 449.905 943.265C449.905 947.614 451.783 959.475 452.401 962.589C453.018 965.702 454.279 973.807 454.279 973.807C454.279 973.807 461.767 971.929 463.619 973.19C465.498 974.425 463.619 925.202 463.002 905.879C462.384 886.555 461.767 841.064 460.506 819.888C459.271 798.712 458.01 788.111 458.01 776.892V742.619L427.468 745.115Z" fill="#343A40"/>
<path d="M334.607 450.991C334.607 450.991 320.275 450.991 310.292 450.373C300.308 449.756 291.586 451.608 284.124 451.608C276.662 451.608 274.166 457.835 274.166 461.592C274.166 465.348 271.67 472.81 272.288 489.02C272.905 505.231 273.523 538.243 276.019 553.192C278.514 568.141 280.393 589.961 281.628 599.918C282.863 609.876 283.506 624.234 285.359 639.801C287.237 655.368 289.09 686.527 289.733 693.397C290.35 700.241 292.229 707.729 292.229 707.729C292.229 707.729 308.439 716.451 325.267 721.443C342.094 726.435 351.434 728.288 358.922 732.044C366.41 735.775 393.195 743.263 401.3 744.498C409.405 745.733 433.695 751.342 438.686 753.22C443.678 755.099 452.401 755.716 452.401 755.716C452.401 755.716 461.741 753.838 476.69 751.342C491.639 748.846 507.85 745.733 515.337 745.115C522.825 744.498 537.774 742.002 544.001 740.124C550.228 738.245 560.828 732.636 560.828 732.636L334.632 450.965L334.607 450.991Z" fill="#343A40"/>
<path d="M410.435 403.209C411.67 401.537 417.485 391.579 417.485 391.579L442.417 394.487L444.09 426.47C444.09 426.47 429.141 425.646 419.569 420.655C410.023 415.663 405.855 410.26 405.855 410.26C405.855 410.26 409.174 404.856 410.435 403.209Z" fill="#F8F8F8"/>
<path d="M632.333 892.319C632.333 892.319 630.764 912.131 629.786 917.92C628.834 923.71 628.834 938.17 628.834 940.1C628.834 942.03 628.834 947.485 630.121 948.128C631.407 948.771 641.056 949.723 646.845 950.367C652.635 951.01 655.517 950.675 655.517 950.675L657.446 943.291C657.446 943.291 674.171 948.437 682.842 951.319C691.513 954.2 719.791 957.288 730.727 957.931C741.662 958.575 753.524 959.732 761.886 958.755C770.248 957.803 781.853 957.108 783.448 952.271C785.043 947.459 784.091 939.405 779.589 935.237C775.086 931.069 756.457 924.636 748.095 922.372C739.732 920.133 711.737 914.91 703.684 911.359C695.656 907.834 688.271 896.719 687.319 895.767L632.359 892.267L632.333 892.319Z" fill="#343A40"/>
<path d="M623.354 902.766L619.468 904.412H620.086C620.086 904.412 634.598 923.736 643.089 926.206C651.58 928.676 686.522 938.299 692.877 938.994C699.258 939.689 724.731 949.621 722.596 958.446C721.978 960.993 721.103 963.103 720.048 964.904C722.081 963 723.702 960.582 724.448 957.494C726.584 948.643 702.5 938.068 696.119 937.347C689.738 936.627 654.822 927.029 646.331 924.559C637.84 922.089 623.328 902.74 623.328 902.74L623.354 902.766Z" fill="#F8F8F8"/>
<path d="M592.142 956.876C592.142 956.876 592.168 957.005 592.477 957.88C592.425 957.725 592.322 957.365 592.194 956.902C592.194 956.902 592.168 956.902 592.142 956.902V956.876Z" fill="#343A40"/>
<path d="M563.196 906.342C563.196 906.342 562.964 919.284 561.626 929.345C560.391 938.839 557.483 952.091 557.483 954.2C557.483 956.31 556.66 960.839 556.66 960.839C556.66 960.839 570.117 962.717 575.083 963.412C580.049 964.132 582.879 964.467 584.629 964.467C586.379 964.467 588.18 964.107 588.18 964.107C588.18 964.107 589.595 960.556 589.235 959.501L588.874 958.446C588.874 958.446 599.372 960.016 606.088 962.486C612.804 964.956 628.448 967.657 637.659 968.712C646.871 969.767 661.872 972.392 672.138 972.032C682.405 971.671 704.687 972.906 710.348 970.797C716.008 968.661 720.486 967.297 722.621 958.446C724.757 949.595 699.258 939.689 692.903 938.994C686.521 938.299 651.605 928.676 643.114 926.206C634.623 923.736 620.111 904.386 620.111 904.386L563.196 906.342Z" fill="#343A40"/>
<path d="M592.142 956.876C592.142 956.876 592.168 957.005 592.477 957.88C592.425 957.725 592.322 957.365 592.194 956.902C592.194 956.902 592.168 956.902 592.142 956.902V956.876Z" fill="#343A40"/>
<path d="M483.534 610.262C483.534 610.262 485.49 614.405 488.912 620.271C494.83 630.383 505.199 645.616 517.807 653.875C522.464 656.911 527.765 660.719 533.426 665.222C534.944 666.432 536.488 667.667 538.057 668.979C552.003 680.609 567.596 696.022 580.873 714.187C584.346 718.896 587.64 723.81 590.727 728.879C592.04 731.015 593.326 733.537 594.613 736.341C596.645 740.818 598.652 746.067 600.608 751.908C601.791 755.459 602.975 759.215 604.107 763.152C612.598 792.15 619.854 829.974 624.537 857.274C625.077 860.49 625.592 863.552 626.081 866.434C628.705 882.258 630.198 892.756 630.198 892.756C630.198 892.756 631.639 892.936 633.8 893.194C634.237 893.245 634.726 893.322 635.215 893.374C638.509 893.786 642.857 894.377 646.537 894.943C649.367 895.381 651.786 895.818 653.046 896.127C653.175 896.178 653.329 896.204 653.509 896.23C653.895 896.307 654.384 896.384 654.899 896.436C656.777 896.667 659.479 896.77 662.515 896.796C663.004 896.796 663.493 896.796 664.007 896.796C669.025 896.796 674.686 896.616 678.957 896.384C679.446 896.384 679.935 896.333 680.372 896.307C681.35 896.256 682.225 896.178 682.945 896.127C685.415 895.921 687.988 895.87 690.278 895.741C690.767 895.715 691.23 895.664 691.693 895.638C695.038 895.355 697.56 894.738 697.894 892.756C698.512 889.257 705.999 871.529 705.999 862.214C705.999 852.9 710.965 827.993 710.348 811.114C709.73 794.26 712.226 775.94 705.999 741.616C699.773 707.317 697.277 691.03 686.058 670.677C681.067 661.62 666.889 649.527 656.777 639.749C644.169 627.579 634.598 617.956 619.391 610.211C605.985 603.392 591.551 598.246 580.281 594.747C579.56 594.515 578.866 594.309 578.171 594.103C567.518 590.887 560.185 589.266 560.185 589.266L483.534 610.211V610.262Z" fill="#33A04D"/>
<path d="M337.721 627.347C337.721 627.347 340.834 673.662 357.044 685.292C365.921 691.673 385.013 700.859 407.527 704.821C426.104 708.063 444.605 709.17 455.308 712.051C478.98 718.458 510.346 723.836 519.712 731.401C526.016 736.521 539.653 766.085 543.384 781.781C547.115 797.476 547.115 822.486 548.375 839.932C549.61 857.377 552.724 866.897 552.724 879.711C552.724 892.524 560.211 912.234 560.211 913.984C560.211 914.91 563.994 915.167 569.86 915.322C570.375 915.322 570.889 915.322 571.43 915.373C574.492 915.425 578.017 915.476 581.799 915.553C582.288 915.553 582.777 915.553 583.266 915.579C585.144 915.63 587.074 915.682 589.055 915.759C591.705 915.862 594.304 915.888 596.826 915.836H598.241C602.795 915.733 607.066 915.45 611.029 915.09C611.518 915.039 612.007 914.987 612.47 914.936C617.153 914.447 621.347 913.804 624.898 913.16C625.386 913.057 625.875 912.98 626.338 912.877C626.519 912.852 626.699 912.8 626.879 912.774C629.297 912.285 631.536 911.719 633.492 911.128C633.98 910.973 634.444 910.845 634.907 910.69C639.281 909.326 642.06 908.04 642.06 908.04C642.06 908.04 644.556 908.349 646.537 894.969C647.643 887.559 648.595 875.928 648.878 857.711C649.727 805.376 647.026 764.49 642.652 750.544C638.303 736.598 631.51 708.784 624.383 699.443C608.816 679.091 597.16 664.373 586.585 656.242C575.984 648.111 558.745 633.239 547.526 627.99C541.917 625.366 515.929 622.69 488.938 620.297C461.973 617.904 434.004 615.794 424.355 614.353C405.031 611.445 337.746 627.373 337.746 627.373L337.721 627.347Z" fill="#33A04D"/>
<path d="M352.31 647.7C354.651 660.951 363.888 671.758 374.721 679.168C380.613 683.182 387.02 686.373 393.53 689.177C400.117 692.033 406.858 694.632 413.677 696.845C426.388 700.987 439.459 703.715 452.633 705.876C459.606 707.034 466.579 708.012 473.552 709.144C479.186 710.07 484.744 711.485 490.225 713.055C496.297 714.779 502.318 716.709 508.236 718.922C513.639 720.928 518.966 723.167 523.829 726.28C534.352 733.022 542.406 743.031 548.144 754.043C561.961 780.52 561.369 811.088 561.961 840.163C562.116 847.393 562.373 854.624 562.399 861.854C562.399 868.775 562.399 875.697 562.785 882.593C563.376 893.785 565.075 905.133 569.86 915.296C570.375 915.296 570.89 915.296 571.43 915.347C570.71 913.907 570.066 912.414 569.474 910.896C564.56 898.185 563.994 884.291 563.865 870.808C563.711 856.27 563.454 841.733 563.145 827.195C562.604 799.278 560.778 770.074 545.108 745.99C538.598 735.981 529.875 727.31 519.12 721.958C514.103 719.462 508.802 717.532 503.527 715.705C497.635 713.672 491.691 711.871 485.671 710.328C473.011 707.06 459.966 705.748 447.126 703.458C434.03 701.142 421.113 698.028 408.582 693.551C395.177 688.765 381.231 683.156 370.218 673.945C359.797 665.248 352.001 652.228 353.391 638.257C353.468 637.356 352.053 637.356 351.975 638.257C351.667 641.396 351.795 644.535 352.336 647.674L352.31 647.7Z" fill="#343A40"/>
<path d="M379.841 653.772C381.925 656.011 384.112 658.172 386.376 660.256C404.954 677.341 428.574 687.994 452.812 694.246C459.091 695.867 465.472 697.179 471.853 698.26C478.671 699.392 485.541 700.138 492.36 701.168C499.41 702.223 506.434 703.612 513.124 706.159C519.711 708.655 525.784 712.36 531.522 716.4C537.491 720.594 543.435 725.045 548.941 729.831C554.344 734.489 558.667 740.021 562.167 746.222C568.136 756.745 571.764 768.375 573.797 780.289C577.965 804.913 575.932 830.103 575.572 854.907C575.263 875.182 575.778 896.076 581.825 915.553C582.313 915.553 582.802 915.553 583.291 915.579C576.009 892.499 576.627 867.695 577.245 843.766C577.888 819.373 579.174 794.337 573.231 770.46C570.272 758.546 565.383 746.736 557.792 736.984C553.444 731.375 547.938 727.052 542.38 722.73C536.771 718.381 531.11 714.059 525.012 710.405C519.042 706.854 512.713 704.152 505.997 702.403C499.101 700.602 492 699.65 484.924 698.723C471.904 696.999 459.013 694.709 446.38 690.978C421.859 683.774 398.444 671.629 380.87 652.769C380.253 652.1 379.249 653.103 379.867 653.772H379.841Z" fill="#343A40"/>
<path d="M596.826 915.836C596.697 905.57 596.568 895.304 595.951 885.063C595.642 879.788 595.179 874.539 594.664 869.29C594.098 863.527 593.249 857.763 592.838 851.974C592.091 841.887 592.323 831.724 592.374 821.637C592.4 811.911 592.632 802.082 591.654 792.382C590.29 778.796 586.817 765.262 582.134 752.448C579.792 746.041 577.219 739.583 573.771 733.691C572.125 730.912 570.22 728.236 567.905 725.998C565.538 723.708 562.836 721.701 560.289 719.616C557.587 717.404 554.834 715.242 551.952 713.287C549.122 711.357 546.085 709.787 543.255 707.858C537.774 704.178 532.577 699.984 526.505 697.308C520.715 694.787 514.437 693.32 508.287 692.059C501.958 690.747 495.602 689.589 489.273 688.225C476.382 685.446 463.594 682.101 451.243 677.393C445.171 675.077 439.175 672.427 433.412 669.416C430.401 667.847 427.468 666.174 424.561 664.425C422.193 662.984 419.826 661.44 417.845 659.484C416.018 657.683 414.603 655.522 414.011 653C413.805 652.126 415.169 651.74 415.375 652.614C416.79 658.61 423.017 661.903 427.931 664.759C433.772 668.156 439.87 671.166 446.097 673.79C458.242 678.885 470.927 682.539 483.715 685.498C490.276 687.016 496.863 688.354 503.476 689.64C509.651 690.824 515.826 692.059 521.822 694.015C527.945 696.022 533.297 699.161 538.546 702.84C541.377 704.821 544.156 706.854 547.115 708.629C549.945 710.328 552.724 712 555.4 713.956C558.179 716.014 560.855 718.201 563.531 720.388C565.975 722.395 568.497 724.299 570.581 726.692C574.775 731.478 577.502 737.345 579.972 743.134C585.504 756.076 589.518 769.662 591.834 783.531C595.256 803.986 593.275 824.905 593.944 845.541C594.304 856.296 596.002 866.974 596.877 877.704C597.726 888.151 598.009 898.623 598.189 909.095C598.241 911.308 598.267 913.546 598.292 915.759H596.877L596.826 915.836Z" fill="#343A40"/>
<path d="M452.864 654.853C454.665 656.5 456.569 657.966 458.602 659.304C466.887 664.733 476.587 667.435 486.159 669.648C491.176 670.831 496.219 671.861 501.211 673.121C506.975 674.562 512.61 676.363 518.167 678.422C529 682.436 539.884 686.759 550.253 691.853C555.193 694.298 560.005 696.999 564.482 700.216C569.268 703.638 573.462 707.703 577.322 712.129C583.754 719.591 589.955 727.593 594.638 736.315C595.333 737.602 595.976 738.888 596.594 740.201C598.369 743.983 599.656 747.868 600.633 751.857C602.615 759.807 603.387 768.041 604.416 776.172C606.011 788.702 607.375 801.259 607.941 813.893C608.224 820.325 608.353 826.758 608.893 833.165C609.407 839.314 610.128 845.438 610.617 851.588C612.315 872.661 612.907 893.94 611.08 915.039C611.569 914.987 612.058 914.936 612.521 914.884C614.631 890.621 613.524 866.151 611.183 841.939C610.565 835.635 609.999 829.357 609.742 823.027C609.485 816.62 609.253 810.187 608.764 803.78C607.812 791.018 606.14 778.307 604.467 765.622C604.364 764.773 604.236 763.95 604.133 763.101C603.438 757.98 602.64 752.86 601.097 747.92C599.45 742.645 597.083 737.602 594.278 732.842C591.448 728.03 588.206 723.502 584.809 719.102C583.523 717.455 582.236 715.782 580.898 714.161C580.898 714.161 580.898 714.11 580.847 714.11C578.377 711.074 575.804 708.141 572.999 705.439C565.074 697.771 555.296 692.445 545.313 687.968C534.583 683.156 523.571 678.576 512.404 674.871C502.163 671.475 491.536 669.648 481.116 666.946C471.287 664.373 461.509 660.771 453.893 653.824C453.198 653.206 452.195 654.21 452.889 654.827L452.864 654.853Z" fill="#343A40"/>
<path d="M498.587 650.298C501.185 651.533 503.81 652.768 506.409 654.003C516.958 658.995 527.508 663.987 538.031 668.979C538.031 668.979 538.134 669.03 538.186 669.056C548.195 673.79 558.436 678.216 568.059 683.696C577.013 688.791 584.784 695.224 591.345 703.149C597.623 710.739 602.769 719.179 607.581 727.747C610.154 732.275 612.752 736.804 615.017 741.487C617.461 746.556 619.005 751.856 619.906 757.388C620.78 762.869 621.115 768.427 621.475 773.984C621.835 779.336 622.144 784.688 622.427 790.04C623.585 811.988 624.177 833.962 624.511 855.91C624.511 856.347 624.511 856.785 624.511 857.222C624.794 875.851 624.872 894.48 624.872 913.109C625.36 913.006 625.849 912.929 626.312 912.826C626.312 897.336 626.235 881.846 626.081 866.382C626.004 859.898 625.901 853.44 625.798 846.956C625.386 824.75 624.666 802.519 623.328 780.34C622.684 769.636 622.504 758.495 619.262 748.177C617.616 742.928 614.991 738.116 612.341 733.33C609.974 729.008 607.581 724.711 605.033 720.491C599.99 712.051 594.407 703.843 587.537 696.742C580.332 689.28 571.712 683.748 562.501 679.065C552.929 674.202 543.126 669.75 533.4 665.17C532.782 664.887 532.165 664.604 531.573 664.296C520.818 659.201 510.062 654.106 499.281 649.012C498.458 648.626 497.738 649.861 498.561 650.247L498.587 650.298Z" fill="#343A40"/>
<path d="M529.952 629.585C531.161 631.206 532.448 632.802 533.786 634.32C540.321 641.833 547.912 648.446 555.708 654.621C559.388 657.554 563.17 660.359 567.03 663.035C571.327 666.045 575.572 668.901 579.432 672.504C594.844 686.835 609.485 702.866 619.854 721.288C625.232 730.834 629.272 741.049 631.716 751.728C634.34 763.178 635.318 774.936 635.833 786.669C636.862 809.853 636.296 833.01 635.292 856.193C634.752 868.518 634.16 880.843 633.8 893.193C633.62 899.163 633.517 905.158 633.491 911.128C633.98 910.973 634.443 910.844 634.906 910.69C634.906 904.926 635.035 899.137 635.215 893.374C635.653 877.91 636.476 862.446 637.094 846.982C638.02 823.773 638.406 800.435 636.708 777.252C635.858 765.622 634.263 753.992 630.79 742.851C627.702 732.893 623.096 723.45 617.538 714.65C611.955 705.825 605.445 697.617 598.472 689.846C594.896 685.883 591.216 682.024 587.434 678.267C583.574 674.408 579.689 670.497 575.366 667.126C571.661 664.244 567.621 661.8 563.839 659.021C559.748 656.036 555.734 652.923 551.874 649.655C544.413 643.403 537.054 636.687 531.213 628.865C530.673 628.144 529.438 628.865 529.978 629.585H529.952Z" fill="#343A40"/>
<path d="M562.45 622.561C564.123 624.517 565.821 626.447 567.545 628.325C574.569 635.967 582.16 643.043 590.29 649.475C598.601 656.062 607.658 661.466 616.149 667.718C631.742 679.194 642.472 695.764 649.11 713.776C656.598 734.103 658.862 755.819 660.097 777.304C660.74 788.651 661.383 800.024 661.512 811.371C661.641 822.615 660.766 833.756 659.325 844.923C657.138 861.983 653.999 879.068 653.51 896.256C653.896 896.333 654.385 896.41 654.899 896.461C655.465 876.212 659.711 856.219 661.769 836.072C662.953 824.596 663.107 813.146 662.67 801.645C662.233 790.298 661.744 778.951 660.869 767.629C659.274 746.788 656.057 725.817 647.695 706.52C643.99 697.926 639.255 689.769 633.44 682.462C627.239 674.64 619.777 668.336 611.544 662.778C602.615 656.731 593.738 650.762 585.53 643.737C577.58 636.945 570.221 629.508 563.454 621.558C562.862 620.863 561.858 621.867 562.45 622.561Z" fill="#343A40"/>
<path d="M564.946 609.541C565.821 611.883 566.876 614.199 568.239 616.309C573.386 624.285 582.417 628.299 589.621 634.063C593.918 637.485 597.932 641.164 602.409 644.355C607.17 647.751 612.058 650.916 616.921 654.158C621.836 657.452 626.75 660.771 631.305 664.527C636.065 668.413 640.13 672.915 643.835 677.83C647.541 682.719 651.04 687.762 654.591 692.779C657.421 696.793 660.2 700.859 662.516 705.181C664.831 709.53 666.633 714.136 667.816 718.921C669 723.579 669.489 728.313 670.106 733.047C671.213 741.538 672.576 750.004 673.297 758.521C673.708 763.487 673.322 768.452 673.194 773.418C672.988 780.366 672.782 787.339 672.576 794.286C672.165 808 671.701 821.714 670.955 835.403C670.569 842.582 670.08 849.735 669.514 856.888C668.948 864.067 668.331 871.271 667.019 878.347C665.886 884.317 663.776 890.569 662.541 896.822C663.03 896.822 663.519 896.822 664.034 896.822C664.78 893.142 665.835 889.54 666.761 885.938C668.459 879.273 669.514 872.532 670.183 865.713C671.573 851.562 672.396 837.333 673.014 823.104C673.606 809.467 673.991 795.83 674.377 782.193C674.558 775.631 674.995 769.019 674.969 762.457C674.969 758.726 674.429 754.97 673.991 751.265C672.988 742.979 671.933 734.694 670.749 726.435C669.334 716.529 665.938 707.446 660.56 699.006C657.653 694.426 654.436 690.078 651.297 685.652C647.541 680.403 643.861 675.051 639.513 670.24C631.922 661.877 622.042 655.805 612.727 649.604C607.916 646.413 603.13 643.223 598.576 639.672C594.253 636.275 590.29 632.519 585.762 629.354C582.005 626.704 577.966 624.362 574.518 621.3C570.735 617.981 568.111 613.813 566.361 609.13C566.052 608.281 564.663 608.641 564.997 609.516L564.946 609.541Z" fill="#343A40"/>
<path d="M568.059 602.208C570.477 604.421 572.973 606.531 575.572 608.564C584.398 615.459 594.175 620.786 603.773 626.498C608.893 629.534 613.885 632.776 618.645 636.327C623.636 640.058 628.371 644.175 633.157 648.214C641.776 655.496 650.267 663.009 657.652 671.603C664.985 680.12 670.929 689.692 675.046 700.164C682.868 720.105 686.522 741.847 688.554 763.101C689.583 773.83 690.098 784.611 689.892 795.392C689.661 807.28 688.194 819.09 686.856 830.9C684.386 852.771 681.659 874.59 678.931 896.436C679.42 896.436 679.909 896.384 680.346 896.358C683.511 870.834 686.779 845.309 689.481 819.759C690.638 808.849 691.462 798.017 691.307 787.056C691.127 775.863 690.278 764.644 688.889 753.529C687.499 742.568 685.595 731.658 682.945 720.928C680.526 711.151 677.542 701.373 673.09 692.29C662.978 671.603 645.404 656.628 628.062 642.142C623.25 638.128 618.362 634.268 613.164 630.769C608.455 627.604 603.567 624.748 598.678 621.918C588.18 615.845 578.042 609.439 569.037 601.256C568.368 600.639 567.364 601.642 568.033 602.26L568.059 602.208Z" fill="#343A40"/>
<path d="M576.318 590.141C576.756 591.556 577.399 592.894 578.171 594.155C578.505 594.695 578.84 595.184 579.2 595.699C582.082 599.61 585.864 602.826 589.853 605.528C594.047 608.358 598.575 610.082 603.129 612.192C613.73 617.081 623.611 623.436 632.874 630.538C642.445 637.871 651.322 646.079 659.608 654.827C663.57 659.021 667.404 663.344 671.083 667.795C674.711 672.144 677.49 676.775 679.857 681.921C682.147 686.913 684.154 692.008 686.702 696.896C689.301 701.888 690.664 707.394 691.668 712.901C692.671 718.458 693.289 724.042 694.241 729.6C695.321 735.955 696.608 742.233 697.509 748.614C701.342 775.477 700.982 802.597 698.512 829.562C696.505 851.716 693.366 873.767 690.278 895.792C690.767 895.767 691.23 895.715 691.693 895.689C695.167 870.551 698.872 845.412 700.699 820.093C702.655 793.282 702.089 766.42 697.56 739.866C696.531 733.897 695.347 727.979 694.498 722.009C693.7 716.4 692.929 710.765 691.41 705.284C689.995 700.138 687.474 695.61 685.287 690.772C682.997 685.678 680.964 680.48 678.262 675.592C675.612 670.754 672.035 666.637 668.433 662.495C664.548 657.992 660.508 653.643 656.34 649.449C648.003 641.061 639.101 633.239 629.529 626.292C620.189 619.499 610.205 613.555 599.553 609.078C594.87 607.123 590.547 604.601 586.636 601.385C584.346 599.481 582.03 597.32 580.229 594.824C579.123 593.28 578.222 591.582 577.656 589.781C577.373 588.906 576.01 589.292 576.293 590.167L576.318 590.141Z" fill="#343A40"/>
<path d="M551.668 631.284C552.337 631.567 552.878 631.824 553.315 632.056C564.173 638 580.77 651.868 590.83 660.668C600.891 669.468 611.878 682.976 626.132 704.281C632.668 714.059 638.251 739.429 641.699 753.632C645.147 767.835 649.47 807.743 647.386 860.053C645.97 895.638 643.5 905.39 642.059 908.014C642.188 908.066 642.239 908.117 642.239 908.117C642.239 908.117 647.72 912.517 649.83 860.207C651.94 807.897 647.617 768.015 644.144 753.786C640.67 739.583 635.112 714.187 628.577 704.435C614.322 683.131 603.335 669.622 593.274 660.822C583.214 652.023 566.618 638.154 555.76 632.21C554.833 631.696 553.444 631.413 551.668 631.284Z" fill="#343A40"/>
<path d="M465.24 661.105C466.141 661.054 477.796 657.22 485.67 657.014C493.569 656.808 520.174 654.029 529.746 651.688C539.318 649.346 556.12 641.087 560.751 637.33C565.383 633.574 573.153 622.124 572.69 619.551C572.227 616.978 570.272 609.876 562.63 609.49C554.988 609.104 539.73 617.286 528.871 618.83C518.039 620.374 484.486 623.333 467.093 627.038C449.699 630.718 448.284 632.261 448.284 632.261L465.189 661.105H465.24Z" fill="#F4B484"/>
<path d="M413.548 376.012C413.959 373.311 413.136 366.672 414.165 364.176C415.195 361.681 416.455 358.361 418.308 356.071C420.186 353.781 422.682 351.08 424.535 349.433C426.413 347.76 434.724 345.496 437.631 345.496C440.539 345.496 444.913 345.29 444.913 345.29C444.913 345.29 445.325 371.87 440.771 380.387C436.216 388.903 423.943 398.449 423.943 398.449C423.943 398.449 416.249 389.521 415.838 387.643C415.426 385.764 413.136 378.714 413.548 376.012Z" fill="#343A40"/>
<path d="M290.994 487.888C297.838 473.994 305.326 454.053 313.431 446.205C321.536 438.357 336.485 425.672 352.078 420.217C367.645 414.788 386.968 409.951 395.691 408.124C404.413 406.323 421.859 404.496 421.859 404.496C448.026 400.868 476.073 405.705 489.169 409.333C502.266 412.961 503.501 415.972 515.337 425.054C527.173 434.112 533.4 442.654 542.766 454.747C552.106 466.841 557.098 480.04 560.829 498.772C564.559 517.504 567.055 536.236 568.934 548.329C570.812 560.422 567.055 577.945 567.055 577.945C567.055 577.945 556.454 600.304 541.505 603.932C526.556 607.56 463.002 619.654 463.002 619.654C463.002 619.654 463.002 622.664 464.237 629.92C465.472 637.176 471.724 662.546 471.724 662.546C461.767 664.965 438.069 667.384 428.729 669.185C419.389 670.986 379.506 671.603 370.141 670.986C360.8 670.394 325.91 661.311 316.544 651.045C307.204 640.778 292.872 607.535 290.994 592.431C289.115 577.327 286.002 550.13 286.002 536.853C286.002 523.576 284.124 501.808 290.994 487.914V487.888Z" fill="#F8F8F8"/>
<path d="M497.738 515.162C497.738 515.162 492.514 502.452 491.228 497.872C489.916 493.317 501.34 474.38 503.63 466.249C505.92 458.092 499.719 449.627 496.117 444.069C492.54 438.537 492.54 433.623 492.54 433.623C492.54 433.623 498.407 418.622 497.763 406.22C497.12 393.818 496.451 389.598 493.518 387.308C490.585 385.018 488.964 385.018 487.317 385.352C485.696 385.687 481.116 419.265 477.848 423.511C474.58 427.756 471.004 432.645 471.004 432.645C471.004 432.645 458.293 443.4 453.404 451.557C448.515 459.713 448.515 470.469 446.894 473.402C445.273 476.335 446.251 483.848 447.538 492.983C448.85 502.117 450.805 522.984 450.805 522.984C450.805 522.984 456.338 524.297 466.784 522.65C477.231 521.029 481.142 521.029 487.651 519.073C494.187 517.118 497.763 515.162 497.763 515.162H497.738Z" fill="#F4B484"/>
<path d="M468.122 437.431C465.214 439.155 461.844 439.952 458.447 440.03C462.101 440.081 465.806 439.283 468.92 437.431C475.79 433.391 481.373 425.286 484.178 415.612C486.982 405.963 487.909 393.483 487.6 383.217C487.471 379.126 486.442 375.678 485.284 373.002C486.03 375.884 486.674 379.383 486.802 383.217C487.111 393.509 486.185 405.963 483.38 415.612C480.575 425.26 474.966 433.366 468.122 437.431Z" fill="#343A40"/>
<path d="M421.705 383.551C425.744 382.316 433.232 382.934 433.232 382.934C433.232 382.934 436.036 373.594 440.076 368.293C444.116 362.993 463.131 349.922 482.454 365.18C482.454 365.18 486.494 372.976 486.828 383.243C487.137 393.535 486.211 405.988 483.406 415.637C480.602 425.286 474.992 433.391 468.148 437.457C461.304 441.522 451.629 440.57 446.02 436.53C440.411 432.491 436.062 428.734 431.997 418.776C427.957 408.819 427.314 401.64 427.314 401.64C427.314 401.64 417.665 402.257 416.404 395.722C415.143 389.186 417.639 384.812 421.705 383.577V383.551Z" fill="#F4B484"/>
<path d="M445.891 441.548C447.976 437.637 450.703 433.623 453.044 432.002C457.264 429.069 468.688 426.779 474.89 428.734C481.091 430.69 486.417 435.759 486.957 436.556C487.24 436.968 487.575 437.765 487.986 438.82C487.678 437.38 487.343 436.273 486.957 435.707C486.417 434.909 481.091 429.841 474.89 427.885C468.688 425.93 457.264 428.22 453.044 431.153C450.214 433.108 447.538 437.611 445.891 441.548Z" fill="#343A40"/>
<path d="M447.872 468.771C449.648 472.682 453.018 475.769 455.334 475.255C458.267 474.611 459.245 474.277 459.245 474.277C459.245 474.277 458.911 479.5 464.777 481.121C470.644 482.768 473.423 479.449 473.757 477.828C474.092 476.181 475.532 468.205 477.514 464.628C479.469 461.052 486.313 460.537 489.581 460.871C489.813 460.871 490.019 460.794 490.199 460.614C486.159 460.434 478.286 460.794 476.536 463.959C474.58 467.561 472.959 475.692 472.625 477.339C472.29 478.96 470.669 481.893 464.803 480.272C458.936 478.651 459.271 473.428 459.271 473.428C459.271 473.428 458.293 473.762 455.36 474.406C453.327 474.869 450.034 472.193 447.898 468.771H447.872Z" fill="#343A40"/>
<path d="M442.623 449.601C443.267 445.69 448.824 434.935 453.07 432.002C457.315 429.069 468.714 426.779 474.915 428.734C481.116 430.69 486.442 435.758 486.983 436.556C488.938 439.489 494.805 461.026 491.537 460.691C488.269 460.357 478.491 460.357 476.536 463.959C474.58 467.561 472.959 475.692 472.625 477.339C472.29 478.96 470.669 481.893 464.803 480.272C458.936 478.651 459.271 473.428 459.271 473.428C459.271 473.428 458.293 473.762 455.36 474.405C452.427 475.049 447.847 471.138 446.869 465.914C446.663 464.808 448.387 462.286 447.358 461.515C444.09 459.07 442.109 452.689 442.623 449.601Z" fill="#F4B484"/>
<path d="M507.078 641.962C516.263 640.547 523.494 640.264 526.967 637.15C530.441 634.037 530.081 630.203 528.82 627.09C527.765 624.414 526.864 623.41 526.633 623.179C527.096 623.616 530.209 626.704 530.544 629.2C530.904 631.901 530.544 635.581 527.688 637.974C524.832 640.392 518.502 641.087 515.131 641.807C511.786 642.528 501.34 643.66 497.866 644.509C494.393 645.358 481.965 647.494 481.965 646.207C481.965 646.207 497.866 643.377 507.078 641.962Z" fill="#343A40"/>
<path d="M526.658 623.202L526.609 623.153C526.609 623.153 526.609 623.153 526.658 623.202Z" fill="#343A40"/>
<path d="M460.326 405.062C460.84 405.062 463.156 408.072 466.321 410.234C469.486 412.395 472.316 413.913 474.812 413.064C477.308 412.241 479.984 409.745 478.311 405.396C476.639 401.074 469.486 395.053 469.486 395.053C469.357 395.104 469.228 395.156 469.1 395.207C470.206 396.185 475.764 401.074 477.153 404.727C478.697 408.767 476.227 411.109 473.886 411.906C471.544 412.678 468.894 411.289 465.935 409.256C463.182 407.378 461.098 404.805 460.454 404.47C460.3 404.856 460.249 405.088 460.326 405.088V405.062Z" fill="#343A40"/>
<path d="M468.893 395.079C468.893 395.079 475.583 400.688 477.153 404.727C478.722 408.767 476.227 411.109 473.885 411.906C471.544 412.678 468.893 411.289 465.934 409.256C462.975 407.223 460.788 404.419 460.325 404.419C459.862 404.419 463.593 396.931 468.893 395.079Z" fill="#F4B484"/>
<path d="M479.263 398.115C479.34 397.78 479.469 397.497 479.598 397.188C479.752 396.802 480.035 396.519 480.37 396.288C480.524 396.185 480.704 396.108 480.884 396.056C481.27 395.953 481.708 396.005 482.042 396.211C482.48 396.468 482.763 396.905 482.865 397.394C482.917 397.78 482.943 398.14 482.917 398.526C482.917 399.015 482.943 399.504 482.788 399.967C482.685 400.302 482.505 400.636 482.248 400.868C482.068 401.022 481.862 401.151 481.63 401.228C480.936 401.794 479.726 401.434 479.521 400.533C479.392 400.327 479.289 400.122 479.212 399.864C479.032 399.298 479.109 398.681 479.263 398.115Z" fill="#343A40"/>
<path d="M451.063 395.027C451.14 394.641 451.346 394.23 451.629 393.972C451.809 393.586 452.092 393.252 452.452 393.046C453.121 392.634 454.048 392.763 454.588 393.329C454.922 393.689 455.103 394.127 455.257 394.59C455.386 394.976 455.463 395.387 455.463 395.773C455.463 396.031 455.437 396.288 455.36 396.52C455.334 396.622 455.283 396.725 455.231 396.828C455.18 396.931 455.154 397.034 455.077 397.137C454.974 397.317 454.845 397.472 454.691 397.626C454.536 397.78 454.356 397.909 454.176 398.012C453.816 398.192 453.404 398.346 452.993 398.295C452.658 398.269 452.375 398.218 452.092 398.038C451.783 397.857 451.577 397.626 451.372 397.343C451.114 396.957 451.037 396.494 451.011 396.056C450.986 395.722 451.011 395.362 451.089 395.027H451.063Z" fill="#343A40"/>
<path d="M474.477 385.713C474.477 385.713 479.006 383.526 482.274 384.143C485.542 384.761 487.626 387.257 486.519 387.874C485.413 388.492 483.921 385.841 481.579 385.533C479.263 385.224 475.815 388.028 474.735 387.257C473.628 386.485 474.452 385.687 474.452 385.687L474.477 385.713Z" fill="#343A40"/>
<path d="M453.327 382.445C458.164 382.754 460.248 384.015 461.432 385.867C461.612 386.176 461.586 386.33 460.506 386.948C459.425 387.565 456.62 384.298 453.507 383.989C450.394 383.68 446.663 386.33 445.248 385.713C443.832 385.095 448.515 382.136 453.353 382.445H453.327Z" fill="#343A40"/>
<path d="M454.099 410.8C454.099 410.8 456.749 408.767 458.628 410.337C460.506 411.906 460.506 413.605 463.002 414.377C465.498 415.148 467.376 413.913 468.457 414.84C469.537 415.766 469.846 417.49 467.685 418.107C465.523 418.725 462.693 420.14 458.344 417.336C453.97 414.531 453.662 412.035 454.15 410.8H454.099Z" fill="#343A40"/>
<path d="M421.55 387.591C424.2 386.356 430.272 386.819 430.735 387.128C430.735 387.128 431.199 388.054 429.963 387.591C428.728 387.128 422.965 387.9 421.395 388.826C419.826 389.752 419.054 393.2 419.826 394.435C420.598 395.67 422.785 397.24 424.972 397.703C427.159 398.166 430.427 397.086 430.427 397.858C430.427 398.629 426.696 398.938 424.817 398.629C422.939 398.321 419.671 396.751 419.054 394.435C418.436 392.12 418.899 388.826 421.55 387.591Z" fill="#343A40"/>
<path d="M440.745 532.427C441.98 526.201 442.829 521.621 444.888 520.386C446.972 519.151 451.114 519.974 451.114 519.974L450.754 523.01C450.754 523.01 445.711 522.058 444.888 523.705C444.064 525.352 441.568 539.915 441.568 553.604C441.568 567.292 444.476 586.847 444.476 586.847L441.568 587.671C441.568 587.671 439.484 571.049 439.072 562.326C438.661 553.604 439.484 538.654 440.745 532.427Z" fill="#343A40"/>
<path d="M508.055 513.722C510.14 514.957 524.266 546.965 526.761 553.604C529.257 560.242 538.392 588.494 538.392 588.494L536.719 590.167C536.719 590.167 528.408 564.822 525.089 556.923C521.77 549.024 508.467 517.864 506.383 516.218C504.299 514.545 497.737 515.163 497.737 515.163L496.837 513.31C496.837 513.31 505.971 512.487 508.055 513.722Z" fill="#343A40"/>
<path d="M447.357 461.515C447.357 461.515 451.911 449.601 456.491 444.558C461.046 439.515 467.247 436.402 470.849 435.759C474.426 435.115 480.318 437.868 480.318 437.868C480.318 437.868 473.551 435.501 470.849 436.402C462.538 439.181 462.023 441.316 457.649 445.382C453.249 449.447 447.383 461.515 447.383 461.515H447.357Z" fill="#343A40"/>
<path d="M463.001 455.982C465.111 451.582 469.691 448.958 475.223 448.16C480.755 447.363 483.226 449.138 483.226 449.138C483.226 449.138 482.402 448.804 478.337 448.984C474.271 449.164 467.736 450.605 464.648 456.008C461.561 461.412 459.271 473.453 459.271 473.453C458.936 471.009 460.892 460.408 463.027 456.008L463.001 455.982Z" fill="#343A40"/>
<path d="M360.775 608.95L610.025 588.7L624.666 595.544C624.666 595.544 626.544 598.04 625.901 598.966C625.284 599.893 618.414 596.162 610.952 596.779C603.464 597.397 587.897 598.966 579.175 604.267C570.452 609.567 562.965 615.485 560.803 618.29C558.616 621.094 559.234 623.59 558.616 625.777C557.999 627.965 555.194 630.769 552.081 630.769C548.967 630.769 544.593 627.347 543.049 626.729C541.48 626.112 528.409 626.112 521.539 626.112C514.669 626.112 500.98 626.112 492.875 626.729C484.77 627.347 475.738 627.656 463.594 632.339C451.449 637.022 436.5 645.744 434.93 646.979C433.36 648.214 422.168 643.248 417.176 640.753C412.184 638.257 398.47 632.647 389.13 629.225C379.79 625.803 350.483 612.706 350.817 611.471C351.126 610.236 360.775 608.975 360.775 608.975V608.95Z" fill="#33A04D"/>
<path d="M362.344 610.828C362.344 610.828 371.067 596.805 372.636 594.001C374.206 591.196 377.011 588.7 377.011 588.7C377.011 588.7 403.796 582.782 415.014 581.213C426.233 579.643 461.741 575.295 472.033 574.677C482.325 574.059 498.201 576.555 508.184 580.595C518.142 584.635 528.434 590.887 528.434 590.887C528.434 590.887 538.726 579.977 546.806 574.986C554.911 569.994 567.055 566.263 572.356 565.954C577.656 565.646 587.614 567.833 587.614 567.833C587.614 567.833 601.02 575.629 607.555 579.669C614.091 583.708 618.773 586.204 619.082 587.465C619.391 588.7 620.009 595.57 620.009 595.57C620.009 595.57 614.708 593.383 607.555 593.383C600.402 593.383 591.036 594.953 585.736 598.066C580.435 601.179 567.673 608.358 562.681 613.015C557.689 617.698 549.919 622.973 549.919 622.973C549.919 622.973 531.213 620.786 522.49 621.095C513.768 621.403 499.127 619.525 488.835 621.095C472.162 623.616 464.52 627.63 458.936 630.435C453.327 633.239 439.613 641.036 437.426 641.653C435.238 642.271 434.003 643.84 434.003 643.84C434.003 643.84 421.55 637.922 412.493 634.5C403.461 631.078 378.22 618.599 373.846 617.364C369.472 616.129 362.01 612.681 362.01 612.681L362.318 610.803L362.344 610.828Z" fill="#F8F8F8"/>
<path d="M434.312 384.323C434.312 384.323 435.548 383.294 437.22 380.592C438.892 377.891 440.333 375.806 440.951 374.366C441.568 372.899 442.829 371.664 442.829 371.664C442.829 371.664 445.119 372.487 448.85 373.748C452.581 374.983 455.489 376.45 457.984 376.861C460.48 377.273 463.799 378.328 466.913 378.328C470.026 378.328 474.195 379.357 476.871 378.328C479.572 377.299 483.921 378.122 486.417 377.299C488.912 376.475 492.026 375.215 493.904 373.568C495.782 371.895 495.782 366.08 494.522 363.173C493.287 360.265 490.147 355.891 486.417 353.833C482.686 351.749 478.723 350.102 474.169 349.047C469.615 347.992 462.127 346.757 459.219 346.139C456.312 345.522 449.262 345.522 444.888 345.316C440.513 345.11 433.463 347.194 429.527 349.69C425.59 352.186 423.094 355.505 422.476 361.938C421.859 368.37 423.506 373.774 424.972 377.093C426.439 380.412 434.312 384.375 434.312 384.375V384.323Z" fill="#343A40"/>
<path d="M364.737 495.865C364.737 495.865 367.233 515.548 368.056 524.091C368.88 532.633 370.964 546.013 370.964 550.465C370.964 554.916 372.636 568.296 373.048 570.895C373.46 573.493 376.367 583.142 376.367 583.142L374.283 583.502C374.283 583.502 372.199 577.198 370.964 569.762C369.729 562.326 368.468 549.332 367.645 543.389C366.821 537.445 366.821 528.156 365.561 522.599C364.326 517.015 362.241 496.225 364.737 495.865Z" fill="#343A40"/>
<path d="M329.409 592.251C334.813 590.167 349.762 585.201 360.569 583.94C371.376 582.705 376.367 583.142 376.367 583.142C376.367 583.142 379.275 584.763 378.04 585.998C376.805 587.233 363.09 585.175 353.519 588.082C343.973 590.99 339.393 590.99 332.342 594.309C325.292 597.628 322.797 597.217 322.797 597.217C322.797 597.217 324.032 594.309 329.435 592.225L329.409 592.251Z" fill="#343A40"/>
<path d="M405.854 410.285C405.854 410.285 409.174 423.176 414.989 433.134C420.804 443.117 427.442 447.26 431.199 449.756C434.93 452.252 441.594 453.487 441.594 453.487L442.006 455.571C442.006 455.571 430.375 453.487 425.795 449.756C421.215 446.025 414.989 438.537 412.081 431.899C409.174 425.26 402.535 412.781 405.854 410.285Z" fill="#343A40"/>
<path d="M614.811 925.151C621.038 920.159 632.668 918.101 632.668 918.101L637.66 920.185C637.66 920.185 632.668 921.008 625.618 923.916C618.568 926.823 613.576 931.815 611.08 933.05C608.584 934.285 608.584 930.143 614.811 925.151Z" fill="#F8F8F8"/>
<path d="M630.198 934.697C636.836 930.117 646.408 926.386 646.408 926.386L652.223 927.621C652.223 927.621 647.643 930.528 641.004 934.259C634.366 937.99 629.374 941.309 624.383 942.158C619.391 942.982 623.559 939.251 630.198 934.671V934.697Z" fill="#F8F8F8"/>
<path d="M651.785 942.159C656.365 937.579 668.407 932.201 668.407 932.201L675.895 933.436C675.895 933.436 669.256 936.344 665.937 938.428C662.618 940.512 653.895 947.974 651.811 949.235C649.727 950.47 647.231 946.739 651.811 942.184L651.785 942.159Z" fill="#F8F8F8"/>
<path d="M676.77 914.524C683.203 911.822 696.994 907.268 696.994 907.268C701.986 907.139 701.857 910.51 701.857 910.51C701.857 910.51 699.773 910.381 696.943 911.539C694.112 912.697 680.861 918.435 678.031 919.593C675.201 920.751 670.312 917.2 676.744 914.498L676.77 914.524Z" fill="#F8F8F8"/>
<path d="M694.575 920.983C698.718 918.487 710.374 912.672 710.374 912.672C712.87 912.672 714.954 911.437 716.601 913.495C718.273 915.579 710.786 916.814 705.794 919.722C700.802 922.629 694.987 926.36 692.08 925.948C689.172 925.537 690.407 923.453 694.575 920.957V920.983Z" fill="#F8F8F8"/>
<path d="M713.693 924.302C719.097 920.982 728.643 916.814 728.643 916.814C732.785 917.638 734.869 918.049 734.869 918.049C734.869 918.049 733.634 918.461 731.962 919.284C730.289 920.108 722.828 923.864 718.248 926.772C713.668 929.679 710.348 932.587 707.852 930.914C705.357 929.242 708.264 927.595 713.668 924.276L713.693 924.302Z" fill="#F8F8F8"/>
<path d="M291.406 703.38C290.917 705.259 290.917 718.33 288.91 743.88C286.903 769.43 282.915 826.14 280.908 845.464C278.901 864.787 277.408 898.443 275.916 908.4C274.424 918.358 272.906 937.064 272.906 937.064C272.906 937.064 277.408 938.299 279.904 938.299C282.4 938.299 289.399 893.425 294.905 864.762C300.411 836.098 302.393 826.758 305.892 810.548C309.391 794.338 316.879 755.716 319.889 746.376C322.9 737.036 325.884 715.834 325.884 715.834L291.406 703.38Z" fill="#343A40"/>
<path d="M124.544 950.135C125.11 952.013 145.488 962.82 156.218 968.841C166.947 974.862 183.569 982.633 186.22 983.199C188.87 983.765 233.229 975.068 250.648 972.726C268.094 970.385 317.728 962.203 320.815 957.7C323.903 953.197 326.296 941.799 322.436 934.98C318.577 928.161 258.805 910.15 255.074 908.992L125.496 921.755L127.143 924.868L127.065 945.658C127.065 945.658 126.679 945.967 126.216 946.456C125.341 947.356 124.132 948.9 124.518 950.135H124.544Z" fill="#FF9518"/>
<path d="M127.657 946.43C146.466 957.211 183.698 978.233 185.602 976.303C188.123 973.73 186.76 958.652 186.168 954.87C185.576 951.113 171.99 946.404 163.628 942.236C155.24 938.042 128.557 924.868 128.557 924.868L128.506 945.658C128.506 945.658 128.146 945.967 127.683 946.456L127.657 946.43Z" fill="#F8F8F8"/>
<path d="M140.857 919.491C141.449 921.986 163.937 933.385 173.071 938.197C182.206 943.008 202.095 956.362 206.341 956.877C210.586 957.391 280.779 943.626 294.519 941.387C308.259 939.149 334.684 935.958 336.742 933.385C338.801 930.812 338.518 917.586 336.279 911.977C334.041 906.368 310.523 898.134 298.816 895.304C287.083 892.448 265.135 881.667 258.754 881.204C252.372 880.741 145.051 892.937 145.051 892.937L144.639 897.98L143.43 915.631C143.43 915.631 143.173 915.76 142.812 915.965C141.938 916.506 140.471 917.715 140.883 919.491H140.857Z" fill="#FFE600"/>
<path d="M144.562 915.425C150.171 919.439 156.398 923.839 159.228 925.691C164.94 929.422 205.98 953.583 206.984 951.679C207.987 949.775 208.373 936.55 208.348 933.411C208.322 930.271 186.528 919.13 178.217 914.164C169.906 909.198 146.543 897.465 146.543 897.465L145.18 915.09C145.18 915.09 144.922 915.193 144.562 915.425Z" fill="#F8F8F8"/>
<path d="M118.574 894.249C119.14 895.818 141.114 907.835 145.952 910.562C150.763 913.264 166.587 921.369 169.778 922.218C172.994 923.093 195.071 921.42 209.712 918.693C224.378 915.965 249.311 911.54 261.996 909.327C274.655 907.114 312.736 902.354 315.515 902.766C318.294 903.152 322.076 893.606 317.934 886.633C317.934 886.633 290.299 876.932 281.088 873.407C271.876 869.856 247.458 862.935 245.065 862.034C242.646 861.134 123.489 878.064 123.489 878.064C123.489 878.064 121.662 879.557 121.816 880.998C121.816 881.204 121.894 881.384 121.996 881.564C122.82 883.108 121.173 891.959 121.173 891.959C121.173 891.959 120.813 892.036 120.35 892.19C119.475 892.525 118.214 893.194 118.6 894.223L118.574 894.249Z" fill="#33A04D"/>
<path d="M121.868 893.271C128.301 897.079 136.097 901.582 138.284 902.482C142.221 904.103 170.267 918.281 172.171 917.663C174.049 917.072 174.615 905.673 171.862 904.438C169.109 903.203 145.411 891.573 138.721 888.742C133.91 886.684 126.654 883.571 122.949 882.001C122.949 882.207 123.026 882.387 123.129 882.567C123.978 884.085 122.64 893.014 122.64 893.014C122.64 893.014 122.28 893.117 121.842 893.297L121.868 893.271Z" fill="#F8F8F8"/>
<path d="M139.261 877.009C139.261 877.009 157.813 889.283 165.867 893.348C173.894 897.388 187.197 905.544 191.16 905.467C195.122 905.364 247.072 898.854 268.093 896.41C289.115 893.966 341.039 887.456 343.381 884.548C345.696 881.667 352.129 866.846 345.594 858.972C339.058 851.099 312.633 842.325 302.186 836.947L291.74 831.544C291.74 831.544 187.403 841.759 179.478 842.917C171.553 844.074 140.677 850.044 140.677 850.044C140.677 850.044 139.184 853.878 140.393 854.778C141.603 855.705 142.812 856.142 142.812 856.142C142.812 856.142 141.989 872.712 141.603 873.639C141.526 873.819 141.423 874.025 141.268 874.256C140.599 875.363 139.287 876.984 139.287 876.984L139.261 877.009Z" fill="#FF9518"/>
<path d="M143.147 874.436C156.81 882.516 188.201 900.887 189.642 900.115C191.52 899.112 190.645 894.866 190.851 889.206C191.083 883.519 185.937 877.55 179.736 874.462C173.535 871.374 144.459 856.296 144.459 856.296C144.459 856.296 143.765 872.867 143.43 873.819C143.353 873.999 143.25 874.205 143.121 874.436H143.147Z" fill="#F8F8F8"/>
<path d="M131.131 850.919C131.182 852.797 138.798 855.936 144.819 858.587C150.84 861.262 182.54 874.153 186.168 876.418C189.796 878.682 194.582 879.505 195.765 879.016C196.949 878.528 272.133 862.884 282.837 860.722C293.515 858.561 325.189 852.54 326.733 849.684C328.251 846.802 333.14 833.448 327.814 826.038C327.814 826.038 313.739 819.296 306.175 817.624C298.584 815.926 265.392 806.868 265.392 806.868C265.392 806.868 189.024 822.512 180.301 824.159C171.604 825.806 140.368 834.168 140.368 834.168C140.368 834.168 135.608 833.834 135.633 835.712C135.685 837.591 136.122 839.469 136.122 839.469L134.733 848.011C134.733 848.011 134.141 848.191 133.446 848.5C132.417 848.989 131.182 849.812 131.208 850.919H131.131Z" fill="#FFE600"/>
<path d="M135.505 848.192C141.191 850.816 148.113 854.032 151.458 855.499C157.633 858.226 190.902 875.131 192.832 875.106C194.736 875.08 194.968 864.222 193.038 863.295C191.108 862.369 174.846 854.161 166.355 850.996C157.864 847.831 138.155 839.186 138.155 839.186L136.765 847.703C136.765 847.703 136.199 847.883 135.53 848.192H135.505Z" fill="#F8F8F8"/>
<path d="M123.438 813.97C124.261 815.848 126.654 816.26 126.654 816.26V833.731C126.654 833.731 126.294 833.911 125.882 834.22C125.136 834.76 124.184 835.686 124.724 836.587C125.548 837.976 151.535 844.409 158.714 846.107C165.919 847.805 207.936 861.365 212.285 859.384C216.633 857.377 283.79 838.182 296.809 834.554C309.854 830.926 319.375 829.717 319.658 825.471C319.967 821.226 318.783 803.781 316.75 801.465C314.718 799.149 272.417 792.202 264.415 790.041C256.412 787.879 234.104 785.152 234.104 785.152C234.104 785.152 168.466 801.002 162.908 802.082C157.376 803.163 144.331 806.817 144.331 806.817C144.331 806.817 122.589 812.092 123.438 813.97Z" fill="#FFE600"/>
<path d="M128.635 834.168C144.099 838.491 177.652 847.754 182.386 848.371C188.561 849.143 209.866 855.216 210.973 852.823C212.053 850.43 210.69 839.597 210.201 835.841C209.737 832.084 200.861 830.411 196.615 830.051C192.369 829.691 162.213 822.898 154.108 821.226C146.003 819.553 129.381 816.208 129.381 816.208V833.679C129.381 833.679 129.047 833.859 128.661 834.168H128.635Z" fill="#F8F8F8"/>
<path d="M142.736 811.731C144.382 814.227 161.364 815.051 167.745 816.775C174.152 818.498 203.434 824.056 209.274 825.163C215.141 826.269 259.989 816.929 278.438 812.066C296.886 807.177 321.716 804.038 322.694 800.23C323.672 796.422 324.881 778.745 320.584 776.352C316.287 773.933 276.431 769.302 265.778 767.038C255.126 764.799 242.364 762.612 239.713 763.307C237.089 764.001 160.953 773.496 160.953 773.496C160.953 773.496 139.828 777.201 140.42 780.315C141.012 783.428 144.768 784.612 144.768 784.612C144.768 784.612 148.396 805.299 146.312 806.611C146.003 806.817 145.643 807.023 145.309 807.229C143.379 808.361 141.346 809.647 142.71 811.731H142.736Z" fill="#33A04D"/>
<path d="M149.451 806.534C149.142 806.74 148.807 806.92 148.473 807.151C152.281 807.923 156.295 808.747 159.1 809.441C166.227 811.14 207.396 822.049 211.409 820.686C215.423 819.322 213.983 799.844 210.895 796.782C207.781 793.72 194.144 794.055 185.01 791.765C175.876 789.475 147.958 784.534 147.958 784.534C147.958 784.534 151.432 805.222 149.451 806.534Z" fill="#F8F8F8"/>
<path d="M141.191 764.851L141.525 780.598C141.525 780.598 141.319 780.701 141.036 780.881C139.776 781.627 136.688 783.737 138.463 785.718C140.65 788.188 164.014 790.735 173.585 792.382C183.183 794.029 196.46 796.19 199.11 795.496C201.734 794.801 259.808 783.865 270.357 781.704C280.907 779.543 308.927 776.326 309.931 773.753C310.934 771.206 313.79 756.668 306.251 751.188C298.712 745.707 290.17 743.417 281.679 742.362C273.188 741.333 251.96 740.613 245.039 739.532C238.117 738.451 177.419 750.081 167.384 751.599C157.35 753.118 147.881 756.514 147.881 756.514C147.881 756.514 136.251 757.44 136.842 760.579C137.434 763.718 141.191 764.876 141.191 764.876V764.851Z" fill="#F4B484"/>
<path d="M143.636 780.804C151.767 782.579 160.592 784.56 164.503 785.667C172.66 787.982 196.615 793.026 199.625 791.713C202.636 790.375 201.915 780.958 200.294 775.941C198.673 770.949 183.955 770.692 177.317 768.968C170.678 767.244 143.764 764.774 143.764 764.774L144.099 780.521C144.099 780.521 143.919 780.624 143.636 780.804Z" fill="#F8F8F8"/>
<path d="M131.491 766.008C135.145 768.041 154.649 773.753 165.224 775.374C175.799 776.995 201.658 781.678 206.984 781.241C212.285 780.803 248.101 766.909 261.996 761.094C275.916 755.279 300.926 749.824 301.003 746.685C301.08 743.546 301.569 718.999 296.861 716.323C292.152 713.647 266.782 710.225 258.831 709.968C250.88 709.71 223.375 706.854 220.21 706.108C217.045 705.362 177.06 715.937 173.329 717.069C169.598 718.201 150.403 723.219 150.403 723.219C150.403 723.219 131.208 728.236 131.157 731.375C131.08 734.514 134.244 735.261 134.244 735.261L133.704 761.068C133.704 761.068 127.812 764.001 131.491 766.034V766.008Z" fill="#FFE600"/>
<path d="M136.585 735.286L136.045 760.94C144.562 763.358 154.468 766.086 158.482 766.909C166.15 768.453 200.345 775.94 202.918 775.4C205.492 774.86 203.999 772.93 204.076 768.504C204.179 764.104 203.459 748.975 200.937 746.994C198.416 745.012 174.872 742.928 164.657 740.69C154.442 738.451 136.56 735.286 136.56 735.286H136.585Z" fill="#F8F8F8"/>
<path d="M143.79 726.049C145.462 729.78 159.357 735.106 168.44 738.014C177.523 740.921 188.741 745.064 193.501 744.935C198.261 744.807 239.456 737.448 252.655 735.235C265.855 733.022 311.861 728.056 312.865 724.866C313.842 721.701 316.595 701.477 309.082 696.614C301.569 691.751 273.317 684.932 266.91 683.208C260.503 681.484 250.417 680.481 250.417 680.481C250.417 680.481 196.537 688.792 186.503 690.927C176.493 693.063 148.499 698.826 148.499 698.826C148.499 698.826 142.169 700.242 143.816 702.712C145.463 705.182 147.083 706.417 147.083 706.417L146.903 722.781C146.903 722.781 146.8 722.781 146.646 722.781C145.668 722.756 142.375 722.833 143.79 726.049Z" fill="#33A04D"/>
<path d="M149.528 722.73C164.272 729.24 189.77 741.076 191.906 740.561C194.891 739.866 193.604 727.284 192.009 721.675C190.388 716.066 181.408 715.036 175.413 713.287C169.418 711.563 149.914 706.391 149.914 706.391L149.785 722.756C149.785 722.756 149.708 722.756 149.554 722.756L149.528 722.73Z" fill="#F8F8F8"/>
<path d="M129.304 687.788L130.05 699.032C130.05 699.032 127.066 699.11 127.606 701.451C128.146 703.818 148.731 709.222 154.777 711.434C160.824 713.647 185.988 723.682 189.951 722.987C193.939 722.293 247.536 709.067 260.967 707.523C274.398 706.005 318.14 697.772 320.558 694.144C322.977 690.541 323.157 676.287 319.606 673.431C316.056 670.549 309.057 669.545 293.053 667.59C277.048 665.634 256.001 661.414 253.531 662.083C251.035 662.752 190.363 671.398 174.95 673.585C159.538 675.772 129.716 681.278 129.716 681.278C129.716 681.278 125.316 685.55 127.323 686.682L129.356 687.814L129.304 687.788Z" fill="#FF9518"/>
<path d="M132.958 688.586L133.91 699.804C136.663 700.731 139.776 701.785 142.89 702.84C151.87 705.902 185.062 718.227 187.789 716.889C190.517 715.551 189.719 707.884 189.102 704.359C188.484 700.833 172.583 699.367 163.088 695.765C153.594 692.137 132.932 688.586 132.932 688.586H132.958Z" fill="#F8F8F8"/>
<path d="M112.476 688.766C112.554 691.777 130.333 693.14 142.041 695.842C153.774 698.569 170.576 701.734 175.156 701.631C179.71 701.503 250.957 688.251 269.612 684.135C288.292 680.043 308.053 679.529 310.523 675.875C312.968 672.196 313.122 655.317 309.494 652.383C305.866 649.476 266.73 645.642 257.055 643.481C247.381 641.319 227.594 641.216 224.532 640.702C221.47 640.187 136.097 655.625 128.532 657.607C120.967 659.614 114.946 662.778 114.946 662.778C114.946 662.778 112.451 664.657 114.02 666.406C115.59 668.182 116.67 671.758 116.259 676.596C115.898 681.073 115.512 685.524 115.461 686.167C115.461 686.219 115.461 686.245 115.461 686.245C115.461 686.245 112.399 685.73 112.476 688.74V688.766Z" fill="#F4B484"/>
<path d="M118.729 676.544C118.368 681.021 118.034 685.472 117.982 686.116C120.633 686.707 123.386 687.299 125.804 687.814C133.626 689.409 172.299 698.698 175.67 696.794C179.041 694.89 177.754 681.073 176.699 677.47C175.644 673.894 160.026 672.479 150.248 670.935C140.471 669.365 116.541 666.355 116.541 666.355C118.034 668.13 119.089 671.707 118.703 676.544H118.729Z" fill="#F8F8F8"/>
<path d="M121.405 636.25C124.081 638.077 125.728 639.286 125.728 639.286L126.474 649.347C126.474 649.347 126.062 649.578 125.522 649.939C124.261 650.788 122.408 652.357 123.901 653.181C126.062 654.39 146.389 663.318 153.851 665.634C161.313 667.95 178.475 676.981 182.18 676.878C185.885 676.775 235.468 665.428 252.347 661.852C269.226 658.275 314.074 648.317 316.699 646.979C319.323 645.642 321.15 633.008 318.371 626.164C315.567 619.294 313.971 619.345 313.971 619.345C313.971 619.345 282.529 611.317 272.957 609.696C263.385 608.049 255.923 606.969 255.923 606.969C255.923 606.969 180.456 621.506 170.396 623.024C160.361 624.543 128.198 632.931 128.198 632.931C128.198 632.931 118.703 634.423 121.379 636.25H121.405Z" fill="#33A04D"/>
<path d="M126.911 650.607C130.102 652.408 133.395 654.029 135.763 654.621C142.015 656.191 179.89 672.581 182.978 672.427C186.091 672.272 185.757 664.09 183.544 660.436C181.331 656.757 170.319 652.897 160.901 650.221C151.484 647.52 126.886 639.929 126.886 639.929L127.786 649.964C127.786 649.964 127.375 650.196 126.86 650.582L126.911 650.607Z" fill="#F8F8F8"/>
<path d="M116.362 633.549C117.905 636.456 128.378 638.54 135.376 641.319C142.375 644.072 169.366 652.821 172.866 654.493C176.391 656.191 181.254 653.104 186.194 651.791C191.134 650.479 233.589 641.731 248.873 637.82C264.157 633.883 297.246 627.734 297.684 624.8C298.121 621.841 297.787 607.123 294.262 604.242C290.711 601.386 263.334 595.596 257.338 594.567C251.369 593.538 242.878 590.81 242.878 590.81C242.878 590.81 173.689 602.003 164.812 604.576C155.935 607.149 122.331 612.733 122.331 612.733C122.331 612.733 117.417 615.203 118.935 616.927L120.478 618.651L119.243 630.487C119.243 630.487 118.6 630.487 117.88 630.692C116.722 630.976 115.358 631.722 116.336 633.523L116.362 633.549Z" fill="#FFE600"/>
<path d="M121.662 631.773C127.271 633.6 133.601 635.529 136.637 635.915C142.735 636.687 173.637 649.99 176.828 648.601C180.018 647.211 179.632 639.569 176.236 636.842C172.839 634.114 155.832 628.762 149.219 626.833C142.606 624.903 123.746 619.68 123.746 619.68L122.948 631.541C122.948 631.541 122.356 631.593 121.687 631.799L121.662 631.773Z" fill="#F8F8F8"/>
<path d="M134.501 616.695C136.663 619.165 156.835 619.885 165.893 622.175C174.95 624.465 200.474 628.222 203.124 628.145C205.775 628.068 257.904 611.626 268.428 608.847C278.978 606.068 301.08 599.198 301.029 596.677C300.977 594.155 301.646 575.886 297.323 572.85C293.001 569.814 272.288 567.19 264.852 566.109C257.416 565.054 237.166 561.143 234.001 561.22C230.836 561.297 187.558 570.586 181.254 572.644C174.924 574.703 152.796 580.312 152.796 580.312C152.796 580.312 132.237 585.252 132.855 589.009C133.472 592.766 137.177 593.306 137.177 593.306L137.049 611.574C137.049 611.574 136.791 611.729 136.431 611.96C135.222 612.758 132.829 614.765 134.501 616.669V616.695Z" fill="#FFE600"/>
<path d="M139.159 611.909C143.276 612.552 147.264 613.195 149.966 613.761C158.122 615.46 197.387 623.256 200.397 621.918C203.408 620.58 199.497 603.675 198.442 601.823C197.387 599.97 182.103 597.217 170.396 596.239C158.714 595.287 139.879 593.229 139.879 593.229L139.776 611.497C139.776 611.497 139.519 611.652 139.185 611.883L139.159 611.909Z" fill="#F8F8F8"/>
<path d="M122.743 563.15L122.975 573.854C122.975 573.854 122.537 574.034 121.945 574.342C120.273 575.192 117.237 576.993 118.832 578.356C120.993 580.183 140.188 585.381 146.621 588.366C153.028 591.35 171.785 599.687 173.895 599.635C176.005 599.584 210.792 590.527 222.937 587.671C235.056 584.841 265.109 577.147 274.578 574.394C284.047 571.641 294.133 571.384 296.166 567.55C298.199 563.716 299.022 552.986 296.295 549.281C293.567 545.576 280.29 544.006 274.424 542.9C268.557 541.794 239.894 538.732 236.188 538.835C232.483 538.937 172.274 548.664 166.974 549.435C161.699 550.207 135.274 554.041 135.274 554.041C135.274 554.041 117.829 555.739 117.365 558.904C116.902 562.069 122.769 563.176 122.769 563.176L122.743 563.15Z" fill="#33A04D"/>
<path d="M124.57 574.291C131.852 576.375 139.802 578.82 142.813 580.286C148.937 583.297 172.351 594.644 174.333 593.358C176.314 592.045 175.156 585.15 175.079 582.01C175.002 578.846 160.824 574.806 154.211 571.821C147.599 568.836 125.29 563.124 125.29 563.124L125.522 573.828C125.522 573.828 125.11 574.008 124.544 574.317L124.57 574.291Z" fill="#F8F8F8"/>
<path d="M123.412 551.314C125.727 553.938 143.97 560.989 153.954 563.948C163.963 566.932 190.825 575.886 194.428 575.809C198.056 575.706 239.404 565.543 258.265 560.757C277.151 555.971 306.381 549.873 307.23 547.171C308.079 544.47 309.082 528.877 304.451 523.602C304.451 523.602 282.683 519.846 275.401 517.89C268.119 515.935 237.732 511.329 235.931 510.84C234.104 510.351 182.849 521.853 174.718 522.599C166.613 523.345 128.789 529.675 128.789 529.675C128.789 529.675 123.9 533.02 125.29 535.129L126.705 537.239C126.705 537.239 127.374 546.888 126.01 547.454C125.624 547.634 125.033 547.789 124.467 548.02C123.077 548.561 121.739 549.436 123.386 551.288L123.412 551.314Z" fill="#F4B484"/>
<path d="M127.863 547.943C136.586 551.623 148.087 556.383 151.947 557.566C158.456 559.548 192.755 573.159 194.891 572.027C197.026 570.895 195.894 558.57 193.681 556.486C191.494 554.376 167.642 546.94 156.372 544.006C145.102 541.073 129.947 537.162 129.947 537.162C129.947 537.162 130.59 546.811 129.304 547.377C128.944 547.531 128.378 547.712 127.837 547.917L127.863 547.943Z" fill="#F8F8F8"/>
<path d="M228.34 545.344C254.765 537.548 303.73 524.117 304.167 525.841C304.605 527.565 247.844 540.584 241.334 543.183C234.824 545.782 198.004 556.177 198.004 556.177V554.016C198.004 554.016 201.915 553.141 228.34 545.344Z" fill="#FF9518"/>
<path d="M307.281 1036.18C307.101 1038.78 322.256 1041.27 332.085 1044.49C341.94 1047.71 356.092 1051.72 360.029 1051.98C363.94 1052.23 426.001 1046.26 442.315 1044.15C458.628 1042.07 475.61 1043.13 478.003 1040.17C480.396 1037.18 481.785 1022.75 478.903 1019.97C476.021 1017.19 442.778 1010.94 434.621 1008.36C426.49 1005.76 409.534 1004.19 406.961 1003.5C404.388 1002.83 330.027 1009.57 323.389 1010.7C316.75 1011.84 311.347 1014.1 311.347 1014.1C311.347 1014.1 309.057 1015.52 310.266 1017.14C311.475 1018.76 312.119 1021.92 311.424 1026.04C310.755 1029.85 310.112 1033.63 310.009 1034.2C310.009 1034.25 310.009 1034.27 310.009 1034.27C310.009 1034.27 307.436 1033.6 307.256 1036.18H307.281Z" fill="#343A40"/>
<path d="M313.559 1026.19C312.916 1030 312.273 1033.78 312.196 1034.35C314.409 1035.07 316.724 1035.79 318.757 1036.38C325.344 1038.36 357.79 1049.22 360.826 1047.86C363.862 1046.5 363.811 1034.56 363.193 1031.39C362.576 1028.23 349.299 1025.86 341.04 1023.78C332.78 1021.69 312.505 1017.29 312.505 1017.29C313.662 1018.91 314.28 1022.08 313.585 1026.19H313.559Z" fill="#F8F8F8"/>
<path d="M322.797 1013.23C325.447 1008.59 328.432 1003.63 335.045 999.332C341.658 995.035 360.029 986.441 360.029 986.441C360.029 986.441 353.416 978.825 352.078 975.531C350.766 972.212 343.639 966.603 343.639 966.603L341.323 964.956C339.007 963.309 333.372 957.674 332.729 954.046C332.06 950.418 327.763 940.152 329.101 938.84C330.413 937.527 332.729 938.171 336.383 939.509C340.011 940.821 347.293 942.828 347.293 942.828C347.293 942.828 350.921 935.881 355.243 932.561C359.54 929.242 368.803 924.611 368.803 924.611C368.803 924.611 368.134 921.626 367.156 918.333C366.153 915.013 367.491 907.757 368.803 907.088C370.115 906.419 375.416 909.07 378.401 911.051C381.385 913.032 387.998 919.002 387.998 919.002C387.998 919.002 394.817 919.182 401.301 916.66C404.98 915.219 406.884 910.768 411.567 910.279C418.231 909.584 428.549 905.596 437.709 907.088C446.895 908.581 471.468 908.323 476.922 908.092C482.377 907.834 511.916 909.095 521.59 911.308C531.265 913.547 550.614 924.456 559.054 929.422C567.493 934.388 586.354 953.249 590.805 959.192C595.282 965.136 606.192 981.037 609.177 989.477C612.161 997.917 616.613 1014.28 616.613 1014.28C616.613 1014.28 617.616 1016.26 620.086 1016.75C622.557 1017.24 630.018 1014.77 632.977 1011.79C635.936 1008.8 637.454 1003.83 637.454 999.872C637.454 995.91 635.962 992.925 638.458 990.455C640.928 987.985 643.913 987.985 651.349 991.458C658.785 994.932 662.773 1010.32 657.293 1018.76C651.838 1027.2 643.887 1036.62 632.488 1038.11C621.064 1039.6 618.105 1034.63 618.105 1034.63C618.105 1034.63 610.669 1048.04 597.752 1052.49C584.861 1056.97 563.994 1057.28 555.4 1057.28C546.806 1057.28 527.277 1058.92 520.664 1059.93C514.051 1060.93 503.142 1059.93 498.484 1054.29C493.853 1048.66 499.153 1044.36 499.153 1044.36C491.872 1045.03 481.631 1041.04 478.312 1037.75C474.993 1034.43 475.996 1029.49 475.996 1029.49C462.436 1027.51 459.117 1020.56 459.117 1020.56C459.117 1020.56 447.873 1023.54 445.223 1024.19C442.572 1024.86 430.016 1027.17 425.384 1026.84C420.753 1026.5 408.505 1023.85 403.539 1022.88C398.573 1021.87 383.367 1020.56 377.397 1023.21C371.453 1025.86 361.856 1031.8 353.905 1032.81C345.955 1033.81 340.345 1034.12 338.03 1030.49C335.714 1026.86 337.026 1023.54 337.026 1023.54C337.026 1023.54 335.714 1023.88 334.041 1024.86C332.395 1025.86 326.091 1025.19 324.109 1023.85C322.128 1022.54 320.147 1017.91 322.797 1013.28V1013.23Z" fill="#F8F8F8"/>
<path d="M353.339 978.31L359.849 977.384L367.465 983.765C367.465 983.765 366.23 984.742 360.029 986.415C360.029 986.415 354.754 981.114 353.339 978.31Z" fill="#343A40"/>
<path d="M401.274 916.583C401.274 916.583 406.395 921.085 411.515 932.252C416.635 943.419 413.831 944.346 413.831 944.346L399.55 933.951C399.55 933.951 397.183 927.75 395.819 925.871C394.224 923.658 387.946 918.924 387.946 918.924L401.249 916.583H401.274Z" fill="#343A40"/>
<path d="M406.858 1000.98C413.136 1002.29 425.384 1004.3 430.015 1003.96C434.647 1003.63 439.947 1000.64 440.282 995.704C440.616 990.738 437.966 984.46 436.319 979.494C434.672 974.528 429.706 964.93 419.775 952.683C409.843 940.435 398.598 934.491 398.598 934.491C398.598 934.491 397.929 932.51 395.279 927.209C392.629 921.909 386.351 918.281 386.351 918.281C386.351 918.281 389.979 919.284 394.301 923.247C398.598 927.209 400.914 933.179 400.914 933.179C400.914 933.179 412.827 943.445 417.793 947.742C422.759 952.039 431.688 965.265 435.65 972.881C439.613 980.497 442.597 990.429 442.597 993.723C442.597 997.016 441.594 1003.32 434.003 1005.3C426.387 1007.28 414.474 1004.63 399.602 1001C384.704 997.376 381.745 995.704 373.125 988.757C369.06 985.489 365.149 982.118 362.164 979.494C366.873 982.864 373.1 986.209 380.073 991.407C390.339 999.023 400.58 999.666 406.884 1001L406.858 1000.98Z" fill="#343A40"/>
<path d="M356.554 974.502C356.554 974.502 358.767 976.534 362.112 979.468C359.899 977.872 358.021 976.303 356.554 974.502Z" fill="#343A40"/>
<path d="M383.675 975.84C386.66 972.855 385.322 969.227 385.322 969.227C385.322 969.227 388.95 974.862 384.988 977.178C381.025 979.493 376.394 975.196 376.394 975.196C376.394 975.196 380.691 978.824 383.675 975.865V975.84Z" fill="#343A40"/>
<path d="M406.524 954.663C407.527 951.344 406.524 949.363 406.524 949.363C406.524 949.363 410.486 953.994 407.527 956.979C405.16 959.346 400.451 956.465 398.65 955.204C400.606 956.259 405.675 957.442 406.524 954.663Z" fill="#343A40"/>
<path d="M397.904 954.664C397.904 954.664 398.187 954.87 398.625 955.204C398.264 954.998 398.007 954.818 397.904 954.664Z" fill="#343A40"/>
<path d="M427.52 995.369C427.829 994.649 428.266 994.005 428.806 993.491C429.836 992.513 431.251 991.87 432.692 991.896C432.949 991.896 433.181 991.921 433.438 991.973C434.21 991.947 435.008 992.05 435.779 992.307C436.629 992.59 437.117 993.414 436.912 994.289C436.603 995.601 435.857 996.759 434.879 997.659C434.879 997.659 434.827 997.711 434.802 997.736C434.287 998.277 433.67 998.766 433.001 999.152C431.688 999.924 429.758 1000.64 428.266 1000.03C427.263 999.615 426.671 998.586 426.748 997.479C426.799 996.733 427.083 996.012 427.494 995.369H427.52Z" fill="#343A40"/>
<path d="M367.465 983.765L370.115 985.437L351.589 989.734L353.236 989.4L367.465 983.765Z" fill="#343A40"/>
<path d="M342.661 1013.23C348.296 1006.28 360.183 1001.98 366.487 998.997C372.765 996.012 381.385 993.697 381.385 993.697L384.37 995.009C384.37 995.009 375.776 996.321 361.547 1002.96C347.318 1009.57 342.687 1015.21 340.705 1018.5C338.724 1021.82 337.077 1023.47 337.077 1023.47C337.077 1023.47 337.077 1020.15 342.712 1013.2L342.661 1013.23Z" fill="#343A40"/>
<path d="M441.928 1024.47C449.879 1022.49 456.157 1021.49 464.417 1014.54C472.676 1007.59 475.327 995.678 474.014 983.43C472.702 971.182 463.105 946.713 463.105 946.713C463.105 946.713 471.364 964.57 473.68 971.517C475.996 978.464 477.308 987.727 476.999 994.005C476.665 1000.28 473.371 1008.9 468.74 1014.18C464.108 1019.48 455.18 1023.78 443.601 1025.76C432.022 1027.74 416.147 1026.09 416.147 1026.09C416.147 1026.09 434.004 1026.43 441.954 1024.44L441.928 1024.47Z" fill="#343A40"/>
<path d="M493.209 988.731C490.894 978.156 490.225 976.483 495.525 968.224C500.825 959.964 509.754 953.326 517.705 951.345C525.655 949.363 545.159 946.044 554.087 949.029C554.087 949.029 527.611 947.717 516.701 955.307C505.791 962.923 497.172 968.198 495.525 977.152C493.878 986.081 500.825 1005.28 504.788 1010.58C508.75 1015.88 513.382 1019.17 515.698 1022.49C518.013 1025.81 533.22 1036.72 533.22 1036.72C533.22 1036.72 522.954 1035.41 514.025 1038.03C505.097 1040.68 499.796 1043 498.818 1045.65C498.818 1045.65 496.503 1044 504.119 1039.03C511.735 1034.07 526.299 1034.4 526.299 1034.4C526.299 1034.4 511.401 1020.84 507.438 1016.88C503.476 1012.92 495.525 999.358 493.209 988.757V988.731Z" fill="#343A40"/>
<path d="M475.996 1029.44C475.996 1029.44 478.312 1023.8 483.612 1022.82C488.913 1021.85 503.142 1021.82 507.773 1022.15C512.405 1022.49 515.724 1022.49 515.724 1022.49L517.705 1025.47C517.705 1025.47 501.495 1024.16 492.566 1024.16C483.638 1024.16 479.984 1026.14 477.668 1029.46C475.353 1032.78 476.022 1029.46 476.022 1029.46L475.996 1029.44Z" fill="#343A40"/>
<path d="M333.887 942.287C334.093 942.313 334.324 942.339 334.556 942.39C335.173 942.493 335.868 942.596 336.717 942.75C340.345 943.419 344.333 945.401 344.333 945.401C344.333 945.401 336.588 942.648 335.07 944.397C334.015 945.632 336.074 948.36 336.717 950.675C337.386 952.991 340.68 957.957 340.68 957.957C340.68 957.957 337.052 954.638 335.045 951.344C333.063 948.025 331.725 942.082 331.725 942.082C331.725 942.082 332.343 942.081 333.861 942.287H333.887Z" fill="#343A40"/>
<path d="M371.788 915.296C371.788 911 373.1 911.668 373.1 911.668C373.1 911.668 384.01 918.616 385.991 921.6C387.972 924.585 389.619 926.232 389.619 926.232C389.619 926.232 385.322 924.251 383.675 922.269C382.029 920.288 374.412 912.337 373.743 914.653C373.074 916.969 373.743 921.6 375.725 925.228C375.725 925.228 371.762 919.593 371.762 915.296H371.788Z" fill="#343A40"/>
</g>
</svg>
