<svg width="1920" height="412" viewBox="0 0 1920 412" fill="none" xmlns="http://www.w3.org/2000/svg">
<g clip-path="url(#clip0_1325_1028)">
<path d="M1788.46 271.909C1788.25 254 1780.05 238.047 1767.31 227.364C1769.41 221.185 1770.6 214.553 1770.53 207.676C1770.18 175.035 1743.36 148.888 1710.62 149.237C1708.76 149.237 1706.97 149.377 1705.15 149.586C1705.15 149.133 1705.22 148.679 1705.22 148.225C1704.87 115.585 1678.05 89.4376 1645.31 89.7867C1620.55 90.0659 1599.51 105.426 1590.89 127.035C1582.73 122.951 1573.49 120.647 1563.75 120.751C1538.16 121.031 1516.55 137.508 1508.53 160.269C1506.99 160.164 1505.42 160.059 1503.84 160.094C1471.1 160.443 1444.87 187.184 1445.22 219.824C1445.29 226.457 1446.52 232.81 1448.62 238.745C1420.04 243.248 1398.33 267.999 1398.68 297.672C1399.03 330.312 1425.86 356.459 1458.6 356.11C1467.84 356.005 1476.56 353.736 1484.34 349.861C1494.84 358.798 1508.46 364.139 1523.34 363.965C1534.37 363.86 1544.63 360.683 1553.42 355.342C1562.32 360.474 1572.65 363.441 1583.68 363.301C1597.55 363.162 1610.19 358.239 1620.17 350.21C1630.32 358.03 1643.1 362.673 1656.93 362.498C1667.51 362.394 1677.38 359.496 1685.93 354.539C1695.94 361.87 1708.27 366.234 1721.65 366.059C1754.39 365.71 1780.61 338.97 1780.26 306.329C1780.26 305.142 1780.12 303.99 1780.05 302.803C1785.48 293.762 1788.63 283.184 1788.49 271.839L1788.46 271.909Z" fill="#33A04D"/>
<path d="M1964.94 182.157C1964.73 164.248 1956.54 148.295 1943.79 137.612C1945.9 131.433 1947.09 124.801 1947.02 117.924C1946.67 85.2833 1919.84 59.1362 1887.1 59.4853C1885.25 59.4853 1883.46 59.6249 1881.64 59.8344C1881.64 59.3806 1881.71 58.9268 1881.71 58.4729C1881.36 25.8327 1854.5 -0.314388 1821.79 0.0347053C1797.04 0.31398 1775.99 15.6741 1767.38 37.283C1759.22 33.1986 1749.97 30.8946 1740.24 30.9993C1714.64 31.2786 1693.07 47.7558 1685.02 70.5167C1683.48 70.4119 1681.9 70.3072 1680.33 70.3421C1647.58 70.6912 1621.36 97.4318 1621.71 130.072C1621.78 136.705 1623 143.058 1625.1 148.993C1596.53 153.496 1574.82 178.247 1575.17 207.92C1575.52 240.56 1602.34 266.707 1635.08 266.358C1644.33 266.253 1653.05 263.984 1660.82 260.109C1671.33 269.046 1684.95 274.387 1699.83 274.213C1710.86 274.108 1721.12 270.931 1729.91 265.59C1738.8 270.722 1749.13 273.689 1760.16 273.549C1774.03 273.375 1786.67 268.488 1796.65 260.458C1806.84 268.278 1819.59 272.921 1833.42 272.746C1844 272.642 1853.87 269.744 1862.41 264.787C1872.43 272.118 1884.76 276.447 1898.13 276.307C1930.87 275.958 1957.1 249.218 1956.75 216.577C1956.75 215.39 1956.61 214.238 1956.54 213.052C1962 204.01 1965.12 193.432 1964.98 182.087L1964.94 182.157Z" fill="#33A04D"/>
<path d="M404.024 201.462C404.024 170.078 378.497 144.664 347.017 144.699C344.986 144.699 342.955 144.839 340.959 145.014C341.484 141.872 341.834 138.695 341.834 135.379C341.834 103.995 316.307 78.581 284.826 78.6159C284.091 78.6159 283.391 78.6858 282.655 78.7207C277.403 52.7481 254.397 33.1989 226.768 33.1989C220.115 33.1989 213.742 34.3858 207.789 36.5153C197.319 24.4017 181.876 16.7217 164.578 16.7217C138.42 16.7217 116.429 34.3509 109.776 58.3336C80.7121 60.9169 57.951 85.2487 57.951 114.887C57.951 126.965 61.7679 138.171 68.246 147.387C56.8655 157.79 49.687 172.662 49.687 189.279C49.687 202.719 54.4143 215.077 62.2581 224.781C63.5888 254.978 88.5209 279.1 119.126 279.065C132.432 279.065 144.653 274.457 154.353 266.847C164.053 274.457 176.274 279.065 189.58 279.03C208.244 279.03 224.772 270.024 235.137 256.2C245.537 270.024 262.065 278.996 280.729 278.996C290.464 278.996 299.639 276.552 307.658 272.223C315.676 276.517 324.851 278.961 334.586 278.961C359.658 278.961 380.913 262.763 388.512 240.281C398.072 230.122 403.954 216.508 403.954 201.462H404.024Z" fill="#33A04D"/>
<path d="M290.779 214.797C290.779 183.414 265.252 158 233.772 158.035C231.741 158.035 229.71 158.174 227.714 158.349C228.239 155.207 228.589 152.03 228.589 148.714C228.589 117.33 203.062 91.9165 171.581 91.9514C170.846 91.9514 170.146 92.0212 169.41 92.0561C164.158 66.0836 141.152 46.5343 113.523 46.5343C106.87 46.5343 100.497 47.7213 94.5439 49.8507C84.0738 37.7372 68.6312 30.0571 51.3328 30.0571C25.1751 30.0571 3.18438 47.6863 -3.46886 71.6342C-32.533 74.2174 -55.3291 98.5493 -55.2941 128.187C-55.2941 140.266 -51.4772 151.472 -44.9991 160.653C-56.3796 171.056 -63.5581 185.927 -63.5581 202.544C-63.5581 215.984 -58.8308 228.342 -50.987 238.047C-49.6563 268.244 -24.7242 292.366 5.88069 292.331C19.1872 292.331 31.4081 287.723 41.1078 280.113C50.8076 287.723 63.0285 292.331 76.335 292.296C94.9991 292.296 111.527 283.289 121.892 269.465C132.292 283.289 148.82 292.261 167.484 292.261C177.219 292.261 186.394 289.817 194.412 285.489C202.431 289.783 211.606 292.226 221.341 292.226C246.413 292.226 267.668 276.028 275.267 253.547C284.826 243.388 290.709 229.773 290.709 214.728L290.779 214.797Z" fill="#33A04D"/>
<path d="M933.307 278.542C926.024 271.42 916.184 267.301 905.189 267.301C894.158 267.301 884.213 271.874 876.93 279.065C869.646 271.874 859.667 267.545 848.636 267.545C840.512 267.545 833.018 269.989 826.68 274.108C817.926 256.479 799.752 244.365 778.672 244.365C766.801 244.365 755.911 248.275 747.052 254.768C742.429 251.382 737.282 248.694 731.714 246.949C727.967 221.116 705.697 201.252 678.733 201.252C657.338 201.252 638.954 213.82 630.375 231.903C619.555 233.613 609.82 238.536 602.151 245.727C592.556 236.755 579.705 231.205 565.488 231.24C563.877 231.24 562.267 231.344 560.691 231.484C554.738 208.444 533.798 191.408 508.866 191.408C479.276 191.408 455.325 215.356 455.325 244.854C455.325 246.53 455.43 248.171 455.57 249.776C454.204 249.637 452.838 249.567 451.438 249.567C432.984 249.567 417.506 262.274 413.269 279.379C407.036 275.26 399.542 272.851 391.524 272.851C385.921 272.851 380.633 274.038 375.801 276.133C369.008 264.264 356.226 256.27 341.554 256.27C326.462 256.27 313.4 264.752 306.782 277.145C304.051 276.552 301.215 276.203 298.273 276.203C281.815 276.203 267.703 286.292 261.82 300.604C256.603 296.45 249.985 293.937 242.771 293.937C237.028 293.937 231.706 295.543 227.119 298.3C220.745 290.585 211.116 285.663 200.295 285.663C186.184 285.663 174.068 294.076 168.675 306.12C163.247 294.076 151.132 285.698 137.02 285.698C127.53 285.698 118.951 289.503 112.718 295.647C109.636 294.6 105.574 294.007 102.143 294.007C90.6921 294.007 81.7978 300.325 75.1445 309.611V348.814L947.804 348.36L933.307 278.542Z" fill="#33A04D"/>
<path d="M1692.69 291.423C1685.4 284.302 1675.56 280.182 1664.57 280.182C1653.54 280.182 1643.59 284.756 1636.31 291.947C1629.03 284.756 1619.05 280.392 1608.02 280.427C1599.89 280.427 1592.4 282.87 1586.06 286.99C1577.31 269.361 1559.13 257.247 1538.05 257.247C1526.18 257.247 1515.29 261.157 1506.43 267.65C1501.81 264.264 1496.66 261.611 1491.09 259.83C1487.31 233.997 1465.08 214.134 1438.11 214.169C1416.72 214.169 1398.33 226.736 1389.75 244.819C1378.93 246.53 1369.2 251.452 1361.57 258.608C1351.97 249.637 1339.12 244.121 1324.9 244.121C1323.29 244.121 1321.68 244.226 1320.11 244.365C1314.15 221.325 1293.21 204.29 1268.28 204.29C1238.69 204.29 1214.74 228.237 1214.74 257.736C1214.74 259.411 1214.84 261.052 1214.98 262.658C1213.62 262.518 1212.25 262.449 1210.85 262.449C1192.4 262.449 1176.92 275.156 1172.68 292.261C1166.45 288.142 1158.96 285.733 1150.94 285.733C1145.34 285.733 1140.01 286.92 1135.22 289.015C1128.42 277.145 1115.64 269.151 1100.97 269.151C1085.88 269.151 1072.82 277.634 1066.2 290.027C1063.47 289.433 1060.63 289.084 1057.69 289.084C1041.23 289.084 1027.12 299.173 1021.23 313.486C1016.02 309.332 1009.4 306.818 1002.19 306.818C996.443 306.818 991.12 308.424 986.533 311.182C980.16 303.467 970.53 298.545 959.71 298.545C945.598 298.545 933.482 306.958 928.09 319.002C922.662 306.958 910.546 298.58 896.434 298.58C886.945 298.58 878.365 302.385 872.132 308.529C869.051 307.482 864.989 306.888 861.557 306.888C850.107 306.888 841.212 313.207 834.559 322.493V361.696L1707.22 361.242L1692.72 291.423H1692.69Z" fill="#33A04D"/>
<path d="M1994.67 239.059C1994.67 213.296 1977.87 191.478 1954.61 183.728C1954.61 183.344 1954.68 182.995 1954.68 182.611C1954.68 165.052 1946.84 149.377 1934.55 138.66C1934.55 137.822 1934.69 136.984 1934.69 136.147C1934.69 105.461 1910.88 80.3614 1880.69 78.0225C1870.68 60.0791 1851.49 47.9307 1829.46 47.9307C1803.59 47.9307 1781.67 64.7221 1773.93 87.9717C1763.35 77.6036 1748.85 71.2152 1732.89 71.2152C1700.53 71.2152 1674.34 97.3972 1674.34 129.619C1674.34 133.493 1674.76 137.299 1675.46 140.964C1670.8 139.533 1665.86 138.765 1660.72 138.765C1643.7 138.765 1628.71 147.318 1619.78 160.304C1615.82 159.291 1611.73 158.698 1607.46 158.698C1587.04 158.698 1569.53 171.021 1561.9 188.58C1556.4 186.486 1550.45 185.299 1544.21 185.299C1526.39 185.299 1510.81 194.724 1502.05 208.793C1500.58 208.653 1499.11 208.583 1497.61 208.583C1470.19 208.583 1447.95 230.786 1447.95 258.155C1447.95 263.112 1448.69 267.859 1450.05 272.363C1446.31 271.211 1442.35 270.617 1438.25 270.617C1420.22 270.617 1404.95 282.452 1399.84 298.754C1392.59 291.633 1382.61 287.234 1371.62 287.234C1360.59 287.234 1350.57 291.668 1343.32 298.859C1336.04 291.668 1326.06 287.234 1314.99 287.269C1306.87 287.269 1299.34 289.678 1293.04 293.797C1284.28 276.203 1266.11 264.054 1245.03 264.054C1233.19 264.054 1222.27 267.964 1213.41 274.457C1208.79 271.071 1203.64 268.383 1198.07 266.638C1194.32 240.805 1172.05 220.941 1145.09 220.976C1123.69 220.976 1105.28 233.544 1096.73 251.592C1085.91 253.302 1076.18 258.225 1068.51 265.416C1058.91 256.444 1046.06 250.894 1031.85 250.928C1030.23 250.928 1028.62 251.033 1027.05 251.173C1021.09 228.133 1000.15 211.097 975.223 211.132C945.633 211.132 921.681 235.08 921.681 264.543C921.681 266.219 921.787 267.86 921.927 269.465C920.561 269.326 919.195 269.256 917.795 269.256C899.341 269.256 883.863 281.963 879.626 299.068C873.393 294.949 865.899 292.54 857.88 292.54C852.278 292.54 846.99 293.727 842.158 295.822C835.364 283.953 822.583 275.959 807.911 275.959C792.819 275.959 779.757 284.441 773.139 296.834C770.408 296.241 767.572 295.892 764.63 295.892C748.172 295.892 734.06 305.981 728.177 320.293C722.96 316.139 716.342 313.626 709.128 313.626C703.385 313.626 698.063 315.231 693.475 317.989C687.102 310.274 677.473 305.352 666.652 305.352C652.54 305.352 640.425 313.765 635.032 325.809C629.604 313.765 617.488 305.387 603.377 305.387C593.887 305.387 585.308 309.192 579.075 315.336C575.993 314.289 572.702 313.695 569.27 313.695C557.819 313.695 547.839 320.014 542.622 329.3C537.404 320.014 527.425 313.695 515.974 313.73C512.893 313.73 509.916 314.184 507.115 315.057C504.383 294.67 489.991 277.983 470.802 271.944C468.911 244.61 446.115 223.036 418.241 223.036C412.008 223.036 406.091 224.188 400.558 226.143C392.749 206.838 373.805 193.188 351.639 193.188C344.531 193.188 337.772 194.62 331.609 197.168C324.501 165.156 295.927 141.208 261.68 141.243C252.856 141.243 244.487 142.919 236.678 145.816C236.433 106.578 204.462 74.8807 165.068 74.8807C155.088 74.8807 145.599 76.9403 136.985 80.6058C124.203 68.8763 107.185 61.6151 88.4509 61.65C56.4453 61.65 29.3771 82.6306 20.2027 111.501C-8.75645 120.647 -29.7667 147.667 -29.7317 179.574C-29.7317 194.724 -24.9343 208.758 -16.8454 220.313C-25.8448 229.843 -32.2879 241.782 -34.9492 255.118C-46.1547 267.72 -53.6133 284.232 -53.6133 302.42C-53.6133 339.598 -24.269 370.109 10.7481 373.425V372.099L443.559 371.889C447.06 375.206 450.947 373.006 454.659 373.006C458.371 373.006 462.118 375.206 465.619 371.889H507.92C510.511 375.171 513.243 372.972 516.009 372.972C518.775 372.972 521.542 375.171 524.098 371.854H561.251C563.807 375.171 566.539 372.937 569.305 372.937C572.106 372.937 574.803 375.136 577.359 371.82H594.867C597.634 375.136 600.47 372.902 603.447 372.902C606.423 372.902 609.259 375.101 612.026 371.785H658.143C660.91 375.066 663.746 372.867 666.722 372.867C669.699 372.867 672.535 375.066 675.302 371.75H701.109C703.7 375.066 706.362 372.832 709.163 372.832C711.964 372.832 714.661 375.031 717.217 371.715H755.491C758.432 375.031 761.479 372.797 764.63 372.797C767.782 372.797 770.828 374.996 773.769 371.68L1911.54 371.086C1915.19 374.403 1918.97 373.006 1922.85 373.006C1955.21 373.006 1981.4 347.243 1981.4 314.987C1981.4 303.711 1978.11 293.413 1972.58 284.511C1986.06 273.794 1994.71 257.526 1994.71 239.024L1994.67 239.059Z" fill="#6AD082"/>
<path d="M563.563 323.714L559.291 318.618C590.596 292.715 568.045 262.204 567.064 260.913L572.387 256.898C572.667 257.247 599.735 293.797 563.563 323.714Z" fill="#6AD082"/>
<path d="M589.265 251.976C589.265 251.976 588.985 251.766 588.845 251.661C591.611 245.936 590.35 238.85 585.308 234.486C580.266 230.122 573.052 229.843 567.764 233.369C567.624 233.229 567.519 233.125 567.379 232.985C561.321 227.749 552.147 228.377 546.894 234.416C543.813 237.942 542.762 242.55 543.638 246.809C542.202 247.612 540.871 248.624 539.751 249.951C534.498 255.99 535.129 265.102 541.186 270.373C543.883 272.712 547.209 273.864 550.536 273.934C551.096 277.11 552.672 280.113 555.298 282.382C561.356 287.618 569.725 287.897 574.978 281.893C576.169 280.532 577.079 278.961 577.744 277.25C582.437 277.913 587.339 276.238 590.701 272.433C595.953 266.428 595.323 257.282 589.265 252.011V251.976Z" fill="#F09CBD"/>
<path d="M573.682 264.054C569.795 268.488 563.037 268.977 558.555 265.102C554.073 261.227 553.617 254.489 557.504 250.021C561.391 245.587 568.149 245.099 572.632 248.974C577.079 252.849 577.569 259.586 573.682 264.054Z" fill="#F9D2DD"/>
<path d="M869.996 303.641L865.759 298.545C897.065 272.642 874.514 242.131 873.533 240.84L878.856 236.825C879.136 237.209 906.204 273.724 870.031 303.641H869.996Z" fill="#6AD082"/>
<path d="M895.664 231.903C895.664 231.903 895.384 231.693 895.244 231.589C898.01 225.863 896.749 218.777 891.707 214.413C886.665 210.05 879.451 209.77 874.163 213.296C874.023 213.191 873.918 213.052 873.778 212.947C867.72 207.711 858.546 208.339 853.293 214.343C850.212 217.869 849.161 222.477 850.037 226.736C848.601 227.539 847.27 228.551 846.15 229.878C840.897 235.917 841.528 245.029 847.585 250.3C850.282 252.639 853.608 253.791 856.935 253.826C857.495 257.003 859.071 260.005 861.697 262.274C867.755 267.51 876.124 267.79 881.377 261.75C882.567 260.389 883.478 258.818 884.143 257.142C888.836 257.771 893.738 256.13 897.1 252.325C902.352 246.285 901.722 237.139 895.664 231.903Z" fill="#F09CBD"/>
<path d="M880.081 243.981C876.194 248.415 869.436 248.904 864.954 245.029C860.507 241.154 860.017 234.416 863.904 229.948C867.79 225.514 874.549 225.026 879.031 228.901C883.478 232.776 883.968 239.513 880.081 243.981Z" fill="#F9D2DD"/>
<path d="M1076.46 276.971L1072.22 271.874C1103.52 245.971 1080.97 215.461 1079.99 214.169L1085.32 210.154C1085.6 210.538 1112.63 247.053 1076.49 276.971H1076.46Z" fill="#6AD082"/>
<path d="M1102.16 205.232C1102.16 205.232 1101.88 205.023 1101.74 204.918C1104.51 199.193 1103.25 192.106 1098.2 187.742C1093.16 183.379 1085.95 183.1 1080.66 186.625C1080.52 186.521 1080.41 186.381 1080.27 186.241C1074.22 181.005 1065.04 181.633 1059.79 187.673C1056.71 191.198 1055.66 195.807 1056.53 200.065C1055.1 200.868 1053.77 201.881 1052.65 203.207C1047.39 209.247 1048.02 218.358 1054.08 223.629C1056.78 225.968 1060.1 227.12 1063.43 227.19C1063.96 230.367 1065.57 233.369 1068.19 235.638C1074.25 240.874 1082.62 241.154 1087.87 235.114C1089.06 233.753 1089.97 232.182 1090.64 230.471C1095.33 231.135 1100.23 229.459 1103.6 225.654C1108.85 219.615 1108.22 210.468 1102.16 205.232Z" fill="#F09CBD"/>
<path d="M1086.58 217.311C1082.69 221.744 1075.93 222.233 1071.45 218.358C1067 214.483 1066.51 207.746 1070.4 203.277C1074.29 198.844 1081.04 198.355 1085.53 202.23C1089.97 206.105 1090.46 212.842 1086.58 217.311Z" fill="#F9D2DD"/>
<path d="M1379.56 296.729L1375.29 291.632C1406.6 265.73 1384.05 235.219 1383.07 233.927L1388.39 229.913C1388.67 230.297 1415.74 266.812 1379.56 296.729Z" fill="#6AD082"/>
<path d="M1405.23 224.99C1405.23 224.99 1404.95 224.781 1404.81 224.676C1407.58 218.951 1406.32 211.865 1401.28 207.501C1396.23 203.137 1389.02 202.858 1383.73 206.384C1383.59 206.279 1383.49 206.139 1383.35 206.035C1377.29 200.798 1368.11 201.427 1362.86 207.431C1359.78 210.957 1358.73 215.565 1359.6 219.824C1358.17 220.627 1356.84 221.639 1355.72 222.966C1350.47 229.005 1351.1 238.116 1357.15 243.388C1359.85 245.727 1363.18 246.879 1366.5 246.948C1367.03 250.125 1368.64 253.127 1371.27 255.396C1377.32 260.633 1385.69 260.912 1390.95 254.873C1392.14 253.511 1393.05 251.94 1393.71 250.23C1398.4 250.893 1403.31 249.218 1406.67 245.412C1411.92 239.373 1411.29 230.227 1405.23 224.99Z" fill="#F09CBD"/>
<path d="M1389.68 237.069C1385.8 241.503 1379.04 241.991 1374.56 238.116C1370.11 234.241 1369.62 227.504 1373.51 223.036C1377.39 218.602 1384.15 218.113 1388.63 221.988C1393.08 225.863 1393.57 232.601 1389.68 237.069Z" fill="#F9D2DD"/>
<path d="M703.455 326.996L699.218 321.899C730.524 295.996 707.973 265.486 706.992 264.194L712.315 260.179C712.595 260.529 739.663 297.079 703.49 326.996H703.455Z" fill="#6AD082"/>
<path d="M729.123 248.589C729.123 248.589 728.843 248.38 728.703 248.275C731.469 242.55 730.208 235.464 725.166 231.1C720.123 226.736 712.91 226.457 707.622 229.983C707.482 229.878 707.377 229.738 707.237 229.599C701.179 224.362 692.005 224.991 686.752 231.03C683.671 234.556 682.62 239.164 683.496 243.423C682.06 244.226 680.729 245.238 679.609 246.565C674.356 252.604 674.986 261.715 681.044 266.987C683.741 269.326 687.067 270.478 690.394 270.547C690.954 273.724 692.53 276.726 695.156 278.995C701.214 284.232 709.583 284.511 714.836 278.507C716.026 277.145 716.937 275.539 717.602 273.864C722.294 274.527 727.232 272.851 730.559 269.046C735.811 263.007 735.181 253.896 729.123 248.624V248.589Z" fill="#FFCAE0"/>
<path d="M713.575 260.668C709.688 265.102 702.93 265.59 698.448 261.715C694.001 257.841 693.51 251.103 697.397 246.635C701.284 242.201 708.042 241.712 712.525 245.587C716.972 249.462 717.462 256.2 713.575 260.668Z" fill="#F09CBD"/>
<path d="M1256.34 273.585L1252.07 268.488C1283.37 242.585 1260.82 212.074 1259.84 210.783L1265.16 206.768C1265.44 207.117 1292.51 243.667 1256.34 273.585Z" fill="#6AD082"/>
<path d="M1282.01 195.178C1282.01 195.178 1281.73 194.969 1281.59 194.864C1284.35 189.139 1283.09 182.052 1278.05 177.688C1273.01 173.325 1265.79 173.046 1260.51 176.571C1260.37 176.467 1260.26 176.327 1260.12 176.222C1254.06 170.986 1244.92 171.614 1239.64 177.654C1236.56 181.179 1235.5 185.787 1236.38 190.046C1234.94 190.849 1233.61 191.862 1232.49 193.188C1227.24 199.228 1227.87 208.339 1233.93 213.61C1236.63 215.949 1239.95 217.101 1243.28 217.171C1243.8 220.348 1245.41 223.35 1248.04 225.619C1254.1 230.855 1262.47 231.135 1267.72 225.13C1268.91 223.769 1269.82 222.198 1270.49 220.487C1275.18 221.151 1280.08 219.475 1283.44 215.67C1288.7 209.631 1288.07 200.519 1282.01 195.248V195.178Z" fill="#FFCAE0"/>
<path d="M1266.42 207.257C1262.54 211.69 1255.78 212.179 1251.3 208.304C1246.81 204.429 1246.36 197.691 1250.25 193.223C1254.13 188.755 1260.89 188.301 1265.37 192.176C1269.86 196.051 1270.31 202.788 1266.42 207.257Z" fill="#F09CBD"/>
<path d="M393.239 243.388L389.737 237.733C424.404 216.473 406.335 183.099 405.565 181.703L411.378 178.491C411.588 178.91 433.228 218.847 393.239 243.423V243.388Z" fill="#6AD082"/>
<path d="M429.692 169.38C429.692 169.38 429.447 169.136 429.342 168.996C432.878 163.725 432.633 156.534 428.256 151.507C423.879 146.48 416.806 145.188 411.028 147.946C410.923 147.806 410.818 147.667 410.713 147.527C405.46 141.488 396.286 140.824 390.228 146.061C386.656 149.133 384.975 153.531 385.255 157.895C383.714 158.489 382.279 159.326 380.948 160.443C374.89 165.68 374.225 174.826 379.477 180.865C381.824 183.553 384.94 185.194 388.232 185.683C388.337 188.895 389.492 192.106 391.768 194.724C397.021 200.764 405.25 202.195 411.343 196.994C412.709 195.807 413.864 194.375 414.74 192.804C419.292 194.096 424.404 193.153 428.256 189.837C434.314 184.601 434.979 175.454 429.727 169.415L429.692 169.38Z" fill="#FFCAE0"/>
<path d="M412.604 179.155C408.122 182.995 401.363 182.541 397.476 178.073C393.59 173.604 394.08 166.867 398.562 162.992C403.044 159.117 409.802 159.606 413.689 164.074C417.576 168.542 417.086 175.28 412.604 179.155Z" fill="#F09CBD"/>
<path d="M966.118 239.792L962.616 234.137C997.283 212.877 979.214 179.504 978.444 178.072L984.257 174.861C984.467 175.28 1006.11 215.216 966.118 239.792Z" fill="#6AD082"/>
<path d="M1002.57 165.785C1002.57 165.785 1002.33 165.54 1002.22 165.401C1005.76 160.129 1005.51 152.938 1001.14 147.911C996.758 142.884 989.684 141.592 983.907 144.35C983.802 144.211 983.697 144.071 983.592 143.931C978.339 137.892 969.165 137.229 963.107 142.465C959.535 145.537 957.854 149.936 958.134 154.299C956.593 154.893 955.158 155.731 953.827 156.848C947.769 162.084 947.104 171.23 952.356 177.27C954.703 179.958 957.819 181.598 961.111 182.087C961.216 185.299 962.371 188.51 964.647 191.129C969.9 197.168 978.129 198.599 984.187 193.398C985.553 192.211 986.708 190.78 987.584 189.209C992.136 190.5 997.248 189.558 1001.1 186.241C1007.16 181.005 1007.82 171.859 1002.57 165.854V165.785Z" fill="#FFCAE0"/>
<path d="M985.447 175.559C980.965 179.434 974.207 178.945 970.32 174.477C966.433 170.009 966.924 163.271 971.406 159.396C975.888 155.521 982.646 156.01 986.533 160.478C990.42 164.947 989.93 171.684 985.447 175.559Z" fill="#F09CBD"/>
<path d="M2006.96 364.977H-88V411.476H2006.96V364.977Z" fill="#B37E55"/>
</g>
<defs>
<clipPath id="clip0_1325_1028">
<rect width="1920" height="412" fill="white"/>
</clipPath>
</defs>
</svg>
