<svg width="33" height="31" viewBox="0 0 33 31" fill="none" xmlns="http://www.w3.org/2000/svg">
<path d="M8.04571 29.6798V27.954L7.83416 27.4358L8.04571 20.1113C8.04571 17.8397 7.78855 15.5703 7.27585 13.3164C7.16391 12.8242 5.87228 12.8242 5.76034 13.3164C5.24763 15.5703 4.99048 17.8397 4.99048 20.1113L5.41235 27.5316L4.99048 29.6798H8.04571Z" fill="#D48C64"/>
<path d="M4.99048 25.5698V29.68H6.34837V28.4672C6.34837 28.3206 6.46452 28.1997 6.61111 28.1959C7.10127 28.1834 7.72577 28.0814 8.04571 27.9539V25.5698H4.99048Z" fill="#C47C5C"/>
<path d="M12.9274 24.6373L12.8948 24.5662C12.6251 23.9732 12.3213 23.3983 11.9842 22.8444L11.2498 22.2245L10.7553 21.0943C10.1297 20.3178 9.43225 19.5972 8.67102 18.9447L6.51782 17.0981L4.36534 18.9447C3.15679 19.9805 2.27173 21.2111 1.52319 22.561C1.43358 22.5476 0.426068 24.6987 0.426068 24.6987C0.228945 25.1318 0.0510343 25.2981 0.296441 25.6131C0.296514 25.6131 0.244098 25.8238 0.244243 25.8238C0.244098 25.8238 0.296586 25.6131 0.296441 25.6131C0.59151 25.9908 1.11422 26.1916 1.64926 25.9901C1.76664 25.9459 1.84044 26.1183 1.98022 26.0879C2.04242 26.0744 2.10731 26.0625 2.17516 26.0524C2.34264 26.027 2.52751 26.0133 2.7363 26.0133C4.62706 26.0133 4.62706 27.1769 6.51854 27.1769C8.41003 27.1769 8.41003 26.0133 10.3008 26.0133C10.7822 26.0133 11.141 26.0887 11.4397 26.201C12.4199 26.5701 13.3617 25.5913 12.9274 24.6373Z" fill="#00B67B"/>
<path d="M8.67117 18.944C8.32535 18.6474 7.75189 18.1559 7.24295 17.7202C6.96673 17.4831 6.70936 17.262 6.51796 17.0981L4.36549 18.9447C4.32779 18.9773 4.29009 19.0099 4.25311 19.0426C4.21686 19.0745 4.18134 19.1064 4.14582 19.1383C3.02862 20.1293 2.05786 21.269 1.25458 22.5217C0.836264 23.1742 0.463623 23.8564 0.141005 24.5655L0.10838 24.638C-0.0888152 25.0708 -0.00109217 25.5087 0.243952 25.8241C0.459273 26.0995 0.79494 26.2808 1.16903 26.2808C1.3075 26.2808 1.45178 26.2554 1.59677 26.201C1.71422 26.1568 1.84037 26.1184 1.98029 26.0879C1.87082 26.0162 1.77439 25.927 1.69392 25.8241C1.44888 25.5087 1.36115 25.0708 1.55835 24.638L1.59097 24.5655C1.74815 24.2204 1.917 23.8816 2.09737 23.5495C2.42652 22.9433 3.13976 22.6304 3.79282 22.8526C3.92433 22.8973 4.04671 22.9605 4.15241 23.0495C4.6396 23.3497 5.30731 23.7607 6.51876 23.7607C7.73093 23.7607 8.39792 23.3497 8.88511 23.0495C9.2389 22.8328 9.38535 22.7421 9.82831 22.7421C10.4395 22.7726 10.7635 23.001 11.1993 22.9763C11.4719 22.9763 11.7357 22.9306 11.9844 22.8444C11.0941 21.3806 9.97759 20.0641 8.67117 18.944Z" fill="#00AA68"/>
<path d="M6.51802 17.0981L4.36555 18.9447C4.32785 18.9773 4.29015 19.0099 4.25317 19.0426C4.29015 19.0085 4.32785 18.9759 4.36555 18.944L6.51802 17.0981Z" fill="#00AA68"/>
<path d="M1.15676 20.0543C0.777231 20.8887 1.39876 21.6765 2.25671 21.3535C2.40707 21.2969 2.72548 21.418 2.72548 21.418C2.86997 21.3968 3.02968 21.3846 3.20875 21.3846C4.86367 21.3846 4.86367 22.4029 6.5186 22.4029C8.1733 22.4029 8.1733 21.3846 9.828 21.3846C10.2491 21.3846 10.5629 21.4506 10.8242 21.5489C11.6822 21.8717 12.5059 21.0154 12.1264 20.1809L12.098 20.1184C11.7674 19.3916 11.3772 18.6961 10.9326 18.0382C10.9326 18.0382 10.2478 17.677 10.0994 17.4803C9.48334 16.6636 9.18306 15.8695 8.40189 15.1995L6.51809 13.584L4.83714 15.2119C3.26175 16.563 2.04465 18.1025 1.18532 19.9916L1.15676 20.0543Z" fill="#00B67B"/>
<path d="M10.9327 18.0379C10.71 18.1152 10.4737 18.1554 10.2306 18.1554C9.90059 18.1741 9.64199 18.0208 9.16669 17.9795C8.88902 17.9795 8.82449 18.0189 8.55429 18.1853C8.16048 18.4276 7.56505 18.7942 6.51883 18.7942C5.47195 18.7942 4.87717 18.4276 4.48271 18.1853C4.47974 18.1835 4.47684 18.1818 4.47387 18.18C4.07723 17.944 3.56582 18.0713 3.321 18.4626C2.98917 18.993 2.692 19.5461 2.43159 20.1182L2.40309 20.1807C2.18379 20.6627 2.36641 21.1523 2.72557 21.4177C2.53004 21.4462 2.36162 21.4924 2.21163 21.5487C1.35411 21.8719 0.529881 21.0151 0.90941 20.1807L0.937902 20.1182C1.79744 18.2288 3.05891 16.5504 4.63401 15.1993L6.51803 13.5835L7.26484 14.2237L8.40205 15.1993C9.37113 16.0303 10.2219 16.9856 10.9327 18.0379Z" fill="#00AA68"/>
<path d="M2.34819 15.6088C2.04297 16.2798 2.54401 16.825 3.23666 16.5727C3.39775 16.5141 3.67006 16.6286 3.67006 16.6286C3.73335 16.6243 3.80005 16.6218 3.87044 16.6218C5.19455 16.6218 5.19455 17.4365 6.51866 17.4365C7.84256 17.4365 7.84256 16.6218 9.16652 16.6218C9.49313 16.6218 9.73911 16.6713 9.94428 16.746C10.637 16.9982 11.288 16.2796 10.9828 15.6086C10.7093 15.0074 10.3849 14.433 10.0141 13.891L9.08829 13.3969L8.82498 12.4285C8.57131 12.1645 8.30451 11.9123 8.0254 11.6729L6.51815 10.3804L5.30555 11.6729C4.04509 12.754 3.03569 14.0973 2.34819 15.6088Z" fill="#00B67B"/>
<path d="M10.0141 13.8911C9.70722 14.0636 9.35887 14.1587 9.00036 14.1587C8.83891 14.1587 8.67876 14.1397 8.52136 14.1024C8.43821 14.0827 8.35048 14.1044 8.28611 14.1607C7.95544 14.4499 7.42997 14.8498 6.51809 14.8654C5.64499 14.8593 5.09639 14.4649 4.7529 14.1634C4.69751 14.1214 4.64603 14.1055 4.56585 14.1066C4.3506 14.1095 4.15428 14.2301 4.0427 14.4142C3.8094 14.7989 3.59851 15.1976 3.41131 15.6089C3.23413 15.9993 3.38007 16.4059 3.66999 16.6286C3.43915 16.6442 3.25312 16.6877 3.09225 16.7461C2.39909 16.9987 1.74864 16.2796 2.05349 15.6089C2.74128 14.0969 3.75017 12.754 5.01092 11.6731L6.51816 10.3804C6.92451 10.7292 7.63174 11.3356 8.0254 11.6731C8.65541 12.2135 9.22308 12.8191 9.71867 13.479C9.82046 13.6142 9.91906 13.7513 10.0141 13.8911Z" fill="#00AA68"/>
<path d="M3.51157 11.8507C3.33519 12.4109 3.77634 12.8595 4.3295 12.6622C4.44282 12.6218 4.43586 12.6239 4.5947 12.6239C4.61413 12.6239 4.72367 12.6929 4.74223 12.6936C5.60235 12.7267 5.62135 13.5073 6.51866 13.5073C7.43526 13.5073 7.43526 12.6926 8.35178 12.6926C8.51041 12.6926 8.64163 12.717 8.7548 12.7574C9.30796 12.9547 9.85033 12.4453 9.67394 11.8851C9.15362 10.233 8.32808 8.69306 7.24009 7.34532C7.22378 7.32509 7.20674 7.30573 7.1892 7.28725C6.51837 7.10781 6.21808 7.12021 5.86313 7.55984C4.77508 8.90759 4.03189 10.1986 3.51157 11.8507Z" fill="#00B67B"/>
<path d="M4.61364 12.0764C4.53962 12.3107 4.60415 12.5354 4.74197 12.6936C4.72362 12.6929 4.70463 12.6922 4.68491 12.6922C4.52607 12.6922 4.39499 12.7173 4.2816 12.7574C3.72829 12.9549 3.18579 12.4451 3.36232 11.8849C3.62303 11.0593 3.95913 10.2609 4.3665 9.50119C4.77386 8.74148 5.2525 8.01911 5.79631 7.34488C5.98169 7.11469 6.24986 7 6.51803 7C6.76242 7 7.00754 7.0957 7.18886 7.28717L6.97629 7.54997C5.96059 8.80739 5.19073 10.2439 4.70528 11.7851L4.61364 12.0764Z" fill="#00AA68"/>
<path d="M27.046 29.6798V27.954L26.8344 27.4358L27.046 20.1113C27.046 17.8397 26.7888 15.5703 26.2761 13.3164C26.1642 12.8242 24.8725 12.8242 24.7606 13.3164C24.2479 15.5703 23.9907 17.8397 23.9907 20.1113L24.4126 27.5316L23.9907 29.6798H27.046Z" fill="#D48C64"/>
<path d="M23.9907 25.5698V29.6801H25.3486V28.4672C25.3486 28.3206 25.4648 28.1997 25.6114 28.1959C26.1015 28.1834 26.726 28.0814 27.046 27.9539V25.5698H23.9907Z" fill="#C47C5C"/>
<path d="M30.4398 26.201C30.1411 26.0887 29.7823 26.0133 29.3009 26.0133C27.4101 26.0133 27.4101 27.1769 25.5186 27.1769C23.6272 27.1769 23.6272 26.0133 21.7364 26.0133C21.5276 26.0133 21.3427 26.0271 21.1753 26.0524C20.9549 26.0851 20.7664 26.1372 20.5967 26.201C20.0617 26.4026 19.539 26.2018 19.2439 25.8241C19.3178 25.8168 19.2642 25.1397 19.4665 24.6945L19.4991 24.6228C20.4814 22.4638 21.5646 20.4882 23.3654 18.9447L25.5179 17.0981L27.6711 18.9447C28.4324 19.5972 29.1298 20.3178 29.7554 21.0943L30.2499 22.2245L30.9843 22.8444C31.3214 23.3983 31.6252 23.9732 31.8949 24.5662L31.9275 24.6373C32.3618 25.5913 31.42 26.5701 30.4398 26.201Z" fill="#00B67B"/>
<path d="M27.6712 18.9447C27.1372 18.4867 26.0601 17.5638 25.5183 17.0986L23.3654 18.9447C21.5649 20.4886 20.1235 22.4072 19.141 24.5662L19.1084 24.6382C18.9113 25.0713 18.9987 25.5092 19.2441 25.8242C19.7523 25.7726 20.252 25.618 20.7312 25.3943C20.6724 25.1586 20.6876 24.8976 20.8057 24.6382L20.8384 24.5662C21.0139 24.1804 21.204 23.8026 21.4081 23.433C21.7337 22.8436 22.4892 22.6369 23.0621 22.9909C23.0926 23.0097 23.1226 23.0295 23.1522 23.0501C23.6397 23.3502 24.3071 23.7609 25.519 23.7609C26.7309 23.7609 27.3983 23.3502 27.8851 23.0501C28.2388 22.8328 28.3854 22.7426 28.8281 22.7426C29.4399 22.7731 29.7637 23.0012 30.1996 22.9768C30.4718 22.9768 30.7358 22.9307 30.9844 22.8445C30.0942 21.3814 28.9775 20.0643 27.6712 18.9447Z" fill="#00AA68"/>
<path d="M20.1573 20.0543C19.7777 20.8887 20.3993 21.6765 21.2572 21.3535C21.4076 21.2969 21.726 21.418 21.726 21.418C21.8705 21.3968 22.0302 21.3846 22.2093 21.3846C23.8642 21.3846 23.8642 22.4029 25.5191 22.4029C27.1738 22.4029 27.1738 21.3846 28.8285 21.3846C29.2496 21.3846 29.5634 21.4506 29.8247 21.5489C30.6827 21.8717 31.5065 21.0154 31.1269 20.1809L31.0985 20.1184C30.7679 19.3916 30.3777 18.6961 29.9331 18.0382C29.9331 18.0382 29.2483 17.677 29.0999 17.4803C28.4839 16.6636 28.1836 15.8695 27.4024 15.1995L25.5186 13.584L23.8377 15.2119C22.2623 16.5629 21.0452 18.1024 20.1859 19.9915L20.1573 20.0543Z" fill="#00B67B"/>
<path d="M29.9325 18.0379C29.7098 18.1152 29.4735 18.1554 29.2304 18.1554C28.9004 18.1741 28.6417 18.0208 28.1664 17.9795C27.8888 17.9795 27.8243 18.0189 27.5541 18.1853C27.1602 18.4276 26.5648 18.7942 25.5186 18.7942C24.4717 18.7942 23.8769 18.4276 23.4825 18.1853C23.4795 18.1835 23.4766 18.1818 23.4736 18.18C23.077 17.944 22.5656 18.0713 22.3208 18.4626C21.9889 18.993 21.6918 19.5461 21.4313 20.1182L21.4029 20.1807C21.1835 20.6628 21.3662 21.1523 21.7253 21.4177C21.5298 21.4462 21.3614 21.4924 21.2114 21.5488C20.3539 21.872 19.5296 21.0151 19.9092 20.1807L19.9377 20.1182C20.7972 18.2288 22.0587 16.5504 23.6338 15.1993L25.5178 13.5835L26.2646 14.2237L27.4018 15.1993C28.3709 16.0303 29.2217 16.9856 29.9325 18.0379Z" fill="#00AA68"/>
<path d="M21.3484 15.6088C21.0432 16.2798 21.5443 16.825 22.2369 16.5728C22.398 16.5141 22.6703 16.6286 22.6703 16.6286C22.7336 16.6243 22.8003 16.6218 22.8707 16.6218C24.1948 16.6218 24.1948 17.4365 25.5189 17.4365C26.8429 17.4365 26.8429 16.6218 28.1668 16.6218C28.4934 16.6218 28.7394 16.6714 28.9445 16.746C29.6373 16.9982 30.2882 16.2796 29.983 15.6086C29.7095 15.0074 29.3851 14.433 29.0143 13.891L28.0885 13.3969L27.8252 12.4285C27.5716 12.1645 27.3048 11.9123 27.0256 11.6729L25.5184 10.3804L24.3058 11.6729C23.0453 12.754 22.0359 14.0973 21.3484 15.6088Z" fill="#00B67B"/>
<path d="M29.0144 13.8911C28.7075 14.0636 28.3591 14.1587 28.0006 14.1587C27.8392 14.1587 27.679 14.1397 27.5216 14.1024C27.4385 14.0827 27.3507 14.1044 27.2864 14.1607C26.9557 14.4499 26.4302 14.8498 25.5183 14.8654C24.6452 14.8593 24.0966 14.4649 23.7531 14.1634C23.6978 14.1214 23.6463 14.1055 23.5661 14.1066C23.3508 14.1095 23.1545 14.2301 23.0429 14.4142C22.8096 14.7989 22.5987 15.1976 22.4116 15.6089C22.2344 15.9993 22.3803 16.4059 22.6702 16.6286C22.4394 16.6442 22.2534 16.6877 22.0925 16.7461C21.3993 16.9987 20.7489 16.2796 21.0537 15.6089C21.7415 14.0969 22.7504 12.754 24.0112 11.6731L25.5184 10.3804C25.9248 10.7292 26.632 11.3356 27.0256 11.6731C27.6557 12.2135 28.2233 12.8191 28.7189 13.479C28.8207 13.6142 28.9193 13.7513 29.0144 13.8911Z" fill="#00AA68"/>
<path d="M22.5113 11.8507C22.3349 12.4109 22.7761 12.8596 23.3293 12.6622C23.4426 12.6218 23.4356 12.6239 23.5945 12.6239C23.6139 12.6239 23.7234 12.6929 23.742 12.6936C24.6021 12.7267 24.6211 13.5073 25.5184 13.5073C26.435 13.5073 26.435 12.6926 27.3515 12.6926C27.5102 12.6926 27.6414 12.717 27.7546 12.7574C28.3077 12.9547 28.8501 12.4453 28.6737 11.8851C28.1534 10.233 27.3278 8.69306 26.2399 7.34532C26.2235 7.32509 26.2065 7.30573 26.189 7.28725C25.5181 7.10781 25.2178 7.12021 24.8629 7.55984C23.7748 8.90759 23.0317 10.1986 22.5113 11.8507Z" fill="#00B67B"/>
<path d="M23.6139 12.0764C23.5399 12.3107 23.6044 12.5354 23.7422 12.6936C23.7239 12.6929 23.7049 12.6922 23.6852 12.6922C23.5263 12.6922 23.3952 12.7173 23.2818 12.7574C22.7285 12.9549 22.186 12.4451 22.3626 11.8849C22.6233 11.0593 22.9594 10.2609 23.3667 9.5012C23.774 8.74148 24.2527 8.01911 24.7965 7.34488C24.9819 7.11469 25.25 7 25.5182 7C25.7626 7 26.0077 7.0957 26.189 7.28717L25.9765 7.54997C24.9608 8.80739 24.1909 10.2439 23.7055 11.7851L23.6139 12.0764Z" fill="#00AA68"/>
<path d="M17.7554 29.3976V27.6957L17.4759 27.0107L17.7554 17.3298C17.7554 14.3273 17.4156 11.3277 16.7379 8.34865C16.5899 7.69824 14.8828 7.69824 14.7348 8.34865C14.0571 11.3277 13.7173 14.3273 13.7173 17.3298L14.2749 27.1374L13.7173 29.3976H17.7554Z" fill="#D48C64"/>
<path d="M13.7173 24.5445V29.3979H15.512V28.374C15.512 28.1802 15.6656 28.0204 15.8593 28.0155C16.5072 27.9989 17.3326 27.8641 17.7554 27.6955V24.5444H13.7173V24.5445Z" fill="#C47C5C"/>
<path d="M7.73804 23.3873C7.16471 24.6477 7.94551 25.6151 9.2414 25.1271C9.46557 25.0428 9.99609 25.1827 9.99609 25.1827C10.2175 25.1495 10.4625 25.1305 10.7378 25.1305C13.2376 25.1305 13.2376 26.6688 15.7375 26.6688C18.237 26.6688 18.237 25.1305 20.7364 25.1305C21.3725 25.1305 21.8466 25.2301 22.2413 25.3786C23.5374 25.8664 24.7818 24.5727 24.2084 23.3123L24.1654 23.2178C23.8088 22.434 23.4066 21.6741 22.9612 20.942L21.9903 20.1229L21.337 18.6293C20.5103 17.6024 19.5887 16.6507 18.5822 15.7876L15.7366 13.3472L12.8911 15.7876C10.5114 17.8284 9.07925 20.4389 7.78121 23.2925L7.73804 23.3873Z" fill="#00B67B"/>
<path d="M22.9611 20.9422C22.6326 21.0561 22.2836 21.1171 21.9238 21.1171C21.3477 21.1494 20.9196 20.8479 20.1111 20.8075C19.526 20.8075 19.3322 20.9268 18.8647 21.214C18.2212 21.6106 17.3391 22.1535 15.7373 22.1535C14.1355 22.1535 13.2534 21.6106 12.6091 21.214C12.5701 21.1867 12.5304 21.1606 12.49 21.1357C11.7328 20.6679 10.7343 20.941 10.3039 21.7201C10.0342 22.2085 9.78283 22.7079 9.55086 23.2178L9.50779 23.3129C9.17576 24.0416 9.45305 24.7826 9.99596 25.1828C9.70521 25.2259 9.45574 25.2952 9.2314 25.3796C7.9356 25.8669 6.69095 24.5728 7.26437 23.3129L7.30744 23.2178C8.60593 20.3642 10.511 17.8282 12.8909 15.7876L15.7364 13.3477C16.4526 13.9624 17.8763 15.1823 18.582 15.7876C20.3085 17.2674 21.7846 19.0083 22.9611 20.9422Z" fill="#00AA68"/>
<path d="M8.65043 17.2543C8.14871 18.3571 8.97034 19.3984 10.1043 18.9715C10.303 18.8966 10.7238 19.0567 10.7238 19.0567C10.9148 19.0286 11.1258 19.0126 11.3625 19.0126C13.5499 19.0126 13.5499 20.3585 15.7372 20.3585C17.9243 20.3585 17.9243 19.0126 20.1114 19.0126C20.6679 19.0126 21.0828 19.0997 21.4282 19.2296C22.5622 19.6563 23.651 18.5245 23.1493 17.4215L23.1117 17.3389C22.6748 16.3782 22.159 15.4589 21.5714 14.5894C21.5714 14.5894 20.6662 14.112 20.4701 13.8521C19.6559 12.7725 19.2589 11.7229 18.2265 10.8374L15.7367 8.70215L13.5151 10.8538C11.4328 12.6395 9.8241 14.6743 8.6883 17.1712L8.65043 17.2543Z" fill="#00B67B"/>
<path d="M21.5712 14.5892C21.2769 14.6915 20.9645 14.7445 20.6432 14.7445C20.207 14.7693 19.8652 14.5667 19.2371 14.5121C18.87 14.5121 18.7848 14.5642 18.4276 14.784C17.9072 15.1044 17.1202 15.589 15.7373 15.589C14.3536 15.589 13.5675 15.1044 13.0461 14.784C13.0422 14.7817 13.0383 14.7794 13.0344 14.7771C12.5102 14.4651 11.8342 14.6334 11.5107 15.1505C11.0722 15.8515 10.6794 16.5826 10.3352 17.3388L10.2975 17.4214C10.0076 18.0585 10.249 18.7055 10.7237 19.0564C10.4653 19.0941 10.2427 19.1551 10.0444 19.2296C8.91104 19.6567 7.82163 18.5243 8.32326 17.4214L8.36095 17.3388C9.49702 14.8415 11.1643 12.6232 13.2462 10.8374L15.7364 8.70166L16.7235 9.54788L18.2266 10.8374C19.5072 11.9358 20.6317 13.1983 21.5712 14.5892Z" fill="#00AA68"/>
<path d="M10.2248 11.3783C9.82131 12.2652 10.4836 12.9859 11.3991 12.6524C11.612 12.5749 11.9719 12.7263 11.9719 12.7263C12.0556 12.7205 12.1436 12.7172 12.2367 12.7172C13.9868 12.7172 13.9868 13.7941 15.7369 13.7941C17.4868 13.7941 17.4868 12.7172 19.2367 12.7172C19.6683 12.7172 19.9935 12.7827 20.2647 12.8815C21.1803 13.2148 22.0407 12.265 21.6372 11.3781C21.2758 10.5836 20.847 9.82435 20.357 9.10798L19.1333 8.45487L18.7853 7.17496C18.45 6.82597 18.0974 6.4926 17.7285 6.17627L15.7363 4.46777L14.1336 6.17627C12.4677 7.60507 11.1335 9.38051 10.2248 11.3783Z" fill="#00B67B"/>
<path d="M20.357 9.10838C19.9514 9.33631 19.4909 9.46203 19.0171 9.46203C18.8037 9.46203 18.5921 9.4369 18.384 9.38764C18.2741 9.36161 18.1582 9.39024 18.0731 9.46463C17.6361 9.84691 16.9415 10.3755 15.7362 10.3962C14.5822 10.3881 13.8572 9.86674 13.4031 9.46831C13.33 9.41267 13.2618 9.39176 13.1559 9.3932C12.8714 9.39697 12.6119 9.55643 12.4644 9.7998C12.156 10.3082 11.8772 10.8353 11.6299 11.3789C11.3957 11.8949 11.5886 12.4324 11.9718 12.7267C11.6667 12.7474 11.4208 12.8048 11.2081 12.882C10.2919 13.2158 9.43223 12.2655 9.83515 11.3789C10.7442 9.38046 12.0777 7.60546 13.7441 6.17685L15.7362 4.46826C16.2733 4.92942 17.2081 5.73077 17.7284 6.17685C18.5612 6.89116 19.3114 7.69161 19.9664 8.56385C20.1011 8.74234 20.2314 8.92352 20.357 9.10838Z" fill="#00AA68"/>
<path d="M11.7623 6.41098C11.5292 7.1514 12.1123 7.74447 12.8433 7.48361C12.9931 7.43012 12.9839 7.43291 13.1939 7.43291C13.2195 7.43291 13.3643 7.52417 13.3889 7.52507C14.5257 7.56877 14.5508 8.60065 15.7368 8.60065C16.9483 8.60065 16.9483 7.52372 18.1597 7.52372C18.3694 7.52372 18.5428 7.55603 18.6925 7.60933C19.4237 7.87002 20.1405 7.19681 19.9073 6.45639C19.2196 4.27273 18.1284 2.23741 16.6904 0.456043C16.6687 0.429302 16.6463 0.403727 16.6231 0.379319C15.7364 0.142144 15.3395 0.158476 14.8704 0.739612C13.4323 2.52107 12.4499 4.22733 11.7623 6.41098Z" fill="#00B67B"/>
<path d="M13.2195 6.70963C13.1217 7.01922 13.2069 7.31625 13.3891 7.52534C13.3648 7.52444 13.3397 7.52354 13.3137 7.52354C13.1037 7.52354 12.9305 7.55674 12.7807 7.60969C12.0493 7.87082 11.3323 7.1969 11.5656 6.45657C11.9102 5.36537 12.3544 4.31006 12.8928 3.30591C13.4313 2.30175 14.0639 1.34695 14.7827 0.455864C15.0277 0.151656 15.3821 0 15.7366 0C16.0596 0 16.3836 0.126529 16.6232 0.379587L16.3423 0.726958C14.9999 2.38889 13.9822 4.28772 13.3406 6.32475L13.2195 6.70963Z" fill="#00AA68"/>
<path d="M31.5312 30.2168H0.46875C0.209875 30.2168 0 30.0069 0 29.748C0 29.4892 0.209875 29.2793 0.46875 29.2793H31.5312C31.7901 29.2793 32 29.4892 32 29.748C32 30.0069 31.7901 30.2168 31.5312 30.2168Z" fill="#00B67B"/>
</svg>
