<svg width="40" height="40" viewBox="0 0 40 40" fill="none" xmlns="http://www.w3.org/2000/svg">
<mask id="mask0_875_526" style="mask-type:alpha" maskUnits="userSpaceOnUse" x="0" y="0" width="40" height="40">
<rect width="40" height="40" fill="#D9D9D9"/>
</mask>
<g mask="url(#mask0_875_526)">
<path d="M8.3335 31.282V29.6154H11.0258V16.4103C11.0258 14.2329 11.7149 12.3179 13.0931 10.6651C14.4713 9.01228 16.2181 7.98289 18.3335 7.57692V6.66667C18.3335 6.20369 18.4952 5.81017 18.8185 5.48608C19.1418 5.16203 19.5345 5 19.9964 5C20.4583 5 20.8522 5.16203 21.178 5.48608C21.5039 5.81017 21.6668 6.20369 21.6668 6.66667V7.57692C23.7822 7.98289 25.529 9.01228 26.9072 10.6651C28.2854 12.3179 28.9745 14.2329 28.9745 16.4103V29.6154H31.6668V31.282H8.3335ZM19.9945 35.641C19.2526 35.641 18.6193 35.3774 18.0947 34.8502C17.5701 34.3229 17.3079 33.6891 17.3079 32.9487H22.6925C22.6925 33.6944 22.4283 34.3296 21.9 34.8542C21.3716 35.3788 20.7364 35.641 19.9945 35.641ZM12.6925 29.6154H27.3079V16.4103C27.3079 14.3846 26.5963 12.6603 25.1732 11.2372C23.7502 9.81411 22.0258 9.10258 20.0002 9.10258C17.9745 9.10258 16.2502 9.81411 14.8271 11.2372C13.404 12.6603 12.6925 14.3846 12.6925 16.4103V29.6154Z" fill="#343A40"/>
</g>
</svg>
