<svg width="120" height="120" viewBox="0 0 120 120" fill="none" xmlns="http://www.w3.org/2000/svg">
<path d="M67.3899 68.8379H52.6125V97.5626H67.3899V68.8379Z" fill="#9EA9AB"/>
<path d="M67.3899 68.8379H52.6125V77.2437H67.3899V68.8379Z" fill="#7E8889"/>
<path d="M60.0012 68.8379H52.6125V97.5626H60.0012V68.8379Z" fill="#7E8889"/>
<path d="M70.9599 59.7583H49.04V69.7129C49.04 71.1341 50.1922 72.2861 51.6132 72.2861H68.3863C69.8075 72.2861 70.9594 71.1339 70.9594 69.7129V59.7583H70.9599Z" fill="#9EA9AB"/>
<path d="M55.9363 59.7583H49.0403V69.7129C49.0403 71.1341 50.1925 72.2861 51.6135 72.2861H55.9363V59.7583Z" fill="#7E8889"/>
<path d="M72.6016 0C67.1963 0 62.4774 2.98546 59.9998 7.39241C57.5224 2.98546 52.8035 0 47.3982 0C39.4308 0 32.949 6.48186 32.949 14.4487C32.949 15.469 33.7761 16.2958 34.7961 16.2958C35.8161 16.2958 36.6432 15.4687 36.6432 14.4487C36.6432 8.51858 41.4678 3.69421 47.3979 3.69421C53.3281 3.69421 58.1527 8.51881 58.1527 14.4487V19.8515C56.021 17.8218 53.1406 16.5719 49.9718 16.5719C43.4239 16.5719 38.097 21.899 38.097 28.4467C38.097 29.467 38.9241 30.2938 39.9441 30.2938C40.9641 30.2938 41.7912 29.4667 41.7912 28.4467C41.7912 23.936 45.4608 20.2661 49.9718 20.2661C54.4828 20.2661 58.1527 23.9357 58.1527 28.4467V42.6796H61.8471V28.4467C61.8471 23.936 65.5167 20.2661 70.0277 20.2661C74.5385 20.2661 78.2083 23.9357 78.2083 28.4467C78.2083 29.467 79.0354 30.2938 80.0555 30.2938C81.0754 30.2938 81.9025 29.4667 81.9025 28.4467C81.9025 21.8988 76.5755 16.5719 70.0277 16.5719C66.8592 16.5719 63.9785 17.8218 61.8471 19.8515V14.4487C61.8471 8.51858 66.6715 3.69421 72.6016 3.69421C78.5318 3.69421 83.3564 8.51881 83.3564 14.4487C83.3564 15.469 84.1835 16.2958 85.2035 16.2958C86.2235 16.2958 87.0506 15.4687 87.0506 14.4487C87.0506 6.48186 80.5687 0 72.6016 0Z" fill="#A4EAFF"/>
<path d="M95.5526 40.2175C95.5526 48.4904 90.4299 55.8742 82.4131 60.7138C80.3714 61.9478 78.1423 63.0142 75.7632 63.891C74.1598 64.4797 72.4875 64.9846 70.7586 65.391H49.2427C34.8669 62.0068 24.4487 52.015 24.4487 40.2177L58.7691 36.8535L95.5526 40.2175Z" fill="#9EA9AB"/>
<path d="M76.5797 61.7396H66.3239C59.2268 61.7396 52.2636 59.5829 46.5312 55.3982C41.0717 51.4124 37.34 46.1263 36.2396 40.2163H24.448C24.448 52.0136 34.8659 62.0056 49.242 65.3895H70.7578C74.5428 64.4984 78.053 63.1492 81.1713 61.4298C79.6542 61.6318 78.1207 61.7396 76.5797 61.7396Z" fill="#7E8889"/>
<path d="M82.4131 40.2175V60.7138C80.3715 61.9478 78.1423 63.0142 75.7632 63.891V37.0996L82.4131 40.2175Z" fill="#7E8889"/>
<path d="M95.5518 39.3581C95.5518 36.5133 93.2456 34.207 90.4007 34.207H89.6407H59.9995H30.3587H29.5986C26.7538 34.207 24.4475 36.5133 24.4475 39.3581V40.2164H30.3584V95.4702L41.4411 90.085V40.2166L41.4415 40.2164H78.5573L78.5578 40.2166V90.085L89.6404 95.7163V40.2164H95.5514V39.3581H95.5518Z" fill="#63D2FF"/>
<path d="M33.7707 85.126C33.0226 85.126 32.416 84.5196 32.416 83.7713V44.8576C32.416 44.1095 33.0223 43.5029 33.7707 43.5029C34.5188 43.5029 35.1254 44.1093 35.1254 44.8576V83.7713C35.1254 84.5194 34.5191 85.126 33.7707 85.126Z" fill="#A4EAFF"/>
<path d="M82.7824 85.126C82.0343 85.126 81.4277 84.5196 81.4277 83.7713V44.8576C81.4277 44.1095 82.0341 43.5029 82.7824 43.5029C83.5305 43.5029 84.1371 44.1093 84.1371 44.8576V83.7713C84.1371 84.5194 83.5308 85.126 82.7824 85.126Z" fill="#A4EAFF"/>
<path d="M101.319 101.38H18.6812V120H101.319V101.38Z" fill="#7E8889"/>
<path d="M101.319 110.954H26.7495V120H101.319V110.954Z" fill="#9EA9AB"/>
<path d="M106.457 90.085H13.5433C12.1204 90.085 10.967 91.2383 10.967 92.6612V102.467C10.967 103.889 12.1204 105.043 13.5433 105.043H106.457C107.88 105.043 109.033 103.889 109.033 102.467V92.6612C109.033 91.2383 107.88 90.085 106.457 90.085Z" fill="#9EA9AB"/>
<path d="M30.1989 90.085H13.5433C12.1204 90.085 10.967 91.2383 10.967 92.6612V102.467C10.967 103.889 12.1204 105.043 13.5433 105.043H30.1989V90.085Z" fill="#7E8889"/>
</svg>
