<svg width="32" height="32" viewBox="0 0 32 32" fill="none" xmlns="http://www.w3.org/2000/svg">
<g clip-path="url(#clip0_1390_986)">
<path d="M17.6822 13.2081C17.4407 13.4629 17.0994 13.5972 16.7484 13.5754C16.6269 13.5677 13.7403 13.3693 10.7878 11.7783C7.99776 10.2748 4.63089 7.22405 4.43539 1.22806C4.42464 0.901061 4.54983 0.584311 4.78108 0.352937C5.13383 0 5.54783 0 5.72464 0C5.8497 0 8.79001 0.0211249 11.8196 1.83768C13.3923 2.78074 14.6997 4.03443 15.7059 5.56405C16.9212 7.41192 17.6925 9.66336 17.9982 12.2557C18.0394 12.6044 17.9236 12.9532 17.6822 13.2081Z" fill="#6DC82A"/>
<path d="M15.7428 5.62305C15.2467 6.53867 14.8282 7.56992 14.528 8.73167C14.258 9.53804 13.8457 10.9548 13.5054 12.915C15.3003 13.4767 16.6656 13.5706 16.7482 13.5758C17.0994 13.5976 17.4406 13.4633 17.6821 13.2085C17.9234 12.9536 18.0392 12.6048 17.9981 12.2562C17.6955 9.69085 16.9363 7.45998 15.7428 5.62305Z" fill="#5EAC24"/>
<path d="M16.6671 11.1783L14.1178 8.69234L13.4456 5.34247C13.3924 5.07697 13.1341 4.90516 12.8685 4.95828C12.603 5.01153 12.4311 5.26997 12.4843 5.53534L12.8746 7.48009L11.4687 6.10909L10.7872 2.71316C10.734 2.44766 10.4756 2.27604 10.2101 2.32898C9.94464 2.38223 9.77277 2.6406 9.82595 2.90604L10.2255 4.89678L6.94471 1.69779C6.75071 1.50879 6.44059 1.51279 6.25152 1.70654C6.06252 1.90041 6.06646 2.21073 6.26027 2.39966L9.8677 5.91741L7.35121 5.87441C7.08077 5.86703 6.8574 6.08547 6.85271 6.35616C6.84815 6.62684 7.06377 6.84997 7.33446 6.85465L10.8911 6.91547L12.5646 8.54734L10.0096 8.50378C9.74133 8.49778 9.51577 8.71484 9.51108 8.98553C9.50652 9.25621 9.72214 9.47934 9.99283 9.48402L13.5879 9.5454L15.9824 11.8803C16.0778 11.9732 16.2012 12.0195 16.3245 12.0195C16.452 12.0195 16.5794 11.97 16.6756 11.8715C16.8648 11.6775 16.8609 11.3672 16.6671 11.1783Z" fill="#4E901E"/>
<path d="M29.239 0.369598C28.9975 0.114786 28.6562 -0.0194635 28.3051 0.00228648C28.1837 0.00997397 25.2971 0.208411 22.3446 1.79941C20.0758 3.02197 17.4258 5.26771 16.4095 9.28808C15.8545 10.9226 14.6317 15.3554 14.9177 22.0298C14.9424 22.6072 15.4183 23.0587 15.9908 23.0587C16.0063 23.0587 16.0219 23.0584 16.0376 23.0577C16.6307 23.0322 17.0909 22.5309 17.0655 21.9377C16.9173 18.4801 17.202 15.6534 17.5689 13.5676C18.3944 13.5203 20.8542 13.2523 23.3763 11.74C24.949 10.797 26.2565 9.54327 27.2626 8.01365C28.478 6.16577 29.2493 3.91434 29.555 1.32203C29.5961 0.973285 29.4803 0.624473 29.239 0.369598Z" fill="#91DC5A"/>
<path d="M27.6955 1.70656C27.5064 1.51275 27.1961 1.50881 27.0023 1.69781L23.7218 4.89674L24.1213 2.90606C24.1745 2.64062 24.0027 2.38231 23.7372 2.329C23.472 2.276 23.2133 2.44769 23.1601 2.71319L22.4785 6.10912L21.0727 7.48011L21.463 5.53537C21.5162 5.26993 21.3443 5.01162 21.0788 4.95831C20.8134 4.90518 20.555 5.07699 20.5017 5.34249L19.8294 8.69242L17.2801 11.1784C17.0862 11.3674 17.0824 11.6777 17.2714 11.8715C17.3675 11.97 17.4948 12.0194 17.6224 12.0194C17.7458 12.0194 17.8693 11.9732 17.9645 11.8802L20.359 9.54536L23.9542 9.48399C24.2249 9.47936 24.4405 9.25624 24.436 8.98549C24.4314 8.71761 24.2128 8.50368 23.946 8.50368C23.9432 8.50368 23.9403 8.50367 23.9375 8.50374L21.3824 8.5473L23.0558 6.91543L26.6125 6.85462C26.8832 6.84999 27.0988 6.62687 27.0943 6.35612C27.0897 6.08824 26.8712 5.8743 26.6043 5.8743C26.6015 5.8743 26.5986 5.8743 26.5958 5.87437L24.0793 5.91737L27.6867 2.39962C27.8807 2.21069 27.8845 1.90037 27.6955 1.70656Z" fill="#5EAC24"/>
<path d="M28.0746 25.6332C27.5802 25.6332 27.1185 25.7725 26.726 26.0137C26.1464 24.1173 24.3828 22.7378 22.2967 22.7378C22.0652 22.7378 21.8379 22.7553 21.6156 22.7881C20.67 20.6247 18.5122 19.1123 16.0002 19.1123C13.4883 19.1123 11.3305 20.6247 10.3849 22.7881C10.1625 22.7553 9.93511 22.7378 9.70374 22.7378C7.61762 22.7378 5.85412 24.1173 5.27443 26.0137C4.882 25.7725 4.42031 25.6332 3.92587 25.6332C2.50119 25.6332 1.34619 26.7882 1.34619 28.2129C1.34619 29.6376 2.50119 30.7926 3.92587 30.7926C4.68937 30.7926 5.37512 30.4607 5.84737 29.9336C6.67749 31.1793 8.09449 32.0005 9.70368 32.0005C11.0069 32.0005 12.1837 31.4614 13.0252 30.595C13.9062 31.0855 14.9202 31.3659 16.0002 31.3659C17.0802 31.3659 18.0942 31.0855 18.9753 30.595C19.8169 31.4614 20.9936 32.0005 22.2968 32.0005C23.906 32.0005 25.323 31.1794 26.1531 29.9336C26.6254 30.4607 27.3111 30.7926 28.0746 30.7926C29.4993 30.7926 30.6543 29.6376 30.6543 28.2129C30.6543 26.7882 29.4993 25.6332 28.0746 25.6332Z" fill="#CC7400"/>
<path d="M19.3679 21.6194C19.9771 21.6194 20.565 21.7096 21.1205 21.8751C20.0252 20.2108 18.1414 19.1113 16 19.1113C13.488 19.1113 11.3302 20.6238 10.3846 22.7871C10.1622 22.7543 9.93487 22.7368 9.70349 22.7368C7.61737 22.7368 5.85388 24.1163 5.27419 26.0127C4.88175 25.7715 4.42007 25.6323 3.92563 25.6323C2.50095 25.6323 1.34595 26.7873 1.34595 28.2119C1.34595 29.6366 2.50095 30.7916 3.92563 30.7916C4.68913 30.7916 5.37488 30.4597 5.84713 29.9326C6.67725 31.1783 8.09425 31.9995 9.70343 31.9995C11.0066 31.9995 12.1834 31.4604 13.0249 30.5941C13.4092 30.808 13.8187 30.9818 14.2479 31.11C13.6121 30.1443 13.2411 28.9888 13.2411 27.7462C13.2411 24.3625 15.9842 21.6194 19.3679 21.6194Z" fill="#AA6100"/>
<path d="M18.4365 27.4235C19.0499 27.4235 19.5472 26.9262 19.5472 26.3128C19.5472 25.6994 19.0499 25.2021 18.4365 25.2021C17.8231 25.2021 17.3258 25.6994 17.3258 26.3128C17.3258 26.9262 17.8231 27.4235 18.4365 27.4235Z" fill="#AA6100"/>
<path d="M22.9146 30.0388C23.5281 30.0388 24.0253 29.5415 24.0253 28.9281C24.0253 28.3147 23.5281 27.8174 22.9146 27.8174C22.3012 27.8174 21.804 28.3147 21.804 28.9281C21.804 29.5415 22.3012 30.0388 22.9146 30.0388Z" fill="#AA6100"/>
<path d="M22.2318 25.5549C22.4678 25.5549 22.6592 25.3636 22.6592 25.1276C22.6592 24.8915 22.4678 24.7002 22.2318 24.7002C21.9958 24.7002 21.8044 24.8915 21.8044 25.1276C21.8044 25.3636 21.9958 25.5549 22.2318 25.5549Z" fill="#AA6100"/>
<path d="M16 29.7835C16.236 29.7835 16.4274 29.5921 16.4274 29.3561C16.4274 29.1201 16.236 28.9287 16 28.9287C15.764 28.9287 15.5726 29.1201 15.5726 29.3561C15.5726 29.5921 15.764 29.7835 16 29.7835Z" fill="#AA6100"/>
<path d="M17.3253 23.9583C17.5614 23.9583 17.7527 23.7669 17.7527 23.5309C17.7527 23.2949 17.5614 23.1035 17.3253 23.1035C17.0893 23.1035 16.8979 23.2949 16.8979 23.5309C16.8979 23.7669 17.0893 23.9583 17.3253 23.9583Z" fill="#AA6100"/>
<path d="M26.5219 27.8508C26.7579 27.8508 26.9492 27.6595 26.9492 27.4235C26.9492 27.1874 26.7579 26.9961 26.5219 26.9961C26.2858 26.9961 26.0945 27.1874 26.0945 27.4235C26.0945 27.6595 26.2858 27.8508 26.5219 27.8508Z" fill="#AA6100"/>
<path d="M24.026 20.9362C24.6394 20.9362 25.1367 20.4389 25.1367 19.8255C25.1367 19.2121 24.6394 18.7148 24.026 18.7148C23.4126 18.7148 22.9153 19.2121 22.9153 19.8255C22.9153 20.4389 23.4126 20.9362 24.026 20.9362Z" fill="#CC7400"/>
<path d="M26.522 22.7366C26.758 22.7366 26.9494 22.5452 26.9494 22.3092C26.9494 22.0732 26.758 21.8818 26.522 21.8818C26.2859 21.8818 26.0946 22.0732 26.0946 22.3092C26.0946 22.5452 26.2859 22.7366 26.522 22.7366Z" fill="#CC7400"/>
<path d="M26.5219 20.6799C26.7579 20.6799 26.9492 20.4886 26.9492 20.2526C26.9492 20.0165 26.7579 19.8252 26.5219 19.8252C26.2858 19.8252 26.0945 20.0165 26.0945 20.2526C26.0945 20.4886 26.2858 20.6799 26.5219 20.6799Z" fill="#CC7400"/>
<path d="M7.03311 20.5446C7.64652 20.5446 8.14379 20.0473 8.14379 19.4339C8.14379 18.8205 7.64652 18.3232 7.03311 18.3232C6.41969 18.3232 5.92242 18.8205 5.92242 19.4339C5.92242 20.0473 6.41969 20.5446 7.03311 20.5446Z" fill="#AA6100"/>
<path d="M5.18873 22.3098C5.42476 22.3098 5.6161 22.1185 5.6161 21.8825C5.6161 21.6464 5.42476 21.4551 5.18873 21.4551C4.95269 21.4551 4.76135 21.6464 4.76135 21.8825C4.76135 22.1185 4.95269 22.3098 5.18873 22.3098Z" fill="#AA6100"/>
</g>
<defs>
<clipPath id="clip0_1390_986">
<rect width="32" height="32" fill="white"/>
</clipPath>
</defs>
</svg>
