<svg width="40" height="40" viewBox="0 0 40 40" fill="none" xmlns="http://www.w3.org/2000/svg">
<g clip-path="url(#clip0_1586_215)">
<path d="M1.36251 5.12146C0.791084 6.34302 0.544907 7.69147 0.647838 9.03615C0.750769 10.3808 1.19932 11.6761 1.95001 12.7965L5.10001 17.484L6.57501 14.759L4.13126 11.109C3.57048 10.2664 3.27048 9.2773 3.26876 8.26521C3.26778 7.40534 3.48423 6.5592 3.89797 5.80542C4.31171 5.05165 4.90932 4.41472 5.63524 3.95385C6.36116 3.49297 7.19182 3.22312 8.05 3.16938C8.90818 3.11564 9.76602 3.27975 10.5438 3.64645L12.1938 4.42145L13.425 2.1527L11.7563 1.37145C10.8276 0.935124 9.82205 0.686004 8.79709 0.638323C7.77213 0.590642 6.74781 0.745333 5.78264 1.09356C4.81746 1.44179 3.93034 1.97673 3.17193 2.66785C2.41351 3.35896 1.79867 4.1927 1.36251 5.12146Z" fill="#BD7710"/>
<path d="M2.9725 14.3178L5.1 17.4841L6.575 14.7591L4.52375 11.6953L2.9725 14.3178Z" fill="#8E590C"/>
<path d="M11.7562 1.37125C11.4589 1.23347 11.153 1.11469 10.8406 1.01562L9.49625 3.28813C9.85737 3.36914 10.2086 3.48922 10.5437 3.64625L12.1937 4.42125L13.425 2.1525L11.7562 1.37125Z" fill="#8E590C"/>
<path d="M4.18751 19.1589C4.02928 19.4494 3.93214 19.7692 3.90207 20.0987C3.872 20.4281 3.90964 20.7602 4.01267 21.0746C4.1157 21.3889 4.28195 21.6789 4.50118 21.9266C4.72042 22.1744 4.98801 22.3746 5.28751 22.5151L16.9438 27.9901C17.2434 28.1313 17.5688 28.2095 17.8999 28.2201C18.231 28.2306 18.5607 28.1732 18.8688 28.0514C19.1768 27.9296 19.4566 27.7459 19.6909 27.5118C19.9253 27.2777 20.1092 26.9981 20.2313 26.6901L20.9375 24.9214L5.10001 17.4839L4.18751 19.1589Z" fill="#FC9E15"/>
<path d="M19.7806 24.3783L19.6063 24.8158C19.4842 25.1237 19.3003 25.4033 19.0659 25.6374C18.8316 25.8716 18.5518 26.0552 18.2437 26.177C17.9357 26.2988 17.606 26.3562 17.2749 26.3457C16.9438 26.3351 16.6184 26.2569 16.3188 26.1158L4.6625 20.6401C4.37644 20.5039 4.11992 20.3128 3.9075 20.0776C3.85696 20.5768 3.96257 21.0793 4.20974 21.5159C4.45692 21.9525 4.83349 22.3016 5.2875 22.5151L16.9438 27.9901C17.2434 28.1313 17.5688 28.2095 17.8999 28.2201C18.231 28.2306 18.5607 28.1732 18.8687 28.0514C19.1768 27.9296 19.4566 27.7459 19.6909 27.5118C19.9253 27.2777 20.1092 26.9981 20.2313 26.6901L20.9375 24.9214L19.7806 24.3783Z" fill="#BD7710"/>
<path d="M36.7562 13.4213L33.5312 16.8213L33.9875 20.6588L37.9125 23.2151C38.0963 23.3379 38.3179 23.3911 38.5375 23.3651C38.7677 23.3386 38.9802 23.2284 39.1346 23.0556C39.289 22.8828 39.3745 22.6593 39.375 22.4276C39.375 22.3901 38.3812 13.9588 38.3812 13.9588C38.3666 13.8356 38.3278 13.7166 38.2671 13.6084C38.2064 13.5002 38.1249 13.4051 38.0274 13.3285C37.9299 13.2518 37.8182 13.1952 37.6987 13.1618C37.5793 13.1284 37.4544 13.1189 37.3312 13.1338C37.1114 13.1578 36.9074 13.2598 36.7562 13.4213Z" fill="#FC9E15"/>
<path d="M37.3812 15.5951C37.5293 15.438 37.7269 15.3368 37.9409 15.3086C38.1548 15.2803 38.3719 15.3268 38.5556 15.4401C38.4519 14.5607 38.3812 13.9588 38.3812 13.9588C38.3666 13.8356 38.3278 13.7166 38.2671 13.6084C38.2064 13.5002 38.1249 13.4051 38.0274 13.3285C37.9299 13.2518 37.8182 13.1952 37.6987 13.1618C37.5793 13.1284 37.4544 13.1189 37.3312 13.1338C37.1114 13.1578 36.9074 13.2598 36.7562 13.4213L33.5312 16.8213L33.8031 19.1057L37.3812 15.5951Z" fill="#FCBB29"/>
<path d="M20.9375 24.9215L33.9875 20.659L33.5313 16.8215L24.4375 16.1777H24.4313L20.9375 24.9215Z" fill="#BD7710"/>
<path d="M27.35 22.0852C27.0244 22.0415 26.7127 21.9258 26.4374 21.7465C26.1621 21.5672 25.9302 21.3289 25.7586 21.0488C25.587 20.7686 25.48 20.4538 25.4453 20.1271C25.4106 19.8004 25.4492 19.4701 25.5581 19.1602L26.5538 16.3271L24.4375 16.1777H24.4313L20.9375 24.9215L28.9587 22.3015L27.35 22.0852Z" fill="#8E590C"/>
<path d="M13.425 2.15281L21.5875 5.98406L23.225 2.49031C23.225 2.49031 17.4 -0.249693 13.425 2.15281Z" fill="#BD7710"/>
<path d="M6.57501 14.7591L5.10001 17.4841L20.9375 24.9216L23.4313 18.6903L24.4313 16.1778L27.4125 8.72158L21.5875 5.98408L13.425 2.15283L12.1938 4.42158L6.57501 14.7591Z" fill="#FFB600"/>
<path d="M35.625 25L37.8125 28.8575C38.0989 29.3638 38.1933 29.9562 38.0785 30.5264C37.9637 31.0967 37.6474 31.6064 37.1875 31.9625C36.7412 32.3109 36.1912 32.5001 35.625 32.5001C35.0588 32.5001 34.5088 32.3109 34.0625 31.9625C33.6026 31.6064 33.2863 31.0967 33.1715 30.5264C33.0567 29.9562 33.1511 29.3638 33.4375 28.8575L35.625 25Z" fill="#57B9E7"/>
<path d="M33.4375 28.86L34.0694 27.75C33.8655 28.1103 33.7982 28.5319 33.8798 28.9378C33.9615 29.3436 34.1865 29.7065 34.5138 29.96C34.8313 30.2075 35.2224 30.342 35.625 30.342C36.0276 30.342 36.4187 30.2075 36.7363 29.96C37.0635 29.7065 37.2886 29.3436 37.3702 28.9378C37.4518 28.5319 37.3845 28.1103 37.1806 27.75L37.8125 28.86C38.0989 29.3663 38.1933 29.9587 38.0785 30.5289C37.9637 31.0992 37.6474 31.6089 37.1875 31.965C36.7412 32.3134 36.1912 32.5026 35.625 32.5026C35.0588 32.5026 34.5088 32.3134 34.0625 31.965C33.6025 31.609 33.2861 31.0992 33.1713 30.529C33.0565 29.9587 33.151 29.3662 33.4375 28.86Z" fill="#2B96CC"/>
<path d="M26.5625 28.125L28.4744 31.3394C28.7245 31.7605 28.8071 32.2603 28.7061 32.7395C28.605 33.2188 28.3276 33.6426 27.9288 33.9269C27.5327 34.218 27.054 34.375 26.5625 34.375C26.071 34.375 25.5923 34.218 25.1963 33.9269C24.7975 33.6426 24.52 33.2188 24.419 32.7395C24.3179 32.2603 24.4006 31.7605 24.6506 31.3394L26.5625 28.125Z" fill="#3C9BD4"/>
<path d="M24.6506 31.3421L25.1919 30.4321C25.0127 30.7341 24.9535 31.0923 25.026 31.4359C25.0984 31.7794 25.2973 32.0832 25.5831 32.2871C25.8672 32.4954 26.2103 32.6077 26.5625 32.6077C26.9148 32.6077 27.2578 32.4954 27.5419 32.2871C27.8278 32.0832 28.0266 31.7794 28.0991 31.4359C28.1715 31.0923 28.1123 30.7341 27.9331 30.4321L28.4744 31.3421C28.7245 31.7633 28.8071 32.263 28.7061 32.7423C28.605 33.2215 28.3276 33.6453 27.9288 33.9296C27.5327 34.2207 27.054 34.3777 26.5625 34.3777C26.071 34.3777 25.5923 34.2207 25.1963 33.9296C24.7975 33.6453 24.52 33.2215 24.419 32.7423C24.3179 32.263 24.4006 31.7633 24.6506 31.3421Z" fill="#0569A0"/>
<path d="M31.5625 33.125L33.4744 36.3394C33.7245 36.7605 33.8071 37.2603 33.7061 37.7395C33.605 38.2188 33.3276 38.6426 32.9288 38.9269C32.5327 39.218 32.054 39.375 31.5625 39.375C31.071 39.375 30.5923 39.218 30.1963 38.9269C29.7975 38.6426 29.52 38.2188 29.419 37.7395C29.3179 37.2603 29.4006 36.7605 29.6506 36.3394L31.5625 33.125Z" fill="#3C9BD4"/>
<path d="M29.6506 36.3421L30.1919 35.4321C30.0127 35.7341 29.9535 36.0923 30.026 36.4359C30.0984 36.7794 30.2973 37.0832 30.5831 37.2871C30.8672 37.4954 31.2103 37.6077 31.5625 37.6077C31.9148 37.6077 32.2578 37.4954 32.5419 37.2871C32.8278 37.0832 33.0266 36.7794 33.0991 36.4359C33.1715 36.0923 33.1123 35.7341 32.9331 35.4321L33.4744 36.3421C33.7245 36.7633 33.8071 37.263 33.7061 37.7423C33.605 38.2215 33.3276 38.6453 32.9288 38.9296C32.5327 39.2207 32.054 39.3777 31.5625 39.3777C31.071 39.3777 30.5923 39.2207 30.1963 38.9296C29.7975 38.6453 29.52 38.2215 29.419 37.7423C29.3179 37.263 29.4006 36.7633 29.6506 36.3421Z" fill="#0569A0"/>
<path d="M8.50938 15.697L14.0169 5.25016C14.0922 5.10727 14.2187 4.99805 14.3711 4.94429C14.5234 4.89054 14.6904 4.8962 14.8388 4.96016L17.9638 6.30391C18.0759 6.35192 18.172 6.43102 18.2407 6.53189C18.3094 6.63275 18.3478 6.75116 18.3513 6.87313C18.3549 6.9951 18.3234 7.11553 18.2607 7.22022C18.198 7.3249 18.1067 7.40946 17.9975 7.46391C15.02 9.00016 11.7394 13.4377 9.42626 16.3058C9.33931 16.4117 9.21617 16.4815 9.08068 16.5018C8.94518 16.5221 8.80699 16.4913 8.69286 16.4155C8.57872 16.3398 8.49677 16.2243 8.46288 16.0916C8.42898 15.9589 8.44555 15.8183 8.50938 15.697Z" fill="#FFD366"/>
</g>
<defs>
<clipPath id="clip0_1586_215">
<rect width="40" height="40" fill="white"/>
</clipPath>
</defs>
</svg>
