<svg width="32" height="32" viewBox="0 0 32 32" fill="none" xmlns="http://www.w3.org/2000/svg">
<g clip-path="url(#clip0_1390_969)">
<path d="M10.4866 26.9443C11.8344 26.9445 13.1242 27.231 14.3174 27.6528C17.5232 28.7861 20.714 28.1845 22.1089 27.813C22.8336 27.6199 23.6162 27.6001 24.3462 27.7798C27.7647 28.6215 30.408 31.9881 30.408 31.9881H1.49542C1.49542 31.9881 4.76636 26.9453 10.4866 26.9443Z" fill="#C6865C"/>
<path d="M24.3461 27.7802C23.6161 27.6004 22.8336 27.6203 22.1088 27.8133C22.0795 27.8211 22.0482 27.8292 22.0173 27.8372C25.3308 28.7628 27.8638 31.9885 27.8638 31.9885H30.4078C30.4079 31.9885 27.7646 28.6219 24.3461 27.7802Z" fill="#B16E3D"/>
<path d="M31.3766 32.0003H0.52652C0.259769 32.0003 0.043457 31.7841 0.043457 31.5172C0.043457 31.2504 0.259707 31.0342 0.52652 31.0342H31.3766C31.6435 31.0342 31.8597 31.2504 31.8597 31.5172C31.8597 31.7841 31.6435 32.0003 31.3766 32.0003Z" fill="#804F2B"/>
<path d="M18.6958 2.69184L19.8405 3.14752H11.8005C11.0496 3.14752 10.41 3.73146 10.3834 4.4819C10.3554 5.26977 10.9858 5.91727 11.7674 5.91727H9.43529C8.67048 5.91727 8.05042 6.53727 8.05042 7.30215C8.05042 8.06696 8.67041 8.68702 9.43529 8.68702H10.5794C9.8146 8.68702 9.19454 9.30702 9.19454 10.0719C9.19454 10.8367 9.81454 11.4568 10.5794 11.4568H13.1501C12.3685 11.4568 11.7381 12.1043 11.7662 12.8921C11.7929 13.6426 12.4324 14.2265 13.1833 14.2265H21.6992C22.3298 14.2265 22.9534 14.095 23.5303 13.8403L25.5702 12.9396C25.893 12.7971 26.2458 12.736 26.5977 12.7616L28.9937 12.9131V4.28484H26.074L24.9254 2.92102C24.3228 2.22396 23.8473 1.7174 22.9897 1.38046L19.722 0.0967106C19.1465 -0.129352 18.4908 0.0502106 18.1109 0.538086C17.5397 1.27152 17.832 2.34802 18.6958 2.69184Z" fill="#FFDDCF"/>
<path d="M14.7172 12.8423H13.158C12.6594 12.8423 12.1899 12.5576 11.9442 12.1611C11.8228 12.3758 11.7568 12.626 11.7663 12.8923C11.793 13.6428 12.4325 14.2267 13.1834 14.2267H16.102C16.1017 13.4621 15.4818 12.8423 14.7172 12.8423Z" fill="#FFCBBE"/>
<path d="M16.1021 8.68766C16.1021 7.92279 15.4821 7.30279 14.7172 7.30279H9.43541C8.9231 7.30279 8.47691 7.02391 8.23735 6.61035C8.11929 6.81423 8.05054 7.05023 8.05054 7.30279C8.05054 8.0676 8.67054 8.68766 9.43541 8.68766H10.5795H16.1021Z" fill="#FFCBBE"/>
<path d="M14.7172 4.53263H11.7701C11.2581 4.53263 10.812 4.25401 10.5724 3.84082C10.4599 4.02995 10.3918 4.24788 10.3835 4.48213C10.3555 5.27001 10.9859 5.91751 11.7675 5.91751H16.102C16.1021 5.1527 15.482 4.53263 14.7172 4.53263Z" fill="#FFCBBE"/>
<path d="M16.1021 11.4572C16.1021 10.6923 15.4821 10.0723 14.7172 10.0723H10.584C10.0716 10.0723 9.62545 9.79345 9.38589 9.37988C9.38139 9.38763 9.37489 9.39563 9.3667 9.40382C9.25727 9.60201 9.19464 9.82963 9.19464 10.0721C9.19464 10.8369 9.81464 11.4569 10.5795 11.4569H13.1502C13.1468 11.4569 13.1433 11.4572 13.1399 11.4572H16.1021Z" fill="#FFCBBE"/>
<path d="M26.0742 4.28516V12.7876C26.2464 12.7578 26.4222 12.749 26.5978 12.7618L28.9938 12.9132V4.28516H26.0742Z" fill="#FFCBBE"/>
<path d="M31.141 13.9186H29.374C28.9237 13.9186 28.5586 13.5535 28.5586 13.1032V4.06641C28.5586 3.61604 28.9237 3.25098 29.374 3.25098H31.141C31.5913 3.25098 31.9564 3.61604 31.9564 4.06641V13.1032C31.9564 13.5535 31.5913 13.9186 31.141 13.9186Z" fill="#5AD6FF"/>
<path d="M17.797 12.3227C17.6657 12.1477 17.4033 12.1477 17.272 12.3227C16.9884 12.7007 16.5766 13.3765 16.5766 14.1132C16.5766 14.8548 17.0006 15.4766 17.2844 15.8097C17.4158 15.9639 17.6533 15.9639 17.7847 15.8097C18.0685 15.4766 18.4925 14.8548 18.4925 14.1132C18.4925 13.3765 18.0806 12.7007 17.797 12.3227Z" fill="#9BD069"/>
<path d="M15.5481 20.4652C15.4168 20.2902 15.1544 20.2902 15.0231 20.4652C14.7394 20.8432 14.3276 21.519 14.3276 22.2557C14.3276 22.9974 14.7516 23.6192 15.0354 23.9523C15.1668 24.1065 15.4043 24.1065 15.5357 23.9523C15.8195 23.6192 16.2435 22.9974 16.2435 22.2557C16.2436 21.519 15.8317 20.8432 15.5481 20.4652Z" fill="#9BD069"/>
<path d="M20.279 17.3607C20.1477 17.1857 19.8853 17.1857 19.754 17.3607C19.4704 17.7387 19.0586 18.4146 19.0586 19.1512C19.0586 19.8929 19.4826 20.5147 19.7664 20.8478C19.8978 21.002 20.1353 21.002 20.2667 20.8478C20.5505 20.5147 20.9745 19.8929 20.9745 19.1512C20.9745 18.4146 20.5626 17.7387 20.279 17.3607Z" fill="#9BD069"/>
<path d="M23.1943 6.12915H22.7982C21.154 6.12915 19.8165 4.79159 19.8165 3.14746H18.8504C18.8504 5.32427 20.6213 7.09521 22.7982 7.09521H23.1943C23.4611 7.09521 23.6773 6.87896 23.6773 6.61215C23.6773 6.34534 23.4611 6.12915 23.1943 6.12915Z" fill="#FFCBBE"/>
</g>
<defs>
<clipPath id="clip0_1390_969">
<rect width="32" height="32" fill="white"/>
</clipPath>
</defs>
</svg>
