<svg width="24" height="24" viewBox="0 0 24 24" fill="none" xmlns="http://www.w3.org/2000/svg">
<path d="M12.5209 1.27516C12.1527 0.906977 11.5084 0.906977 11.1402 1.27516C10.3117 2.19565 3.5 10.4802 3.5 14.7145C3.5 19.317 7.18199 22.999 11.7845 22.999C16.387 22.999 20.069 19.317 20.069 14.7145C20.069 10.4802 13.2573 2.19565 12.5209 1.27516Z" fill="#CCF2FE"/>
<path d="M19.0565 11.1243C17.6758 11.4925 17.4916 12.8732 15.7427 12.8732C13.7176 12.8732 13.7176 11.0322 11.7846 11.0322C9.85151 11.0322 9.75943 12.8732 7.82637 12.8732C6.07743 12.8732 5.89332 11.4925 4.51257 11.1243C3.96027 12.2289 3.59208 13.4255 3.5 14.7143C3.5 14.9904 3.5 15.3586 3.59204 15.6348C3.68407 15.6348 3.77615 15.6348 3.86819 15.6348C5.89328 15.6348 5.89328 17.4758 7.82633 17.4758C9.75938 17.4758 9.85142 15.6348 11.7845 15.6348C13.7175 15.6348 13.8096 17.4758 15.7426 17.4758C17.6757 17.4758 17.7678 15.6348 19.7008 15.6348C19.7929 15.6348 19.885 15.6348 19.977 15.6348C19.977 15.3586 20.069 14.9904 20.069 14.7143C19.977 13.4255 19.6088 12.2289 19.0565 11.1243Z" fill="#B3ECFD"/>
<path d="M15.7444 17.4768C13.7193 17.4768 13.7193 15.6357 11.7862 15.6357C9.85318 15.6357 9.7611 17.4768 7.82804 17.4768C5.89499 17.4768 5.80295 15.6357 3.8699 15.6357C3.77786 15.6357 3.68579 15.6357 3.59375 15.6357C4.14605 20.1462 8.19627 23.46 12.7988 22.9077C16.6649 22.4475 19.6105 19.4098 20.0707 15.6357C19.9787 15.6357 19.8866 15.6357 19.7946 15.6357C17.7695 15.6357 17.7695 17.4768 15.7444 17.4768Z" fill="#34CDFA"/>
</svg>
