<svg width="24" height="24" viewBox="0 0 24 24" fill="none" xmlns="http://www.w3.org/2000/svg">
<g clip-path="url(#clip0_1933_1207)">
<path d="M23.118 12.8826C23.118 19.0225 18.1414 24.0006 11.9992 24.0006C5.8586 24.0006 0.882812 19.0225 0.882812 12.8826C0.882812 6.74319 5.8586 1.76465 11.9992 1.76465C18.1414 1.76465 23.118 6.74319 23.118 12.8826Z" fill="#FBB040"/>
<path d="M12.6875 20.4119C6.54687 20.4119 3.47422 17.0119 1.76562 15.1885V17.2306C2.27033 18.4166 2.975 19.4963 3.8375 20.4291V18.3713C4.57419 19.1681 5.42342 19.8572 6.36406 20.4119V22.4642C7.01483 22.8478 7.70937 23.1665 8.43594 23.4134V21.3634C9.24143 21.6353 10.0859 21.8228 10.9625 21.9041V23.9494C11.3047 23.9806 11.6492 23.9994 11.9984 23.9994C12.3484 23.9994 12.6945 23.9806 13.036 23.9494V21.9041C13.9125 21.8228 14.757 21.6353 15.5625 21.3634V23.4119C16.289 23.1666 16.9828 22.8478 17.6344 22.4642V20.4119C18.575 19.8572 19.4243 19.1681 20.161 18.3713V20.4291C21.0234 19.4963 21.7289 18.4166 22.2335 17.2306V15.1885C21.0367 16.0244 18.8297 20.4119 12.6875 20.4119ZM5.29766 15.7322C4.84372 14.7182 4.58516 13.5963 4.58516 12.4131C4.58516 7.91778 8.22814 4.27324 12.7242 4.27324C15.5054 4.27324 17.9586 5.67012 19.4265 7.79782C18.8203 4.51151 14.8657 2.31152 11.5531 2.31152C7.05781 2.31152 3.2203 6.38337 3.2203 10.8783C3.2203 12.5924 3.35314 14.7783 5.29766 15.7322Z" fill="#F7941E"/>
<path d="M11.9992 0C5.8586 0 0.882812 4.97812 0.882812 11.1176C0.882812 17.259 5.8586 22.2356 11.9992 22.2356C18.1414 22.2356 23.118 17.259 23.118 11.1176C23.118 4.97812 18.1414 0 11.9992 0ZM11.9992 19.2575C7.50391 19.2575 3.86017 15.6129 3.86017 11.1176C3.86017 6.62264 7.50391 2.97778 11.9992 2.97778C16.4954 2.97778 20.1399 6.62269 20.1399 11.1176C20.1399 15.6129 16.4954 19.2575 11.9992 19.2575Z" fill="#F9ED32"/>
<g clip-path="url(#clip1_1933_1207)">
<path d="M10.9155 8.77099C9.96947 7.82546 8.11823 7.71582 6.80836 7.71582C6.67258 7.71582 6.5625 7.8259 6.5625 7.96168C6.5625 9.27204 6.67214 11.1233 7.61767 12.0693C8.0616 12.4647 8.64189 12.6719 9.23584 12.6471C9.84825 12.6712 10.4475 12.4651 10.9155 12.0693C11.6201 11.3642 11.7494 9.60492 10.9155 8.77099Z" fill="#F7941E"/>
<path d="M17.1453 8.68848C15.835 8.68848 13.9838 8.79812 13.0377 9.74365C12.2018 10.5795 12.3331 12.3364 13.0377 13.0415C13.5058 13.4373 14.1053 13.6434 14.7178 13.6192C15.3118 13.644 15.8921 13.4368 16.336 13.0415C17.282 12.0954 17.3912 10.2442 17.3912 8.93383C17.3909 8.79826 17.2809 8.68848 17.1453 8.68848Z" fill="#F7941E"/>
<path d="M11.726 17.5504C11.5902 17.5504 11.4801 17.4403 11.4801 17.3046C11.4801 12.0901 9.56792 10.7817 8.84807 10.2895C8.76125 10.2341 8.67904 10.1718 8.60222 10.1032C8.50788 10.0055 8.5106 9.84988 8.60826 9.75555C8.70354 9.66352 8.85457 9.66352 8.94985 9.75555C9.00538 9.8025 9.0642 9.84539 9.12587 9.88388C9.76507 10.321 11.2706 11.3511 11.7914 14.73C12.1938 12.9635 13.3866 11.4803 15.0257 10.7085C15.1513 10.6494 15.3011 10.6967 15.3699 10.8171C15.4321 10.9267 15.3937 11.066 15.2841 11.1282C15.28 11.1305 15.2758 11.1327 15.2716 11.1348L15.2317 11.1535C12.5363 12.4206 11.9703 15.1977 11.9703 17.3046C11.9703 17.4398 11.8612 17.5496 11.726 17.5504Z" fill="#F7941E"/>
<g clip-path="url(#clip2_1933_1207)">
<path d="M10.8159 8.62353C9.86986 7.678 8.01862 7.56836 6.70875 7.56836C6.57297 7.56836 6.46289 7.67844 6.46289 7.81421C6.46289 9.12458 6.57253 10.9758 7.51806 11.9218C7.96199 12.3172 8.54228 12.5244 9.13623 12.4996C9.74865 12.5237 10.3479 12.3176 10.8159 11.9218C11.5205 11.2167 11.6498 9.45746 10.8159 8.62353Z" fill="#F9ED32"/>
<path d="M17.0457 8.54102C15.7354 8.54102 13.8841 8.65066 12.9381 9.59619C12.1022 10.4321 12.2335 12.1889 12.9381 12.894C13.4062 13.2898 14.0057 13.4959 14.6182 13.4717C15.2122 13.4965 15.7924 13.2893 16.2364 12.894C17.1824 11.948 17.2916 10.0967 17.2916 8.78636C17.2913 8.65079 17.1813 8.54102 17.0457 8.54102Z" fill="#F9ED32"/>
<path d="M11.6264 17.4029C11.4906 17.4029 11.3805 17.2929 11.3805 17.1571C11.3805 11.9427 9.46831 10.6343 8.74846 10.1421C8.66164 10.0866 8.57943 10.0243 8.50261 9.95572C8.40827 9.85807 8.41099 9.70242 8.50865 9.60809C8.60393 9.51605 8.75496 9.51605 8.85025 9.60809C8.90577 9.65504 8.96459 9.69793 9.02626 9.73642C9.66546 10.1735 11.171 11.2036 11.6917 14.5826C12.0941 12.816 13.287 11.3329 14.9261 10.561C15.0516 10.5019 15.2015 10.5492 15.2703 10.6697C15.3325 10.7793 15.2941 10.9185 15.1845 10.9807C15.1804 10.983 15.1762 10.9852 15.172 10.9873L15.1321 11.006C12.4367 12.2731 11.8707 15.0502 11.8707 17.1571C11.8707 17.2923 11.7616 17.4021 11.6264 17.4029Z" fill="#FFF886"/>
</g>
</g>
</g>
<defs>
<clipPath id="clip0_1933_1207">
<rect width="24" height="24" fill="white"/>
</clipPath>
<clipPath id="clip1_1933_1207">
<rect width="10.8281" height="10.8281" fill="white" transform="translate(6.5625 7.21875)"/>
</clipPath>
<clipPath id="clip2_1933_1207">
<rect width="10.8281" height="10.8281" fill="white" transform="translate(6.46289 7.07129)"/>
</clipPath>
</defs>
</svg>
