<svg width="32" height="32" viewBox="0 0 32 32" fill="none" xmlns="http://www.w3.org/2000/svg">
<path d="M28.9427 13.5659L17.5218 13.5653C17.0175 13.5653 16.6087 13.974 16.6087 14.4784V18.1268C16.6087 18.6311 17.0175 19.0399 17.5217 19.0399H23.9533C23.249 20.8676 21.9346 22.3983 20.2575 23.3708L22.9999 28.1182C27.3991 25.574 29.9999 21.1099 29.9999 16.1126C29.9999 15.4011 29.9475 14.8925 29.8426 14.3197C29.7629 13.8846 29.3851 13.5659 28.9427 13.5659Z" fill="#167EE6"/>
<path d="M16 24.5217C12.8525 24.5217 10.1048 22.802 8.62906 20.2572L3.88187 22.9934C6.29768 27.1804 10.8233 29.9999 16 29.9999C18.5395 29.9999 20.9358 29.3162 23 28.1246V28.1181L20.2576 23.3707C19.0032 24.0982 17.5515 24.5217 16 24.5217Z" fill="#12B347"/>
<path d="M23 28.1247V28.1181L20.2576 23.3707C19.0032 24.0982 17.5516 24.5217 16 24.5217V30C18.5395 30 20.9359 29.3162 23 28.1247Z" fill="#0F993E"/>
<path d="M7.47826 16.0001C7.47826 14.4486 7.90165 12.9972 8.62905 11.7428L3.88185 9.00659C2.6837 11.0643 2 13.454 2 16.0001C2 18.5461 2.6837 20.9358 3.88185 22.9936L8.62905 20.2573C7.90165 19.003 7.47826 17.5515 7.47826 16.0001Z" fill="#FFD500"/>
<path d="M16 7.47826C18.0525 7.47826 19.9378 8.20757 21.4103 9.4207C21.7736 9.71995 22.3016 9.69835 22.6344 9.36558L25.2195 6.7805C25.597 6.40294 25.5701 5.78492 25.1668 5.43503C22.6996 3.29462 19.4894 2 16 2C10.8233 2 6.29768 4.81952 3.88187 9.0065L8.62906 11.7427C10.1048 9.19796 12.8525 7.47826 16 7.47826Z" fill="#FF4B26"/>
<path d="M21.4103 9.4207C21.7736 9.71995 22.3017 9.69835 22.6344 9.36558L25.2195 6.7805C25.597 6.40294 25.5701 5.78492 25.1668 5.43503C22.6996 3.29456 19.4894 2 16 2V7.47826C18.0524 7.47826 19.9378 8.20757 21.4103 9.4207Z" fill="#D93F21"/>
</svg>
