<svg width="390" height="149" viewBox="0 0 390 149" fill="none" xmlns="http://www.w3.org/2000/svg">
<path d="M193.232 44.3303C193.232 44.3303 214.198 46.3142 223.284 51.9066C232.371 57.499 240.625 88.1633 243.507 102.059C246.389 115.954 248.634 145.198 244.715 155.019C240.788 164.84 228.379 173.143 210.165 178.605C191.959 184.067 152.11 185.79 126.173 178.066C100.235 170.343 94.7408 141.581 95.9736 127.539C97.2064 113.497 101.697 85.11 104.619 71.28C107.534 57.45 133.104 45.8162 142.542 45.3508C151.979 44.8855 193.232 44.3385 193.232 44.3385V44.3303Z" fill="#FFE600"/>
<path d="M200.392 87.1186C198.979 89.2331 193.681 99.5526 193.681 99.5526L194.889 101.43C194.889 101.43 197.044 103.316 198.473 103.373C199.894 103.43 203.829 105.055 207.903 105.153C211.976 105.251 213.128 104.394 213.128 104.394C213.128 104.394 213.601 102.361 214.328 100.973C215.054 99.5852 218.516 95.1031 221.406 92.5722C224.296 90.0414 225.292 88.2208 225.292 88.2208C225.292 88.2208 201.804 85.0123 200.392 87.1268V87.1186Z" fill="#F8F8F8"/>
<path d="M187.379 5.01218C186.146 3.74674 184.922 2.13843 183.134 1.24854C179.427 -0.596541 177.557 0.113742 173.508 0.236204C161.254 0.603588 156.674 13.3559 155.792 15.2908C154.853 17.3481 153.31 18.7768 151.71 20.3117C150.053 21.8955 149.253 23.4549 148.175 25.4387C146.722 28.1084 145.424 30.1413 145.726 33.3171C146.256 38.9748 146.011 43.6773 151.506 46.6899C155.131 48.6819 159.343 49.4167 163.303 50.5188C165.736 51.1965 167.875 52.2741 170.43 52.4211C172.896 52.568 175.402 52.764 177.892 52.8619C189.453 53.3354 203.552 53.4252 210.042 41.6853C213.659 35.1377 206.769 29.8555 204.319 24.3856C203.658 22.8997 203.348 21.471 203.381 19.8463C203.421 17.7972 203.25 16.7603 202.425 14.7438C200.939 11.1108 199.266 7.22465 195.853 4.98769C194.024 3.78756 188.089 3.32221 187.387 5.01218H187.379Z" fill="#343A40"/>
<path d="M197.632 23.8224L195.126 24.9327L195.485 25.8063L197.926 24.7531L197.632 23.8224Z" fill="#343A40"/>
<path d="M196.033 22.2384C195.755 19.2421 194.58 16.5643 192.743 13.0374C190.906 9.51056 186.424 8.98806 186.424 8.98806C183.134 7.94306 177.623 8.45738 174.169 9.28196C170.716 10.1065 165.76 11.0699 163.597 14.9642C161.433 18.8584 161.515 25.2428 161.948 29.9045C162.38 34.5743 163.466 40.0442 165.973 43.514C168.479 46.9837 174.447 50.4453 178.554 51.2372C182.66 52.0373 185.558 50.7066 187.983 49.6371C190.408 48.5757 193.649 44.9672 194.539 41.8648C195.429 38.7543 196.751 35.4397 196.792 32.2394C196.833 29.0391 196.319 25.2264 196.041 22.222L196.033 22.2384Z" fill="#F8F8F8"/>
<path d="M175.165 28.1246C175.092 27.896 174.994 27.6756 174.863 27.4715C174.773 27.251 174.651 27.0388 174.52 26.8428C174.234 26.4183 173.777 26.0836 173.238 26.1326C172.193 26.2224 171.614 27.3327 171.728 28.2879C171.744 28.443 171.785 28.5981 171.826 28.7451C171.826 28.7777 171.826 28.8104 171.826 28.843C171.867 29.2186 171.989 29.586 172.218 29.888C172.357 30.1819 172.561 30.4432 172.855 30.582C173.263 30.7779 173.794 30.5983 174.177 30.4187C174.577 30.231 174.928 29.9778 175.141 29.5778C175.386 29.1124 175.32 28.59 175.157 28.1083L175.165 28.1246Z" fill="#343A40"/>
<path d="M192.04 26.4103C191.861 25.9368 191.518 25.4143 190.987 25.3081C190.897 25.2918 190.808 25.2918 190.718 25.2918C190.571 25.2428 190.416 25.2183 190.244 25.2347C189.64 25.2673 189.191 25.749 189.052 26.3123C188.963 26.6715 189.003 27.0634 189.077 27.4308C189.093 27.8717 189.191 28.2962 189.354 28.7044C189.558 29.2106 189.967 29.7167 190.579 29.6596C190.734 29.6432 190.873 29.6024 190.995 29.5453C191.355 29.4228 191.648 29.1044 191.853 28.7697C192.049 28.4431 192.179 28.0512 192.204 27.6675C192.236 27.2348 192.204 26.8103 192.04 26.4103Z" fill="#343A40"/>
<path d="M184.063 24.5977C184.047 24.9651 184.129 28.8838 184.635 30.4023C185.141 31.9209 186.48 33.8557 188.472 34.6803C190.456 35.5131 193.746 35.0232 195.142 34.166C196.53 33.3088 197.477 30.6554 197.902 28.5409C198.326 26.4346 198.489 23.4466 197.738 23.2751C196.987 23.1037 193.73 23.4465 191.607 23.471C189.484 23.4955 186.553 24.1405 186.553 24.1405C186.553 24.1405 184.088 24.2303 184.072 24.5977H184.063ZM184.847 25.1202C184.863 24.8018 187.076 24.7283 187.076 24.7283C187.076 24.7283 189.697 24.1732 191.599 24.165C193.501 24.1568 196.416 23.8629 197.093 24.018C197.771 24.1731 197.64 26.7856 197.273 28.6389C196.897 30.4921 196.065 32.8107 194.824 33.5618C193.583 34.3048 190.635 34.7212 188.848 33.9864C187.06 33.2516 185.851 31.5453 185.386 30.2146C184.921 28.8757 184.831 25.4386 184.847 25.1202Z" fill="#343A40"/>
<path d="M164.079 27.0471C164.234 28.1166 164.863 30.7618 165.589 32.3048C166.324 33.856 167.442 34.6234 169.059 35.5296C170.675 36.4358 173.916 36.5583 175.174 36.0358C176.431 35.5214 177.941 34.1907 178.717 31.766C179.493 29.3494 179.101 26.0266 179.101 26.0266L178.921 25.0877C178.921 25.0877 178.741 24.9979 177.892 24.9897C177.043 24.9897 172.61 24.9979 170.839 25.0469C169.067 25.0959 164.479 25.2183 164.062 25.4061C163.646 25.6021 163.907 25.9694 164.062 27.0389L164.079 27.0471ZM164.863 25.9858C165.246 25.8143 169.369 25.7082 170.969 25.6674C172.561 25.6266 176.562 25.6184 177.321 25.6265C178.08 25.6347 178.243 25.7164 178.243 25.7164L178.407 26.5573C178.407 26.5573 178.758 29.529 178.064 31.6843C177.37 33.8478 176.007 35.0316 174.88 35.4888C173.753 35.9541 170.83 35.8317 169.377 35.0234C167.916 34.2152 166.912 33.5294 166.242 32.1415C165.581 30.7536 165.018 28.3942 164.871 27.439C164.732 26.4838 164.487 26.1572 164.871 25.9858H164.863Z" fill="#343A40"/>
<path d="M181.452 24.9979C182.619 24.9816 184.024 25.1857 184.301 25.6674C184.579 26.1491 184.473 26.5246 184.473 26.5246C184.473 26.5246 183.109 25.2918 181.452 25.6429C179.795 25.9939 178.945 26.7532 178.945 26.7532L178.896 25.9041C178.896 25.9041 180.284 25.0061 181.444 24.9897L181.452 24.9979Z" fill="#343A40"/>
<path d="M183.33 27.1862C183.33 27.1862 186.179 29.1537 187.069 29.9538C187.959 30.7539 188.342 32.0846 188.342 32.8031C188.342 33.5133 188.122 34.3379 186.399 34.7461C184.677 35.1543 180.848 32.6398 180.848 32.6398L183.33 27.1862Z" fill="#F8F8F8"/>
<path d="M180.847 32.6395C180.847 32.6395 184.676 35.1541 186.399 34.7459C188.121 34.3377 188.334 33.5131 188.342 32.8028C188.342 32.0925 187.958 30.7618 187.068 29.9536C186.178 29.1535 183.329 27.1859 183.329 27.1859L183.272 27.3165C184.088 27.9452 186.072 29.4882 186.693 30.0515C187.493 30.77 187.835 31.9619 187.827 32.5987C187.827 33.2355 187.631 33.9703 186.088 34.3377C184.864 34.6316 182.039 33.0722 180.937 32.4191L180.839 32.6314L180.847 32.6395Z" fill="#343A40"/>
<path d="M176.39 38.0688C176.39 38.0688 178.113 37.6361 178.986 38.4525C179.852 39.2689 180.799 39.7588 182.023 39.62C183.248 39.4812 183.607 38.9178 183.991 39.8159C184.374 40.7139 184.032 41.5467 182.04 42.0365C180.047 42.5264 177.794 41.3099 177.027 40.3302C176.259 39.3505 175.9 39.0566 176.39 38.0688Z" fill="#343A40"/>
<path d="M193.232 6.93876C195.665 11.0943 189.069 16.0989 185.648 17.0867C183.37 17.7398 180.831 17.8215 178.472 18.1317C176.129 18.4338 174.953 19.3482 173.075 20.6708C170.422 22.5403 167.254 23.12 164.829 25.4304C163.899 26.3203 163.384 27.5858 162.503 28.5001C161.066 27.6102 161.36 24.3364 161.213 22.7444C160.837 18.6787 161.401 14.9722 164.135 11.7719C166.487 9.02059 169.867 6.89793 173.418 6.31828C177.786 5.59984 181.884 6.93875 186.252 6.16316C189.069 5.66515 190.35 5.81212 193.232 6.93876Z" fill="#343A40"/>
<path d="M164.528 27.1939C164.528 27.1939 161.377 27.0062 160.666 27.5858C159.964 28.1655 161.042 28.3369 161.042 28.3369L164.577 27.9777L164.528 27.1939Z" fill="#343A40"/>
<path d="M162.56 28.8105C162.56 28.8105 160.96 26.7123 158.788 27.6593C156.625 28.6064 154.984 30.778 155.662 33.0476C156.339 35.3172 158.731 36.0683 160.609 36.648C162.495 37.2276 164.209 36.8766 164.209 36.8766L162.552 28.8105H162.56Z" fill="#F8F8F8"/>
<path d="M161.573 29.6191C161.573 29.6191 159.467 28.6312 158.185 29.7987C156.903 30.9661 157.034 32.2724 157.344 33.0806C157.654 33.8889 159.614 34.991 160.618 35.3502C161.622 35.7095 162.814 35.4401 162.814 35.4401C162.814 35.4401 161.548 35.187 160.299 34.6726C159.058 34.1583 157.981 33.2766 157.801 32.4847C157.622 31.6927 158.185 29.9293 159.091 29.8966C160.005 29.8558 161.581 29.6272 161.581 29.6272L161.573 29.6191Z" fill="#343A40"/>
<path d="M146.264 92.3679C146.264 92.3679 148.926 97.0378 151.179 98.9155C153.432 100.793 155.155 105.169 155.155 105.169C155.155 105.169 160.78 104.655 163.915 103.798C167.05 102.94 171.205 100.859 171.72 100.246C172.234 99.634 170.789 90.1228 170.789 90.1228L146.256 92.3761L146.264 92.3679Z" fill="#F8F8F8"/>
<path d="M157.466 38.9661C157.466 38.9661 164.283 37.8232 167.908 37.0884C171.525 36.3536 178.627 36.1251 183.493 36.6639C188.359 37.2027 196.556 39.6275 196.556 39.6275L198.466 40.599C198.466 40.599 201.111 36.0924 204.565 33.4391C208.018 30.7857 214.949 28.6549 217.399 28.1651C219.856 27.6752 220.501 27.4956 220.501 27.4956L198.866 42.6563L157.36 41.097L157.164 40.5663L157.466 38.958V38.9661Z" fill="#F8F8F8"/>
<path d="M197.412 41.4482C197.412 41.4482 187.199 40.3134 178.537 39.8644C169.875 39.4235 159.58 39.2521 159.58 39.2521L155.792 39.4154C155.792 39.4154 154.388 52.2983 153.514 58.4132C152.641 64.5281 150.698 78.456 150.428 81.1257C150.167 83.7954 148.379 97.2171 148.379 97.2171C148.379 97.2171 158.511 97.8948 165.05 98.4581C171.589 99.0214 180.945 99.348 184.391 99.9603C187.836 100.573 191.934 100.834 191.934 100.834C191.934 100.834 194.751 79.3623 195.543 72.782C196.343 66.2017 197.968 51.8493 198.278 49.4164C198.58 46.9753 199.07 41.4074 199.07 41.4074L197.404 41.4482H197.412Z" fill="#FF9518"/>
<path d="M199.078 41.4075C199.078 41.4075 201.396 39.5869 205.446 36.754C209.503 33.921 216.99 28.8348 217.879 28.4511C218.769 28.0592 221.161 26.704 221.161 26.704C221.161 26.704 220.002 43.8404 219.7 49.1389C219.406 54.4374 218.5 67.4755 218.165 71.1085C217.822 74.7415 217.039 85.6161 217.039 85.6161L216.924 87.7795C216.924 87.7795 212.132 90.4982 207.152 93.4863C202.172 96.4743 191.926 100.834 191.926 100.834L196.767 51.8167L199.061 41.4075H199.078Z" fill="#FF9518"/>
<path d="M216.468 27.8467C214.378 28.1978 208.467 30.6307 205.536 32.3207C202.597 34.0106 197.878 39.9378 197.878 39.9378C197.878 39.9378 191.526 36.9579 186.073 36.4435C180.619 35.9374 173.671 35.7904 169.132 36.4435C164.593 37.0885 156.739 38.656 156.739 38.656L156.584 39.8725L157.972 39.6357L157.988 39.0397C157.988 39.0397 164.177 38.2315 165.524 37.7661C166.879 37.3008 171.516 37.2273 173.255 36.9334C174.994 36.6395 179.541 36.7048 182.072 36.8762C184.603 37.0477 186.807 37.3906 188.808 37.8886C190.8 38.3866 195.331 39.7663 196.221 40.0929C197.111 40.4194 198.637 40.9991 198.637 40.9991C198.637 40.9991 200.254 38.5744 201.258 37.4559C202.262 36.3292 204.883 33.5045 206.76 32.5901C208.638 31.6757 211.724 30.198 213.871 29.4796C216.019 28.7611 219.268 28.2141 219.268 28.2141L220.386 27.0712C220.386 27.0712 218.549 27.5039 216.459 27.8549L216.468 27.8467Z" fill="#FF9518"/>
<path d="M198.865 42.665C198.865 42.665 196.685 63.516 195.224 73.3293C193.763 83.1425 191.607 100.336 191.607 100.336C191.607 100.336 192.203 99.5197 192.767 96.6786C193.33 93.8375 196.22 70.031 196.645 67.296C197.069 64.561 200.278 42.4364 198.865 42.6568V42.665Z" fill="#343A40"/>
<path d="M143.856 89.0123C143.856 89.0123 144.697 88.3102 145.906 87.5264C145.432 87.4937 145.008 87.4611 144.657 87.4366C143.187 87.3305 142.803 85.5262 142.256 82.8974C141.709 80.2685 143.66 78.9378 143.66 78.9378C141.734 77.705 141.66 76.513 140.95 74.3332C140.264 72.2269 142.011 70.341 142.599 69.7777C140.991 67.9979 142.501 63.8914 142.501 63.8914C142.501 63.8914 144.126 61.5973 147.196 60.9768C150.273 60.3563 154.755 61.238 158.764 62.2422C162.773 63.2464 163.989 65.3201 163.728 67.5978C163.467 69.8756 163.107 70.4798 161.434 71.2554C161.352 71.288 161.27 71.3288 161.197 71.3697C162.054 71.8268 162.691 72.4718 163.654 73.2392C165.589 74.7823 165.924 76.7416 164.577 78.7908C164.144 79.444 163.336 79.9746 162.324 80.3746C162.65 80.7339 162.977 81.1747 163.336 81.7299C164.797 83.9832 161.932 85.6895 159.556 86.8488C160.34 87.7387 160.781 88.8245 160.87 89.6083C161.034 91.0206 159.45 92.4575 156.968 93.1515C154.486 93.8454 151.155 95.0863 149.269 95.4619C147.383 95.8374 145.555 95.0455 144.395 92.5392C143.236 90.0328 143.865 89.0123 143.865 89.0123H143.856Z" fill="#F8F8F8"/>
<path d="M149.939 68.9778C152.192 69.1084 155.923 69.7289 157.972 69.9983C160.022 70.2595 161.197 71.3617 161.197 71.3617C161.197 71.3617 159.483 70.6351 157.923 70.4065C156.356 70.1779 152.519 69.4268 149.09 69.3615C145.661 69.2962 142.967 69.5983 142.967 69.5983C143.522 68.9778 147.694 68.8553 149.947 68.986L149.939 68.9778Z" fill="#343A40"/>
<path d="M148.371 77.95C150.641 77.8357 152.167 77.9174 153.62 78.0235C155.074 78.1215 158.911 78.5623 160.348 78.9052C161.785 79.2481 162.315 80.3748 162.315 80.3748C162.315 80.3748 161.45 79.493 160.723 79.4441C159.997 79.3951 157.294 78.7419 156.151 78.644C155.016 78.5378 151.359 78.2194 149.481 78.3092C147.603 78.399 144.044 78.7583 144.044 78.7583C144.044 78.7583 146.085 78.0725 148.355 77.9582L148.371 77.95Z" fill="#343A40"/>
<path d="M150.739 85.902C152.838 85.4366 156.054 85.0039 157.287 85.1591C158.52 85.3142 159.361 86.449 159.361 86.449C159.361 86.449 158.855 86.0244 157.867 85.8857C156.879 85.7469 153.45 85.6816 151.556 86.0081C149.662 86.3347 146.11 87.3389 146.11 87.3389C146.11 87.3389 148.633 86.3674 150.739 85.902Z" fill="#343A40"/>
<path d="M224.052 56.4134C224.052 56.4134 221.562 54.5847 215.741 55.2704C209.92 55.9562 204.148 59.2872 203.633 61.5568C203.119 63.8264 204.099 65.6878 205.242 66.2348C206.385 66.7818 207.707 66.9369 207.707 66.9369C207.707 66.9369 203.968 68.333 203.47 71.3619C202.972 74.3826 204.915 76.1542 206.605 76.44C206.605 76.44 204.939 78.3014 206.295 80.3424C207.658 82.3834 210.222 82.1467 210.222 82.1467C210.222 82.1467 207.879 83.6978 209.446 86.6777C211.014 89.6576 214.957 88.8249 217.994 89.8862C221.031 90.9557 224.084 89.9434 225.301 88.2207C226.517 86.4981 226.68 83.3468 224.958 81.469C224.958 81.469 227.023 80.4567 227.146 77.4441C227.268 74.4316 225.709 72.8967 225.709 72.8967C225.709 72.8967 227.636 71.419 227.162 68.0309C226.689 64.651 224.631 63.5489 224.631 63.5489C224.631 63.5489 227.758 61.7936 224.06 56.4134H224.052Z" fill="#F8F8F8"/>
<path d="M216.85 64.5279C213.601 65.2055 207.38 66.6342 207.698 66.9281C208.017 67.222 216.597 64.9279 218.859 64.8136C221.12 64.6993 224.614 63.5482 224.614 63.5482C224.614 63.5482 220.091 63.8503 216.842 64.5279H216.85Z" fill="#343A40"/>
<path d="M216.622 73.3371C213.16 73.7453 206.286 76.0721 206.596 76.4232C206.914 76.7742 213.005 74.1372 217.136 73.8515C221.267 73.5657 225.684 73.2555 225.349 72.7167C225.349 72.7167 220.075 72.9208 216.613 73.329L216.622 73.3371Z" fill="#343A40"/>
<path d="M224.623 81.2073C224.623 81.2073 219.439 80.3582 216.361 80.8317C213.284 81.3052 210.214 82.138 210.214 82.138C210.214 82.138 214.5 81.1909 216.778 81.2644C219.056 81.3379 224.934 81.5583 224.623 81.2073Z" fill="#343A40"/>
<path d="M217.896 89.298C216.639 89.0367 214.394 89.2408 214.394 89.2408C214.394 89.2408 215.194 89.7306 216.23 89.6408C217.259 89.5429 220.419 89.9184 220.419 89.9184C220.419 89.9184 219.153 89.5592 217.904 89.298H217.896Z" fill="#343A40"/>
<path d="M151.799 105.57C151.799 105.57 145.268 108.313 141.863 117.905C138.459 127.498 133.511 139.728 131.454 144.561C129.397 149.386 125.029 160.138 123.192 159.6C121.355 159.053 127.723 146.692 129.74 141.508C131.764 136.324 136.189 122.355 140.533 115.179C144.876 108.002 147.439 104.908 151.791 105.578L151.799 105.57Z" fill="#F8F8F8"/>
<path d="M181.272 107.863C179.688 102.296 175.28 100.916 175.28 100.916C175.28 100.916 179.337 106.255 180.276 112.59C181.215 118.926 180.545 131.123 180.235 139.36C179.917 147.598 179.958 159.73 177.941 164.914C175.916 170.098 168.879 178.948 168.879 178.948C168.879 178.948 178.047 173.821 180.39 164.326C182.733 154.831 182.586 137.711 182.937 129.825C183.289 121.938 182.864 113.415 181.28 107.847L181.272 107.863Z" fill="#F8F8F8"/>
<path d="M234.771 126.869C230.583 116.191 226.648 108.337 222.459 105.512C218.271 102.687 215.602 104.712 215.602 104.712C215.602 104.712 218.434 104.451 223.366 111.496C228.297 118.542 232.224 126.388 235.963 136.038C239.702 145.688 242.021 147.614 242.021 147.614C242.021 147.614 238.959 137.548 234.763 126.861L234.771 126.869Z" fill="#F8F8F8"/>
<path d="M192.097 124.714C192.285 118.983 192.612 106.296 193.755 103.863C193.755 103.863 189.64 109.594 189.811 119.22C189.983 128.845 187.566 133.703 189.281 144.61C190.995 155.517 197.665 169.894 197.665 169.894C197.665 169.894 194.596 155.901 193.469 151.362C192.342 146.822 191.91 130.445 192.097 124.714Z" fill="#F8F8F8"/>
<path d="M0.0867681 192.982V193.088C0.103096 193.276 0.119425 193.472 0.135753 193.668C0.323527 196.337 0.797044 199.562 1.44201 202.877C1.48283 203.065 1.51548 203.261 1.5563 203.457C2.11963 206.298 2.81357 209.18 3.55651 211.825C3.60549 212.012 3.66264 212.192 3.71162 212.38C4.31577 214.478 4.93624 216.405 5.56487 218.021C5.63835 218.233 5.71999 218.438 5.8098 218.634C6.45476 220.226 7.08339 221.45 7.66304 222.128C7.81816 222.316 7.98961 222.511 8.18555 222.716C8.35699 222.912 8.55293 223.116 8.74887 223.32C10.1694 224.781 12.0635 226.43 14.2433 227.859C14.529 228.055 14.823 228.234 15.125 228.414C16.2108 229.075 17.3457 229.671 18.5213 230.161C18.7091 230.235 18.8887 230.308 19.0846 230.382C20.4317 230.896 21.8114 231.263 23.2075 231.41C24.5464 231.549 26.0159 231.696 27.5753 231.827C27.7467 231.843 27.9263 231.859 28.1059 231.868C30.8899 232.088 33.9188 232.219 36.8987 232.112C37.0701 232.112 37.2497 232.104 37.4293 232.096C40.4092 231.957 43.3238 231.565 45.8955 230.757C46.2465 230.651 46.5976 230.529 46.9568 230.406C47.1364 230.349 47.316 230.292 47.4956 230.218C47.9365 230.071 48.3774 229.908 48.8264 229.737C49.2183 229.598 49.6101 229.443 50.002 229.288C52.6145 228.259 55.3005 227.051 57.7906 225.851C57.9702 225.769 58.1416 225.679 58.3212 225.598C61.244 224.185 63.881 222.814 65.8077 221.801C66.3139 221.532 66.8364 221.311 67.3589 221.124C67.5303 221.058 67.7099 221.001 67.8895 220.944C70.5919 220.095 73.2942 220.209 75.2617 220.315C75.4495 220.324 75.6373 220.34 75.8087 220.348C76.4618 220.389 77.017 220.421 77.4334 220.389C78.3314 220.332 80.5439 220.56 83.1482 220.83C83.3278 220.854 83.5074 220.871 83.6871 220.887C86.7486 221.205 90.2591 221.556 92.8635 221.581C93.2309 221.581 93.6636 221.581 94.1534 221.581C94.3249 221.581 94.5126 221.581 94.7004 221.564C97.1741 221.515 100.815 221.352 104.563 221.14L105.11 221.107C108.179 220.92 111.29 220.715 113.845 220.503C114.025 220.487 114.213 220.47 114.384 220.454C115.935 220.315 117.25 220.193 118.188 220.062C119.315 219.915 120.891 219.597 122.72 219.164C122.899 219.123 123.079 219.083 123.258 219.042C126.132 218.348 129.545 217.409 132.712 216.446C132.892 216.388 133.072 216.339 133.251 216.282C136.296 215.352 139.072 214.413 140.885 213.67C141.13 213.572 141.35 213.474 141.562 213.384C141.84 213.262 142.134 213.123 142.428 212.976C142.648 212.87 142.86 212.755 143.089 212.625C143.26 212.535 143.44 212.437 143.62 212.331C146.044 210.951 148.796 208.959 150.861 207.032C151.033 206.877 151.204 206.714 151.359 206.551C152.257 205.669 152.992 204.812 153.466 204.052C153.596 203.84 153.71 203.636 153.8 203.44C153.906 203.195 153.988 202.975 154.021 202.763C154.282 201.309 154.886 197.995 155.466 194.582C155.498 194.386 155.539 194.174 155.572 193.978C156.07 191.072 156.535 188.173 156.764 186.345C156.78 186.238 156.788 186.132 156.805 186.034C156.813 185.945 156.829 185.855 156.837 185.765C156.968 184.304 156.935 181.765 156.764 178.687C156.756 178.499 156.748 178.311 156.731 178.115C156.609 175.944 156.421 173.535 156.184 171.061C156.168 170.865 156.152 170.67 156.135 170.482C155.849 167.526 155.49 164.497 155.098 161.705C155.074 161.509 155.041 161.322 155.017 161.134C154.911 160.415 154.804 159.721 154.698 159.044C154.282 156.456 153.678 153.656 152.968 150.823C152.919 150.627 152.87 150.431 152.821 150.235C152.094 147.369 151.253 144.471 150.388 141.703C150.331 141.516 150.265 141.328 150.208 141.14C149.432 138.658 148.632 136.291 147.873 134.143C147.653 133.515 147.432 132.902 147.22 132.323C146.967 131.612 146.714 130.943 146.477 130.306C145.424 127.506 144.167 124.624 142.754 121.865C142.664 121.677 142.566 121.489 142.46 121.301C141.277 119.023 139.978 116.844 138.615 114.892C138.427 114.631 138.248 114.378 138.06 114.125C137.807 113.782 137.554 113.456 137.301 113.129C137.154 112.941 137.007 112.753 136.852 112.574C136.264 111.847 135.668 111.178 135.056 110.565C132.957 108.435 130.508 107.659 128.475 107.43C128.287 107.414 128.108 107.398 127.936 107.381C125.789 107.243 124.214 107.692 124.214 107.692C124.214 107.692 121.707 107.479 117.56 107.137C117.38 107.12 117.201 107.104 117.013 107.088C114.417 106.867 111.241 106.614 107.649 106.32C107.469 106.304 107.289 106.296 107.102 106.279C104.244 106.051 101.142 105.798 97.8844 105.553C97.7048 105.536 97.517 105.52 97.3374 105.504C94.284 105.267 91.1082 105.022 87.8752 104.777C87.6875 104.769 87.5079 104.744 87.3282 104.736C81.7767 104.312 76.0945 103.904 70.6327 103.536C70.4531 103.528 70.2735 103.512 70.0857 103.504C66.7629 103.275 63.5381 103.063 60.4847 102.875C60.3051 102.875 60.1173 102.859 59.9377 102.842C56.3292 102.622 52.9819 102.442 50.0347 102.303C49.8551 102.303 49.6755 102.287 49.4958 102.279C45.0056 102.083 41.5114 102.001 39.5846 102.107C39.3805 102.107 39.2009 102.124 39.0376 102.14C38.5478 102.181 38.2131 102.238 38.0335 102.312C36.2782 103.046 33.3391 104.132 30.1225 105.74C29.9347 105.83 29.7469 105.92 29.5591 106.026C26.1629 107.773 22.5135 110.1 19.6561 113.194C19.4765 113.39 19.2969 113.586 19.1173 113.79C18.9458 113.986 18.7825 114.19 18.6193 114.394C18.1294 115.007 17.6722 115.595 17.2395 116.182C17.1089 116.362 16.9783 116.542 16.8558 116.721C14.3576 120.207 12.7574 123.424 11.2961 127.212C11.092 127.743 10.8879 128.282 10.6919 128.829C9.85918 131.114 9.05094 133.621 8.11207 136.519C7.95695 137.009 7.80183 137.491 7.65488 137.989C7.59773 138.185 7.54058 138.381 7.48343 138.568C6.73234 141.222 6.16085 143.957 5.67917 146.741C5.64651 146.928 5.61386 147.124 5.5812 147.312C5.07503 150.382 4.67499 153.5 4.29128 156.652C4.26678 156.84 4.24229 157.027 4.2178 157.215C4.05452 158.578 3.88307 159.942 3.70346 161.305C3.60549 162.04 3.51569 162.783 3.40955 163.518C3.31975 164.179 3.22994 164.84 3.12381 165.493C3.09932 165.681 3.06666 165.877 3.04217 166.057C2.95236 166.653 2.86256 167.241 2.76459 167.828C2.25842 170.89 1.77673 173.511 1.36853 175.911C1.33587 176.099 1.30322 176.295 1.27056 176.482C0.731731 179.666 0.323527 182.483 0.127589 185.447C0.119425 185.642 0.103096 185.83 0.0949322 186.026C-0.0275291 188.19 -0.0356932 190.443 0.0949322 192.99L0.0867681 192.982Z" fill="#343A40"/>
<path d="M155.449 185.169C155.449 185.267 155.425 185.357 155.417 185.439C155.417 185.545 155.4 185.643 155.376 185.749C155.368 185.831 155.351 185.92 155.343 186.01C155.31 186.271 155.278 186.557 155.237 186.851C154.992 188.606 154.616 190.925 154.225 193.26C154.192 193.456 154.159 193.66 154.118 193.856C153.874 195.293 153.62 196.713 153.408 197.979C153.359 198.248 153.31 198.518 153.261 198.771C153.024 200.11 152.829 201.22 152.698 201.906C152.665 202.118 152.592 202.338 152.477 202.575C152.388 202.771 152.282 202.967 152.151 203.179C151.979 203.449 151.784 203.734 151.547 204.028C151.53 204.053 151.522 204.069 151.506 204.085C151.31 204.339 151.081 204.6 150.836 204.869C150.608 205.122 150.363 205.375 150.102 205.628C149.947 205.792 149.783 205.955 149.612 206.102C149.122 206.559 148.591 207.025 148.036 207.482C147.514 207.914 146.967 208.347 146.403 208.764C146.003 209.066 145.595 209.351 145.179 209.637C144.281 210.258 143.375 210.829 142.517 211.327C142.346 211.425 142.166 211.523 141.995 211.613C141.962 211.637 141.921 211.654 141.889 211.67C141.701 211.768 141.529 211.866 141.35 211.956C141.154 212.054 140.958 212.152 140.77 212.241C140.68 212.282 140.591 212.323 140.501 212.364C140.362 212.429 140.207 212.494 140.052 212.56C139.986 212.584 139.913 212.617 139.839 212.65C139.407 212.829 138.909 213.017 138.37 213.221C136.704 213.842 134.606 214.536 132.353 215.229C132.182 215.287 132.002 215.336 131.822 215.393C131.569 215.466 131.324 215.548 131.071 215.621C130.181 215.891 129.283 216.152 128.385 216.405C128.14 216.47 127.904 216.536 127.659 216.609C127.642 216.609 127.618 216.617 127.601 216.625C125.846 217.115 124.124 217.564 122.564 217.948C122.393 217.989 122.213 218.038 122.042 218.071C120.915 218.34 119.87 218.569 118.988 218.732C118.474 218.822 118.017 218.903 117.609 218.952C117.217 219.001 116.751 219.058 116.237 219.116C116.017 219.14 115.788 219.156 115.543 219.181C115.535 219.181 115.519 219.181 115.51 219.181C115.012 219.222 114.465 219.279 113.886 219.328C113.714 219.344 113.535 219.361 113.355 219.377C110.857 219.581 107.812 219.785 104.799 219.973L104.269 220.005C103.991 220.022 103.705 220.038 103.436 220.054C102.677 220.095 101.925 220.136 101.191 220.169C100.97 220.177 100.742 220.193 100.521 220.201C100.35 220.201 100.17 220.218 99.9987 220.226C97.9414 220.324 96.0636 220.389 94.6104 220.422C94.4308 220.43 94.2512 220.43 94.0797 220.438C93.6062 220.438 93.1817 220.446 92.8225 220.438C91.6387 220.422 90.2589 220.34 88.8139 220.226C88.4302 220.201 88.0465 220.161 87.6546 220.128C87.4097 220.103 87.1566 220.087 86.9117 220.063C86.4055 220.014 85.8993 219.965 85.3931 219.916C84.8625 219.859 84.34 219.81 83.8256 219.752C83.6542 219.736 83.4746 219.72 83.3031 219.695C80.7478 219.434 78.5761 219.214 77.7026 219.263C77.3352 219.287 76.8617 219.263 76.3065 219.23C76.2412 219.23 76.1759 219.23 76.1106 219.222C75.9391 219.214 75.7677 219.197 75.5799 219.189C74.7227 219.14 73.7267 219.091 72.649 219.124C71.5632 219.156 70.3957 219.279 69.2038 219.565C68.9262 219.63 68.6404 219.712 68.3629 219.801C68.1914 219.858 68.02 219.916 67.8485 219.981C67.3423 220.169 66.828 220.381 66.33 220.642C66.0279 220.797 65.7177 220.969 65.383 221.14C65.1544 221.255 64.9258 221.377 64.689 221.499C63.048 222.357 61.105 223.361 58.9986 224.373C58.8272 224.455 58.6558 224.537 58.4843 224.618C58.2394 224.741 57.9863 224.855 57.7414 224.977C57.325 225.173 56.9005 225.377 56.4678 225.573C55.8391 225.867 55.186 226.161 54.541 226.455C54.4023 226.52 54.2635 226.578 54.1247 226.643C53.5042 226.912 52.8756 227.182 52.2633 227.435C52.0265 227.541 51.7979 227.631 51.5612 227.721C51.3244 227.818 51.0958 227.908 50.859 228.006C50.4753 228.161 50.0835 228.308 49.7079 228.447C49.267 228.619 48.8344 228.774 48.4098 228.921C48.2384 228.986 48.0588 229.043 47.8873 229.1C47.5363 229.215 47.1934 229.337 46.8505 229.443C45.332 229.925 43.691 230.26 41.9928 230.472C40.8662 230.619 39.7151 230.709 38.5558 230.766C38.5558 230.766 38.4986 230.766 38.466 230.766C38.3272 230.766 38.1802 230.774 38.0496 230.774C37.9353 230.774 37.821 230.782 37.7067 230.782C34.8983 230.872 32.0571 230.741 29.4365 230.529C29.265 230.521 29.0854 230.504 28.914 230.488C28.3425 230.447 27.7873 230.39 27.2403 230.341C26.7586 230.3 26.2851 230.251 25.8279 230.211C25.5667 230.186 25.3218 230.162 25.0687 230.129C24.9217 230.113 24.7748 230.096 24.636 230.088C24.3747 230.064 24.1053 230.023 23.8359 229.974C22.7419 229.802 21.6561 229.484 20.5948 229.076C20.4152 229.01 20.2274 228.929 20.0478 228.864C19.4763 228.627 18.9048 228.357 18.3496 228.072C17.9169 227.843 17.4842 227.598 17.0679 227.345C16.9536 227.28 16.8393 227.214 16.725 227.141C16.4392 226.969 16.1535 226.782 15.8596 226.594C14.9289 225.982 14.039 225.32 13.2308 224.643C12.9613 224.43 12.7083 224.21 12.4552 223.998C12.0878 223.671 11.7286 223.353 11.3938 223.034C11.0673 222.724 10.7652 222.414 10.4795 222.12C10.2835 221.916 10.0957 221.72 9.9243 221.524C9.73652 221.328 9.57324 221.132 9.41812 220.944C9.0834 220.552 8.73234 219.973 8.37312 219.238C8.12003 218.732 7.86695 218.144 7.6057 217.507C7.52405 217.311 7.44241 217.115 7.36894 216.903C7.173 216.389 6.96073 215.834 6.77296 215.254C6.68315 215.001 6.60151 214.74 6.51171 214.478C6.18514 213.499 5.86674 212.454 5.55651 211.36C5.49936 211.18 5.45038 211 5.40139 210.813C4.90338 209.041 4.42986 207.155 4.00533 205.245C3.94818 204.975 3.89103 204.706 3.83389 204.437C3.6951 203.808 3.56447 203.187 3.44201 202.567C3.40119 202.379 3.36853 202.183 3.32771 202.004C2.69908 198.738 2.23372 195.57 2.04595 192.942C2.02962 192.746 2.02146 192.558 2.00513 192.378V192.272C1.98064 192.027 1.97247 191.782 1.96431 191.545C1.86634 189.333 1.8745 187.333 1.9888 185.414C1.99697 185.218 2.01329 185.03 2.02146 184.843C2.16025 182.81 2.38884 180.859 2.69908 178.801C2.73173 178.548 2.77255 178.295 2.81337 178.034C2.91134 177.373 3.01748 176.703 3.13994 176.017C3.17259 175.821 3.20525 175.642 3.22974 175.454C3.62978 173.086 4.09514 170.507 4.59315 167.494C4.65029 167.127 4.70744 166.767 4.76459 166.408C4.79725 166.188 4.8299 165.967 4.87073 165.739C4.87073 165.706 4.87889 165.673 4.88705 165.641C4.91155 165.486 4.92787 165.339 4.95237 165.184C5.05033 164.539 5.1483 163.894 5.22995 163.232C5.33608 162.514 5.42588 161.779 5.51569 161.061C5.68713 159.714 5.85858 158.375 6.0137 157.028C6.03819 156.84 6.05452 156.66 6.07901 156.472C6.14432 155.934 6.2178 155.395 6.28311 154.856C6.39741 153.901 6.51987 152.954 6.6505 151.999C6.86276 150.415 7.09136 148.831 7.34444 147.272C7.3771 147.084 7.40159 146.904 7.43425 146.708C7.79347 144.577 8.20984 142.471 8.73234 140.422C8.79765 140.161 8.86296 139.908 8.92828 139.646C9.00992 139.312 9.09972 138.993 9.19769 138.658C9.25484 138.471 9.30383 138.275 9.36914 138.087C9.49976 137.605 9.65488 137.124 9.81 136.642C10.7325 133.793 11.5245 131.319 12.3327 129.074C12.5286 128.535 12.7246 127.996 12.9287 127.474C12.945 127.425 12.9695 127.368 12.9858 127.327C13.0838 127.074 13.1818 126.829 13.2797 126.584C13.9655 124.861 14.7003 123.245 15.5657 121.653C15.6065 121.563 15.6555 121.481 15.7045 121.4C15.9412 120.967 16.1943 120.526 16.4474 120.093C17.0271 119.122 17.6557 118.15 18.3741 117.154C18.4966 116.975 18.6272 116.803 18.7578 116.624C18.9538 116.346 19.166 116.068 19.3865 115.791C19.6232 115.489 19.86 115.179 20.1131 114.86C20.2764 114.664 20.4315 114.468 20.6029 114.272C20.7744 114.068 20.9458 113.872 21.1254 113.684C21.5091 113.26 21.9092 112.852 22.3256 112.468C22.6195 112.182 22.9215 111.905 23.2318 111.643C25.232 109.905 27.4526 108.459 29.6324 107.268C29.8692 107.137 30.1141 107.006 30.3508 106.876C30.506 106.794 30.6611 106.712 30.8162 106.631C30.9958 106.533 31.1836 106.443 31.3632 106.353C31.4285 106.32 31.4857 106.288 31.551 106.263C32.7837 105.651 33.9675 105.12 35.0534 104.655C36.6862 103.953 38.0986 103.406 39.1109 102.981C39.2824 102.908 39.6171 102.851 40.0988 102.81C40.2621 102.794 40.4417 102.785 40.6376 102.777C41.2662 102.736 42.0663 102.728 43.0134 102.728C43.2501 102.728 43.4869 102.728 43.74 102.736C44.5727 102.745 45.5034 102.769 46.5239 102.802C47.5771 102.834 48.7282 102.875 49.9528 102.932C50.0835 102.932 50.2222 102.941 50.3529 102.949C50.5243 102.957 50.7039 102.973 50.8835 102.973C52.8511 103.063 55.0064 103.177 57.3087 103.316C57.5536 103.324 57.7985 103.341 58.0434 103.357C58.6802 103.39 59.3252 103.43 59.9865 103.471C60.1824 103.479 60.3865 103.496 60.5825 103.504C60.7539 103.512 60.9417 103.528 61.1213 103.537C61.8806 103.586 62.648 103.634 63.4236 103.683C65.4809 103.814 67.6118 103.961 69.7916 104.108C70.0202 104.124 70.2569 104.141 70.4855 104.149C70.5018 104.149 70.5182 104.149 70.5263 104.149C70.7059 104.165 70.8856 104.173 71.057 104.181C71.9306 104.239 72.8123 104.304 73.7022 104.361C74.837 104.443 75.9799 104.524 77.1311 104.606C78.9353 104.737 80.7559 104.867 82.5684 105.006C82.8133 105.031 83.0582 105.039 83.3031 105.063C84.5114 105.153 85.7279 105.243 86.928 105.341C87.0913 105.357 87.2464 105.365 87.4097 105.382C87.5893 105.39 87.7607 105.406 87.9485 105.422C88.7568 105.488 89.5568 105.545 90.3569 105.602C91.508 105.692 92.651 105.773 93.7777 105.863C94.0307 105.888 94.2675 105.904 94.5124 105.92C95.4268 105.994 96.333 106.067 97.2229 106.141C97.4025 106.149 97.5821 106.165 97.7617 106.19C98.668 106.255 99.5578 106.329 100.44 106.402C101.615 106.492 102.758 106.582 103.877 106.68C104.873 106.761 105.844 106.835 106.791 106.916C106.971 106.933 107.142 106.949 107.322 106.957C107.42 106.965 107.518 106.974 107.608 106.982C107.853 107.006 108.097 107.023 108.342 107.047C110.359 107.219 112.237 107.374 113.935 107.512C114.841 107.586 115.706 107.659 116.498 107.725C116.678 107.741 116.849 107.757 117.029 107.766C117.143 107.774 117.258 107.79 117.372 107.79C118.466 107.88 119.429 107.961 120.254 108.027C120.507 108.051 120.752 108.076 120.972 108.092C122.621 108.231 123.544 108.304 123.544 108.304C123.544 108.304 124.769 107.953 126.524 107.978C126.736 107.978 126.965 107.978 127.193 108.002C127.365 108.019 127.544 108.035 127.724 108.043C127.773 108.043 127.822 108.051 127.871 108.068C128.54 108.149 129.251 108.296 129.977 108.533C130.067 108.557 130.149 108.59 130.238 108.623C131.177 108.949 132.133 109.439 133.055 110.141C133.292 110.313 133.52 110.509 133.741 110.721C133.888 110.852 134.035 110.99 134.174 111.137C134.77 111.741 135.357 112.403 135.929 113.121C136.084 113.301 136.231 113.48 136.37 113.668C136.615 113.987 136.868 114.313 137.113 114.64C137.292 114.885 137.472 115.138 137.651 115.399C138.158 116.126 138.648 116.877 139.137 117.66C139.619 118.436 140.093 119.244 140.542 120.069C140.672 120.306 140.803 120.55 140.933 120.787C141.105 121.089 141.26 121.4 141.423 121.71C141.521 121.889 141.619 122.077 141.709 122.257C142.093 123.008 142.46 123.759 142.811 124.526C143.75 126.535 144.607 128.576 145.35 130.576C145.587 131.196 145.824 131.866 146.085 132.56C146.289 133.123 146.501 133.719 146.714 134.331C146.714 134.34 146.714 134.348 146.722 134.356C146.812 134.601 146.893 134.854 146.983 135.107C147.114 135.474 147.244 135.866 147.375 136.25C147.661 137.075 147.938 137.924 148.224 138.797C148.485 139.597 148.746 140.414 149 141.246C149 141.271 149.016 141.295 149.024 141.328C149.073 141.483 149.13 141.647 149.179 141.802C149.661 143.353 150.134 144.945 150.583 146.537C150.649 146.79 150.73 147.043 150.796 147.296C151.065 148.259 151.326 149.231 151.571 150.194C151.62 150.39 151.669 150.586 151.718 150.782C151.963 151.754 152.192 152.709 152.404 153.664C152.69 154.929 152.943 156.179 153.163 157.387C153.212 157.664 153.261 157.95 153.31 158.22C153.351 158.44 153.384 158.66 153.416 158.881C153.522 159.55 153.629 160.236 153.727 160.938C153.751 161.126 153.784 161.314 153.808 161.51C154.192 164.261 154.535 167.249 154.821 170.147C154.845 170.335 154.853 170.531 154.87 170.719C154.902 171.037 154.927 171.347 154.959 171.658C154.984 171.919 155 172.172 155.025 172.425C155.188 174.254 155.319 176.025 155.408 177.658C155.425 177.854 155.433 178.034 155.441 178.213C155.604 181.25 155.637 183.749 155.515 185.186L155.449 185.169Z" fill="#F8F8F8"/>
<path d="M152.33 153.656C152.306 156.627 152.281 159.591 152.248 162.563C152.126 174.156 151.946 185.757 151.701 197.35C151.652 199.579 151.603 201.799 151.554 204.028C151.538 204.052 151.53 204.069 151.514 204.085C151.318 204.338 151.089 204.599 150.844 204.869C150.616 205.122 150.371 205.375 150.109 205.628C149.954 205.791 149.791 205.955 149.62 206.102C149.13 206.559 148.599 207.024 148.044 207.481C148.093 205.44 148.142 203.399 148.191 201.358C148.468 188.761 148.673 176.164 148.811 163.567C148.893 156.154 148.95 148.733 148.975 141.32C149.024 141.475 149.081 141.638 149.13 141.793C149.611 143.344 150.085 144.936 150.534 146.528C150.599 146.781 150.681 147.034 150.746 147.288C151.016 148.251 151.277 149.222 151.522 150.186C151.571 150.382 151.62 150.578 151.669 150.774C151.914 151.745 152.142 152.7 152.355 153.656H152.33Z" fill="#343A40"/>
<path d="M142.828 189.006C142.6 196.566 142.29 204.118 141.898 211.662C141.71 211.759 141.538 211.857 141.359 211.947C141.163 212.045 140.967 212.143 140.779 212.233C140.689 212.274 140.6 212.315 140.51 212.355C140.371 212.421 140.216 212.486 140.061 212.551C139.995 212.576 139.922 212.609 139.848 212.641C139.416 212.821 138.918 213.009 138.379 213.213C139.546 191.431 140.028 169.6 139.808 147.786C139.71 137.736 139.457 127.694 139.065 117.66C139.546 118.436 140.02 119.244 140.469 120.069C140.6 120.305 140.73 120.55 140.861 120.787C141.032 121.089 141.187 121.399 141.351 121.71C141.449 121.889 141.547 122.077 141.636 122.257C142.02 123.008 142.387 123.759 142.739 124.526C143.449 146.014 143.473 167.526 142.828 189.014V189.006Z" fill="#343A40"/>
<path d="M131.08 215.597C130.19 215.866 129.292 216.127 128.394 216.38C128.149 216.446 127.913 216.511 127.668 216.585C127.651 216.585 127.627 216.593 127.61 216.601C128.28 205.824 128.174 195.015 128.051 184.222C127.896 171.331 127.692 158.432 127.415 145.541C127.153 133.017 126.827 120.493 126.451 107.969C126.663 107.969 126.892 107.969 127.121 107.994C127.292 108.01 127.472 108.027 127.651 108.035C127.7 108.035 127.749 108.043 127.798 108.059C128.468 108.141 129.178 108.288 129.905 108.525C129.937 109.668 129.97 110.802 130.011 111.945C130.762 137.589 131.301 163.24 131.546 188.892C131.635 197.799 131.595 206.706 131.088 215.597H131.08Z" fill="#343A40"/>
<path d="M118.989 218.707C118.474 218.797 118.017 218.879 117.609 218.928C117.217 218.977 116.752 219.034 116.237 219.091C116.017 219.115 115.788 219.132 115.543 219.156C116.237 193.268 115.356 167.371 114.613 141.499C114.286 130.168 113.984 118.828 113.854 107.488C114.76 107.561 115.625 107.635 116.417 107.7C116.597 107.716 116.768 107.733 116.948 107.741C117.062 107.749 117.176 107.765 117.291 107.765C117.609 134.331 118.85 160.881 119.16 187.447C119.283 197.864 119.266 208.282 118.989 218.699V218.707Z" fill="#343A40"/>
<path d="M103.787 177.519C103.755 191.692 103.665 205.865 103.436 220.038C102.677 220.079 101.926 220.12 101.191 220.152C100.971 220.16 100.742 220.177 100.522 220.185C100.35 220.185 100.17 220.201 99.999 220.209C100.04 218.038 100.073 215.866 100.097 213.695C100.464 186.214 100.375 158.734 100.366 131.254C100.366 122.967 100.366 114.68 100.366 106.394C101.542 106.484 102.685 106.574 103.803 106.671C103.82 130.29 103.852 153.901 103.795 177.519H103.787Z" fill="#343A40"/>
<path d="M90.1052 175.944C89.8766 190.598 89.6807 205.269 88.8316 219.907C88.8316 220.005 88.8235 220.111 88.8153 220.209C88.4316 220.185 88.0479 220.144 87.656 220.111C87.4111 220.087 87.158 220.071 86.9131 220.046C86.4069 219.997 85.9007 219.948 85.3945 219.899C85.4843 218.405 85.566 216.919 85.6395 215.425C86.3742 200.632 86.5293 185.814 86.7498 171.004C86.9702 156.195 87.158 141.377 87.0927 126.551C87.0682 119.481 86.9865 112.411 86.8641 105.332C87.0274 105.349 87.1825 105.357 87.3457 105.373C87.5254 105.381 87.6968 105.398 87.8846 105.414C88.6928 105.479 89.4929 105.537 90.293 105.594C90.6604 129.041 90.4726 152.48 90.1134 175.935L90.1052 175.944Z" fill="#343A40"/>
<path d="M77.0668 104.614C76.8791 113.039 76.5198 121.465 75.9973 129.874C75.0585 144.936 73.2052 159.934 72.8542 175.029C72.5113 189.724 72.9848 204.42 72.6337 219.115C71.5479 219.148 70.3804 219.27 69.1885 219.556C69.2293 217.891 69.2701 216.225 69.2946 214.56C69.5477 199.554 68.968 184.524 69.5967 169.518C70.2253 154.447 72.0704 139.458 72.8868 124.395C73.246 117.725 73.491 111.055 73.6461 104.377C74.7809 104.459 75.9238 104.54 77.075 104.622L77.0668 104.614Z" fill="#343A40"/>
<path d="M63.3593 103.675C63.3185 128.298 62.5266 152.921 61.0244 177.503C60.0528 193.333 58.918 209.147 57.7261 224.969C57.3097 225.165 56.8852 225.369 56.4525 225.565C55.8238 225.859 55.1707 226.153 54.5257 226.447C54.387 226.512 54.2482 226.569 54.1094 226.634C54.3135 223.924 54.5176 221.222 54.7135 218.519C57.0158 187.724 59.0813 156.938 59.6936 126.053C59.8406 118.526 59.9222 110.998 59.9304 103.471C60.1263 103.479 60.3304 103.495 60.5264 103.504C60.6978 103.512 60.8856 103.528 61.0652 103.536C61.8244 103.585 62.5919 103.634 63.3675 103.683L63.3593 103.675Z" fill="#343A40"/>
<path d="M49.8882 102.924C49.6678 111.921 49.2269 120.918 48.484 129.89C47.8553 137.507 46.9736 145.092 45.8878 152.651C44.8265 159.999 43.7243 167.347 43.5937 174.784C43.4549 182.475 44.0835 190.165 43.9937 197.864C43.9039 205.342 43.3079 212.804 42.7365 220.266C42.4752 223.671 42.214 227.067 41.9527 230.463C40.8261 230.61 39.6749 230.7 38.5156 230.757C38.9157 225.581 39.3075 220.405 39.6913 215.221C40.2546 207.604 40.6954 199.987 40.5322 192.345C40.3689 184.818 39.8627 177.283 40.377 169.755C40.8914 162.195 42.214 154.733 43.2018 147.231C44.1733 139.801 44.9081 132.339 45.4306 124.861C45.9531 117.513 46.2715 110.157 46.4511 102.802C47.5043 102.834 48.6554 102.875 49.88 102.932L49.8882 102.924Z" fill="#343A40"/>
<path d="M34.9974 104.647C33.9034 130.266 32.5073 155.868 30.8092 181.454C29.7234 197.758 28.5233 214.054 27.1925 230.333C26.7108 230.292 26.2373 230.243 25.7801 230.202C25.5189 230.178 25.274 230.153 25.0209 230.121C24.8739 230.104 24.727 230.088 24.5882 230.08C24.3269 230.055 24.0575 230.014 23.7881 229.965C24.1146 225.932 24.4412 221.899 24.7514 217.866C26.8741 190.533 28.6457 163.175 30.0826 135.801C30.5969 125.955 31.0705 116.109 31.495 106.263C32.7278 105.651 33.9116 105.12 34.9974 104.655V104.647Z" fill="#343A40"/>
<path d="M19.3304 115.791C17.8119 139.548 16.4158 163.314 14.6197 187.047C13.7135 199.048 12.6685 211.049 11.3459 223.018C11.0193 222.708 10.7173 222.397 10.4315 222.103C10.2356 221.899 10.0478 221.703 9.87637 221.507C9.6886 221.312 9.52532 221.116 9.3702 220.928C9.03547 220.536 8.68442 219.956 8.3252 219.222C8.35785 218.911 8.39051 218.593 8.42316 218.283C10.9132 194.427 12.3827 170.482 13.9176 146.553C14.4483 138.25 14.9871 129.947 15.5178 121.644C15.5586 121.554 15.6076 121.473 15.6565 121.391C15.8933 120.959 16.1464 120.518 16.3995 120.085C16.9791 119.113 17.6078 118.142 18.3262 117.146C18.4487 116.966 18.5793 116.795 18.7099 116.615C18.9059 116.338 19.1181 116.06 19.3386 115.782L19.3304 115.791Z" fill="#343A40"/>
<path d="M107.42 85.7546C107.42 85.7546 109.91 82.5788 112.988 83.2972C116.058 84.0156 114.89 88.5386 113.551 90.0408C112.212 91.5429 106.236 93.1268 106.236 93.1268L107.42 85.7464V85.7546Z" fill="#F4B484"/>
<path d="M73.278 84.1301C73.278 84.1301 70.4451 81.2645 67.955 81.4033C65.465 81.5421 65.2609 84.2281 65.6854 85.4527C66.1099 86.6773 68.5837 89.3878 70.2655 90.7186C71.9473 92.0493 74.9761 92.0575 74.9761 92.0575L73.278 84.1301Z" fill="#F4B484"/>
<path d="M71.8168 80.1133C71.9393 76.0067 73.5721 70.2102 78.7073 66.5282C83.8507 62.8462 98.0154 58.1192 101.999 62.3564C105.984 66.5854 109.421 73.7044 108.482 82.3094C108.482 82.3094 108.163 86.073 107.608 88.955C107.061 91.8369 105.902 96.5394 105.028 99.9765C104.155 103.414 97.4112 110.214 91.8923 110.353C86.3734 110.492 79.042 106.981 75.409 102.556C71.7678 98.1314 72.6332 91.3062 72.5516 89.8857C72.4699 88.4651 71.6943 84.2279 71.8168 80.1214V80.1133Z" fill="#F4B484"/>
<path d="M102.057 60.3887C102.057 60.3887 101.436 58.8212 99.0115 56.9925C96.5868 55.1719 95.8928 55.3842 94.9703 54.9025C94.0478 54.4208 92.6272 54.5024 90.7985 53.7105C88.9697 52.9268 84.5121 52.8206 83.2875 53.2452C82.0629 53.6697 78.0788 55.6781 76.8705 56.4618C75.6704 57.2456 73.662 59.6703 72.4619 60.454C71.2618 61.2378 70.8046 62.691 70.3229 63.6054C69.5718 65.0341 69.7024 65.2464 69.0493 66.3485C68.3962 67.4507 68.2656 71.3858 68.0288 73.5411C67.792 75.6964 68.4697 78.1538 69.0901 79.7213C69.7106 81.2888 71.9802 83.4768 71.9802 83.4768C71.9802 83.4768 74.3233 80.848 74.2743 79.9581C74.2254 79.0682 76.5031 75.1984 76.4297 73.9493C76.3562 72.7083 76.895 72.6757 76.895 72.6757C76.895 72.6757 79.9321 72.8635 81.9078 73.1002C83.8835 73.337 85.304 73.2635 88.3084 72.741C91.3128 72.2185 94.0804 70.8061 95.9745 69.6305C97.8686 68.4549 100.767 66.1526 100.767 66.1526C100.767 66.1526 101.967 68.4059 103.534 70.9857C105.11 73.5737 106.996 75.427 107.274 77.1904C107.551 78.9539 108.27 82.1297 108.27 82.1297L108.221 84.4483C108.221 84.4483 109.462 84.3748 110.229 78.9865C110.996 73.5982 109.29 71.9083 108.359 68.0385C107.429 64.1687 106.743 61.5317 105.086 60.5602C103.428 59.5887 102.049 60.3724 102.049 60.3724L102.057 60.3887Z" fill="#FF9518"/>
<path d="M92.8883 91.2899C94.366 92.1553 96.5539 93.1023 97.4928 92.8084C98.4235 92.5145 98.2439 91.396 97.8112 90.8899C97.3785 90.3755 96.2192 89.5101 95.1987 88.8978C94.1863 88.2855 92.5535 87.2977 92.8883 87.1262C92.8883 87.1262 95.9416 88.6203 97.305 89.6081C97.5908 89.8204 97.852 90.0571 98.0643 90.302C98.8644 91.2083 99.1419 92.2696 98.7991 92.8574C98.3664 93.5922 97.6642 93.8698 95.86 93.3799C94.0476 92.8901 92.676 91.6573 91.582 91.2491C90.488 90.8409 89.8594 90.2775 89.8594 90.2775C89.8594 90.2775 91.4106 90.4245 92.8883 91.2981V91.2899Z" fill="#343A40"/>
<path d="M99.4121 80.546C99.4121 80.546 99.9999 79.8847 102.506 80.1052C105.013 80.3174 105.87 81.2073 106.352 81.8441C106.833 82.4891 106.507 82.9953 106.107 83.0198C105.707 83.0442 105.535 82.4319 104.433 81.7298C103.323 81.0359 102.212 81.0114 101.453 81.0522C100.694 81.093 99.4202 81.3869 99.1835 81.093C98.9467 80.7909 99.4202 80.546 99.4202 80.546H99.4121Z" fill="#343A40"/>
<path d="M80.0625 78.1295C80.9279 77.7213 82.0709 77.3948 83.8588 77.5581C85.6549 77.7214 86.6346 78.6031 86.6346 78.6031C87.0591 79.0684 86.2835 79.5175 85.7855 79.2725C85.2794 79.0358 84.2752 78.6031 83.5159 78.5133C82.7566 78.4235 81.7443 78.75 80.8218 78.9378C79.8992 79.1256 79.2298 79.9175 78.8052 79.5419C78.3807 79.1664 79.1971 78.5378 80.0625 78.1295Z" fill="#343A40"/>
<path d="M85.9651 92.58C85.9651 92.58 86.4794 92.9555 87.2305 93.7148C87.9898 94.4741 89.0593 95.3476 89.9328 95.8374C90.8064 96.3191 91.8269 96.262 91.8596 96.8416C91.8922 97.4213 91.1003 97.5519 90.4635 97.4131C89.8349 97.2743 88.5531 96.7192 87.2387 95.5436C85.9243 94.3679 85.4834 93.6413 85.2793 93.1596C85.0752 92.6779 85.4507 92.3024 85.9569 92.5882L85.9651 92.58Z" fill="#343A40"/>
<path d="M101.256 86.0895C101.281 85.9425 101.322 85.8037 101.371 85.6568C101.371 85.6241 101.371 85.5833 101.371 85.5507C101.387 85.3629 101.403 85.1588 101.452 84.971C101.567 84.4648 101.885 84.0648 102.383 83.877C102.538 83.8199 102.685 83.8035 102.848 83.828C103.004 83.828 103.15 83.8607 103.289 83.9423C103.551 84.0893 103.771 84.3097 103.861 84.6036C103.934 84.8486 103.975 85.0853 104 85.3302C104.024 85.4445 104.04 85.5507 104.057 85.665C104.089 85.9099 104.057 86.1793 104.024 86.4161C103.983 86.6528 103.893 86.8977 103.795 87.11C103.738 87.2243 103.673 87.3304 103.6 87.4284C103.526 87.5345 103.461 87.6325 103.371 87.7305C103.24 87.8693 103.061 87.9917 102.873 88.057C102.775 88.0734 102.669 88.0979 102.571 88.1142C102.465 88.1224 102.367 88.1142 102.269 88.0815C102.252 88.0815 102.236 88.0815 102.22 88.0815C101.812 87.9917 101.509 87.6978 101.363 87.3141C101.207 86.9222 101.207 86.4814 101.273 86.065L101.256 86.0895Z" fill="#343A40"/>
<path d="M81.0673 84.6691C81.0836 84.5793 81.1081 84.4977 81.1407 84.416C81.1897 84.2609 81.2387 84.0976 81.3204 83.9588C81.4591 83.7302 81.5816 83.567 81.8102 83.42C81.9163 83.3547 82.0306 83.2975 82.1449 83.2567C82.1939 83.2404 82.349 83.2159 82.3245 83.2241C82.4143 83.2077 82.4552 83.1914 82.5286 83.1914C82.896 83.1914 83.2063 83.3057 83.4838 83.5425C83.6063 83.6486 83.7206 83.7792 83.8022 83.918C83.9818 84.2201 84.0635 84.4977 84.1043 84.8487C84.137 85.0936 84.1043 85.3467 84.0716 85.5917C84.0553 85.7304 84.0227 85.8774 83.99 86.0162C83.9655 86.106 83.9329 86.1958 83.9002 86.2856C83.8594 86.4244 83.8186 86.5632 83.7369 86.6856C83.6961 86.7509 83.6145 86.8816 83.5573 86.9387C83.5165 86.9877 83.4675 87.0204 83.4185 87.0612C83.2879 87.1755 83.1409 87.2653 82.9695 87.3224C82.6348 87.4286 82.2511 87.3878 81.9327 87.2245C81.8265 87.1673 81.7286 87.0938 81.6388 87.0204C81.6061 86.9959 81.5816 86.9714 81.5571 86.9469C81.451 86.8408 81.3448 86.7265 81.2714 86.5958C81.1979 86.4571 81.1162 86.3101 81.0754 86.1631C81.0183 85.9427 80.9693 85.7141 80.9775 85.4855C80.9856 85.2161 81.0101 84.9385 81.0673 84.6773V84.6691Z" fill="#343A40"/>
<path d="M110.67 89.6734C111.543 89.3306 112.507 88.555 112.768 87.9508C113.029 87.3385 113.331 86.318 113.119 85.7955C112.915 85.273 112.368 85.0689 111.715 85.1016C111.062 85.1424 110.017 85.5506 109.674 85.7547C109.331 85.9506 108.408 86.4813 108.563 86.1139C108.563 86.1139 109.927 85.0281 111.217 84.7178C112.507 84.4076 113.372 84.9546 113.535 85.8363C113.707 86.718 113.576 87.5589 113.021 88.359C112.474 89.1591 111.609 89.6898 110.735 90.0327C109.861 90.3756 108.571 90.6287 108.571 90.6287C108.571 90.6287 109.788 90.0245 110.653 89.6816L110.67 89.6734Z" fill="#343A40"/>
<path d="M66.8047 83.2486C67.3598 82.5056 67.817 82.3015 68.6661 82.5464C69.5151 82.7995 70.952 84.0813 70.952 84.0813C70.952 84.0813 69.7437 83.6731 68.9436 83.2486C68.1436 82.8159 67.5476 82.7914 67.1639 83.2322C66.772 83.6731 66.8128 84.3834 67.3435 85.3631C67.8742 86.3428 68.6579 87.6082 68.6579 87.6082C68.6579 87.6082 67.2782 86.3182 66.87 85.4529C66.4618 84.5875 66.2495 83.9996 66.8047 83.2567V83.2486Z" fill="#343A40"/>
<path d="M49.8381 88.4168C54.7774 88.1392 67.2439 91.5518 70.583 93.5194C73.9221 95.4869 85.4253 100.924 86.7969 102.214C88.1603 103.512 89.042 103.855 89.042 103.855C89.042 103.855 94.7487 101.757 101.933 99.3893C109.118 97.0218 119.494 94.0827 124.597 93.005C129.699 91.9274 134.443 92.0498 134.443 92.0498L136.165 95.8788C136.165 95.8788 96.5203 110.493 86.8132 110.264C77.1143 110.027 43.7966 92.0988 41.625 87.9025C41.625 87.9025 44.8988 88.6944 49.8381 88.4168Z" fill="#33A04D"/>
<path d="M49.4387 88.8249C54.3779 88.5473 66.8445 91.9599 70.1836 93.9274C73.5227 95.895 85.0259 101.332 86.3975 102.622C87.7609 103.92 88.6426 104.263 88.6426 104.263C88.6426 104.263 94.3575 102.565 101.542 100.197C108.726 97.8299 119.087 94.4908 124.197 93.4131C129.3 92.3354 134.043 92.4579 134.043 92.4579L135.766 96.2869C135.766 96.2869 96.1209 110.901 86.4138 110.672C76.7149 110.435 43.3972 92.5069 41.2256 88.3105C41.2256 88.3105 44.4994 89.1025 49.4387 88.8249Z" fill="#F8F8F8"/>
<path d="M34.2457 143.475C34.4089 138.756 35.4376 126.527 36.0173 121.587C36.5969 116.648 36.7031 110.949 37.4542 105.21C38.2053 99.4789 40.3034 87.1838 40.3034 87.1838C40.3034 87.1838 42.3036 88.2451 50.2065 90.9393C58.1093 93.6334 64.5263 96.6052 68.7145 98.3278C72.9026 100.05 79.9156 102.206 83.0098 103.602C83.0098 103.602 84.4712 106.663 86.4387 107.137C88.4062 107.61 92.2107 106.418 93.2067 104.99C93.2067 104.99 100.236 103.61 105.535 102.132C110.833 100.655 121.218 97.7073 126.924 95.8133C132.631 93.9192 136.28 93.7151 136.28 93.7151C136.28 93.7151 138.028 105.586 137.946 111.676C137.864 117.767 138.787 134.005 138.656 139.312C138.526 144.618 139.048 157.542 138.713 159.33C138.387 161.118 138.664 162.277 138.664 162.277C138.664 162.277 127.014 165.69 122.173 167.535C117.323 169.38 109.69 171.388 106.931 172.131C104.171 172.874 95.0681 175.552 95.0681 175.552C95.0681 175.552 93.8843 177.389 89.3533 177.25C84.8222 177.111 83.1976 175.046 83.1976 175.046C83.1976 175.046 71.4086 172.18 64.812 169.804C58.2154 167.429 51.1862 164.881 47.8879 163.698C44.5896 162.514 41.0137 160.163 37.9195 158.767C34.8253 157.371 33.0537 156.489 33.0537 156.489C33.0537 156.489 34.0906 148.186 34.2538 143.467L34.2457 143.475Z" fill="#33A04D"/>
<path d="M81.5144 156.987C81.6368 155.411 81.3593 139.034 81.4736 135.393C81.5879 131.752 81.5879 118.403 81.7756 112.313C81.9716 106.214 82.4859 103.928 82.4859 103.928C83.2615 104.377 82.29 111.79 82.29 113.758C82.29 115.717 82.2492 126.323 82.1757 130.748C82.1022 135.164 82.0287 147.149 82.3226 150.366C82.6165 153.582 82.1349 162.253 82.3635 164.4C82.592 166.547 82.3961 174.507 82.3961 174.507C82.3961 174.507 82.0777 172.662 81.9961 171.29C81.9144 169.919 81.3838 158.563 81.5062 156.987H81.5144Z" fill="#343A40"/>
<path d="M94.6597 170.466C94.7821 168.89 94.08 160.196 93.8596 156.375C93.6391 152.562 93.435 143.149 93.2391 139.826C93.0513 136.503 92.8554 121.694 93.2636 117.448C93.6718 113.203 93.4677 105.855 93.4677 105.855C93.7453 105.055 93.9167 106.125 93.9575 110.639C93.9984 115.154 93.4595 122.739 93.68 126.551C93.9004 130.364 94.227 143.794 94.3413 145.851C94.4556 147.909 94.8474 160.449 94.9781 164.661C95.1087 168.874 95.6557 174.736 95.1168 174.76C94.578 174.785 94.529 172.042 94.6597 170.466Z" fill="#343A40"/>
<path d="M62.8283 179.642C62.8283 179.642 64.9755 177.952 71.1149 175.356C77.2543 172.76 80.3076 171.241 81.769 169.363C83.2304 167.486 85.7776 164.873 85.7776 164.873C85.7776 164.873 87.2634 159.403 88.9289 157.06C90.5944 154.725 92.8477 151.002 94.5866 150.006C96.3256 149.01 99.6402 148.145 101.061 149.41C102.481 150.676 102.816 152.676 102.816 152.676C102.816 152.676 104.482 150.341 106.931 149.974C109.38 149.606 111.062 151.533 112.017 152.603C112.972 153.672 112.107 158.211 111.715 159.126C111.315 160.048 110.735 161.648 110.735 161.648C110.735 161.648 111.919 162.702 112.637 163.559C113.356 164.416 113.119 168.016 112.115 170.098C111.854 170.645 111.56 171.453 111.225 172.4C111.519 172.939 111.943 174.017 111.633 175.364C111.184 177.299 109.233 180.548 106.898 182.818C104.563 185.079 99.0034 187.863 96.6685 188.337C95.6725 188.753 94.7336 189.088 93.909 189.316C89.9331 190.443 80.3158 190.99 77.1563 190.712C73.9968 190.443 68.2248 187.626 64.9347 184.9C61.6364 182.173 61.3016 180.164 62.8365 179.634L62.8283 179.642Z" fill="#F4B484"/>
<path d="M334.284 73.9414C334.284 73.9414 351.281 75.411 360.85 81.0523C370.426 86.7019 374.998 102.393 378.966 109.798C382.934 117.203 385.889 142.438 388.461 153.843C391.032 165.24 390.338 181.095 386.697 185.953C383.064 190.81 380.599 197.219 361.046 198.599C341.493 199.979 300.084 201.228 277.796 199.13C255.508 197.031 242.372 199.007 231.906 188.247C221.44 177.478 227.718 145.23 232.943 129.637C238.168 114.043 238.445 96.6213 248.651 84.0404C258.856 71.4595 279.592 72.0228 285.217 71.0677C290.843 70.1043 334.276 73.9414 334.276 73.9414H334.284Z" fill="#33A04D"/>
<path d="M312.38 22.0014C311.449 18.7194 306.102 16.5478 303.269 16.5314C300.134 16.5151 296.746 20.0665 293.725 20.3604C292.639 20.4665 291.496 20.3604 290.41 20.3604C288.165 20.3604 286.704 21.0707 285.03 22.581C282.034 25.2997 280.376 29.1286 280.311 33.1045C278.776 33.1943 277.944 33.2841 276.735 34.37C274.8 36.1089 273.502 38.3867 273.192 40.9747C272.947 43.0239 273.11 44.3628 274.074 46.1018C274.637 47.1223 274.792 46.3875 273.968 47.4243C272.188 49.6531 270.449 51.1472 271.208 54.3557C271.747 56.6579 273.331 58.7888 274.67 60.691C276.294 63.0096 277.748 62.7892 280.311 62.9688C281.642 66.2671 288.132 66.2426 290.982 66.1038C295.48 65.8834 299.864 65.467 303.905 63.3443C305.579 62.4626 305.457 62.6177 307.236 63.0504C312.094 64.2342 318.633 65.2792 323.148 62.43C325.189 61.14 327.704 56.1436 324.92 54.3557C326.838 54.5598 327.124 51.3268 327.198 50.0695C327.345 47.5141 326.642 46.4202 324.61 44.9098C322.724 43.5056 322.797 43.824 322.691 41.6115C322.577 39.0643 322.43 36.0844 320.879 33.9291C319.956 32.6473 318.25 31.2839 317.588 29.9532C316.96 28.6959 317.458 27.0386 317.025 25.6017C316.592 24.1648 313.89 20.1399 312.396 22.0095L312.38 22.0014Z" fill="#33A04D"/>
<path d="M312.054 29.3084C312.054 29.3084 315.817 33.1292 317.581 40.2565C319.336 47.3755 319.712 56.3479 318.961 60.5687C318.209 64.7896 316.83 69.0104 314.691 72.0392C312.56 75.0763 311.678 76.9214 306.029 77.9746C300.379 79.0277 293.603 75.7294 289.831 72.3005C286.067 68.8716 285.186 65.312 284.304 61.8831C283.422 58.4542 282.418 54.364 282.043 45.3998C281.667 36.4357 288.321 28.9165 293.97 26.5408C299.62 24.165 309.792 26.2795 312.046 29.3084H312.054Z" fill="#FFE600"/>
<path d="M292.925 51.2207C292.925 51.1309 292.941 51.0411 292.95 50.9513C292.974 50.788 292.99 50.6084 293.056 50.4532C293.154 50.2002 293.252 50.0042 293.448 49.8164C293.537 49.7266 293.644 49.6532 293.75 49.596C293.791 49.5715 293.937 49.5225 293.913 49.5307C294.003 49.498 294.035 49.4817 294.109 49.4654C294.468 49.4083 294.787 49.4654 295.097 49.6613C295.236 49.743 295.366 49.8654 295.472 49.9961C295.693 50.2736 295.823 50.5431 295.921 50.8941C295.987 51.139 296.003 51.4085 296.003 51.6615C296.003 51.8085 296.003 51.9636 295.987 52.1106C295.978 52.2085 295.962 52.3065 295.946 52.3963C295.93 52.5433 295.913 52.6984 295.856 52.829C295.823 52.9106 295.766 53.0494 295.725 53.1229C295.693 53.1801 295.652 53.2209 295.611 53.278C295.497 53.4168 295.374 53.5393 295.211 53.6209C294.901 53.7924 294.517 53.8087 294.182 53.6944C294.068 53.6536 293.962 53.5964 293.856 53.5393C293.823 53.5229 293.791 53.4985 293.766 53.4821C293.644 53.3923 293.521 53.2862 293.431 53.1637C293.333 53.0331 293.235 52.9025 293.17 52.7474C293.08 52.5351 292.999 52.2983 292.966 52.0697C292.933 51.7922 292.909 51.5064 292.925 51.2207Z" fill="#343A40"/>
<path d="M312.879 50.0449C312.879 49.8898 312.895 49.7347 312.92 49.5877C312.92 49.5551 312.92 49.5142 312.912 49.4816C312.895 49.2857 312.887 49.0734 312.895 48.8775C312.928 48.3386 313.173 47.8733 313.622 47.6039C313.761 47.5222 313.908 47.4814 314.063 47.4814C314.21 47.4569 314.365 47.4651 314.512 47.5222C314.789 47.6283 315.042 47.8243 315.181 48.1019C315.295 48.3386 315.377 48.5754 315.434 48.8203C315.475 48.9264 315.508 49.0407 315.54 49.155C315.614 49.4081 315.63 49.6775 315.63 49.9388C315.63 50.1919 315.581 50.4531 315.516 50.6899C315.483 50.8205 315.426 50.9348 315.377 51.0491C315.32 51.1716 315.271 51.2859 315.206 51.4002C315.1 51.5716 314.944 51.7267 314.773 51.8165C314.675 51.8574 314.577 51.89 314.487 51.9308C314.389 51.9553 314.283 51.9635 314.185 51.9553C314.169 51.9553 314.153 51.9553 314.136 51.9553C313.72 51.9308 313.385 51.6859 313.173 51.3185C312.961 50.943 312.887 50.4858 312.887 50.0531L312.879 50.0449Z" fill="#343A40"/>
<path d="M296.755 42.9665C296.755 42.9665 294.167 42.1419 292.085 43.3094C290.011 44.4769 289.587 45.3504 290.134 45.8403C290.689 46.3383 291.571 44.7871 292.926 44.4442C294.281 44.1013 296.567 44.7789 297.122 44.085C297.669 43.3911 296.747 42.9584 296.747 42.9584L296.755 42.9665Z" fill="#343A40"/>
<path d="M314.984 42.1748C313.188 41.6196 310.608 42.6646 310.608 42.6646C310.608 42.6646 309.384 42.8932 310.176 43.6525C310.968 44.4117 313.646 43.4157 314.478 43.5055C315.311 43.5953 316.691 45.0648 317.621 44.7301C318.552 44.3954 316.789 42.7299 314.993 42.1748H314.984Z" fill="#343A40"/>
<path d="M311.049 53.8332C309.792 52.9106 306.657 50.9349 306.657 50.9349C306.657 50.9349 306.282 50.8043 305.775 50.9349C305.269 51.0655 307.286 51.9881 309.417 53.7025C311.547 55.417 312.054 55.6782 311.547 56.4701C311.041 57.2621 310.421 57.1314 308.657 56.862C306.902 56.6008 303.759 54.4863 303.383 54.8863C303.008 55.2863 306.649 56.9926 308.91 57.5233C311.172 58.054 311.801 58.054 312.429 56.9927C313.058 55.9395 312.307 54.7475 311.049 53.825V53.8332Z" fill="#343A40"/>
<path d="M303.767 59.6379C301.13 58.1847 300.126 57.2622 299.628 58.0541C299.122 58.846 300.632 60.1604 302.518 60.9523C304.404 61.7443 307.164 63.1975 307.164 60.9523C307.164 60.9523 306.412 61.083 303.775 59.6298L303.767 59.6379Z" fill="#343A40"/>
<path d="M284.688 50.9348C284.688 50.9348 280.924 47.6365 278.287 49.4816C275.65 51.3267 275.275 54.625 277.283 56.8701C279.292 59.1153 286.068 60.9603 286.068 60.9603L284.688 50.9348Z" fill="#FFE600"/>
<path d="M317.703 48.298C317.703 48.298 319.458 45.261 321.597 46.1917C323.736 47.1224 322.855 52.3882 321.597 54.2333C320.34 56.0784 317.703 57.1316 317.703 57.1316V48.298Z" fill="#FFE600"/>
<path d="M279.667 55.1559C278.916 54.2333 278.54 53.572 278.785 52.5189C279.038 51.4657 280.165 51.1963 281.047 51.0656C281.928 50.935 283.177 51.0656 283.177 51.0656C283.177 51.0656 281.047 49.8818 279.414 50.8044C277.781 51.7269 277.405 53.3108 278.41 54.6252C279.414 55.9478 280.924 56.7315 281.928 57.1316C282.933 57.5234 283.814 57.9235 283.814 57.9235C283.814 57.9235 280.426 56.0784 279.675 55.1559H279.667Z" fill="#343A40"/>
<path d="M321.59 47.8977C320.585 47.3671 319.328 48.4284 319.328 48.4284C319.328 48.4284 319.834 48.559 320.838 48.559C321.843 48.559 321.843 49.4816 321.59 50.8041C321.337 52.1186 319.957 54.2331 319.957 54.2331C319.957 54.2331 321.337 53.0493 321.712 51.9879C322.088 50.9348 322.594 48.4284 321.59 47.8977Z" fill="#343A40"/>
<path d="M310.159 24.0343C310.037 24.0099 309.914 24.0099 309.792 24.0343C310.143 23.3731 309.179 22.4913 308.657 21.9525C306.812 20.0094 304.722 19.2747 302.101 19.4135C299.089 19.5686 296.786 21.0626 293.986 21.8219C292.37 22.2627 290.353 22.3607 288.957 23.3975C287.243 24.6711 285.92 26.9408 284.442 28.5001C282.948 30.0758 281.985 31.6759 281.348 33.7986C281.03 34.8436 280.458 35.8478 280.164 36.8601C279.879 37.848 280.034 38.9665 280.034 40.0033C280.034 42.0525 279.781 44.4038 280.368 46.404C280.687 47.5061 281.471 50.0043 282.793 49.8492C284.246 49.6778 283.332 48.5674 283.789 47.7592C283.969 47.4408 284.581 47.3265 284.916 47.1387C286.034 46.5101 287.12 45.9468 287.953 44.8609C289.594 42.7301 289.063 40.5666 289.218 38.15C291.178 39.7665 294.778 39.3502 296.615 37.6031C297.537 36.7295 298.729 35.064 297.856 33.7986C303.318 35.1048 311.106 30.4595 310.143 24.0262L310.159 24.0343Z" fill="#33A04D"/>
<path d="M316.895 31.0634C315.213 28.557 313.678 24.2137 310.445 23.7892C309.686 23.6912 305.898 24.8669 307.408 25.7404C307.522 27.708 306.828 29.1857 308.282 30.745C309.539 32.0921 311.237 32.5983 312.919 33.0146C313.058 35.1046 313.449 36.7456 314.943 38.2723C315.727 39.0806 317.074 39.7418 317.613 40.7379C318.152 41.7339 317.719 43.0973 317.956 44.2076C318.144 45.073 318.666 45.571 319.123 46.3058C321.034 41.9053 319.523 34.9658 316.903 31.0634H316.895Z" fill="#33A04D"/>
<path d="M268.988 140.666C268.988 140.666 266.808 137.368 265.641 130.135C264.482 122.901 264.408 114.084 264.408 114.084L280.369 113.505C280.369 113.505 279.691 127.122 276.687 131.988C273.683 136.854 270.139 145.745 270.139 145.745L268.98 140.658L268.988 140.666Z" fill="#FFE600"/>
<path d="M340.554 51.4489C336.17 51.1958 325.083 54.2328 322.111 55.98C319.14 57.7271 308.918 62.5602 307.702 63.7114C306.485 64.8625 305.701 65.1646 305.701 65.1646C305.701 65.1646 300.632 63.3031 294.247 61.1968C287.863 59.0905 278.638 56.478 274.098 55.5228C269.559 54.5676 265.346 54.6737 265.346 54.6737L263.812 58.0781C263.812 58.0781 299.056 71.0672 307.677 70.8549C316.298 70.6427 345.918 54.7145 347.853 50.9835C347.853 50.9835 344.938 51.6938 340.554 51.4407V51.4489Z" fill="#F4B484"/>
<path d="M340.906 51.8164C336.521 51.5633 325.435 54.6004 322.463 56.3475C319.491 58.0946 309.27 62.9278 308.053 64.0789C306.837 65.23 306.053 65.5321 306.053 65.5321C306.053 65.5321 300.975 64.0217 294.582 61.9154C288.198 59.8091 278.989 56.8455 274.45 55.8903C269.911 54.9351 265.698 55.0412 265.698 55.0412L264.163 58.4457C264.163 58.4457 299.407 71.4347 308.029 71.2225C316.65 71.0102 346.269 55.0821 348.204 51.3511C348.204 51.3511 345.29 52.0613 340.906 51.8083V51.8164Z" fill="#F8F8F8"/>
<path d="M348.645 51.645C348.645 51.645 336.497 55.2944 330.08 57.915C323.663 60.5357 312.143 64.9117 309.808 66.0791C307.473 67.2466 306.306 67.8262 306.306 67.8262C306.306 67.8262 294.06 63.7442 288.37 62.144C282.679 60.5439 266.629 56.5761 264.155 56.4455C264.155 56.4455 263.142 82.1134 263.142 88.0895C263.142 94.0656 262.996 104.124 263.142 108.206C263.289 112.288 263.289 117.537 263.289 117.537C263.289 117.537 278.311 122.64 285.455 124.534C292.599 126.428 305.726 129.784 307.041 129.784C308.355 129.784 337.664 119.872 344.808 116.664C351.951 113.455 354.58 112.582 354.58 112.582C354.58 112.582 354.139 98.8824 353.707 86.7833C353.266 74.6841 350.057 51.5062 350.057 51.5062L348.645 51.6532V51.645Z" fill="#F4B484"/>
<path d="M307.097 114.157C306.983 112.81 307.203 98.7841 307.097 95.6736C306.991 92.5549 306.967 81.1333 306.787 75.9083C306.607 70.6914 306.142 68.7321 306.142 68.7321C305.448 69.1158 306.33 75.4674 306.338 77.1492C306.338 78.831 306.395 87.9095 306.469 91.6895C306.542 95.4776 306.632 105.732 306.379 108.491C306.126 111.251 306.567 118.672 306.362 120.509C306.167 122.346 306.346 129.163 306.346 129.163C306.346 129.163 306.624 127.579 306.697 126.411C306.763 125.236 307.22 115.52 307.105 114.165L307.097 114.157Z" fill="#343A40"/>
<path d="M269.184 126.551C269.184 126.551 271.617 121.13 272.678 117.652C273.739 114.174 273.87 111.415 274.147 107.781C274.425 104.148 274.017 98.1479 275.993 96.3844C277.968 94.621 281.405 95.3802 282.026 96.9641C282.026 96.9641 283.61 92.9637 286.32 92.4657C289.031 91.9677 290.81 94.0658 291.137 95.519C291.464 96.9804 291.815 97.8866 291.815 97.8866C291.815 97.8866 293.317 95.5435 295.301 95.6578C297.285 95.7803 299.701 97.0294 300.036 100.369C300.371 103.708 299.971 105.789 299.971 105.789C299.971 105.789 301.709 104.32 303.408 106.19C305.106 108.059 305.383 110.982 304.844 113.937C304.306 116.893 304.469 121.073 303.326 126.208C302.183 131.343 300.583 136.682 297.497 143.026C294.411 149.369 289.52 153.402 287.618 157.827C285.716 162.252 262.832 148.708 262.138 148.773C261.436 148.839 262.906 147.157 264.146 144.136C265.387 141.115 267.714 135.18 268.865 131.931C270.016 128.682 269.184 126.559 269.184 126.559V126.551Z" fill="#FFE600"/>
<path d="M282.222 114.933C282.949 111.161 282.99 107.479 283.031 103.805C283.071 100.123 282.018 96.9637 282.018 96.9637C282.018 96.9637 283.202 99.1191 283.455 101.895C283.716 104.662 283.676 110.255 283.112 113.643C282.557 117.031 280.459 122.909 280.459 122.909C280.459 122.909 281.488 118.705 282.214 114.933H282.222Z" fill="#343A40"/>
<path d="M289.855 117.513C290.582 114.214 291.398 110.255 291.7 106.475C292.002 102.695 291.7 97.3964 291.7 97.3964C291.7 97.3964 292.215 98.1638 292.476 100.931C292.737 103.699 292.002 108.908 291.406 113.112C290.81 117.317 287.978 123.619 287.978 123.619C287.978 123.619 289.137 120.803 289.863 117.505L289.855 117.513Z" fill="#343A40"/>
<path d="M296.339 123.865C296.763 122.428 298.951 116.362 299.425 111.733C299.898 107.104 299.98 105.789 299.98 105.789C301.008 105.724 299.98 113.121 299.261 116.411C298.535 119.709 295.963 125.914 295.963 125.914C295.963 125.914 295.922 125.293 296.347 123.856L296.339 123.865Z" fill="#343A40"/>
<path d="M319.752 155.884C319.752 155.884 319.262 153.468 318.381 150.284C317.499 147.1 316.911 144.349 316.519 142.92C316.127 141.491 314.658 136.217 314.952 133.36C315.246 130.502 317.009 126.984 318.185 124.02C319.36 121.056 320.536 118.305 320.928 116.77C321.32 115.235 322.593 112.264 322.789 111.39C322.985 110.508 322.789 106.116 322.887 103.038C322.985 99.9604 323.573 97.5438 324.455 96.6621C325.336 95.7804 327.59 95.3396 328.275 95.7804C328.275 95.7804 328.373 92.8168 330.039 91.6086C331.704 90.4003 333.566 90.8411 334.537 91.1677L335.517 91.4943C335.517 91.4943 336.007 88.9634 337.476 88.4164C338.946 87.8694 341.297 88.6368 342.269 89.6247C343.248 90.6125 343.444 91.7147 343.444 91.7147C343.444 91.7147 344.326 91.3881 344.914 92.7025C345.502 94.0251 346.579 97.2091 347.559 100.067C348.539 102.924 349.714 109.08 349.224 112.59C348.735 116.101 348.147 122.371 347.167 125.114C346.187 127.857 344.326 133.466 343.248 135.776C342.171 138.087 342.448 139.058 342.31 141.263C342.171 143.467 343.738 148.855 343.738 150.504C343.738 152.153 342.954 151.827 341.191 152.039C339.428 152.251 336.978 153.247 333.754 153.909C330.521 154.57 319.76 155.884 319.76 155.884H319.752Z" fill="#FFE600"/>
<path d="M329.042 118.64C329.336 117.211 330.022 113.145 330.217 110.729C330.413 108.312 330.315 101.83 329.924 99.74C329.532 97.65 328.258 95.7804 328.258 95.7804C328.258 95.7804 329.042 96.0008 329.434 96.7682C329.826 97.5357 330.903 101.495 331.001 103.365C331.099 105.234 330.805 111.055 330.707 113.472C330.609 115.889 328.16 122.265 328.16 122.265C328.16 122.265 328.748 120.069 329.042 118.64Z" fill="#343A40"/>
<path d="M335.509 91.4943C335.509 91.4943 336.195 91.6004 336.782 92.7025C337.37 93.8047 337.762 96.8744 338.252 100.287C338.742 103.691 338.938 108.859 338.84 111.162C338.742 113.472 337.272 119.84 337.272 119.84C337.272 119.84 337.664 116.321 337.86 115.007C338.056 113.684 338.35 109.839 338.35 107.202C338.35 104.565 337.664 98.0827 337.174 95.7722C336.684 93.4618 335.509 91.4861 335.509 91.4861V91.4943Z" fill="#343A40"/>
<path d="M343.436 91.7147C343.436 91.7147 344.219 97.103 345.003 101.601C345.787 106.108 346.473 109.186 346.179 112.043C345.885 114.901 345.591 119.073 345.591 119.073C345.591 119.073 346.864 114.125 346.669 110.174C346.473 106.214 345.591 101.716 345.101 98.6379C344.611 95.56 343.436 91.7147 343.436 91.7147Z" fill="#343A40"/>
<path d="M345.591 150.798C345.591 150.798 349.379 146.569 357.437 155.525C365.495 164.489 369.993 177.927 375.447 183.405L380.901 188.884C380.901 188.884 373.079 178.18 369.054 170.963C365.03 163.746 359.339 154.039 354.604 151.296C349.869 148.561 345.599 150.798 345.599 150.798H345.591Z" fill="#343A40"/>
<path d="M260.285 148.806C260.285 148.806 250.57 151.794 245.834 158.513C241.099 165.232 233.988 172.449 232.094 174.196C230.2 175.935 238.021 163.738 241.573 160.505C245.124 157.272 251.288 149.304 255.313 148.561C259.338 147.818 260.293 148.806 260.293 148.806H260.285Z" fill="#343A40"/>
</svg>
