<svg width="285" height="320" viewBox="0 0 285 320" fill="none" xmlns="http://www.w3.org/2000/svg">
<mask id="mask0_1038_5828" style="mask-type:alpha" maskUnits="userSpaceOnUse" x="0" y="0" width="285" height="320">
<rect width="284.444" height="320" fill="white"/>
</mask>
<g mask="url(#mask0_1038_5828)">
<path d="M-39.0405 156.71C-22.7845 149.816 -7.86197 129.177 10.5855 124.219C26.9408 119.822 54.3532 121.999 71.8716 126.198C83.9855 129.106 108.752 128.978 121.157 130.177C133.271 131.347 143.08 127.162 154.733 126.418C184.443 124.503 213.203 121.205 241.339 133.347C265.439 143.745 279.262 152.922 284.057 180.576C288.1 203.875 259.545 225.776 242.687 235.819C221.324 248.543 192.139 254.876 179.103 275.381C160.825 304.127 148.697 330.539 115.873 320.007C83.5813 309.652 51.6297 301.268 25.9762 277.7C6.65632 259.948 -12.9615 236.103 -18.6071 209.783C-23.6073 186.484 -51.2041 170.824 -39.0405 156.703V156.71Z" fill="#DEE2E6"/>
<path d="M76.7519 167.278C76.7519 167.278 70.1726 161.43 57.6847 164.381C45.1893 167.331 43.8094 175.839 46.2719 180.902C48.7268 185.956 57.578 185.186 65.1485 185.499C72.7189 185.811 79.5651 181.245 79.9158 176.144C80.2665 171.044 76.7519 167.278 76.7519 167.278Z" fill="#343A40"/>
<path d="M60.7417 102.994C61.2601 87.4793 60.5968 48.0031 60.5968 48.0031L64.7061 47.9116C64.7061 47.9116 64.2258 65.1186 64.2029 73.825C64.18 82.5314 64.6679 123.502 64.4087 131.575C64.1571 139.649 64.4621 172.554 64.4621 172.554L60.3528 172.432C60.3528 172.432 60.2309 118.501 60.7493 102.994H60.7417Z" fill="#343A40"/>
<path d="M35.3772 51.7085C35.3772 51.7085 36.3302 52.1354 38.8536 52.7225C39.0671 52.7758 39.2958 52.8292 39.5398 52.8749C40.8968 53.1723 42.6351 53.5077 44.8307 53.8508C45.0594 53.8813 45.2881 53.9194 45.5245 53.9499C47.0492 54.1786 48.7722 54.3997 50.7163 54.6208C51.0975 54.6665 51.4787 54.7046 51.8599 54.7428C52.0962 54.7656 52.3326 54.7885 52.5689 54.8114C55.039 55.0325 57.4939 55.1545 59.9106 55.1926C60.147 55.1926 60.3833 55.2002 60.6197 55.2078C63.6539 55.2383 66.6044 55.1468 69.3871 54.9715C69.6234 54.9639 69.8521 54.941 70.0884 54.9257C72.5357 54.758 74.8457 54.5293 76.9728 54.2701C77.2091 54.2472 77.4378 54.2167 77.6742 54.1786C79.0998 53.9956 80.434 53.805 81.6614 53.5992C82.8965 53.401 83.9714 53.218 84.8863 53.0655C85.1303 53.0198 85.359 52.9817 85.5801 52.9435C89.6131 52.2269 90.3145 51.9906 90.3145 51.9906C90.3145 51.9906 81.8596 18.0188 81.0286 13.5817C80.2053 9.14467 79.0312 6.57544 79.0312 6.57544L74.6551 6.61356H73.9309L70.7517 6.65168H70.0427L67.3439 6.68217H66.6349L62.8382 6.72029H62.1292L60.1546 6.74316H59.4227L56.1597 6.78128H55.4278L52.4545 6.81178H51.7074L48.8332 6.84227C48.8332 6.84227 40.2107 34.2118 38.4191 40.166C36.6199 46.1278 35.3848 51.7009 35.3848 51.7009L35.3772 51.7085Z" fill="#F8F8F8"/>
<path d="M38.8462 52.7298C39.0596 52.7831 39.2883 52.8365 39.5323 52.8822C40.0584 50.5112 40.5997 48.1402 41.1486 45.7768C44.2133 32.5876 47.8575 19.5737 52.4395 6.81909H51.6923C50.5869 9.88387 49.5348 12.9639 48.536 16.0515C44.625 28.1124 41.6441 40.3944 38.8462 52.7298Z" fill="#343A40"/>
<path d="M44.8233 53.8581C45.0521 53.8886 45.2808 53.9267 45.5171 53.9572C45.8907 51.6091 46.2871 49.2762 46.714 46.9433C49.1613 33.411 52.3176 20.0083 56.1523 6.78101H55.4205C54.4446 10.1279 53.5221 13.4747 52.6378 16.8521C49.451 29.0578 46.836 41.4084 44.831 53.8581H44.8233Z" fill="#343A40"/>
<path d="M51.8449 54.7502C52.0813 54.7731 52.3176 54.796 52.5539 54.8188C52.6149 53.843 52.6835 52.8595 52.7674 51.8837C53.9872 36.6741 56.4573 21.5713 60.1396 6.75061H59.4078C58.6073 9.99074 57.8678 13.2232 57.1816 16.4786C55.6873 23.5764 54.4675 30.7352 53.5298 37.9168C53.0571 41.4924 52.6607 45.0832 52.3329 48.6816C52.1651 50.4656 52.0203 52.242 51.8907 54.0336C51.8754 54.2699 51.8602 54.5139 51.8373 54.7502H51.8449Z" fill="#343A40"/>
<path d="M51.6237 59.3094C51.6542 59.5915 51.6999 59.8889 51.7761 59.7745C51.9134 59.5763 51.799 59.3857 51.6237 59.3094Z" fill="#343A40"/>
<path d="M59.8959 55.2001C60.1322 55.2001 60.3686 55.2077 60.6049 55.2153C60.6888 53.9421 60.765 52.6766 60.8412 51.4034C61.7104 36.5217 62.3812 21.6247 62.8311 6.72778H62.122C62.0077 10.5016 61.8781 14.2677 61.7409 18.0339C61.2758 30.4379 60.6659 42.8266 59.8959 55.2077V55.2001Z" fill="#343A40"/>
<path d="M66.6195 6.68206C66.8024 9.93744 66.9854 13.1928 67.176 16.4482C67.9079 29.2867 68.6322 42.1329 69.364 54.9714C69.6004 54.9638 69.8291 54.9409 70.0654 54.9256C69.9816 53.4161 69.8977 51.9142 69.8062 50.4047C68.9828 35.8279 68.1519 21.2512 67.3285 6.67444H66.6195V6.68206Z" fill="#343A40"/>
<path d="M70.0275 6.65924C70.6374 10.09 71.2169 13.5131 71.7734 16.9438C73.7937 29.3477 75.5243 41.7898 76.95 54.27C77.1863 54.2472 77.415 54.2167 77.6514 54.1785C77.4455 52.3946 77.2397 50.5953 77.0186 48.8114C75.3109 34.7073 73.2067 20.6413 70.7442 6.65161H70.0352L70.0275 6.65924Z" fill="#343A40"/>
<path d="M73.9159 6.6209C74.7087 9.99826 75.5092 13.3756 76.3021 16.7606C79.1534 28.8672 82.0047 40.9739 84.856 53.0729C85.1 53.0271 85.3287 52.989 85.5498 52.9509C85.1839 51.4185 84.8332 49.8861 84.4672 48.3537C81.189 34.4479 77.9107 20.5268 74.6325 6.61328H73.9082L73.9159 6.6209Z" fill="#343A40"/>
<path d="M48.8256 6.84972C48.8256 6.84972 50.0378 2.72523 51.7684 1.80274C55.6946 -0.293808 61.7327 -0.385294 68.1672 0.628674C74.6017 1.64264 78.406 3.99078 79.0159 6.58288C79.6258 9.17498 77.0185 11.8052 73.2752 13.3376C69.5243 14.8776 58.9653 15.2207 53.8344 13.0784C48.7036 10.9361 48.8332 6.85734 48.8332 6.85734L48.8256 6.84972Z" fill="#343A40"/>
<path d="M170.967 95.4158C172.385 95.6598 174.047 95.8504 174.047 95.8504C174.047 95.8504 175.343 96.5289 176.509 97.2684C177.676 98.0079 179.65 99.3573 180.695 99.7919C181.739 100.226 183.836 101.698 183.836 101.698L184.141 104.221L168.321 95.6674C168.321 95.6674 169.549 95.1718 170.967 95.4234V95.4158Z" fill="#343A40"/>
<path d="M153.608 144.902C153.608 144.902 154.347 156.719 154.53 160.409C154.713 164.099 155.27 173.331 156.375 181.085C157.481 188.838 158.403 203.24 158.403 203.24L155.079 203.796C155.079 203.796 153.783 197.148 153.417 194.198C153.051 191.247 151.016 180.536 150.833 177.578C150.65 174.62 148.248 165.578 147.509 161.88C146.769 158.19 144.558 146.183 144.558 146.183L153.608 144.887V144.902Z" fill="#343A40"/>
<path d="M126.658 148.775C126.658 148.775 127.954 162.811 128.503 167.606C129.059 172.409 129.425 175.916 129.799 179.24C130.165 182.564 131.461 189.395 131.644 193.824C131.827 198.254 133.306 206.198 133.306 207.486C133.306 208.775 133.862 212.289 134.045 213.212C134.228 214.134 134.602 216.536 134.602 216.536C134.602 216.536 136.82 215.979 137.369 216.353C137.926 216.719 137.369 202.134 137.186 196.409C137.003 190.683 136.82 177.204 136.447 170.93C136.081 164.655 135.707 161.514 135.707 158.19V148.036L126.658 148.775Z" fill="#343A40"/>
<path d="M99.1432 61.6269C99.1432 61.6269 94.8967 61.6269 91.9387 61.444C88.9806 61.261 86.3962 61.8099 84.1853 61.8099C81.9744 61.8099 81.2348 63.6549 81.2348 64.7679C81.2348 65.881 80.4953 68.0919 80.6783 72.8949C80.8613 77.698 81.0442 87.4793 81.7838 91.9088C82.5233 96.3382 83.0798 102.803 83.4458 105.754C83.8117 108.704 84.0023 112.958 84.5512 117.571C85.1077 122.183 85.6567 131.415 85.8473 133.451C86.0302 135.479 86.5868 137.697 86.5868 137.697C86.5868 137.697 91.3898 140.282 96.3758 141.761C101.362 143.24 104.129 143.789 106.348 144.902C108.566 146.007 116.503 148.226 118.904 148.592C121.306 148.958 128.503 150.62 129.982 151.176C131.461 151.733 134.045 151.916 134.045 151.916C134.045 151.916 136.813 151.359 141.242 150.62C145.671 149.88 150.474 148.958 152.693 148.775C154.911 148.592 159.341 147.852 161.186 147.296C163.031 146.739 166.172 145.077 166.172 145.077L99.1508 61.6193L99.1432 61.6269Z" fill="#343A40"/>
<path d="M121.61 47.4695C121.976 46.974 123.699 44.0236 123.699 44.0236L131.086 44.8851L131.582 54.3615C131.582 54.3615 127.153 54.1175 124.317 52.6385C121.488 51.1595 120.253 49.5585 120.253 49.5585C120.253 49.5585 121.236 47.9575 121.61 47.4695Z" fill="#F8F8F8"/>
<path d="M187.358 192.391C187.358 192.391 186.893 198.261 186.604 199.977C186.321 201.692 186.321 205.977 186.321 206.548C186.321 207.12 186.321 208.736 186.703 208.927C187.084 209.118 189.943 209.4 191.658 209.59C193.374 209.781 194.227 209.682 194.227 209.682L194.799 207.494C194.799 207.494 199.755 209.018 202.324 209.872C204.893 210.726 213.272 211.641 216.512 211.832C219.752 212.022 223.267 212.365 225.744 212.076C228.222 211.793 231.66 211.588 232.133 210.154C232.606 208.729 232.324 206.342 230.989 205.107C229.655 203.872 224.136 201.966 221.658 201.295C219.18 200.632 210.885 199.085 208.499 198.032C206.121 196.988 203.933 193.695 203.65 193.412L187.366 192.376L187.358 192.391Z" fill="#343A40"/>
<path d="M184.698 195.486L183.547 195.974H183.73C183.73 195.974 188.029 201.7 190.545 202.431C193.061 203.163 203.414 206.015 205.297 206.22C207.188 206.426 214.736 209.369 214.103 211.984C213.92 212.739 213.661 213.364 213.348 213.898C213.95 213.334 214.431 212.617 214.652 211.702C215.285 209.079 208.149 205.946 206.258 205.733C204.367 205.519 194.022 202.675 191.506 201.944C188.99 201.212 184.69 195.479 184.69 195.479L184.698 195.486Z" fill="#F8F8F8"/>
<path d="M175.45 211.519C175.45 211.519 175.457 211.557 175.549 211.816C175.534 211.771 175.503 211.664 175.465 211.527C175.465 211.527 175.457 211.527 175.45 211.527V211.519Z" fill="#343A40"/>
<path d="M166.873 196.546C166.873 196.546 166.804 200.381 166.408 203.362C166.042 206.175 165.18 210.101 165.18 210.726C165.18 211.351 164.936 212.693 164.936 212.693C164.936 212.693 168.924 213.25 170.395 213.455C171.866 213.669 172.705 213.768 173.223 213.768C173.742 213.768 174.275 213.661 174.275 213.661C174.275 213.661 174.695 212.609 174.588 212.297L174.481 211.984C174.481 211.984 177.592 212.449 179.582 213.181C181.571 213.913 186.207 214.713 188.936 215.026C191.665 215.339 196.11 216.116 199.152 216.009C202.194 215.903 208.796 216.269 210.473 215.644C212.151 215.011 213.477 214.607 214.11 211.984C214.743 209.361 207.188 206.426 205.304 206.22C203.414 206.015 193.068 203.163 190.552 202.431C188.036 201.7 183.737 195.966 183.737 195.966L166.873 196.546Z" fill="#343A40"/>
<path d="M175.45 211.519C175.45 211.519 175.457 211.557 175.549 211.816C175.534 211.771 175.503 211.664 175.465 211.527C175.465 211.527 175.457 211.527 175.45 211.527V211.519Z" fill="#343A40"/>
<path d="M143.269 108.819C143.269 108.819 143.849 110.046 144.863 111.784C146.616 114.78 149.689 119.294 153.424 121.741C154.804 122.641 156.375 123.769 158.052 125.103C158.502 125.461 158.959 125.827 159.424 126.216C163.556 129.662 168.177 134.229 172.11 139.611C173.14 141.006 174.115 142.463 175.03 143.964C175.419 144.597 175.8 145.344 176.182 146.175C176.784 147.502 177.378 149.057 177.958 150.788C178.309 151.84 178.659 152.953 178.995 154.119C181.511 162.711 183.661 173.918 185.048 182.007C185.208 182.96 185.361 183.868 185.505 184.721C186.283 189.41 186.725 192.521 186.725 192.521C186.725 192.521 187.152 192.574 187.793 192.65C187.922 192.665 188.067 192.688 188.212 192.704C189.188 192.825 190.476 193.001 191.566 193.169C192.405 193.298 193.122 193.428 193.495 193.519C193.533 193.535 193.579 193.542 193.632 193.55C193.747 193.573 193.892 193.596 194.044 193.611C194.601 193.679 195.401 193.71 196.301 193.717C196.446 193.717 196.591 193.717 196.743 193.717C198.23 193.717 199.907 193.664 201.172 193.596C201.317 193.596 201.462 193.58 201.592 193.573C201.881 193.557 202.141 193.535 202.354 193.519C203.086 193.458 203.848 193.443 204.527 193.405C204.672 193.397 204.809 193.382 204.946 193.374C205.937 193.291 206.684 193.108 206.784 192.521C206.967 191.484 209.185 186.231 209.185 183.471C209.185 180.711 210.656 173.331 210.474 168.33C210.291 163.337 211.03 157.908 209.185 147.738C207.34 137.576 206.601 132.75 203.277 126.719C201.798 124.036 197.597 120.453 194.601 117.555C190.865 113.949 188.029 111.098 183.523 108.803C179.551 106.783 175.274 105.258 171.935 104.221C171.722 104.153 171.516 104.092 171.31 104.031C168.154 103.078 165.981 102.598 165.981 102.598L143.269 108.803V108.819Z" fill="#33A04D"/>
<path d="M100.066 113.881C100.066 113.881 100.988 127.604 105.791 131.049C108.421 132.94 114.078 135.662 120.749 136.836C126.253 137.797 131.735 138.124 134.906 138.978C141.92 140.877 151.214 142.47 153.989 144.711C155.857 146.229 159.897 154.988 161.003 159.639C162.108 164.289 162.108 171.7 162.482 176.869C162.848 182.038 163.77 184.858 163.77 188.655C163.77 192.452 165.989 198.292 165.989 198.81C165.989 199.085 167.11 199.161 168.848 199.206C169 199.206 169.153 199.206 169.313 199.222C170.22 199.237 171.265 199.252 172.385 199.275C172.53 199.275 172.675 199.275 172.82 199.283C173.376 199.298 173.948 199.313 174.535 199.336C175.32 199.367 176.09 199.374 176.838 199.359H177.257C178.606 199.328 179.872 199.245 181.046 199.138C181.191 199.123 181.336 199.107 181.473 199.092C182.86 198.947 184.103 198.757 185.155 198.566C185.3 198.536 185.445 198.513 185.582 198.482C185.635 198.475 185.689 198.459 185.742 198.452C186.459 198.307 187.122 198.139 187.701 197.964C187.846 197.918 187.984 197.88 188.121 197.834C189.417 197.43 190.24 197.049 190.24 197.049C190.24 197.049 190.98 197.14 191.567 193.176C191.895 190.98 192.177 187.534 192.261 182.137C192.512 166.63 191.712 154.516 190.416 150.384C189.127 146.251 187.114 138.01 185.003 135.243C180.39 129.212 176.937 124.851 173.803 122.442C170.662 120.033 165.554 115.626 162.23 114.071C160.568 113.294 152.868 112.501 144.871 111.792C136.881 111.083 128.594 110.458 125.735 110.031C120.01 109.169 100.073 113.888 100.073 113.888L100.066 113.881Z" fill="#33A04D"/>
<path d="M104.389 119.911C105.083 123.837 107.82 127.039 111.029 129.235C112.775 130.424 114.674 131.37 116.602 132.201C118.554 133.047 120.551 133.817 122.572 134.473C126.338 135.7 130.211 136.508 134.114 137.149C136.18 137.492 138.246 137.781 140.312 138.117C141.982 138.391 143.629 138.811 145.253 139.276C147.052 139.786 148.836 140.358 150.589 141.014C152.19 141.609 153.768 142.272 155.209 143.194C158.328 145.192 160.714 148.157 162.414 151.42C166.508 159.265 166.333 168.322 166.508 176.937C166.554 179.08 166.63 181.222 166.638 183.364C166.638 185.415 166.638 187.466 166.752 189.509C166.927 192.825 167.43 196.188 168.848 199.199C169.001 199.199 169.153 199.199 169.313 199.214C169.1 198.787 168.909 198.345 168.734 197.895C167.278 194.129 167.11 190.012 167.072 186.017C167.026 181.71 166.95 177.402 166.859 173.095C166.699 164.823 166.157 156.17 161.514 149.034C159.585 146.069 157.001 143.499 153.814 141.914C152.328 141.174 150.757 140.602 149.194 140.061C147.448 139.459 145.687 138.925 143.903 138.468C140.152 137.499 136.287 137.111 132.483 136.432C128.602 135.746 124.775 134.823 121.062 133.497C117.09 132.079 112.958 130.417 109.695 127.687C106.608 125.111 104.298 121.253 104.709 117.113C104.732 116.846 104.313 116.846 104.29 117.113C104.198 118.043 104.237 118.973 104.397 119.904L104.389 119.911Z" fill="#343A40"/>
<path d="M112.547 121.71C113.164 122.374 113.812 123.014 114.483 123.632C119.987 128.694 126.986 131.85 134.168 133.703C136.028 134.183 137.919 134.572 139.809 134.892C141.83 135.227 143.865 135.448 145.886 135.753C147.974 136.066 150.056 136.478 152.038 137.232C153.99 137.972 155.789 139.07 157.489 140.267C159.258 141.509 161.019 142.828 162.65 144.246C164.251 145.626 165.532 147.265 166.569 149.103C168.338 152.221 169.413 155.667 170.015 159.197C171.25 166.493 170.648 173.956 170.541 181.306C170.449 187.313 170.602 193.504 172.394 199.275C172.538 199.275 172.683 199.275 172.828 199.283C170.671 192.444 170.854 185.095 171.037 178.005C171.227 170.777 171.608 163.359 169.847 156.284C168.97 152.755 167.522 149.255 165.273 146.366C163.984 144.704 162.353 143.423 160.706 142.142C159.044 140.854 157.367 139.573 155.56 138.49C153.791 137.438 151.916 136.638 149.926 136.119C147.883 135.586 145.779 135.304 143.682 135.029C139.825 134.518 136.005 133.84 132.262 132.734C124.996 130.6 118.059 127.001 112.851 121.413C112.669 121.215 112.371 121.512 112.554 121.71H112.547Z" fill="#343A40"/>
<path d="M176.838 199.359C176.8 196.317 176.762 193.275 176.579 190.241C176.487 188.678 176.35 187.123 176.197 185.568C176.03 183.86 175.778 182.152 175.656 180.437C175.435 177.448 175.504 174.437 175.519 171.448C175.527 168.566 175.595 165.654 175.306 162.78C174.901 158.755 173.872 154.744 172.485 150.948C171.791 149.049 171.029 147.136 170.007 145.39C169.519 144.567 168.955 143.774 168.269 143.111C167.567 142.432 166.767 141.837 166.012 141.22C165.212 140.564 164.396 139.924 163.542 139.344C162.703 138.773 161.804 138.307 160.965 137.736C159.341 136.645 157.801 135.403 156.002 134.61C154.287 133.863 152.426 133.428 150.604 133.055C148.729 132.666 146.846 132.323 144.97 131.919C141.151 131.095 137.362 130.104 133.702 128.709C131.903 128.023 130.127 127.238 128.419 126.346C127.527 125.881 126.658 125.385 125.796 124.867C125.095 124.44 124.394 123.982 123.807 123.403C123.265 122.869 122.846 122.229 122.671 121.482C122.61 121.223 123.014 121.108 123.075 121.367C123.494 123.144 125.339 124.12 126.795 124.966C128.526 125.972 130.333 126.864 132.178 127.642C135.776 129.151 139.535 130.234 143.324 131.111C145.268 131.56 147.219 131.957 149.179 132.338C151.008 132.689 152.838 133.055 154.614 133.634C156.429 134.229 158.015 135.159 159.57 136.249C160.409 136.836 161.232 137.438 162.109 137.964C162.947 138.468 163.771 138.963 164.564 139.543C165.387 140.152 166.18 140.8 166.973 141.449C167.697 142.043 168.444 142.607 169.062 143.316C170.304 144.734 171.112 146.473 171.844 148.188C173.483 152.023 174.673 156.048 175.359 160.157C176.373 166.218 175.786 172.416 175.984 178.531C176.091 181.718 176.594 184.881 176.853 188.061C177.105 191.156 177.189 194.259 177.242 197.362C177.257 198.017 177.265 198.681 177.272 199.336H176.853L176.838 199.359Z" fill="#343A40"/>
<path d="M134.182 122.031C134.716 122.519 135.28 122.953 135.882 123.35C138.337 124.958 141.211 125.759 144.047 126.414C145.534 126.765 147.028 127.07 148.507 127.444C150.215 127.87 151.885 128.404 153.531 129.014C156.741 130.203 159.966 131.484 163.038 132.994C164.502 133.718 165.928 134.518 167.254 135.471C168.672 136.485 169.915 137.69 171.059 139.001C172.965 141.212 174.802 143.583 176.189 146.168C176.395 146.549 176.586 146.93 176.769 147.319C177.295 148.44 177.676 149.591 177.966 150.772C178.553 153.128 178.782 155.568 179.087 157.977C179.559 161.69 179.963 165.41 180.131 169.154C180.215 171.059 180.253 172.965 180.413 174.864C180.566 176.686 180.779 178.5 180.924 180.322C181.427 186.566 181.602 192.871 181.061 199.123C181.206 199.108 181.351 199.092 181.488 199.077C182.113 191.888 181.785 184.637 181.092 177.463C180.909 175.596 180.741 173.735 180.665 171.86C180.588 169.962 180.52 168.056 180.375 166.157C180.093 162.376 179.597 158.61 179.102 154.851C179.071 154.6 179.033 154.356 179.003 154.104C178.797 152.587 178.56 151.07 178.103 149.606C177.615 148.043 176.914 146.549 176.083 145.138C175.244 143.713 174.284 142.371 173.277 141.067C172.896 140.579 172.515 140.084 172.118 139.604C172.118 139.604 172.118 139.588 172.103 139.588C171.371 138.689 170.609 137.82 169.778 137.019C167.43 134.747 164.533 133.169 161.575 131.843C158.395 130.417 155.132 129.06 151.824 127.962C148.789 126.956 145.641 126.414 142.553 125.614C139.641 124.851 136.744 123.784 134.487 121.726C134.281 121.543 133.984 121.84 134.19 122.023L134.182 122.031Z" fill="#343A40"/>
<path d="M147.73 120.681C148.5 121.047 149.277 121.413 150.047 121.779C153.173 123.258 156.299 124.737 159.417 126.216C159.417 126.216 159.447 126.231 159.463 126.239C162.428 127.642 165.463 128.953 168.314 130.577C170.967 132.086 173.269 133.992 175.213 136.34C177.074 138.589 178.598 141.09 180.024 143.629C180.786 144.971 181.556 146.312 182.227 147.7C182.952 149.202 183.409 150.772 183.676 152.411C183.935 154.035 184.034 155.682 184.141 157.329C184.248 158.915 184.339 160.5 184.423 162.086C184.766 168.589 184.941 175.1 185.041 181.603C185.041 181.733 185.041 181.862 185.041 181.992C185.124 187.512 185.147 193.031 185.147 198.551C185.292 198.52 185.437 198.498 185.574 198.467C185.574 193.877 185.551 189.288 185.506 184.706C185.483 182.785 185.452 180.871 185.422 178.95C185.3 172.371 185.086 165.784 184.69 159.212C184.499 156.04 184.446 152.739 183.485 149.682C182.997 148.127 182.22 146.701 181.434 145.283C180.733 144.002 180.024 142.729 179.269 141.479C177.775 138.978 176.121 136.546 174.085 134.442C171.95 132.231 169.396 130.592 166.667 129.205C163.831 127.764 160.926 126.445 158.045 125.088C157.862 125.004 157.679 124.92 157.503 124.828C154.317 123.319 151.13 121.809 147.935 120.3C147.691 120.186 147.478 120.552 147.722 120.666L147.73 120.681Z" fill="#343A40"/>
<path d="M157.024 114.544C157.382 115.024 157.763 115.497 158.16 115.947C160.096 118.173 162.345 120.132 164.655 121.962C165.746 122.831 166.866 123.662 168.01 124.455C169.283 125.347 170.541 126.193 171.684 127.26C176.251 131.507 180.589 136.257 183.662 141.715C185.255 144.544 186.452 147.57 187.176 150.734C187.954 154.127 188.243 157.611 188.396 161.087C188.701 167.956 188.533 174.818 188.236 181.687C188.076 185.339 187.9 188.991 187.794 192.65C187.74 194.419 187.71 196.195 187.702 197.964C187.847 197.918 187.984 197.88 188.121 197.834C188.121 196.127 188.16 194.411 188.213 192.703C188.343 188.122 188.587 183.54 188.769 178.958C189.044 172.081 189.158 165.166 188.655 158.297C188.404 154.851 187.931 151.405 186.902 148.104C185.987 145.154 184.622 142.356 182.975 139.748C181.321 137.133 179.392 134.701 177.326 132.399C176.266 131.225 175.176 130.081 174.055 128.968C172.912 127.825 171.761 126.666 170.48 125.667C169.382 124.813 168.185 124.089 167.064 123.266C165.852 122.381 164.663 121.459 163.519 120.491C161.308 118.638 159.128 116.648 157.397 114.33C157.237 114.117 156.871 114.33 157.031 114.544H157.024Z" fill="#343A40"/>
<path d="M166.653 112.463C167.148 113.042 167.652 113.614 168.162 114.17C170.244 116.435 172.493 118.531 174.902 120.437C177.364 122.389 180.048 123.99 182.564 125.843C187.184 129.243 190.363 134.153 192.33 139.489C194.548 145.512 195.219 151.947 195.585 158.312C195.776 161.675 195.967 165.044 196.005 168.406C196.043 171.738 195.784 175.039 195.357 178.348C194.709 183.402 193.778 188.465 193.634 193.557C193.748 193.58 193.893 193.603 194.045 193.618C194.213 187.618 195.471 181.695 196.081 175.725C196.432 172.325 196.477 168.932 196.348 165.525C196.218 162.162 196.073 158.8 195.814 155.446C195.341 149.271 194.388 143.057 191.911 137.339C190.813 134.793 189.41 132.376 187.687 130.211C185.85 127.893 183.639 126.026 181.199 124.379C178.554 122.587 175.923 120.818 173.491 118.737C171.136 116.724 168.955 114.521 166.95 112.165C166.775 111.96 166.478 112.257 166.653 112.463Z" fill="#343A40"/>
<path d="M167.392 108.605C167.652 109.299 167.964 109.985 168.368 110.61C169.893 112.973 172.569 114.163 174.704 115.87C175.977 116.884 177.166 117.975 178.493 118.92C179.903 119.926 181.352 120.864 182.793 121.825C184.249 122.8 185.705 123.784 187.054 124.897C188.465 126.048 189.669 127.382 190.767 128.839C191.865 130.287 192.902 131.781 193.954 133.268C194.792 134.457 195.616 135.662 196.302 136.943C196.988 138.231 197.522 139.596 197.872 141.014C198.223 142.394 198.368 143.797 198.551 145.199C198.879 147.715 199.283 150.223 199.496 152.747C199.618 154.218 199.504 155.69 199.466 157.161C199.405 159.219 199.344 161.286 199.283 163.344C199.161 167.407 199.024 171.471 198.803 175.527C198.688 177.654 198.543 179.773 198.376 181.893C198.208 184.02 198.025 186.154 197.636 188.251C197.301 190.02 196.675 191.872 196.31 193.725C196.454 193.725 196.599 193.725 196.752 193.725C196.973 192.635 197.285 191.567 197.56 190.5C198.063 188.525 198.376 186.528 198.574 184.508C198.986 180.315 199.229 176.099 199.412 171.883C199.588 167.842 199.702 163.801 199.817 159.761C199.87 157.817 199.999 155.857 199.992 153.913C199.992 152.808 199.832 151.695 199.702 150.597C199.405 148.142 199.092 145.687 198.742 143.24C198.322 140.305 197.316 137.614 195.723 135.113C194.861 133.756 193.908 132.467 192.978 131.156C191.865 129.601 190.775 128.015 189.486 126.59C187.237 124.112 184.31 122.313 181.55 120.475C180.124 119.53 178.706 118.585 177.357 117.532C176.076 116.526 174.902 115.413 173.56 114.475C172.447 113.69 171.25 112.996 170.228 112.089C169.108 111.106 168.33 109.87 167.812 108.483C167.72 108.231 167.309 108.338 167.408 108.597L167.392 108.605Z" fill="#343A40"/>
<path d="M168.314 106.432C169.031 107.088 169.77 107.713 170.54 108.315C173.155 110.358 176.052 111.937 178.896 113.629C180.413 114.529 181.892 115.489 183.303 116.541C184.782 117.647 186.185 118.867 187.603 120.064C190.157 122.221 192.672 124.447 194.86 126.994C197.033 129.517 198.794 132.353 200.014 135.456C202.332 141.365 203.414 147.807 204.017 154.104C204.322 157.283 204.474 160.478 204.413 163.672C204.344 167.194 203.91 170.693 203.513 174.193C202.782 180.673 201.973 187.138 201.165 193.611C201.31 193.611 201.455 193.595 201.585 193.588C202.522 186.025 203.491 178.462 204.291 170.892C204.634 167.659 204.878 164.45 204.832 161.202C204.779 157.885 204.527 154.561 204.116 151.268C203.704 148.02 203.14 144.788 202.355 141.609C201.638 138.711 200.754 135.814 199.435 133.123C196.439 126.994 191.231 122.557 186.093 118.264C184.667 117.075 183.219 115.931 181.679 114.895C180.284 113.957 178.835 113.111 177.387 112.272C174.276 110.473 171.272 108.575 168.604 106.15C168.406 105.967 168.108 106.264 168.307 106.447L168.314 106.432Z" fill="#343A40"/>
<path d="M170.762 102.857C170.891 103.276 171.082 103.672 171.31 104.046C171.41 104.206 171.509 104.351 171.615 104.503C172.469 105.662 173.59 106.615 174.772 107.416C176.014 108.254 177.356 108.765 178.706 109.39C181.847 110.839 184.774 112.722 187.519 114.826C190.355 116.999 192.985 119.431 195.44 122.023C196.614 123.266 197.75 124.546 198.84 125.865C199.915 127.154 200.738 128.526 201.44 130.051C202.118 131.53 202.713 133.039 203.468 134.488C204.238 135.967 204.642 137.598 204.939 139.23C205.237 140.877 205.419 142.531 205.702 144.178C206.022 146.061 206.403 147.921 206.67 149.812C207.806 157.771 207.699 165.807 206.967 173.796C206.372 180.36 205.442 186.894 204.527 193.42C204.672 193.412 204.81 193.397 204.947 193.39C205.976 185.941 207.074 178.493 207.615 170.991C208.195 163.047 208.027 155.087 206.685 147.22C206.38 145.451 206.029 143.697 205.778 141.929C205.541 140.267 205.313 138.597 204.863 136.973C204.444 135.449 203.696 134.107 203.048 132.673C202.37 131.164 201.768 129.624 200.967 128.175C200.182 126.742 199.122 125.522 198.055 124.295C196.904 122.961 195.707 121.672 194.472 120.43C192.002 117.944 189.364 115.627 186.528 113.568C183.76 111.555 180.802 109.794 177.646 108.468C176.258 107.888 174.978 107.141 173.819 106.188C173.14 105.624 172.454 104.984 171.92 104.244C171.593 103.787 171.326 103.284 171.158 102.75C171.074 102.491 170.67 102.605 170.754 102.864L170.762 102.857Z" fill="#343A40"/>
<path d="M163.457 115.047C163.655 115.131 163.816 115.207 163.945 115.276C167.162 117.037 172.08 121.146 175.061 123.754C178.042 126.361 181.297 130.364 185.521 136.676C187.457 139.573 189.111 147.09 190.133 151.299C191.155 155.507 192.435 167.331 191.818 182.831C191.399 193.374 190.667 196.264 190.24 197.041C190.278 197.057 190.293 197.072 190.293 197.072C190.293 197.072 191.917 198.376 192.542 182.876C193.167 167.377 191.886 155.56 190.857 151.344C189.828 147.136 188.181 139.611 186.245 136.722C182.021 130.409 178.766 126.407 175.785 123.799C172.804 121.192 167.887 117.083 164.669 115.322C164.395 115.169 163.983 115.085 163.457 115.047Z" fill="#343A40"/>
<path d="M137.849 123.883C138.116 123.868 141.57 122.732 143.903 122.671C146.243 122.61 154.126 121.787 156.962 121.093C159.798 120.399 164.777 117.952 166.149 116.839C167.521 115.726 169.824 112.333 169.687 111.571C169.549 110.808 168.97 108.704 166.706 108.59C164.441 108.475 159.92 110.9 156.703 111.357C153.494 111.815 143.552 112.691 138.398 113.789C133.245 114.879 132.825 115.337 132.825 115.337L137.834 123.883H137.849Z" fill="#F4B484"/>
<path d="M122.533 39.4112C122.655 38.6107 122.411 36.6437 122.716 35.9042C123.021 35.1647 123.394 34.1813 123.943 33.5027C124.5 32.8242 125.239 32.0237 125.788 31.5358C126.345 31.0402 128.807 30.3693 129.669 30.3693C130.53 30.3693 131.826 30.3083 131.826 30.3083C131.826 30.3083 131.948 38.1838 130.599 40.7072C129.249 43.2307 125.613 46.0592 125.613 46.0592C125.613 46.0592 123.333 43.4137 123.211 42.8572C123.089 42.3006 122.411 40.2117 122.533 39.4112Z" fill="#343A40"/>
<path d="M86.2211 72.5596C88.249 68.4428 90.4676 62.5343 92.8691 60.209C95.2706 57.8838 99.7 54.1252 104.32 52.509C108.932 50.9003 114.658 49.4671 117.242 48.9258C119.827 48.3921 124.996 47.8508 124.996 47.8508C132.749 46.7758 141.059 48.2091 144.94 49.2841C148.82 50.359 149.186 51.251 152.693 53.9422C156.2 56.6258 158.045 59.1569 160.82 62.7401C163.588 66.3233 165.067 70.2344 166.172 75.7845C167.278 81.3347 168.017 86.8848 168.574 90.468C169.13 94.0512 168.017 99.243 168.017 99.243C168.017 99.243 164.876 105.868 160.447 106.943C156.017 108.018 137.186 111.601 137.186 111.601C137.186 111.601 137.186 112.493 137.552 114.643C137.918 116.793 139.771 124.31 139.771 124.31C136.82 125.027 129.799 125.743 127.031 126.277C124.264 126.811 112.447 126.994 109.672 126.811C106.905 126.635 96.5666 123.944 93.7916 120.902C91.0241 117.86 86.7776 108.01 86.2211 103.535C85.6646 99.06 84.7421 91.0017 84.7421 87.0678C84.7421 83.1339 84.1855 76.6841 86.2211 72.5673V72.5596Z" fill="#F8F8F8"/>
<path d="M147.478 80.6408C147.478 80.6408 145.93 76.8746 145.549 75.5176C145.16 74.1681 148.545 68.557 149.224 66.1479C149.902 63.7311 148.065 61.2229 146.997 59.5761C145.938 57.937 145.938 56.4809 145.938 56.4809C145.938 56.4809 147.676 52.0362 147.485 48.3615C147.295 44.6868 147.096 43.4365 146.227 42.758C145.358 42.0795 144.878 42.0795 144.39 42.1786C143.91 42.2777 142.553 52.2268 141.584 53.4847C140.616 54.7426 139.557 56.1912 139.557 56.1912C139.557 56.1912 135.79 59.3779 134.342 61.7947C132.893 64.2114 132.893 67.3982 132.413 68.2673C131.933 69.1364 132.222 71.3626 132.604 74.069C132.992 76.7755 133.572 82.9584 133.572 82.9584C133.572 82.9584 135.211 83.3472 138.306 82.8593C141.401 82.379 142.56 82.379 144.489 81.7996C146.426 81.2202 147.485 80.6408 147.485 80.6408H147.478Z" fill="#F4B484"/>
<path d="M138.703 57.6092C137.842 58.12 136.843 58.3564 135.837 58.3792C136.919 58.3945 138.017 58.1581 138.94 57.6092C140.975 56.4123 142.629 54.0108 143.46 51.1442C144.291 48.2853 144.566 44.5877 144.474 41.5458C144.436 40.3336 144.131 39.312 143.788 38.5192C144.009 39.373 144.2 40.4099 144.238 41.5458C144.33 44.5954 144.055 48.2853 143.224 51.1442C142.393 54.0032 140.731 56.4047 138.703 57.6092Z" fill="#343A40"/>
<path d="M124.95 41.645C126.147 41.2791 128.365 41.462 128.365 41.462C128.365 41.462 129.196 38.6946 130.393 37.1241C131.59 35.5536 137.224 31.6807 142.95 36.2016C142.95 36.2016 144.147 38.5116 144.246 41.5535C144.337 44.6031 144.063 48.293 143.232 51.1519C142.401 54.0109 140.739 56.4124 138.711 57.6169C136.683 58.8215 133.817 58.5394 132.155 57.3425C130.493 56.1455 129.204 55.0325 128 52.082C126.803 49.1316 126.612 47.0046 126.612 47.0046C126.612 47.0046 123.753 47.1875 123.379 45.2511C123.006 43.3146 123.745 42.0186 124.95 41.6526V41.645Z" fill="#F4B484"/>
<path d="M132.116 58.8292C132.734 57.6703 133.542 56.481 134.236 56.0007C135.486 55.1316 138.871 54.4531 140.708 55.0325C142.546 55.6119 144.124 57.1138 144.284 57.3501C144.368 57.4721 144.467 57.7085 144.589 58.021C144.497 57.5941 144.398 57.2663 144.284 57.0985C144.124 56.8622 142.546 55.3603 140.708 54.7809C138.871 54.2015 135.486 54.88 134.236 55.7491C133.397 56.3285 132.604 57.6627 132.116 58.8292Z" fill="#343A40"/>
<path d="M132.703 66.8951C133.229 68.054 134.228 68.9688 134.914 68.8163C135.783 68.6257 136.073 68.5266 136.073 68.5266C136.073 68.5266 135.974 70.0743 137.712 70.5546C139.45 71.0425 140.273 70.059 140.373 69.5787C140.472 69.0908 140.899 66.7274 141.486 65.6677C142.065 64.608 144.093 64.4555 145.061 64.5546C145.13 64.5546 145.191 64.5318 145.244 64.4784C144.047 64.425 141.714 64.5317 141.196 65.4695C140.616 66.5368 140.136 68.9459 140.037 69.4339C139.938 69.9142 139.458 70.7833 137.719 70.303C135.981 69.8227 136.08 68.275 136.08 68.275C136.08 68.275 135.791 68.3742 134.921 68.5648C134.319 68.702 133.343 67.9091 132.711 66.8951H132.703Z" fill="#343A40"/>
<path d="M131.148 61.2153C131.339 60.0565 132.985 56.8697 134.243 56.0006C135.501 55.1315 138.879 54.453 140.716 55.0324C142.553 55.6118 144.131 57.1137 144.292 57.35C144.871 58.2191 146.609 64.6003 145.641 64.5012C144.673 64.402 141.776 64.402 141.196 65.4694C140.617 66.5367 140.137 68.9458 140.037 69.4338C139.938 69.9141 139.458 70.7832 137.72 70.3029C135.982 69.8226 136.081 68.2749 136.081 68.2749C136.081 68.2749 135.791 68.3741 134.922 68.5647C134.053 68.7553 132.696 67.5964 132.406 66.0488C132.345 65.721 132.856 64.9738 132.551 64.7451C131.583 64.0209 130.996 62.1302 131.148 61.2153Z" fill="#F4B484"/>
<path d="M150.245 118.211C152.967 117.792 155.109 117.708 156.138 116.785C157.168 115.863 157.061 114.727 156.687 113.804C156.375 113.012 156.108 112.714 156.039 112.646C156.177 112.775 157.099 113.69 157.198 114.43C157.305 115.23 157.198 116.32 156.352 117.029C155.506 117.746 153.63 117.952 152.632 118.165C151.64 118.379 148.545 118.714 147.516 118.966C146.487 119.217 142.804 119.85 142.804 119.469C142.804 119.469 147.516 118.63 150.245 118.211Z" fill="#343A40"/>
<path d="M156.047 112.653L156.032 112.638C156.032 112.638 156.032 112.638 156.047 112.653Z" fill="#343A40"/>
<path d="M136.393 48.0184C136.545 48.0184 137.231 48.9104 138.169 49.5508C139.107 50.1912 139.945 50.641 140.685 50.3894C141.424 50.1454 142.217 49.4059 141.722 48.1175C141.226 46.8367 139.107 45.0527 139.107 45.0527C139.069 45.068 139.03 45.0832 138.992 45.0985C139.32 45.3882 140.967 46.8367 141.379 47.9193C141.836 49.1162 141.104 49.81 140.41 50.0463C139.717 50.2751 138.931 49.8634 138.055 49.2611C137.239 48.7045 136.621 47.9422 136.431 47.8431C136.385 47.9574 136.37 48.026 136.393 48.026V48.0184Z" fill="#343A40"/>
<path d="M138.932 45.0604C138.932 45.0604 140.914 46.7224 141.379 47.9194C141.844 49.1163 141.105 49.8101 140.411 50.0464C139.717 50.2751 138.932 49.8634 138.055 49.2612C137.178 48.6589 136.53 47.8279 136.393 47.8279C136.256 47.8279 137.361 45.6093 138.932 45.0604Z" fill="#F4B484"/>
<path d="M142.004 45.96C142.027 45.8609 142.065 45.777 142.103 45.6855C142.149 45.5712 142.233 45.4873 142.332 45.4187C142.378 45.3882 142.431 45.3653 142.485 45.3501C142.599 45.3196 142.729 45.3348 142.828 45.3958C142.957 45.4721 143.041 45.6017 143.072 45.7465C143.087 45.8609 143.094 45.9676 143.087 46.082C143.087 46.2268 143.094 46.3717 143.049 46.5089C143.018 46.608 142.965 46.7071 142.889 46.7757C142.835 46.8215 142.774 46.8596 142.706 46.8825C142.5 47.0502 142.141 46.9435 142.081 46.6766C142.042 46.6156 142.012 46.5547 141.989 46.4784C141.936 46.3107 141.959 46.1277 142.004 45.96Z" fill="#343A40"/>
<path d="M133.648 45.0451C133.671 44.9308 133.732 44.8088 133.816 44.7325C133.87 44.6182 133.953 44.5191 134.06 44.4581C134.258 44.3361 134.533 44.3742 134.693 44.5419C134.792 44.6487 134.845 44.7783 134.891 44.9155C134.929 45.0299 134.952 45.1519 134.952 45.2662C134.952 45.3424 134.945 45.4187 134.922 45.4873C134.914 45.5178 134.899 45.5483 134.884 45.5788C134.868 45.6093 134.861 45.6398 134.838 45.6703C134.807 45.7236 134.769 45.7694 134.723 45.8151C134.678 45.8609 134.624 45.899 134.571 45.9295C134.464 45.9829 134.342 46.0286 134.22 46.0133C134.121 46.0057 134.037 45.9905 133.953 45.9371C133.862 45.8837 133.801 45.8151 133.74 45.7313C133.664 45.6169 133.641 45.4797 133.633 45.3501C133.626 45.251 133.633 45.1442 133.656 45.0451H133.648Z" fill="#343A40"/>
<path d="M140.587 42.2853C140.587 42.2853 141.928 41.6373 142.897 41.8203C143.865 42.0032 144.482 42.7428 144.155 42.9257C143.827 43.1087 143.385 42.3234 142.691 42.232C142.005 42.1405 140.983 42.9715 140.663 42.7428C140.335 42.514 140.579 42.2777 140.579 42.2777L140.587 42.2853Z" fill="#343A40"/>
<path d="M134.32 41.3171C135.753 41.4086 136.37 41.7821 136.721 42.3311C136.774 42.4225 136.767 42.4683 136.447 42.6513C136.126 42.8342 135.295 41.866 134.373 41.7745C133.451 41.683 132.345 42.4683 131.926 42.2853C131.506 42.1023 132.894 41.2256 134.327 41.3171H134.32Z" fill="#343A40"/>
<path d="M134.548 49.7186C134.548 49.7186 135.333 49.1164 135.89 49.5814C136.446 50.0465 136.446 50.5496 137.186 50.7784C137.925 51.0071 138.482 50.6411 138.802 50.9156C139.122 51.19 139.214 51.7008 138.573 51.8838C137.933 52.0668 137.094 52.4861 135.806 51.6551C134.51 50.8241 134.418 50.0846 134.563 49.7186H134.548Z" fill="#343A40"/>
<path d="M124.903 42.842C125.689 42.476 127.488 42.6132 127.625 42.7047C127.625 42.7047 127.762 42.9792 127.396 42.842C127.031 42.7047 125.323 42.9334 124.858 43.2079C124.393 43.4824 124.164 44.504 124.393 44.8699C124.621 45.2358 125.269 45.7009 125.917 45.8381C126.565 45.9753 127.534 45.6551 127.534 45.8839C127.534 46.1126 126.428 46.2041 125.872 46.1126C125.315 46.0211 124.347 45.556 124.164 44.8699C123.981 44.1838 124.118 43.2079 124.903 42.842Z" fill="#343A40"/>
<path d="M130.592 85.7564C130.958 83.9114 131.209 82.5544 131.819 82.1885C132.437 81.8225 133.664 82.0665 133.664 82.0665L133.557 82.9661C133.557 82.9661 132.063 82.684 131.819 83.1719C131.575 83.6599 130.836 87.9749 130.836 92.0308C130.836 96.0867 131.697 101.881 131.697 101.881L130.836 102.125C130.836 102.125 130.218 97.1998 130.096 94.6153C129.974 92.0308 130.218 87.6014 130.592 85.7564Z" fill="#343A40"/>
<path d="M150.535 80.214C151.152 80.5799 155.338 90.064 156.077 92.0309C156.817 93.9978 159.523 102.369 159.523 102.369L159.028 102.864C159.028 102.864 156.565 95.3549 155.582 93.0144C154.598 90.6739 150.657 81.4414 150.039 80.9535C149.422 80.4579 147.478 80.6409 147.478 80.6409L147.211 80.092C147.211 80.092 149.917 79.848 150.535 80.214Z" fill="#343A40"/>
<path d="M132.55 64.7452C132.55 64.7452 133.9 61.2153 135.257 59.721C136.606 58.2268 138.444 57.3043 139.511 57.1137C140.571 56.9231 142.316 57.7389 142.316 57.7389C142.316 57.7389 140.311 57.0375 139.511 57.3043C137.048 58.1277 136.896 58.7605 135.6 59.965C134.296 61.1696 132.558 64.7452 132.558 64.7452H132.55Z" fill="#343A40"/>
<path d="M137.185 63.1061C137.811 61.8024 139.168 61.0248 140.807 60.7885C142.446 60.5521 143.178 61.0782 143.178 61.0782C143.178 61.0782 142.934 60.9791 141.729 61.0324C140.525 61.0858 138.588 61.5127 137.673 63.1137C136.758 64.7147 136.08 68.2827 136.08 68.2827C135.981 67.5584 136.56 64.4174 137.193 63.1137L137.185 63.1061Z" fill="#343A40"/>
<path d="M106.897 108.43L180.749 102.43L185.086 104.458C185.086 104.458 185.643 105.197 185.452 105.472C185.269 105.746 183.234 104.641 181.023 104.824C178.804 105.007 174.192 105.472 171.608 107.042C169.023 108.613 166.805 110.366 166.164 111.197C165.516 112.028 165.699 112.768 165.516 113.416C165.333 114.064 164.502 114.895 163.58 114.895C162.657 114.895 161.361 113.881 160.904 113.698C160.439 113.515 156.566 113.515 154.53 113.515C152.495 113.515 148.439 113.515 146.037 113.698C143.636 113.881 140.96 113.972 137.361 115.36C133.763 116.747 129.333 119.332 128.868 119.698C128.403 120.064 125.087 118.592 123.608 117.853C122.129 117.113 118.065 115.451 115.298 114.437C112.531 113.423 103.847 109.543 103.946 109.177C104.038 108.811 106.897 108.437 106.897 108.437V108.43Z" fill="#33A04D"/>
<path d="M107.361 108.986C107.361 108.986 109.946 104.831 110.411 104C110.876 103.169 111.707 102.43 111.707 102.43C111.707 102.43 119.643 100.676 122.967 100.211C126.291 99.7462 136.812 98.4578 139.861 98.2748C142.911 98.0919 147.615 98.8314 150.573 100.028C153.523 101.225 156.573 103.078 156.573 103.078C156.573 103.078 159.622 99.8454 162.016 98.3663C164.418 96.8873 168.016 95.7819 169.587 95.6904C171.157 95.5989 174.108 96.2469 174.108 96.2469C174.108 96.2469 178.08 98.5569 180.016 99.7539C181.953 100.951 183.34 101.69 183.432 102.064C183.523 102.43 183.706 104.465 183.706 104.465C183.706 104.465 182.136 103.817 180.016 103.817C177.897 103.817 175.122 104.282 173.551 105.205C171.981 106.127 168.199 108.254 166.72 109.634C165.241 111.022 162.939 112.585 162.939 112.585C162.939 112.585 157.396 111.937 154.812 112.028C152.227 112.12 147.889 111.563 144.84 112.028C139.9 112.775 137.635 113.965 135.981 114.796C134.319 115.627 130.255 117.937 129.607 118.12C128.959 118.303 128.593 118.768 128.593 118.768C128.593 118.768 124.903 117.014 122.22 116C119.544 114.986 112.065 111.289 110.769 110.923C109.473 110.557 107.262 109.535 107.262 109.535L107.353 108.979L107.361 108.986Z" fill="#F8F8F8"/>
<path d="M128.686 41.8738C128.686 41.8738 129.052 41.5688 129.547 40.7683C130.043 39.9678 130.47 39.3503 130.653 38.9234C130.836 38.4888 131.209 38.1228 131.209 38.1228C131.209 38.1228 131.888 38.3668 132.993 38.7404C134.099 39.1063 134.96 39.5409 135.7 39.6629C136.439 39.7848 137.423 40.0974 138.345 40.0974C139.268 40.0974 140.503 40.4024 141.295 40.0974C142.096 39.7925 143.384 40.0364 144.124 39.7925C144.863 39.5485 145.786 39.1749 146.342 38.687C146.899 38.1915 146.899 36.4685 146.525 35.607C146.159 34.7455 145.229 33.4494 144.124 32.8395C143.018 32.222 141.844 31.7341 140.495 31.4215C139.146 31.1089 136.927 30.743 136.066 30.56C135.204 30.377 133.115 30.377 131.819 30.3161C130.523 30.2551 128.434 30.8726 127.268 31.6121C126.101 32.3516 125.362 33.3351 125.179 35.241C124.996 37.147 125.484 38.748 125.918 39.7315C126.353 40.715 128.686 41.889 128.686 41.889V41.8738Z" fill="#343A40"/>
<path d="M108.071 74.923C108.071 74.923 108.81 80.7552 109.054 83.2863C109.298 85.8174 109.916 89.7818 109.916 91.1007C109.916 92.4197 110.411 96.384 110.533 97.1541C110.655 97.9241 111.517 100.783 111.517 100.783L110.899 100.89C110.899 100.89 110.282 99.0219 109.916 96.8186C109.55 94.6153 109.176 90.7653 108.932 89.0042C108.688 87.2431 108.688 84.4909 108.315 82.8441C107.949 81.1898 107.331 75.0297 108.071 74.923Z" fill="#343A40"/>
<path d="M97.603 103.482C99.204 102.864 103.633 101.393 106.835 101.019C110.037 100.653 111.516 100.783 111.516 100.783C111.516 100.783 112.378 101.263 112.012 101.629C111.646 101.995 107.583 101.385 104.746 102.247C101.918 103.108 100.561 103.108 98.4721 104.092C96.3831 105.075 95.6436 104.953 95.6436 104.953C95.6436 104.953 96.0096 104.092 97.6106 103.474L97.603 103.482Z" fill="#343A40"/>
<path d="M120.253 49.5663C120.253 49.5663 121.237 53.3858 122.96 56.3362C124.683 59.2943 126.65 60.5217 127.763 61.2612C128.868 62.0007 130.843 62.3667 130.843 62.3667L130.965 62.9842C130.965 62.9842 127.519 62.3667 126.162 61.2612C124.805 60.1558 122.96 57.9372 122.098 55.9703C121.237 54.0034 119.27 50.3058 120.253 49.5663Z" fill="#343A40"/>
<path d="M182.167 202.119C184.012 200.64 187.457 200.03 187.457 200.03L188.937 200.648C188.937 200.648 187.458 200.892 185.369 201.753C183.28 202.615 181.801 204.094 181.061 204.459C180.322 204.825 180.322 203.598 182.167 202.119Z" fill="#F8F8F8"/>
<path d="M186.726 204.947C188.693 203.59 191.529 202.485 191.529 202.485L193.252 202.851C193.252 202.851 191.895 203.712 189.928 204.818C187.961 205.923 186.482 206.907 185.003 207.158C183.524 207.402 184.759 206.297 186.726 204.94V204.947Z" fill="#F8F8F8"/>
<path d="M193.122 207.158C194.479 205.801 198.047 204.208 198.047 204.208L200.266 204.574C200.266 204.574 198.299 205.435 197.315 206.053C196.332 206.67 193.747 208.881 193.13 209.255C192.512 209.621 191.773 208.515 193.13 207.166L193.122 207.158Z" fill="#F8F8F8"/>
<path d="M200.525 198.97C202.431 198.17 206.517 196.82 206.517 196.82C207.996 196.782 207.958 197.781 207.958 197.781C207.958 197.781 207.34 197.743 206.502 198.086C205.663 198.429 201.737 200.129 200.898 200.472C200.06 200.815 198.611 199.763 200.517 198.963L200.525 198.97Z" fill="#F8F8F8"/>
<path d="M205.801 200.884C207.028 200.144 210.482 198.421 210.482 198.421C211.221 198.421 211.839 198.055 212.327 198.665C212.822 199.283 210.604 199.649 209.125 200.51C207.646 201.372 205.923 202.477 205.061 202.355C204.2 202.233 204.566 201.616 205.801 200.876V200.884Z" fill="#F8F8F8"/>
<path d="M211.465 201.867C213.066 200.884 215.894 199.649 215.894 199.649C217.122 199.893 217.739 200.015 217.739 200.015C217.739 200.015 217.373 200.137 216.878 200.381C216.382 200.625 214.171 201.738 212.814 202.599C211.457 203.461 210.474 204.322 209.734 203.827C208.995 203.331 209.856 202.843 211.457 201.86L211.465 201.867Z" fill="#F8F8F8"/>
<path d="M86.3427 136.409C86.1978 136.966 86.1978 140.839 85.6032 148.409C85.0085 155.979 83.8268 172.782 83.2322 178.508C82.6375 184.233 82.1953 194.205 81.7531 197.156C81.3109 200.106 80.8611 205.649 80.8611 205.649C80.8611 205.649 82.1953 206.015 82.9348 206.015C83.6743 206.015 85.748 192.719 87.3795 184.226C89.011 175.733 89.598 172.965 90.6349 168.162C91.6717 163.359 93.8903 151.916 94.7822 149.148C95.6742 146.381 96.5586 140.099 96.5586 140.099L86.3427 136.409Z" fill="#343A40"/>
<path d="M36.9012 209.522C37.0689 210.078 43.107 213.28 46.2861 215.064C49.4652 216.848 54.3902 219.15 55.1755 219.318C55.9607 219.486 69.1042 216.909 74.2655 216.215C79.4345 215.521 94.1408 213.097 95.0557 211.763C95.9706 210.429 96.6796 207.051 95.536 205.031C94.3924 203.011 76.6823 197.674 75.5768 197.331L37.1832 201.112L37.6712 202.035L37.6483 208.195C37.6483 208.195 37.5339 208.286 37.3967 208.431C37.1375 208.698 36.7792 209.156 36.8935 209.522H36.9012Z" fill="#FF9518"/>
<path d="M37.8237 208.424C43.3968 211.618 54.4284 217.847 54.9926 217.275C55.7397 216.513 55.3357 212.045 55.1603 210.924C54.985 209.811 50.9596 208.416 48.4818 207.181C45.9965 205.938 38.0906 202.035 38.0906 202.035L38.0753 208.195C38.0753 208.195 37.9686 208.286 37.8314 208.431L37.8237 208.424Z" fill="#F8F8F8"/>
<path d="M41.7349 200.442C41.9102 201.181 48.5735 204.558 51.2799 205.984C53.9864 207.41 59.8796 211.367 61.1375 211.519C62.3955 211.671 83.1933 207.593 87.2644 206.929C91.3355 206.266 99.1652 205.321 99.7751 204.558C100.385 203.796 100.301 199.877 99.6379 198.215C98.9746 196.553 92.0064 194.114 88.5376 193.275C85.0611 192.429 78.558 189.235 76.6673 189.097C74.7766 188.96 42.9776 192.574 42.9776 192.574L42.8556 194.068L42.4973 199.298C42.4973 199.298 42.4211 199.336 42.3143 199.397C42.0551 199.557 41.6206 199.916 41.7425 200.442H41.7349Z" fill="#FFE600"/>
<path d="M42.8326 199.237C44.4946 200.426 46.3396 201.73 47.1782 202.279C48.8707 203.384 61.0307 210.543 61.328 209.979C61.6253 209.415 61.7397 205.496 61.7321 204.566C61.7244 203.636 55.2671 200.335 52.8046 198.864C50.3421 197.392 43.4196 193.916 43.4196 193.916L43.0156 199.138C43.0156 199.138 42.9393 199.168 42.8326 199.237Z" fill="#F8F8F8"/>
<path d="M35.133 192.963C35.3007 193.428 41.8115 196.988 43.2448 197.796C44.6704 198.597 49.3591 200.998 50.3044 201.25C51.2574 201.509 57.7986 201.013 62.1366 200.205C66.4822 199.397 73.8697 198.086 77.6282 197.43C81.3791 196.774 92.6624 195.364 93.4858 195.486C94.3091 195.6 95.4298 192.772 94.2024 190.706C94.2024 190.706 86.0144 187.832 83.2851 186.787C80.5558 185.735 73.3207 183.684 72.6117 183.418C71.8951 183.151 36.5892 188.167 36.5892 188.167C36.5892 188.167 36.0479 188.609 36.0936 189.036C36.0936 189.097 36.1165 189.151 36.147 189.204C36.3909 189.661 35.903 192.284 35.903 192.284C35.903 192.284 35.7963 192.307 35.6591 192.353C35.3998 192.452 35.0263 192.65 35.1406 192.955L35.133 192.963Z" fill="#33A04D"/>
<path d="M36.1086 192.673C38.0145 193.801 40.3246 195.135 40.9726 195.402C42.139 195.882 50.449 200.083 51.0132 199.9C51.5697 199.725 51.7374 196.348 50.9217 195.982C50.1059 195.616 43.0844 192.17 41.1022 191.331C39.6765 190.721 37.5266 189.799 36.4288 189.334C36.4288 189.395 36.4517 189.448 36.4822 189.501C36.7337 189.951 36.3373 192.597 36.3373 192.597C36.3373 192.597 36.2306 192.627 36.101 192.68L36.1086 192.673Z" fill="#F8F8F8"/>
<path d="M41.2622 187.855C41.2622 187.855 46.759 191.491 49.1453 192.696C51.5239 193.893 55.4654 196.309 56.6395 196.287C57.8136 196.256 73.2061 194.327 79.4347 193.603C85.6634 192.879 101.048 190.95 101.742 190.088C102.428 189.235 104.334 184.843 102.398 182.51C100.461 180.177 92.6316 177.578 89.5363 175.984L86.441 174.383C86.441 174.383 55.5264 177.41 53.1783 177.753C50.8301 178.096 41.6816 179.865 41.6816 179.865C41.6816 179.865 41.2394 181.001 41.5977 181.268C41.956 181.542 42.3143 181.672 42.3143 181.672C42.3143 181.672 42.0704 186.581 41.956 186.856C41.9331 186.909 41.9026 186.97 41.8569 187.039C41.6587 187.367 41.2699 187.847 41.2699 187.847L41.2622 187.855Z" fill="#FF9518"/>
<path d="M42.4134 187.092C46.4616 189.486 55.7627 194.929 56.1896 194.701C56.7462 194.403 56.4869 193.146 56.5479 191.468C56.6166 189.783 55.0918 188.015 53.2544 187.1C51.4171 186.185 42.8022 181.717 42.8022 181.717C42.8022 181.717 42.5963 186.627 42.4972 186.909C42.4743 186.963 42.4439 187.024 42.4057 187.092H42.4134Z" fill="#F8F8F8"/>
<path d="M38.8528 180.124C38.868 180.681 41.1247 181.611 42.9087 182.396C44.6926 183.189 54.0852 187.008 55.1601 187.679C56.2351 188.35 57.6531 188.594 58.0038 188.449C58.3545 188.304 80.6313 183.669 83.8029 183.029C86.9667 182.388 96.3517 180.604 96.8091 179.758C97.2589 178.904 98.7074 174.947 97.1293 172.752C97.1293 172.752 92.9591 170.754 90.7177 170.259C88.4686 169.756 78.6339 167.072 78.6339 167.072C78.6339 167.072 56.0064 171.707 53.4219 172.195C50.845 172.683 41.5897 175.161 41.5897 175.161C41.5897 175.161 40.1793 175.062 40.1869 175.618C40.2022 176.175 40.3318 176.731 40.3318 176.731L39.9201 179.263C39.9201 179.263 39.7448 179.316 39.5389 179.407C39.234 179.552 38.868 179.796 38.8756 180.124H38.8528Z" fill="#FFE600"/>
<path d="M40.149 179.316C41.8339 180.094 43.8847 181.047 44.8758 181.481C46.7055 182.289 56.5631 187.298 57.1349 187.291C57.6991 187.283 57.7677 184.066 57.1959 183.791C56.6241 183.517 51.8059 181.085 49.29 180.147C46.7741 179.209 40.9343 176.648 40.9343 176.648L40.5226 179.171C40.5226 179.171 40.3549 179.225 40.1567 179.316H40.149Z" fill="#F8F8F8"/>
<path d="M36.5738 169.176C36.8178 169.733 37.5268 169.855 37.5268 169.855V175.031C37.5268 175.031 37.4201 175.085 37.2981 175.176C37.077 175.336 36.7949 175.611 36.955 175.878C37.199 176.289 44.8991 178.195 47.0261 178.698C49.1608 179.202 61.6105 183.219 62.8989 182.632C64.1873 182.038 84.0855 176.35 87.9432 175.275C91.8084 174.2 94.6293 173.842 94.7131 172.584C94.8046 171.326 94.4539 166.157 93.8516 165.471C93.2493 164.785 80.7158 162.726 78.3448 162.086C75.9738 161.446 69.3639 160.638 69.3639 160.638C69.3639 160.638 49.9155 165.334 48.2688 165.654C46.6297 165.974 42.7644 167.057 42.7644 167.057C42.7644 167.057 36.3222 168.62 36.5738 169.176Z" fill="#FFE600"/>
<path d="M38.1143 175.161C42.6962 176.442 52.6377 179.186 54.0405 179.369C55.8702 179.598 62.1827 181.397 62.5105 180.688C62.8307 179.979 62.4267 176.77 62.2818 175.656C62.1446 174.543 59.5144 174.048 58.2564 173.941C56.9985 173.834 48.0634 171.822 45.6619 171.326C43.2604 170.831 38.3354 169.839 38.3354 169.839V175.016C38.3354 175.016 38.2363 175.069 38.1219 175.161H38.1143Z" fill="#F8F8F8"/>
<path d="M42.2917 168.513C42.7796 169.252 47.8113 169.496 49.702 170.007C51.6004 170.518 60.2763 172.165 62.0069 172.493C63.7451 172.82 77.0334 170.053 82.4997 168.612C87.966 167.164 95.323 166.233 95.6127 165.105C95.9024 163.977 96.2607 158.739 94.9876 158.03C93.7144 157.314 81.9051 155.941 78.7488 155.27C75.5925 154.607 71.8111 153.959 71.0259 154.165C70.2482 154.371 47.6893 157.184 47.6893 157.184C47.6893 157.184 41.4302 158.282 41.6055 159.204C41.7809 160.127 42.894 160.477 42.894 160.477C42.894 160.477 43.9689 166.607 43.3514 166.996C43.2599 167.057 43.1532 167.118 43.0541 167.179C42.4823 167.514 41.88 167.895 42.284 168.513H42.2917Z" fill="#33A04D"/>
<path d="M44.2816 166.973C44.1901 167.034 44.091 167.087 43.9919 167.156C45.1202 167.385 46.3095 167.629 47.1405 167.834C49.2523 168.338 61.4504 171.57 62.6398 171.166C63.8291 170.762 63.4021 164.991 62.4873 164.084C61.5648 163.176 57.5242 163.275 54.8177 162.597C52.1113 161.918 43.8394 160.455 43.8394 160.455C43.8394 160.455 44.8686 166.584 44.2816 166.973Z" fill="#F8F8F8"/>
<path d="M41.8339 154.622L41.9331 159.288C41.9331 159.288 41.8721 159.319 41.7882 159.372C41.4146 159.593 40.4998 160.218 41.0258 160.805C41.6738 161.537 48.5963 162.292 51.4323 162.78C54.276 163.268 58.2099 163.908 58.9952 163.702C59.7728 163.496 76.9798 160.256 80.1055 159.616C83.2313 158.976 91.5337 158.023 91.831 157.26C92.1283 156.505 92.9746 152.198 90.7408 150.574C88.507 148.95 85.9759 148.272 83.46 147.959C80.9442 147.654 74.6545 147.441 72.6037 147.12C70.5529 146.8 52.5683 150.246 49.595 150.696C46.6217 151.146 43.8161 152.152 43.8161 152.152C43.8161 152.152 40.3702 152.427 40.5455 153.357C40.7209 154.287 41.8339 154.63 41.8339 154.63V154.622Z" fill="#F4B484"/>
<path d="M42.5585 159.349C44.9677 159.875 47.5826 160.462 48.7415 160.79C51.1582 161.476 58.256 162.97 59.148 162.582C60.04 162.185 59.8265 159.395 59.3462 157.908C58.8659 156.429 54.5051 156.353 52.5381 155.842C50.5712 155.331 42.5967 154.599 42.5967 154.599L42.6958 159.265C42.6958 159.265 42.6424 159.296 42.5585 159.349Z" fill="#F8F8F8"/>
<path d="M38.9603 154.965C40.0428 155.568 45.8217 157.26 48.9551 157.74C52.0885 158.221 59.7504 159.608 61.3286 159.479C62.8991 159.349 73.5114 155.232 77.6283 153.509C81.7528 151.786 89.1631 150.17 89.186 149.24C89.2089 148.31 89.3537 141.037 87.9586 140.244C86.5634 139.451 79.0463 138.437 76.6906 138.361C74.3348 138.284 66.1849 137.438 65.2472 137.217C64.3095 136.996 52.4621 140.129 51.3566 140.465C50.2511 140.8 44.5638 142.287 44.5638 142.287C44.5638 142.287 38.8764 143.774 38.8611 144.704C38.8383 145.634 39.776 145.855 39.776 145.855L39.6159 153.502C39.6159 153.502 37.87 154.371 38.9603 154.973V154.965Z" fill="#FFE600"/>
<path d="M40.47 145.863L40.3099 153.464C42.8333 154.18 45.7685 154.988 46.9578 155.232C49.2297 155.69 59.3618 157.908 60.1242 157.748C60.8866 157.588 60.4444 157.016 60.4672 155.705C60.4977 154.401 60.2843 149.918 59.5371 149.331C58.79 148.744 51.8142 148.127 48.7875 147.464C45.7609 146.8 40.4623 145.863 40.4623 145.863H40.47Z" fill="#F8F8F8"/>
<path d="M42.6041 143.126C43.0996 144.231 47.2165 145.809 49.9077 146.671C52.5989 147.532 55.9229 148.76 57.3333 148.721C58.7437 148.683 70.9495 146.503 74.8605 145.847C78.7715 145.192 92.4029 143.72 92.7002 142.775C92.99 141.837 93.8057 135.845 91.5795 134.404C89.3534 132.963 80.9824 130.943 79.0841 130.432C77.1858 129.921 74.1972 129.624 74.1972 129.624C74.1972 129.624 58.2329 132.086 55.2596 132.719C52.294 133.352 43.9992 135.06 43.9992 135.06C43.9992 135.06 42.1238 135.479 42.6117 136.211C43.0996 136.943 43.5799 137.309 43.5799 137.309L43.5266 142.157C43.5266 142.157 43.4961 142.157 43.4503 142.157C43.1606 142.15 42.1848 142.173 42.6041 143.126Z" fill="#33A04D"/>
<path d="M44.3038 142.142C48.6722 144.071 56.2275 147.578 56.8602 147.425C57.7446 147.22 57.3634 143.492 56.8907 141.83C56.4104 140.168 53.7497 139.863 51.9734 139.344C50.197 138.833 44.4181 137.301 44.4181 137.301L44.38 142.15C44.38 142.15 44.3572 142.15 44.3114 142.15L44.3038 142.142Z" fill="#F8F8F8"/>
<path d="M38.312 131.789L38.5331 135.121C38.5331 135.121 37.6487 135.143 37.8088 135.837C37.9689 136.539 44.068 138.14 45.8596 138.795C47.6512 139.451 55.1073 142.424 56.2813 142.218C57.463 142.013 73.3435 138.094 77.3231 137.636C81.3027 137.187 94.2632 134.747 94.9799 133.672C95.6965 132.605 95.7499 128.381 94.6978 127.535C93.6457 126.681 91.572 126.384 86.83 125.804C82.088 125.225 75.8517 123.975 75.1198 124.173C74.3803 124.371 56.4033 126.933 51.8366 127.581C47.27 128.229 38.434 129.86 38.434 129.86C38.434 129.86 37.1303 131.126 37.7249 131.461L38.3272 131.797L38.312 131.789Z" fill="#FF9518"/>
<path d="M39.3943 132.025L39.6764 135.349C40.4921 135.624 41.4146 135.936 42.3371 136.249C44.9978 137.156 54.8325 140.808 55.6407 140.412C56.4488 140.015 56.2124 137.743 56.0295 136.699C55.8465 135.654 51.135 135.22 48.3218 134.152C45.5086 133.077 39.3867 132.025 39.3867 132.025H39.3943Z" fill="#F8F8F8"/>
<path d="M33.3259 132.079C33.3488 132.971 38.6168 133.375 42.0857 134.175C45.5621 134.983 50.5405 135.921 51.8975 135.891C53.2469 135.853 74.3573 131.926 79.8846 130.706C85.4195 129.494 91.2746 129.342 92.0065 128.259C92.7307 127.169 92.7765 122.168 91.7015 121.299C90.6266 120.437 79.0307 119.301 76.1642 118.661C73.2976 118.02 67.4349 117.99 66.5276 117.837C65.6204 117.685 40.3246 122.259 38.0832 122.846C35.8418 123.441 34.0578 124.379 34.0578 124.379C34.0578 124.379 33.3183 124.935 33.7833 125.454C34.2484 125.98 34.5686 127.039 34.4466 128.473C34.3399 129.799 34.2255 131.118 34.2102 131.309C34.2102 131.324 34.2102 131.332 34.2102 131.332C34.2102 131.332 33.303 131.179 33.3259 132.071V132.079Z" fill="#F4B484"/>
<path d="M35.1782 128.457C35.0715 129.784 34.9723 131.103 34.9571 131.293C35.7423 131.469 36.5581 131.644 37.2747 131.797C39.5924 132.269 51.051 135.022 52.0497 134.457C53.0484 133.893 52.6672 129.799 52.3547 128.732C52.0421 127.672 47.4144 127.253 44.5174 126.795C41.6203 126.33 34.5302 125.438 34.5302 125.438C34.9723 125.964 35.2849 127.024 35.1706 128.457H35.1782Z" fill="#F8F8F8"/>
<path d="M35.9714 116.518C36.7642 117.06 37.2522 117.418 37.2522 117.418L37.4732 120.399C37.4732 120.399 37.3513 120.468 37.1912 120.574C36.8176 120.826 36.2687 121.291 36.7109 121.535C37.3513 121.893 43.3741 124.539 45.585 125.225C47.7959 125.911 52.881 128.587 53.9788 128.556C55.0766 128.526 69.7678 125.164 74.769 124.104C79.7702 123.044 93.0586 120.094 93.8362 119.698C94.6138 119.301 95.1551 115.558 94.3317 113.53C93.5007 111.494 93.028 111.51 93.028 111.51C93.028 111.51 83.7117 109.131 80.8757 108.651C78.0396 108.163 75.8287 107.843 75.8287 107.843C75.8287 107.843 53.468 112.15 50.4871 112.6C47.5138 113.05 37.984 115.535 37.984 115.535C37.984 115.535 35.1708 115.977 35.9637 116.518H35.9714Z" fill="#33A04D"/>
<path d="M37.6024 120.773C38.5477 121.306 39.5236 121.786 40.225 121.962C42.0776 122.427 53.2998 127.283 54.2147 127.238C55.1372 127.192 55.0381 124.767 54.3824 123.685C53.7268 122.595 50.4638 121.451 47.6734 120.658C44.8831 119.858 37.5947 117.609 37.5947 117.609L37.8616 120.582C37.8616 120.582 37.7396 120.651 37.5871 120.765L37.6024 120.773Z" fill="#F8F8F8"/>
<path d="M34.4772 115.718C34.9346 116.58 38.0375 117.197 40.1112 118.021C42.1849 118.836 50.1823 121.428 51.2191 121.924C52.2636 122.427 53.7045 121.512 55.1683 121.123C56.6321 120.735 69.2114 118.142 73.7399 116.984C78.2685 115.817 88.0727 113.995 88.2023 113.126C88.3319 112.249 88.2328 107.888 87.1883 107.035C86.1363 106.188 78.0245 104.473 76.2482 104.168C74.4794 103.863 71.9636 103.055 71.9636 103.055C71.9636 103.055 51.4631 106.371 48.8329 107.134C46.2027 107.896 36.2459 109.55 36.2459 109.55C36.2459 109.55 34.7898 110.282 35.2396 110.793L35.697 111.304L35.3311 114.811C35.3311 114.811 35.1405 114.811 34.927 114.872C34.5839 114.956 34.1799 115.177 34.4696 115.71L34.4772 115.718Z" fill="#FFE600"/>
<path d="M36.0473 115.192C37.7093 115.733 39.5847 116.305 40.4844 116.419C42.2912 116.648 51.4474 120.59 52.3928 120.178C53.3381 119.766 53.2238 117.502 52.2174 116.694C51.2111 115.886 46.1717 114.3 44.2124 113.728C42.2531 113.156 36.6648 111.609 36.6648 111.609L36.4285 115.123C36.4285 115.123 36.2531 115.138 36.0549 115.199L36.0473 115.192Z" fill="#F8F8F8"/>
<path d="M39.8519 110.724C40.4923 111.456 46.4694 111.67 49.153 112.348C51.8366 113.027 59.3994 114.14 60.1847 114.117C60.9699 114.094 76.4158 109.222 79.5339 108.399C82.6597 107.576 89.2086 105.54 89.1933 104.793C89.1781 104.046 89.3763 98.6329 88.0955 97.7333C86.8147 96.8337 80.6775 96.056 78.4742 95.7358C76.2709 95.4233 70.271 94.2644 69.3333 94.2873C68.3955 94.3102 55.5723 97.0624 53.7044 97.6723C51.829 98.2822 45.2725 99.9442 45.2725 99.9442C45.2725 99.9442 39.181 101.408 39.364 102.521C39.547 103.634 40.6448 103.794 40.6448 103.794L40.6067 109.207C40.6067 109.207 40.5305 109.253 40.4237 109.321C40.0654 109.558 39.3564 110.152 39.8519 110.717V110.724Z" fill="#FFE600"/>
<path d="M41.2323 109.306C42.4521 109.497 43.6338 109.687 44.4343 109.855C46.851 110.358 58.485 112.668 59.377 112.272C60.269 111.875 59.1101 106.867 58.7976 106.318C58.485 105.769 53.9564 104.953 50.4876 104.663C47.0264 104.381 41.4457 103.771 41.4457 103.771L41.4152 109.184C41.4152 109.184 41.339 109.23 41.2399 109.299L41.2323 109.306Z" fill="#F8F8F8"/>
<path d="M36.3679 94.8592L36.4365 98.0307C36.4365 98.0307 36.3069 98.0841 36.1316 98.1756C35.636 98.4271 34.7364 98.9608 35.2091 99.3649C35.8495 99.9062 41.5369 101.446 43.4428 102.331C45.3412 103.215 50.8989 105.685 51.5241 105.67C52.1492 105.655 62.4567 102.971 66.0551 102.125C69.6459 101.286 78.5505 99.0066 81.3561 98.1908C84.1617 97.3751 87.1502 97.2988 87.7525 96.1629C88.3548 95.0269 88.5987 91.8478 87.7906 90.75C86.9825 89.6521 83.0486 89.1871 81.3104 88.8592C79.5721 88.5314 71.0792 87.6242 69.9814 87.6547C68.8835 87.6852 51.0438 90.567 49.4733 90.7957C47.9104 91.0244 40.0807 92.1604 40.0807 92.1604C40.0807 92.1604 34.9118 92.6635 34.7745 93.6013C34.6373 94.539 36.3756 94.8668 36.3756 94.8668L36.3679 94.8592Z" fill="#33A04D"/>
<path d="M36.9092 98.1603C39.0668 98.7778 41.4225 99.5021 42.3145 99.9367C44.129 100.829 51.0667 104.191 51.6537 103.81C52.2407 103.421 51.8977 101.378 51.8748 100.447C51.8519 99.5097 47.6512 98.3128 45.6919 97.4284C43.7325 96.5441 37.1227 94.8516 37.1227 94.8516L37.1913 98.0231C37.1913 98.0231 37.0693 98.0764 36.9016 98.1679L36.9092 98.1603Z" fill="#F8F8F8"/>
<path d="M36.5662 91.3522C37.2524 92.1299 42.6577 94.2188 45.6157 95.0955C48.5814 95.9799 56.5406 98.633 57.608 98.6101C58.6829 98.5796 70.9344 95.5682 76.5227 94.1502C82.1186 92.7322 90.7792 90.9253 91.0308 90.1248C91.2824 89.3243 91.5797 84.7043 90.2074 83.1414C90.2074 83.1414 83.7577 82.0283 81.6002 81.4489C79.4426 80.8695 70.4389 79.5048 69.9052 79.36C69.3639 79.2151 54.1773 82.623 51.7681 82.844C49.3666 83.0651 38.1596 84.9406 38.1596 84.9406C38.1596 84.9406 36.7111 85.9317 37.1228 86.5569L37.5421 87.182C37.5421 87.182 37.7403 90.0409 37.3362 90.2087C37.2219 90.262 37.0465 90.3078 36.8788 90.3764C36.4671 90.5365 36.0707 90.7957 36.5586 91.3446L36.5662 91.3522Z" fill="#F4B484"/>
<path d="M37.8854 90.3534C40.4698 91.4436 43.8777 92.8541 45.0213 93.2048C46.9501 93.7918 57.1126 97.8248 57.7454 97.4893C58.3782 97.1539 58.0428 93.5021 57.3871 92.8845C56.7391 92.2594 49.6718 90.0561 46.3326 89.187C42.9933 88.3179 38.5029 87.1591 38.5029 87.1591C38.5029 87.1591 38.6935 90.018 38.3123 90.1857C38.2056 90.2315 38.0378 90.2848 37.8777 90.3458L37.8854 90.3534Z" fill="#F8F8F8"/>
<path d="M67.6559 89.5835C75.4855 87.2735 89.9937 83.2939 90.1233 83.8047C90.2529 84.3155 73.4347 88.1731 71.5059 88.9431C69.5771 89.7131 58.6674 92.7932 58.6674 92.7932V92.1528C58.6674 92.1528 59.8262 91.8936 67.6559 89.5835Z" fill="#FF9518"/>
<path d="M91.0459 235.016C90.9925 235.786 95.483 236.525 98.3953 237.478C101.315 238.431 105.508 239.62 106.675 239.697C107.834 239.773 126.222 238.004 131.056 237.379C135.889 236.761 140.921 237.074 141.63 236.197C142.339 235.313 142.751 231.036 141.897 230.213C141.043 229.389 131.193 227.537 128.776 226.774C126.367 226.004 121.343 225.539 120.581 225.333C119.818 225.135 97.7854 227.133 95.8184 227.468C93.8515 227.803 92.2505 228.474 92.2505 228.474C92.2505 228.474 91.572 228.894 91.9303 229.374C92.2886 229.854 92.4792 230.792 92.2733 232.012C92.0751 233.14 91.8845 234.261 91.854 234.429C91.854 234.444 91.854 234.451 91.854 234.451C91.854 234.451 91.0916 234.253 91.0383 235.016H91.0459Z" fill="#343A40"/>
<path d="M92.9059 232.058C92.7153 233.186 92.5247 234.307 92.5019 234.474C93.1575 234.688 93.8436 234.901 94.4459 235.077C96.3976 235.664 106.011 238.881 106.911 238.477C107.81 238.073 107.795 234.535 107.612 233.598C107.429 232.66 103.495 231.958 101.048 231.341C98.6009 230.723 92.5933 229.42 92.5933 229.42C92.9364 229.9 93.1194 230.838 92.9135 232.058H92.9059Z" fill="#F8F8F8"/>
<path d="M95.6435 228.215C96.4288 226.843 97.3131 225.372 99.2724 224.098C101.232 222.825 106.675 220.279 106.675 220.279C106.675 220.279 104.716 218.022 104.319 217.046C103.931 216.063 101.819 214.401 101.819 214.401L101.133 213.913C100.447 213.425 98.7769 211.755 98.5863 210.68C98.3881 209.605 97.1149 206.564 97.5113 206.175C97.9002 205.786 98.5863 205.977 99.6689 206.373C100.744 206.762 102.901 207.356 102.901 207.356C102.901 207.356 103.976 205.298 105.257 204.315C106.53 203.331 109.275 201.959 109.275 201.959C109.275 201.959 109.077 201.074 108.787 200.099C108.49 199.115 108.886 196.965 109.275 196.767C109.664 196.569 111.234 197.354 112.119 197.941C113.003 198.528 114.962 200.297 114.962 200.297C114.962 200.297 116.983 200.35 118.904 199.603C119.994 199.176 120.558 197.857 121.946 197.712C123.92 197.506 126.977 196.325 129.692 196.767C132.413 197.209 139.694 197.133 141.31 197.064C142.926 196.988 151.679 197.362 154.545 198.017C157.412 198.681 163.145 201.913 165.645 203.384C168.146 204.856 173.734 210.444 175.053 212.205C176.38 213.966 179.612 218.678 180.497 221.178C181.381 223.679 182.7 228.528 182.7 228.528C182.7 228.528 182.997 229.115 183.729 229.26C184.461 229.405 186.672 228.673 187.549 227.788C188.425 226.904 188.875 225.433 188.875 224.258C188.875 223.084 188.433 222.2 189.173 221.468C189.904 220.736 190.789 220.736 192.992 221.765C195.195 222.795 196.377 227.354 194.753 229.854C193.137 232.355 190.781 235.145 187.404 235.587C184.019 236.03 183.142 234.558 183.142 234.558C183.142 234.558 180.939 238.53 177.112 239.849C173.292 241.176 167.109 241.267 164.563 241.267C162.017 241.267 156.23 241.755 154.271 242.052C152.311 242.35 149.079 242.052 147.699 240.383C146.327 238.713 147.897 237.44 147.897 237.44C145.74 237.638 142.705 236.457 141.722 235.481C140.738 234.497 141.036 233.033 141.036 233.033C137.018 232.446 136.035 230.388 136.035 230.388C136.035 230.388 132.703 231.272 131.918 231.463C131.132 231.661 127.412 232.347 126.04 232.248C124.667 232.149 121.038 231.364 119.567 231.074C118.096 230.777 113.59 230.388 111.821 231.173C110.06 231.959 107.216 233.72 104.861 234.017C102.505 234.314 100.843 234.406 100.157 233.331C99.4707 232.256 99.8595 231.272 99.8595 231.272C99.8595 231.272 99.4707 231.371 98.9751 231.661C98.4872 231.959 96.6194 231.76 96.0323 231.364C95.4453 230.975 94.8583 229.603 95.6435 228.23V228.215Z" fill="#F8F8F8"/>
<path d="M104.692 217.87L106.621 217.595L108.878 219.486C108.878 219.486 108.512 219.775 106.675 220.271C106.675 220.271 105.112 218.701 104.692 217.87Z" fill="#343A40"/>
<path d="M118.896 199.58C118.896 199.58 120.413 200.914 121.93 204.223C123.448 207.532 122.617 207.806 122.617 207.806L118.385 204.726C118.385 204.726 117.684 202.889 117.28 202.332C116.807 201.677 114.947 200.274 114.947 200.274L118.889 199.58H118.896Z" fill="#343A40"/>
<path d="M120.55 224.586C122.41 224.975 126.039 225.57 127.412 225.471C128.784 225.371 130.354 224.487 130.454 223.023C130.553 221.552 129.767 219.692 129.279 218.22C128.792 216.749 127.32 213.905 124.377 210.276C121.435 206.647 118.103 204.886 118.103 204.886C118.103 204.886 117.905 204.299 117.119 202.729C116.334 201.158 114.474 200.083 114.474 200.083C114.474 200.083 115.549 200.381 116.83 201.555C118.103 202.729 118.789 204.497 118.789 204.497C118.789 204.497 122.319 207.539 123.79 208.813C125.262 210.086 127.907 214.004 129.081 216.261C130.255 218.518 131.14 221.46 131.14 222.436C131.14 223.412 130.842 225.28 128.593 225.867C126.337 226.454 122.807 225.669 118.4 224.594C113.986 223.519 113.109 223.023 110.555 220.965C109.351 219.997 108.192 218.998 107.308 218.22C108.703 219.219 110.548 220.21 112.614 221.75C115.656 224.007 118.69 224.197 120.558 224.594L120.55 224.586Z" fill="#343A40"/>
<path d="M105.645 216.741C105.645 216.741 106.301 217.344 107.292 218.213C106.636 217.74 106.08 217.275 105.645 216.741Z" fill="#343A40"/>
<path d="M113.682 217.138C114.566 216.253 114.169 215.178 114.169 215.178C114.169 215.178 115.244 216.848 114.07 217.534C112.896 218.22 111.524 216.947 111.524 216.947C111.524 216.947 112.797 218.022 113.682 217.145V217.138Z" fill="#343A40"/>
<path d="M120.452 210.863C120.749 209.88 120.452 209.293 120.452 209.293C120.452 209.293 121.626 210.665 120.749 211.549C120.048 212.251 118.653 211.397 118.119 211.023C118.698 211.336 120.2 211.687 120.452 210.863Z" fill="#343A40"/>
<path d="M117.898 210.863C117.898 210.863 117.982 210.924 118.111 211.023C118.005 210.963 117.928 210.909 117.898 210.863Z" fill="#343A40"/>
<path d="M126.672 222.924C126.764 222.711 126.893 222.52 127.053 222.368C127.358 222.078 127.778 221.887 128.205 221.895C128.281 221.895 128.349 221.903 128.426 221.918C128.654 221.91 128.891 221.941 129.119 222.017C129.371 222.101 129.516 222.345 129.455 222.604C129.363 222.993 129.142 223.336 128.853 223.603C128.853 223.603 128.837 223.618 128.83 223.626C128.677 223.786 128.494 223.931 128.296 224.045C127.907 224.274 127.335 224.487 126.893 224.304C126.596 224.182 126.421 223.877 126.443 223.549C126.459 223.328 126.543 223.115 126.665 222.924H126.672Z" fill="#343A40"/>
<path d="M108.879 219.486L109.664 219.982L104.175 221.255L104.663 221.156L108.879 219.486Z" fill="#343A40"/>
<path d="M101.529 228.215C103.198 226.157 106.72 224.884 108.588 223.999C110.448 223.115 113.002 222.429 113.002 222.429L113.887 222.818C113.887 222.818 111.34 223.206 107.124 225.173C102.908 227.133 101.536 228.802 100.949 229.778C100.362 230.762 99.8741 231.249 99.8741 231.249C99.8741 231.249 99.8741 230.266 101.544 228.208L101.529 228.215Z" fill="#343A40"/>
<path d="M130.941 231.547C133.297 230.96 135.157 230.662 137.604 228.604C140.052 226.546 140.837 223.016 140.448 219.387C140.059 215.758 137.216 208.508 137.216 208.508C137.216 208.508 139.663 213.799 140.349 215.857C141.035 217.915 141.424 220.66 141.332 222.52C141.233 224.38 140.258 226.934 138.885 228.497C137.513 230.068 134.867 231.341 131.437 231.928C128.006 232.515 123.302 232.027 123.302 232.027C123.302 232.027 128.593 232.126 130.949 231.539L130.941 231.547Z" fill="#343A40"/>
<path d="M146.136 220.957C145.45 217.824 145.251 217.328 146.822 214.881C148.393 212.434 151.038 210.467 153.394 209.88C155.75 209.293 161.528 208.309 164.174 209.194C164.174 209.194 156.329 208.805 153.096 211.054C149.864 213.311 147.31 214.873 146.822 217.527C146.334 220.172 148.393 225.859 149.567 227.43C150.741 229 152.113 229.976 152.799 230.96C153.485 231.943 157.991 235.176 157.991 235.176C157.991 235.176 154.949 234.787 152.304 235.565C149.658 236.35 148.088 237.036 147.798 237.821C147.798 237.821 147.112 237.333 149.368 235.862C151.625 234.39 155.94 234.49 155.94 234.49C155.94 234.49 151.526 230.472 150.352 229.298C149.178 228.124 146.822 224.106 146.136 220.965V220.957Z" fill="#343A40"/>
<path d="M141.035 233.018C141.035 233.018 141.721 231.349 143.292 231.059C144.862 230.769 149.078 230.762 150.451 230.861C151.823 230.96 152.807 230.96 152.807 230.96L153.394 231.844C153.394 231.844 148.591 231.455 145.945 231.455C143.3 231.455 142.217 232.042 141.531 233.026C140.845 234.009 141.043 233.026 141.043 233.026L141.035 233.018Z" fill="#343A40"/>
<path d="M98.9291 207.196C98.9901 207.204 99.0587 207.211 99.1274 207.227C99.3103 207.257 99.5162 207.288 99.7678 207.333C100.843 207.532 102.024 208.119 102.024 208.119C102.024 208.119 99.7296 207.303 99.2798 207.821C98.9673 208.187 99.5772 208.995 99.7678 209.682C99.966 210.368 100.942 211.839 100.942 211.839C100.942 211.839 99.8669 210.856 99.2722 209.88C98.6852 208.896 98.2887 207.135 98.2887 207.135C98.2887 207.135 98.4717 207.135 98.9215 207.196H98.9291Z" fill="#343A40"/>
<path d="M110.159 199.199C110.159 197.926 110.548 198.124 110.548 198.124C110.548 198.124 113.78 200.182 114.367 201.067C114.954 201.951 115.442 202.439 115.442 202.439C115.442 202.439 114.169 201.852 113.681 201.265C113.193 200.678 110.937 198.322 110.738 199.008C110.54 199.694 110.738 201.067 111.326 202.142C111.326 202.142 110.151 200.472 110.151 199.199H110.159Z" fill="#343A40"/>
</g>
</svg>
