<svg width="40" height="40" viewBox="0 0 40 40" fill="none" xmlns="http://www.w3.org/2000/svg">
<rect width="40" height="40" rx="20" fill="white"/>
<mask id="mask0_1146_772" style="mask-type:alpha" maskUnits="userSpaceOnUse" x="8" y="8" width="24" height="24">
<rect x="8" y="8" width="24" height="24" fill="#D9D9D9"/>
</mask>
<g mask="url(#mask0_1146_772)">
<path d="M12.3077 27.5C11.8026 27.5 11.375 27.325 11.025 26.975C10.675 26.625 10.5 26.1974 10.5 25.6923V14.3077C10.5 13.8026 10.675 13.375 11.025 13.025C11.375 12.675 11.8026 12.5 12.3077 12.5H27.6923C28.1974 12.5 28.625 12.675 28.975 13.025C29.325 13.375 29.5 13.8026 29.5 14.3077V25.6923C29.5 26.1974 29.325 26.625 28.975 26.975C28.625 27.325 28.1974 27.5 27.6923 27.5H12.3077ZM20 20.5576L28 15.4423L27.8461 14L20 19L12.1538 14L12 15.4423L20 20.5576Z" fill="#946846"/>
</g>
</svg>
