<svg width="32" height="31" viewBox="0 0 32 31" fill="none" xmlns="http://www.w3.org/2000/svg">
<path d="M17.7554 29.3976V27.6957L17.4759 27.0107L17.7554 17.3298C17.7554 14.3273 17.4156 11.3277 16.7379 8.34865C16.5899 7.69824 14.8828 7.69824 14.7348 8.34865C14.0571 11.3277 13.7173 14.3273 13.7173 17.3298L14.2749 27.1374L13.7173 29.3976H17.7554Z" fill="#D48C64"/>
<path d="M13.7173 24.5445V29.3979H15.512V28.374C15.512 28.1802 15.6656 28.0204 15.8593 28.0155C16.5072 27.9989 17.3326 27.8641 17.7554 27.6955V24.5444H13.7173V24.5445Z" fill="#C47C5C"/>
<path d="M7.73804 23.3873C7.16471 24.6477 7.94551 25.6151 9.2414 25.1271C9.46557 25.0428 9.99609 25.1827 9.99609 25.1827C10.2175 25.1495 10.4625 25.1305 10.7378 25.1305C13.2376 25.1305 13.2376 26.6688 15.7375 26.6688C18.237 26.6688 18.237 25.1305 20.7364 25.1305C21.3725 25.1305 21.8466 25.2301 22.2413 25.3786C23.5374 25.8664 24.7818 24.5727 24.2084 23.3123L24.1654 23.2178C23.8088 22.434 23.4066 21.6741 22.9612 20.942L21.9903 20.1229L21.337 18.6293C20.5103 17.6024 19.5887 16.6507 18.5822 15.7876L15.7366 13.3472L12.8911 15.7876C10.5114 17.8284 9.07925 20.4389 7.78121 23.2925L7.73804 23.3873Z" fill="#00B67B"/>
<path d="M22.9611 20.9422C22.6326 21.0561 22.2836 21.1171 21.9238 21.1171C21.3477 21.1494 20.9196 20.8479 20.1111 20.8075C19.526 20.8075 19.3322 20.9268 18.8647 21.214C18.2212 21.6106 17.3391 22.1535 15.7373 22.1535C14.1355 22.1535 13.2534 21.6106 12.6091 21.214C12.5701 21.1867 12.5304 21.1606 12.49 21.1357C11.7328 20.6679 10.7343 20.941 10.3039 21.7201C10.0342 22.2085 9.78283 22.7079 9.55086 23.2178L9.50779 23.3129C9.17576 24.0416 9.45305 24.7826 9.99596 25.1828C9.70521 25.2259 9.45574 25.2952 9.2314 25.3796C7.9356 25.8669 6.69095 24.5728 7.26437 23.3129L7.30744 23.2178C8.60593 20.3642 10.511 17.8282 12.8909 15.7876L15.7364 13.3477C16.4526 13.9624 17.8763 15.1823 18.582 15.7876C20.3085 17.2674 21.7846 19.0083 22.9611 20.9422Z" fill="#00AA68"/>
<path d="M8.65043 17.2543C8.14871 18.3571 8.97034 19.3984 10.1043 18.9715C10.303 18.8966 10.7238 19.0567 10.7238 19.0567C10.9148 19.0286 11.1258 19.0126 11.3625 19.0126C13.5499 19.0126 13.5499 20.3585 15.7372 20.3585C17.9243 20.3585 17.9243 19.0126 20.1114 19.0126C20.6679 19.0126 21.0828 19.0997 21.4282 19.2296C22.5622 19.6563 23.651 18.5245 23.1493 17.4215L23.1117 17.3389C22.6748 16.3782 22.159 15.4589 21.5714 14.5894C21.5714 14.5894 20.6662 14.112 20.4701 13.8521C19.6559 12.7725 19.2589 11.7229 18.2265 10.8374L15.7367 8.70215L13.5151 10.8538C11.4328 12.6395 9.8241 14.6743 8.6883 17.1712L8.65043 17.2543Z" fill="#00B67B"/>
<path d="M21.5712 14.5892C21.2769 14.6915 20.9645 14.7445 20.6432 14.7445C20.207 14.7693 19.8652 14.5667 19.2371 14.5121C18.87 14.5121 18.7848 14.5642 18.4276 14.784C17.9072 15.1044 17.1202 15.589 15.7373 15.589C14.3536 15.589 13.5675 15.1044 13.0461 14.784C13.0422 14.7817 13.0383 14.7794 13.0344 14.7771C12.5102 14.4651 11.8342 14.6334 11.5107 15.1505C11.0722 15.8515 10.6794 16.5826 10.3352 17.3388L10.2975 17.4214C10.0076 18.0585 10.249 18.7055 10.7237 19.0564C10.4653 19.0941 10.2427 19.1551 10.0444 19.2296C8.91104 19.6567 7.82163 18.5243 8.32326 17.4214L8.36095 17.3388C9.49702 14.8415 11.1643 12.6232 13.2462 10.8374L15.7364 8.70166L16.7235 9.54788L18.2266 10.8374C19.5072 11.9358 20.6317 13.1983 21.5712 14.5892Z" fill="#00AA68"/>
<path d="M10.2248 11.3783C9.82131 12.2652 10.4836 12.9859 11.3991 12.6524C11.612 12.5749 11.9719 12.7263 11.9719 12.7263C12.0556 12.7205 12.1436 12.7172 12.2367 12.7172C13.9868 12.7172 13.9868 13.7941 15.7369 13.7941C17.4868 13.7941 17.4868 12.7172 19.2367 12.7172C19.6683 12.7172 19.9935 12.7827 20.2647 12.8815C21.1803 13.2148 22.0407 12.265 21.6372 11.3781C21.2758 10.5836 20.847 9.82435 20.357 9.10798L19.1333 8.45487L18.7853 7.17496C18.45 6.82597 18.0974 6.4926 17.7285 6.17627L15.7363 4.46777L14.1336 6.17627C12.4677 7.60507 11.1335 9.38051 10.2248 11.3783Z" fill="#00B67B"/>
<path d="M20.357 9.10838C19.9514 9.33631 19.4909 9.46203 19.0171 9.46203C18.8037 9.46203 18.5921 9.4369 18.384 9.38764C18.2741 9.36161 18.1582 9.39024 18.0731 9.46463C17.6361 9.84691 16.9415 10.3755 15.7362 10.3962C14.5822 10.3881 13.8572 9.86674 13.4031 9.46831C13.33 9.41267 13.2618 9.39176 13.1559 9.3932C12.8714 9.39697 12.6119 9.55643 12.4644 9.7998C12.156 10.3082 11.8772 10.8353 11.6299 11.3789C11.3957 11.8949 11.5886 12.4324 11.9718 12.7267C11.6667 12.7474 11.4208 12.8048 11.2081 12.882C10.2919 13.2158 9.43223 12.2655 9.83515 11.3789C10.7442 9.38046 12.0777 7.60546 13.7441 6.17685L15.7362 4.46826C16.2733 4.92942 17.2081 5.73077 17.7284 6.17685C18.5612 6.89116 19.3114 7.69161 19.9664 8.56385C20.1011 8.74234 20.2314 8.92352 20.357 9.10838Z" fill="#00AA68"/>
<path d="M11.7623 6.41098C11.5292 7.1514 12.1123 7.74447 12.8433 7.48361C12.9931 7.43012 12.9839 7.43291 13.1939 7.43291C13.2195 7.43291 13.3643 7.52417 13.3889 7.52507C14.5257 7.56877 14.5508 8.60065 15.7368 8.60065C16.9483 8.60065 16.9483 7.52372 18.1597 7.52372C18.3694 7.52372 18.5428 7.55603 18.6925 7.60933C19.4237 7.87002 20.1405 7.19681 19.9073 6.45639C19.2196 4.27273 18.1284 2.23741 16.6904 0.456043C16.6687 0.429302 16.6463 0.403727 16.6231 0.379319C15.7364 0.142144 15.3395 0.158476 14.8704 0.739612C13.4323 2.52107 12.4499 4.22733 11.7623 6.41098Z" fill="#00B67B"/>
<path d="M13.2195 6.70963C13.1217 7.01922 13.2069 7.31625 13.3891 7.52534C13.3648 7.52444 13.3397 7.52354 13.3137 7.52354C13.1037 7.52354 12.9305 7.55674 12.7807 7.60969C12.0493 7.87082 11.3323 7.1969 11.5656 6.45657C11.9102 5.36537 12.3544 4.31006 12.8928 3.30591C13.4313 2.30175 14.0639 1.34695 14.7827 0.455864C15.0277 0.151656 15.3821 0 15.7366 0C16.0596 0 16.3836 0.126529 16.6232 0.379587L16.3423 0.726958C14.9999 2.38889 13.9822 4.28772 13.3406 6.32475L13.2195 6.70963Z" fill="#00AA68"/>
<path d="M31.5312 30.2168H0.46875C0.209875 30.2168 0 30.0069 0 29.748C0 29.4892 0.209875 29.2793 0.46875 29.2793H31.5312C31.7901 29.2793 32 29.4892 32 29.748C32 30.0069 31.7901 30.2168 31.5312 30.2168Z" fill="#00B67B"/>
</svg>
