<svg width="32" height="32" viewBox="0 0 32 32" fill="none" xmlns="http://www.w3.org/2000/svg">
<path d="M12.9398 17.653C12.8394 17.653 10.7315 17.6537 9.75936 17.6527C9.25888 17.6524 9.08032 17.4725 9.08032 16.9689C9.07968 15.6751 9.07936 14.3813 9.08032 13.0876C9.08064 12.5903 9.26944 12.4005 9.76352 12.4002C10.7357 12.3996 12.832 12.3999 12.9398 12.3999C12.9398 12.3113 12.9395 10.4434 12.9398 9.58326C12.9405 8.31158 13.1674 7.0943 13.8134 5.97974C14.4749 4.83894 15.4374 4.0575 16.671 3.60566C17.4611 3.31606 18.2813 3.20054 19.1197 3.1999C20.1686 3.19926 21.2176 3.20022 22.2669 3.20214C22.7178 3.20278 22.9178 3.40214 22.9187 3.85622C22.9206 5.07318 22.9206 6.29014 22.9187 7.50678C22.9181 7.96566 22.7264 8.14998 22.2653 8.1551C21.4054 8.16438 20.545 8.15862 19.6861 8.19318C18.8186 8.19318 18.3622 8.61686 18.3622 9.51478C18.3414 10.4645 18.3536 11.4153 18.3536 12.3996C18.4349 12.3996 20.9037 12.3993 22.0576 12.3996C22.5818 12.3996 22.761 12.5797 22.761 13.1068C22.761 14.3935 22.7606 15.6805 22.7597 16.9673C22.7594 17.4866 22.591 17.6524 22.0637 17.6527C20.9098 17.6533 18.4506 17.653 18.343 17.653V28.0674C18.343 28.6226 18.1683 28.7996 17.6205 28.7996C16.2848 28.7996 14.9488 28.7999 13.6131 28.7996C13.129 28.7996 12.9402 28.6114 12.9402 28.1273C12.9398 24.7356 12.9398 17.7721 12.9398 17.653Z" fill="#3D6AD6"/>
</svg>
