<svg width="32" height="32" viewBox="0 0 32 32" fill="none" xmlns="http://www.w3.org/2000/svg">
<g clip-path="url(#clip0_869_430)">
<path d="M15.8547 6.23977C17.8662 7.55616 20.2773 7.43018 21.2406 5.95852C22.2038 4.48685 21.3542 2.22686 19.3427 0.91047C17.3315 -0.405924 14.9202 -0.279948 13.957 1.19172C12.9939 2.66338 13.8435 4.92337 15.8547 6.23977Z" fill="#29CE69"/>
<path d="M19.3423 0.910886C19.2175 0.829344 19.0918 0.753173 18.9646 0.682617C17.8003 1.42284 16.2585 3.01609 15.9788 6.31953C17.9641 7.55072 20.2966 7.40082 21.2399 5.95942C22.2031 4.48751 21.3535 2.22728 19.3423 0.910886Z" fill="#00A62C"/>
<path d="M18.9741 4.44922H21.6369V13.5605H18.9741V4.44922Z" fill="#73DA8C"/>
<path d="M24.7531 6.24001C26.7643 4.92362 27.6139 2.66338 26.6508 1.19172C25.6876 -0.279948 23.2763 -0.405924 21.2651 0.91047C19.2539 2.22686 18.404 4.48685 19.3671 5.95876C20.3305 7.43043 22.7416 7.55616 24.7531 6.24001Z" fill="#B9ECC2"/>
<path d="M26.1937 16.5402C26.1937 13.6816 23.1603 11.3643 19.4184 11.3643C15.6765 11.3643 12.6433 13.6816 12.6433 16.5402C12.6433 19.3991 15.6765 21.7165 19.4184 21.7165C23.1603 21.7165 26.1937 19.3991 26.1937 16.5402Z" fill="#F2AD9A"/>
<path d="M6.7998 20.2167L11.0507 15.8869C11.6547 15.2717 12.3781 14.7861 13.1762 14.4597L16.81 12.9748C17.6395 12.6357 18.5895 13.0019 18.9769 13.8103C19.3019 14.4883 19.1405 15.2993 18.5809 15.8015L15.7936 18.3032L21.8636 17.6281C22.578 17.5485 23.242 17.2209 23.7398 16.7021L26.5692 13.7529C27.0582 13.2434 27.8357 13.1423 28.4388 13.51C29.1988 13.9739 29.3924 14.9924 28.8553 15.7026L25.2174 20.5124C24.7489 21.132 24.1161 21.6083 23.3907 21.8871L12.5549 26.0526L6.7998 20.2167Z" fill="#FFDDCF"/>
<path d="M9.37009 17.5986L6.7998 20.2165L12.5549 26.0524L18.133 23.9081C12.7336 22.8242 10.2817 19.3425 9.37009 17.5986Z" fill="#FFCBBE"/>
<path d="M7.74227 19.2568L13.7293 26.248C14.7105 27.394 14.5552 29.1232 13.3853 30.0758L11.763 31.3971C10.6468 32.306 9.01276 32.1732 8.05818 31.0958L3.59753 26.0617C2.46009 24.778 2.69471 22.7903 4.09948 21.8069L7.74227 19.2568Z" fill="#A4E7FF"/>
<path d="M9.61754 28.111C3.79484 24.2854 5.81167 20.6086 5.81167 20.6084L4.09977 21.8069C2.695 22.7903 2.46038 24.778 3.59758 26.0617L8.05823 31.0958C9.01281 32.1732 10.6471 32.306 11.763 31.3971L12.2208 31.0243C12.2745 29.0951 11.6117 28.111 11.6117 28.111C11.6117 28.111 9.6859 28.1005 9.61754 28.111Z" fill="#5AD6FF"/>
<path d="M11.6115 28.1106C11.6115 28.8545 11.0085 29.4575 10.2646 29.4575C9.52075 29.4575 8.91772 28.8545 8.91772 28.1106C8.91772 27.3667 9.52075 26.7637 10.2646 26.7637C11.0085 26.7637 11.6115 27.3667 11.6115 28.1106Z" fill="#6A829A"/>
</g>
<defs>
<clipPath id="clip0_869_430">
<rect width="32" height="32" fill="white"/>
</clipPath>
</defs>
</svg>
