<svg width="32" height="32" viewBox="0 0 32 32" fill="none" xmlns="http://www.w3.org/2000/svg">
<mask id="mask0_853_7688" style="mask-type:alpha" maskUnits="userSpaceOnUse" x="0" y="0" width="32" height="32">
<rect width="32" height="32" fill="#D9D9D9"/>
</mask>
<g mask="url(#mask0_853_7688)">
<path d="M5.55931 27.3072C4.57475 27.3072 3.73972 26.9644 3.05421 26.2789C2.3687 25.5934 2.02594 24.7583 2.02594 23.7738V8.22599C2.02594 7.24144 2.3687 6.40641 3.05421 5.72089C3.73972 5.03538 4.57475 4.69263 5.55931 4.69263H26.4404C27.425 4.69263 28.26 5.03538 28.9455 5.72089C29.6311 6.40641 29.9738 7.24144 29.9738 8.22599V23.7738C29.9738 24.7583 29.6311 25.5934 28.9455 26.2789C28.26 26.9644 27.425 27.3072 26.4404 27.3072H5.55931ZM15.9999 18.1434L26.4404 11.4768V8.22599L15.9999 14.8927L5.55931 8.22599V11.4768L15.9999 18.1434Z" fill="#33A04D"/>
</g>
</svg>
