<svg width="40" height="40" viewBox="0 0 40 40" fill="none" xmlns="http://www.w3.org/2000/svg">
<path d="M16.667 12.5003C16.667 12.2793 16.7548 12.0674 16.9111 11.9111C17.0674 11.7548 17.2793 11.667 17.5003 11.667H20.8103C21.0313 11.667 21.2433 11.7548 21.3996 11.9111C21.5559 12.0674 21.6437 12.2793 21.6437 12.5003C21.6437 12.7213 21.5559 12.9333 21.3996 13.0896C21.2433 13.2459 21.0313 13.3337 20.8103 13.3337H17.5003C17.2793 13.3337 17.0674 13.2459 16.9111 13.0896C16.7548 12.9333 16.667 12.7213 16.667 12.5003ZM24.167 16.667H14.167C13.946 16.667 13.734 16.7548 13.5777 16.9111C13.4215 17.0674 13.3337 17.2793 13.3337 17.5003C13.3337 17.7213 13.4215 17.9333 13.5777 18.0896C13.734 18.2459 13.946 18.3337 14.167 18.3337H24.167C24.388 18.3337 24.6 18.2459 24.7563 18.0896C24.9125 17.9333 25.0003 17.7213 25.0003 17.5003C25.0003 17.2793 24.9125 17.0674 24.7563 16.9111C24.6 16.7548 24.388 16.667 24.167 16.667ZM24.167 20.0003H14.167C13.946 20.0003 13.734 20.0881 13.5777 20.2444C13.4215 20.4007 13.3337 20.6126 13.3337 20.8337C13.3337 21.0547 13.4215 21.2666 13.5777 21.4229C13.734 21.5792 13.946 21.667 14.167 21.667H24.167C24.388 21.667 24.6 21.5792 24.7563 21.4229C24.9125 21.2666 25.0003 21.0547 25.0003 20.8337C25.0003 20.6126 24.9125 20.4007 24.7563 20.2444C24.6 20.0881 24.388 20.0003 24.167 20.0003ZM24.167 23.3337H14.167C13.946 23.3337 13.734 23.4215 13.5777 23.5777C13.4215 23.734 13.3337 23.946 13.3337 24.167C13.3337 24.388 13.4215 24.6 13.5777 24.7563C13.734 24.9125 13.946 25.0003 14.167 25.0003H24.167C24.388 25.0003 24.6 24.9125 24.7563 24.7563C24.9125 24.6 25.0003 24.388 25.0003 24.167C25.0003 23.946 24.9125 23.734 24.7563 23.5777C24.6 23.4215 24.388 23.3337 24.167 23.3337ZM35.0003 10.8337C35.0003 11.4967 34.7369 12.1326 34.2681 12.6014C33.7993 13.0703 33.1634 13.3337 32.5003 13.3337H28.3337V30.8337C28.3337 31.9387 27.8947 32.9985 27.1133 33.7799C26.3319 34.5613 25.2721 35.0003 24.167 35.0003H10.8337C9.72859 35.0003 8.66878 34.5613 7.88738 33.7799C7.10598 32.9985 6.66699 31.9387 6.66699 30.8337V29.167C6.66699 28.504 6.93038 27.8681 7.39922 27.3992C7.86807 26.9304 8.50395 26.667 9.16699 26.667H9.95199L10.0003 10.8337C10.0003 9.72859 10.4393 8.66878 11.2207 7.88738C12.0021 7.10598 13.0619 6.66699 14.167 6.66699H30.8337C31.9387 6.66699 32.9985 7.10598 33.7799 7.88738C34.5613 8.66878 35.0003 9.72859 35.0003 10.8337ZM20.8337 33.3337C20.2914 32.6131 19.9989 31.7354 20.0003 30.8337V29.167C20.0003 28.946 19.9125 28.734 19.7563 28.5777C19.6 28.4215 19.388 28.3337 19.167 28.3337H9.16699C8.94598 28.3337 8.73402 28.4215 8.57774 28.5777C8.42146 28.734 8.33366 28.946 8.33366 29.167V30.8337C8.33366 31.4967 8.59705 32.1326 9.06589 32.6014C9.53473 33.0703 10.1706 33.3337 10.8337 33.3337H20.8337ZM26.667 10.8337C26.6697 9.92932 26.9695 9.05092 27.5203 8.33366H14.167C13.504 8.33366 12.8681 8.59705 12.3992 9.06589C11.9304 9.53473 11.667 10.1706 11.667 10.8337L11.6187 26.667H19.167C19.83 26.667 20.4659 26.9304 20.9348 27.3992C21.4036 27.8681 21.667 28.504 21.667 29.167V30.8337C21.667 31.4967 21.9304 32.1326 22.3992 32.6014C22.8681 33.0703 23.504 33.3337 24.167 33.3337C24.83 33.3337 25.4659 33.0703 25.9348 32.6014C26.4036 32.1326 26.667 31.4967 26.667 30.8337V10.8337ZM33.3337 10.8337C33.3337 10.1706 33.0703 9.53473 32.6014 9.06589C32.1326 8.59705 31.4967 8.33366 30.8337 8.33366C30.1706 8.33366 29.5347 8.59705 29.0659 9.06589C28.5971 9.53473 28.3337 10.1706 28.3337 10.8337V11.667H32.5003C32.7213 11.667 32.9333 11.5792 33.0896 11.4229C33.2459 11.2666 33.3337 11.0547 33.3337 10.8337Z" fill="#343A40"/>
</svg>
