<svg width="32" height="31" viewBox="0 0 32 31" fill="none" xmlns="http://www.w3.org/2000/svg">
<path d="M21.6365 24.4014L21.2449 26.2628L21.6365 27.1125V29.3974H19.5776V24.4014H21.6365Z" fill="#C47C5C"/>
<path d="M21.6363 24.4014V27.1125C21.3585 27.2695 21.0563 27.3812 20.74 27.4422C20.5128 27.486 20.3488 27.6846 20.3488 27.9159V29.3977H19.2207V24.4014H21.6363Z" fill="#B76E51"/>
<path d="M23.1207 8.33232C22.8496 7.47154 22.8017 5.79187 22.8017 5.79187C22.3512 4.93778 21.8181 4.1275 21.209 3.37285C20.8077 2.87572 20.0501 2.87572 19.6487 3.37285C19.0607 4.10125 18.5289 4.90968 18.0884 5.73116C18.0884 5.73116 17.9796 7.45085 17.6984 8.34375L16.0005 9.77042L18.9867 23.2468H23.4737L25.0191 10.8338L23.1207 8.33232Z" fill="#00AA68"/>
<path d="M25.0192 10.8335L23.474 23.2467H18.9865L16 9.76982L17.0178 8.28018C17.2924 7.40733 17.6607 6.53617 18.0882 5.73096C18.4965 6.5563 18.8263 7.44195 19.1049 8.32849C19.2538 8.80284 19.2578 9.29346 19.1214 9.75243C19.0858 9.87216 19.1054 10.0008 19.1773 10.1029C19.508 10.5723 19.8967 11.2016 20.2064 11.7861C20.294 11.9513 20.5268 11.9587 20.6246 11.7993C20.7884 11.532 20.9608 11.2703 21.1418 11.0143C21.1836 10.9551 21.1986 10.8802 21.1776 10.8109C21.0389 10.3538 21.0389 9.85896 21.1855 9.39467C21.5052 8.38252 21.9198 7.39855 22.4175 6.47014C22.5399 6.24146 22.6679 6.0152 22.8007 5.79215C23.2211 6.5869 23.5689 7.41949 23.8395 8.28026L25.0192 10.8335Z" fill="#009C5D"/>
<path d="M12.3196 24.4014L11.928 26.2628L12.3196 27.1125V29.3974H10.2607V24.4014H12.3196Z" fill="#C47C5C"/>
<path d="M12.3194 24.4014V27.1125C12.0416 27.2695 11.7394 27.3812 11.4231 27.4422C11.1959 27.486 11.0319 27.6846 11.0319 27.9159V29.3977H9.90381V24.4014H12.3194Z" fill="#B76E51"/>
<path d="M13.8038 8.33231C13.5326 7.47154 13.4847 5.79187 13.4847 5.79187C13.0342 4.93778 12.5012 4.1275 11.892 3.37285C11.4907 2.87572 10.7331 2.87572 10.3318 3.37285C9.74372 4.10125 9.21188 4.90968 8.77143 5.73116C8.77143 5.73116 8.66264 7.45085 8.38138 8.34375L6.68359 9.77034L9.6698 23.2467H14.1568L15.7022 10.8337L13.8038 8.33231Z" fill="#00AA68"/>
<path d="M15.7023 10.8335L14.1571 23.2467H9.66964L6.68311 9.76982L7.70089 8.28018C7.97547 7.40733 8.34377 6.53617 8.77134 5.73096C9.17958 6.5563 9.5094 7.44195 9.788 8.32849C9.93689 8.80284 9.94091 9.29346 9.80451 9.75243C9.76892 9.87216 9.78849 10.0008 9.86039 10.1029C10.1911 10.5723 10.5798 11.2016 10.8895 11.7861C10.9771 11.9513 11.2099 11.9587 11.3077 11.7993C11.4715 11.532 11.6439 11.2703 11.8249 11.0143C11.8667 10.9551 11.8817 10.8802 11.8607 10.8109C11.722 10.3538 11.722 9.85896 11.8686 9.39467C12.1883 8.38252 12.6029 7.39855 13.1006 6.47014C13.223 6.24146 13.351 6.0152 13.4838 5.79215C13.9042 6.5869 14.252 7.41949 14.5226 8.28026L15.7023 10.8335Z" fill="#009C5D"/>
<path d="M7.69102 29.6798V28.0301L7.4888 27.5347L7.69102 20.5333C7.69102 18.3618 7.44521 16.1924 6.95511 14.0379C6.84811 13.5675 5.61343 13.5675 5.50642 14.0379C5.01632 16.1924 4.77051 18.3618 4.77051 20.5333L5.17378 27.6264L4.77051 29.6798H7.69102Z" fill="#D48C64"/>
<path d="M4.77051 25.751V29.68H6.06853V28.5206C6.06853 28.3804 6.17955 28.2649 6.31968 28.2613C6.78823 28.2493 7.3852 28.1518 7.69102 28.03V25.751H4.77051Z" fill="#C47C5C"/>
<path d="M12.3576 24.86L12.3265 24.7921C12.0687 24.2252 11.7783 23.6756 11.456 23.1462L10.754 22.5537L10.2814 21.4732C9.68329 20.731 9.01661 20.0422 8.28894 19.4184L6.23067 17.6533L4.1731 19.4184C3.01784 20.4086 2.1718 21.585 1.45626 22.8753C1.37061 22.8625 0.407518 24.9188 0.407518 24.9188C0.219087 25.3328 0.04902 25.4918 0.283607 25.7928C0.283676 25.7928 0.233571 25.9942 0.233709 25.9942C0.233571 25.9942 0.283745 25.7928 0.283607 25.7928C0.565665 26.1539 1.06533 26.3458 1.57678 26.1532C1.68898 26.111 1.75953 26.2758 1.89314 26.2467C1.9526 26.2338 2.01463 26.2224 2.07949 26.2128C2.23958 26.1885 2.4163 26.1754 2.61589 26.1754C4.42328 26.1754 4.42328 27.2877 6.23137 27.2877C8.03945 27.2877 8.03945 26.1754 9.84684 26.1754C10.307 26.1754 10.6501 26.2474 10.9356 26.3549C11.8725 26.7076 12.7728 25.772 12.3576 24.86Z" fill="#00B67B"/>
<path d="M8.28884 19.4177C7.95827 19.1343 7.41009 18.6644 6.92359 18.2479C6.65955 18.0213 6.41353 17.8099 6.23058 17.6533L4.173 19.4184C4.13697 19.4496 4.10093 19.4808 4.06559 19.512C4.03094 19.5425 3.99698 19.573 3.96302 19.6035C2.89508 20.5508 1.96713 21.6403 1.19926 22.8378C0.799392 23.4615 0.443181 24.1136 0.134788 24.7914L0.103602 24.8607C-0.0848992 25.2744 -0.00104401 25.693 0.233196 25.9945C0.439023 26.2578 0.75989 26.4311 1.11749 26.4311C1.24985 26.4311 1.38776 26.4068 1.52637 26.3549C1.63864 26.3126 1.75922 26.2759 1.89297 26.2467C1.78833 26.1781 1.69616 26.0929 1.61923 25.9945C1.38499 25.693 1.30114 25.2744 1.48964 24.8607L1.52082 24.7914C1.67107 24.4615 1.83247 24.1377 2.0049 23.8202C2.31953 23.2408 3.00132 22.9417 3.62559 23.154C3.7513 23.1968 3.86828 23.2572 3.96933 23.3423C4.43503 23.6292 5.07331 24.0222 6.23134 24.0222C7.39006 24.0222 8.02764 23.6292 8.49335 23.3423C8.83154 23.1351 8.97153 23.0485 9.39497 23.0485C9.97918 23.0776 10.289 23.2959 10.7055 23.2723C10.966 23.2723 11.2183 23.2287 11.456 23.1462C10.6049 21.747 9.53766 20.4885 8.28884 19.4177Z" fill="#00AA68"/>
<path d="M6.23042 17.6533L4.17285 19.4184C4.13681 19.4496 4.10077 19.4808 4.06543 19.512C4.10077 19.4794 4.13681 19.4482 4.17285 19.4177L6.23042 17.6533Z" fill="#00AA68"/>
<path d="M1.10584 20.4785C0.743049 21.2761 1.33717 22.0292 2.15729 21.7204C2.30102 21.6663 2.6054 21.7821 2.6054 21.7821C2.74352 21.7618 2.89619 21.7501 3.06736 21.7501C4.64931 21.7501 4.64932 22.7235 6.23127 22.7235C7.81301 22.7235 7.81301 21.7501 9.39476 21.7501C9.79726 21.7501 10.0973 21.8132 10.347 21.9072C11.1672 22.2158 11.9546 21.3972 11.5918 20.5995L11.5647 20.5398C11.2487 19.845 10.8757 19.1801 10.4506 18.5513C10.4506 18.5513 9.79601 18.206 9.65415 18.018C9.0653 17.2373 8.77825 16.4782 8.03152 15.8378L6.23078 14.2935L4.62395 15.8496C3.11802 17.1411 1.95458 18.6128 1.13315 20.4186L1.10584 20.4785Z" fill="#00B67B"/>
<path d="M10.4505 18.5514C10.2376 18.6254 10.0117 18.6638 9.77929 18.6638C9.46383 18.6816 9.21663 18.5351 8.76229 18.4956C8.49686 18.4956 8.43518 18.5333 8.1769 18.6923C7.80045 18.924 7.23127 19.2745 6.23118 19.2745C5.23046 19.2745 4.66191 18.924 4.28484 18.6923C4.282 18.6907 4.27922 18.689 4.27638 18.6873C3.89723 18.4617 3.40838 18.5834 3.17435 18.9574C2.85715 19.4644 2.57308 19.9931 2.32415 20.54L2.29692 20.5998C2.08728 21.0606 2.26185 21.5285 2.60517 21.7823C2.41826 21.8095 2.25727 21.8537 2.11389 21.9075C1.29419 22.2165 0.506295 21.3974 0.86909 20.5998L0.896326 20.54C1.71797 18.7339 2.92382 17.1296 4.42947 15.8381L6.23042 14.2935L6.9443 14.9055L8.03136 15.8381C8.95772 16.6324 9.77098 17.5455 10.4505 18.5514Z" fill="#00AA68"/>
<path d="M2.24455 16.2294C1.95279 16.8707 2.43174 17.392 3.09385 17.1508C3.24784 17.0947 3.50813 17.2042 3.50813 17.2042C3.56863 17.2001 3.63239 17.1976 3.69968 17.1976C4.96541 17.1976 4.96541 17.9765 6.23114 17.9765C7.49666 17.9765 7.49666 17.1976 8.76225 17.1976C9.07446 17.1976 9.3096 17.245 9.50572 17.3164C10.1679 17.5575 10.7902 16.8706 10.4984 16.2291C10.237 15.6545 9.92687 15.1054 9.57246 14.5873L8.68747 14.115L8.43577 13.1893C8.19328 12.9369 7.93825 12.6958 7.67144 12.467L6.23066 11.2314L5.07151 12.467C3.86663 13.5004 2.90174 14.7845 2.24455 16.2294Z" fill="#00B67B"/>
<path d="M9.57255 14.5874C9.27919 14.7523 8.9462 14.8432 8.6035 14.8432C8.44917 14.8432 8.29608 14.825 8.14562 14.7894C8.06613 14.7706 7.98228 14.7913 7.92074 14.8451C7.60465 15.1215 7.10235 15.5038 6.23068 15.5187C5.39607 15.5129 4.87167 15.1358 4.54331 14.8477C4.49037 14.8075 4.44116 14.7923 4.36452 14.7934C4.15876 14.7961 3.97109 14.9114 3.86443 15.0874C3.64142 15.4551 3.43982 15.8363 3.26088 16.2294C3.09151 16.6026 3.23102 16.9913 3.50815 17.2042C3.2875 17.2191 3.10967 17.2607 2.95589 17.3165C2.29329 17.5579 1.67152 16.8706 1.96293 16.2294C2.6204 14.7841 3.5848 13.5004 4.78996 12.4672L6.23074 11.2314C6.61918 11.5649 7.29522 12.1446 7.67153 12.4672C8.27376 12.9837 8.81639 13.5627 9.29014 14.1935C9.38744 14.3227 9.48169 14.4537 9.57255 14.5874Z" fill="#00AA68"/>
<path d="M3.35652 12.6369C3.1879 13.1723 3.60961 13.6013 4.13838 13.4126C4.2467 13.3739 4.24004 13.376 4.39189 13.376C4.41046 13.376 4.51517 13.4419 4.53291 13.4426C5.35511 13.4742 5.37327 14.2205 6.23102 14.2205C7.1072 14.2205 7.1072 13.4417 7.98331 13.4417C8.13495 13.4417 8.26038 13.465 8.36856 13.5036C8.89733 13.6922 9.41578 13.2053 9.24717 12.6698C8.74979 11.0905 7.96065 9.61848 6.92064 8.33016C6.90505 8.31082 6.88876 8.29232 6.87199 8.27465C6.23074 8.10313 5.94369 8.11498 5.60439 8.53522C4.56431 9.82354 3.8539 11.0576 3.35652 12.6369Z" fill="#00B67B"/>
<path d="M4.41024 12.8526C4.33949 13.0765 4.40117 13.2913 4.53291 13.4425C4.51538 13.4419 4.49722 13.4412 4.47837 13.4412C4.32653 13.4412 4.20123 13.4652 4.09284 13.5035C3.56393 13.6924 3.04535 13.205 3.2141 12.6696C3.4633 11.8803 3.78459 11.1171 4.17399 10.3909C4.5634 9.6647 5.02093 8.97418 5.54077 8.32967C5.71797 8.10964 5.97432 8 6.23067 8C6.46428 8 6.69859 8.09148 6.87191 8.2745L6.66872 8.52572C5.6978 9.72769 4.96189 11.1009 4.49784 12.5741L4.41024 12.8526Z" fill="#00AA68"/>
<path d="M26.8216 29.6797V28.002L26.616 27.4982L26.8216 20.3779C26.8216 18.1696 26.5716 15.9634 26.0732 13.7724C25.9644 13.294 24.7088 13.294 24.6 13.7724C24.1015 15.9634 23.8516 18.1696 23.8516 20.3779L24.2617 27.5914L23.8516 29.6797H26.8216Z" fill="#D48C64"/>
<path d="M23.8516 25.6846V29.6802H25.1716V28.5012C25.1716 28.3586 25.2845 28.2411 25.427 28.2375C25.9035 28.2253 26.5106 28.1261 26.8216 28.0022V25.6846H23.8516Z" fill="#C47C5C"/>
<path d="M30.1211 26.2984C29.8308 26.1891 29.4819 26.1158 29.0139 26.1158C27.1759 26.1158 27.1759 27.247 25.3371 27.247C23.4984 27.247 23.4984 26.1158 21.6603 26.1158C21.4573 26.1158 21.2776 26.1292 21.1148 26.1539C20.9006 26.1856 20.7173 26.2363 20.5524 26.2984C20.0323 26.4943 19.5241 26.2991 19.2373 25.9319C19.3092 25.9248 19.257 25.2666 19.4537 24.8338L19.4854 24.7641C20.4404 22.6652 21.4933 20.7447 23.2439 19.2443L25.3364 17.4492L27.4296 19.2443C28.1696 19.8786 28.8476 20.5791 29.4558 21.3339L29.9365 22.4327L30.6504 23.0353C30.9781 23.5737 31.2734 24.1326 31.5356 24.7091L31.5673 24.7782C31.9895 25.7056 31.074 26.6571 30.1211 26.2984Z" fill="#00B67B"/>
<path d="M27.4295 19.2438C26.9104 18.7986 25.8633 17.9014 25.3366 17.4492L23.2437 19.2438C21.4934 20.7447 20.0921 22.6098 19.1371 24.7086L19.1054 24.7786C18.9137 25.1996 18.9987 25.6254 19.2373 25.9315C19.7314 25.8814 20.2171 25.7311 20.6829 25.5136C20.6258 25.2845 20.6405 25.0308 20.7554 24.7786L20.7871 24.7086C20.9577 24.3336 21.1425 23.9663 21.341 23.607C21.6575 23.034 22.3919 22.8331 22.9489 23.1772C22.9785 23.1955 23.0077 23.2148 23.0365 23.2348C23.5104 23.5265 24.1592 23.9258 25.3373 23.9258C26.5154 23.9258 27.1642 23.5265 27.6374 23.2348C27.9812 23.0236 28.1238 22.9358 28.5541 22.9358C29.1488 22.9655 29.4636 23.1873 29.8874 23.1635C30.152 23.1635 30.4087 23.1187 30.6503 23.0349C29.785 21.6126 28.6993 20.3322 27.4295 19.2438Z" fill="#00AA68"/>
<path d="M20.1248 20.3227C19.7558 21.1338 20.3601 21.8997 21.1941 21.5856C21.3403 21.5306 21.6498 21.6484 21.6498 21.6484C21.7903 21.6277 21.9455 21.6159 22.1196 21.6159C23.7284 21.6159 23.7284 22.6058 25.3372 22.6058C26.9457 22.6058 26.9457 21.6159 28.5543 21.6159C28.9637 21.6159 29.2688 21.68 29.5228 21.7756C30.3569 22.0894 31.1576 21.2569 30.7887 20.4457L30.761 20.385C30.4397 19.6784 30.0604 19.0023 29.6281 18.3628C29.6281 18.3628 28.9624 18.0117 28.8181 17.8205C28.2193 17.0265 27.9274 16.2545 27.168 15.6032L25.3367 14.0327L23.7027 15.6152C22.1712 16.9286 20.988 18.4252 20.1526 20.2616L20.1248 20.3227Z" fill="#00B67B"/>
<path d="M29.6277 18.3624C29.4112 18.4376 29.1815 18.4767 28.9452 18.4767C28.6243 18.4949 28.373 18.3459 27.9109 18.3057C27.641 18.3057 27.5783 18.344 27.3156 18.5057C26.9327 18.7413 26.3539 19.0977 25.3369 19.0977C24.3192 19.0977 23.741 18.7413 23.3575 18.5057C23.3546 18.504 23.3518 18.5023 23.3489 18.5006C22.9633 18.2712 22.4662 18.3949 22.2282 18.7753C21.9056 19.2909 21.6167 19.8286 21.3636 20.3848L21.3359 20.4455C21.1227 20.9141 21.3002 21.39 21.6493 21.6481C21.4593 21.6758 21.2955 21.7207 21.1497 21.7754C20.3161 22.0896 19.5149 21.2566 19.8838 20.4455L19.9115 20.3848C20.7471 18.548 21.9734 16.9164 23.5046 15.603L25.3361 14.0322L26.0621 14.6546L27.1676 15.603C28.1096 16.4108 28.9367 17.3394 29.6277 18.3624Z" fill="#00AA68"/>
<path d="M21.2831 16.0011C20.9864 16.6534 21.4735 17.1835 22.1468 16.9382C22.3034 16.8812 22.5682 16.9925 22.5682 16.9925C22.6297 16.9883 22.6945 16.9859 22.763 16.9859C24.0502 16.9859 24.0502 17.7779 25.3374 17.7779C26.6244 17.7779 26.6244 16.9859 27.9114 16.9859C28.2289 16.9859 28.468 17.0341 28.6675 17.1067C29.3409 17.3518 29.9737 16.6533 29.677 16.0009C29.4112 15.4165 29.0958 14.8581 28.7354 14.3313L27.8354 13.8509L27.5794 12.9095C27.3328 12.6528 27.0734 12.4076 26.8021 12.175L25.3369 10.9185L24.1581 12.175C22.9327 13.2259 21.9515 14.5318 21.2831 16.0011Z" fill="#00B67B"/>
<path d="M28.7351 14.3313C28.4368 14.499 28.0981 14.5915 27.7496 14.5915C27.5927 14.5915 27.437 14.573 27.284 14.5368C27.2031 14.5176 27.1179 14.5387 27.0553 14.5934C26.7338 14.8745 26.223 15.2633 25.3365 15.2785C24.4878 15.2725 23.9545 14.8891 23.6206 14.596C23.5667 14.5552 23.5167 14.5397 23.4387 14.5408C23.2295 14.5436 23.0386 14.6609 22.9302 14.8398C22.7034 15.2138 22.4984 15.6014 22.3164 16.0012C22.1441 16.3807 22.286 16.776 22.5678 16.9925C22.3434 17.0077 22.1626 17.05 22.0062 17.1067C21.3324 17.3523 20.7001 16.6533 20.9964 16.0012C21.665 14.5314 22.6458 13.2259 23.8714 12.1751L25.3366 10.9185C25.7316 11.2576 26.4191 11.8471 26.8018 12.1751C27.4143 12.7005 27.9661 13.2892 28.4479 13.9307C28.5469 14.0621 28.6427 14.1954 28.7351 14.3313Z" fill="#00AA68"/>
<path d="M22.4138 12.3479C22.2423 12.8924 22.6712 13.3286 23.2089 13.1368C23.3191 13.0975 23.3123 13.0995 23.4667 13.0995C23.4856 13.0995 23.5921 13.1666 23.6101 13.1673C24.4463 13.1994 24.4648 13.9583 25.3371 13.9583C26.2281 13.9583 26.2281 13.1663 27.1191 13.1663C27.2733 13.1663 27.4008 13.1901 27.5109 13.2293C28.0486 13.4211 28.5758 12.9259 28.4044 12.3813C27.8986 10.7753 27.096 9.27829 26.0384 7.96812C26.0225 7.94845 26.006 7.92964 25.9889 7.91166C25.3368 7.73723 25.0449 7.74928 24.6998 8.17666C23.6421 9.48683 22.9196 10.7418 22.4138 12.3479Z" fill="#00B67B"/>
<path d="M23.4853 12.5672C23.4133 12.7949 23.4761 13.0134 23.61 13.1672C23.5922 13.1666 23.5737 13.1659 23.5546 13.1659C23.4001 13.1659 23.2727 13.1902 23.1625 13.2292C22.6246 13.4213 22.0972 12.9256 22.2688 12.3811C22.5223 11.5785 22.849 10.8023 23.245 10.0638C23.641 9.32526 24.1063 8.62302 24.6349 7.96759C24.8151 7.74382 25.0758 7.63232 25.3365 7.63232C25.5741 7.63232 25.8124 7.72535 25.9886 7.91149L25.782 8.16697C24.7946 9.38933 24.0462 10.7858 23.5743 12.284L23.4853 12.5672Z" fill="#00AA68"/>
<path d="M17.7554 29.3976V27.6957L17.4759 27.0107L17.7554 17.3298C17.7554 14.3273 17.4156 11.3277 16.7379 8.34865C16.5899 7.69824 14.8828 7.69824 14.7348 8.34865C14.0571 11.3277 13.7173 14.3273 13.7173 17.3298L14.2749 27.1374L13.7173 29.3976H17.7554Z" fill="#D48C64"/>
<path d="M13.7173 24.5445V29.3979H15.512V28.374C15.512 28.1802 15.6656 28.0204 15.8593 28.0155C16.5072 27.9989 17.3326 27.8641 17.7554 27.6955V24.5444H13.7173V24.5445Z" fill="#C47C5C"/>
<path d="M7.7378 23.3873C7.16447 24.6477 7.94527 25.6151 9.24116 25.1271C9.46532 25.0428 9.99585 25.1827 9.99585 25.1827C10.2172 25.1495 10.4622 25.1305 10.7375 25.1305C13.2373 25.1305 13.2373 26.6688 15.7372 26.6688C18.2367 26.6688 18.2367 25.1305 20.7362 25.1305C21.3722 25.1305 21.8463 25.2301 22.2411 25.3786C23.5371 25.8664 24.7815 24.5727 24.2081 23.3123L24.1651 23.2178C23.8086 22.434 23.4063 21.6741 22.9609 20.942L21.9901 20.1229L21.3368 18.6293C20.51 17.6024 19.5885 16.6507 18.582 15.7876L15.7364 13.3472L12.8908 15.7876C10.5111 17.8284 9.07901 20.4389 7.78096 23.2925L7.7378 23.3873Z" fill="#00B67B"/>
<path d="M22.9608 20.9422C22.6324 21.0561 22.2834 21.1171 21.9235 21.1171C21.3474 21.1494 20.9194 20.8479 20.1109 20.8075C19.5258 20.8075 19.3319 20.9268 18.8644 21.214C18.221 21.6106 17.3389 22.1535 15.7371 22.1535C14.1353 22.1535 13.2532 21.6106 12.6089 21.214C12.5698 21.1867 12.5302 21.1606 12.4898 21.1357C11.7326 20.6679 10.7341 20.941 10.3037 21.7201C10.0339 22.2085 9.78259 22.7079 9.55062 23.2178L9.50754 23.3129C9.17552 24.0416 9.45281 24.7826 9.99571 25.1828C9.70497 25.2259 9.4555 25.2952 9.23116 25.3796C7.93535 25.8669 6.6907 24.5728 7.26412 23.3129L7.3072 23.2178C8.60569 20.3642 10.5108 17.8282 12.8906 15.7876L15.7362 13.3477C16.4524 13.9624 17.876 15.1823 18.5817 15.7876C20.3083 17.2674 21.7844 19.0083 22.9608 20.9422Z" fill="#00AA68"/>
<path d="M8.64994 17.2543C8.14822 18.3571 8.96985 19.3984 10.1038 18.9715C10.3025 18.8966 10.7233 19.0567 10.7233 19.0567C10.9144 19.0286 11.1253 19.0126 11.3621 19.0126C13.5494 19.0126 13.5494 20.3585 15.7367 20.3585C17.9238 20.3585 17.9238 19.0126 20.1109 19.0126C20.6674 19.0126 21.0823 19.0997 21.4277 19.2296C22.5617 19.6563 23.6505 18.5245 23.1488 17.4215L23.1112 17.3389C22.6743 16.3782 22.1585 15.4589 21.5709 14.5894C21.5709 14.5894 20.6657 14.112 20.4696 13.8521C19.6555 12.7725 19.2585 11.7229 18.226 10.8374L15.7362 8.70215L13.5146 10.8538C11.4323 12.6395 9.82361 14.6743 8.68781 17.1712L8.64994 17.2543Z" fill="#00B67B"/>
<path d="M21.5712 14.5892C21.2769 14.6915 20.9645 14.7445 20.6432 14.7445C20.207 14.7693 19.8652 14.5667 19.2371 14.5121C18.87 14.5121 18.7848 14.5642 18.4276 14.784C17.9072 15.1044 17.1202 15.589 15.7373 15.589C14.3536 15.589 13.5675 15.1044 13.0461 14.784C13.0422 14.7817 13.0383 14.7794 13.0344 14.7771C12.5102 14.4651 11.8342 14.6334 11.5107 15.1505C11.0722 15.8515 10.6794 16.5826 10.3352 17.3388L10.2975 17.4214C10.0076 18.0585 10.249 18.7055 10.7237 19.0564C10.4653 19.0941 10.2427 19.1551 10.0444 19.2296C8.91104 19.6567 7.82163 18.5243 8.32326 17.4214L8.36095 17.3388C9.49702 14.8415 11.1643 12.6232 13.2462 10.8374L15.7364 8.70166L16.7235 9.54788L18.2266 10.8374C19.5072 11.9358 20.6317 13.1983 21.5712 14.5892Z" fill="#00AA68"/>
<path d="M10.2248 11.3783C9.82131 12.2652 10.4836 12.9859 11.3991 12.6524C11.612 12.5749 11.9719 12.7263 11.9719 12.7263C12.0556 12.7205 12.1436 12.7172 12.2367 12.7172C13.9868 12.7172 13.9868 13.7941 15.7369 13.7941C17.4868 13.7941 17.4868 12.7172 19.2367 12.7172C19.6683 12.7172 19.9935 12.7827 20.2647 12.8815C21.1803 13.2148 22.0407 12.265 21.6372 11.3781C21.2758 10.5836 20.847 9.82435 20.357 9.10798L19.1333 8.45487L18.7853 7.17496C18.45 6.82597 18.0974 6.4926 17.7285 6.17627L15.7363 4.46777L14.1336 6.17627C12.4677 7.60507 11.1335 9.38051 10.2248 11.3783Z" fill="#00B67B"/>
<path d="M20.3567 9.10838C19.9511 9.33631 19.4907 9.46203 19.0169 9.46203C18.8035 9.46203 18.5919 9.4369 18.3838 9.38764C18.2739 9.36161 18.1579 9.39024 18.0728 9.46463C17.6358 9.84691 16.9413 10.3755 15.736 10.3962C14.582 10.3881 13.8569 9.86674 13.4028 9.46831C13.3297 9.41267 13.2616 9.39176 13.1556 9.3932C12.8712 9.39697 12.6116 9.55643 12.4641 9.7998C12.1558 10.3082 11.877 10.8353 11.6296 11.3789C11.3954 11.8949 11.5884 12.4324 11.9715 12.7267C11.6664 12.7474 11.4206 12.8048 11.2079 12.882C10.2917 13.2158 9.43199 12.2655 9.83491 11.3789C10.7439 9.38046 12.0774 7.60546 13.7438 6.17685L15.736 4.46826C16.2731 4.92942 17.2079 5.73077 17.7282 6.17685C18.5609 6.89116 19.3111 7.69161 19.9662 8.56385C20.1009 8.74234 20.2311 8.92352 20.3567 9.10838Z" fill="#00AA68"/>
<path d="M11.762 6.41098C11.5289 7.1514 12.112 7.74447 12.8431 7.48361C12.9929 7.43012 12.9836 7.43291 13.1936 7.43291C13.2193 7.43291 13.364 7.52417 13.3886 7.52507C14.5255 7.56877 14.5505 8.60065 15.7366 8.60065C16.948 8.60065 16.948 7.52372 18.1595 7.52372C18.3692 7.52372 18.5426 7.55603 18.6922 7.60933C19.4234 7.87002 20.1402 7.19681 19.907 6.45639C19.2194 4.27273 18.1282 2.23741 16.6901 0.456043C16.6685 0.429302 16.6461 0.403727 16.6228 0.379319C15.7361 0.142144 15.3392 0.158476 14.8702 0.739612C13.432 2.52107 12.4497 4.22733 11.762 6.41098Z" fill="#00B67B"/>
<path d="M13.2192 6.70963C13.1214 7.01922 13.2067 7.31625 13.3888 7.52534C13.3646 7.52444 13.3395 7.52354 13.3135 7.52354C13.1035 7.52354 12.9303 7.55674 12.7804 7.60969C12.0491 7.87082 11.3321 7.1969 11.5654 6.45657C11.91 5.36537 12.3542 4.31006 12.8926 3.30591C13.431 2.30175 14.0637 1.34695 14.7824 0.455864C15.0274 0.151656 15.3819 0 15.7364 0C16.0594 0 16.3834 0.126529 16.623 0.379587L16.3421 0.726958C14.9996 2.38889 13.982 4.28772 13.3404 6.32475L13.2192 6.70963Z" fill="#00AA68"/>
<path d="M31.5312 30.2168H0.46875C0.209875 30.2168 0 30.0069 0 29.748C0 29.4892 0.209875 29.2793 0.46875 29.2793H31.5312C31.7901 29.2793 32 29.4892 32 29.748C32 30.0069 31.7901 30.2168 31.5312 30.2168Z" fill="#00B67B"/>
</svg>
