<svg width="40" height="40" viewBox="0 0 40 40" fill="none" xmlns="http://www.w3.org/2000/svg">
<rect width="40" height="40" rx="20" fill="white"/>
<path d="M20.0047 14.609C17.0234 14.609 14.6187 17.0137 14.6187 19.995C14.6187 22.9762 17.0234 25.3809 20.0047 25.3809C22.9859 25.3809 25.3906 22.9762 25.3906 19.995C25.3906 17.0137 22.9859 14.609 20.0047 14.609ZM20.0047 23.4965C18.0781 23.4965 16.5031 21.9262 16.5031 19.995C16.5031 18.0637 18.0734 16.4934 20.0047 16.4934C21.9359 16.4934 23.5062 18.0637 23.5062 19.995C23.5062 21.9262 21.9312 23.4965 20.0047 23.4965ZM26.8672 14.3887C26.8672 15.0872 26.3047 15.645 25.6109 15.645C24.9125 15.645 24.3547 15.0825 24.3547 14.3887C24.3547 13.695 24.9172 13.1325 25.6109 13.1325C26.3047 13.1325 26.8672 13.695 26.8672 14.3887ZM30.4344 15.6637C30.3547 13.9809 29.9703 12.4903 28.7375 11.2622C27.5094 10.034 26.0187 9.64966 24.3359 9.56528C22.6015 9.46685 17.4031 9.46685 15.6687 9.56528C13.9906 9.64497 12.5 10.0293 11.2672 11.2575C10.0344 12.4856 9.65466 13.9762 9.57029 15.659C9.47185 17.3934 9.47185 22.5918 9.57029 24.3262C9.64998 26.009 10.0344 27.4997 11.2672 28.7278C12.5 29.9559 13.9859 30.3403 15.6687 30.4247C17.4031 30.5231 22.6015 30.5231 24.3359 30.4247C26.0187 30.345 27.5094 29.9606 28.7375 28.7278C29.9656 27.4997 30.35 26.009 30.4344 24.3262C30.5328 22.5918 30.5328 17.3981 30.4344 15.6637ZM28.1937 26.1872C27.8281 27.1059 27.1203 27.8137 26.1969 28.184C24.814 28.7325 21.5328 28.6059 20.0047 28.6059C18.4765 28.6059 15.1906 28.7278 13.8125 28.184C12.8937 27.8184 12.1859 27.1106 11.8156 26.1872C11.2672 24.8043 11.3937 21.5231 11.3937 19.995C11.3937 18.4668 11.2719 15.1809 11.8156 13.8028C12.1812 12.884 12.889 12.1762 13.8125 11.8059C15.1953 11.2575 18.4765 11.384 20.0047 11.384C21.5328 11.384 24.8187 11.2622 26.1969 11.8059C27.1156 12.1715 27.8234 12.8793 28.1937 13.8028C28.7422 15.1856 28.6156 18.4668 28.6156 19.995C28.6156 21.5231 28.7422 24.809 28.1937 26.1872Z" fill="#946846"/>
</svg>
