<svg width="32" height="33" viewBox="0 0 32 33" fill="none" xmlns="http://www.w3.org/2000/svg">
<g clip-path="url(#clip0_883_1259)">
<path d="M22.2558 11.9678L19.4513 14.7723L16.8491 17.4158L15.3548 15.546L17.7642 13.0852L20.5687 10.2807L22.3163 8.58398L23.8451 10.0103L22.2558 11.9678Z" fill="#CBC0BB"/>
<path d="M21.9169 20.7913C22.5049 21.3792 22.4338 22.3515 21.7679 22.8494C15.8284 27.291 9.8435 31.1598 3.65081 32.4024C1.49931 32.8341 -0.381707 30.9069 0.0667025 28.7589C1.28792 22.909 5.16549 16.8654 9.68965 10.7747C10.1861 10.1063 11.1606 10.035 11.7493 10.6237L21.9169 20.7913Z" fill="#DED4CF"/>
<path d="M3.51554 28.9873C4.69792 23.3233 8.37057 17.4777 12.7092 11.5836L11.7492 10.6237C11.1606 10.035 10.186 10.1064 9.68958 10.7747C5.16548 16.8654 1.28792 22.909 0.0667025 28.7589C-0.381707 30.9069 1.49931 32.834 3.65081 32.4023C4.02569 32.3271 4.39973 32.2421 4.77313 32.1481C3.81378 31.4792 3.24712 30.2731 3.51554 28.9873Z" fill="#CBC0BB"/>
<path d="M30.8997 5.17112L28.5858 6.76424C27.1898 7.72539 25.9185 8.85626 24.8012 10.1307L23.3448 11.792C23.0249 12.1569 22.4632 12.1753 22.1201 11.8322L20.7043 10.4165C20.3612 10.0734 20.3797 9.51165 20.7445 9.19179L22.4058 7.73536C23.6803 6.61803 24.8111 5.34678 25.7723 3.95074L27.3654 1.63685C28.2661 0.32877 30.1325 0.158027 31.2555 1.28106C32.3785 2.40409 32.2078 4.27048 30.8997 5.17112Z" fill="#EA9A98"/>
<path d="M22.5767 10.5977C22.2336 10.2545 22.2289 9.71586 22.5666 9.42324L24.1038 8.09083C25.2832 7.06864 26.3184 5.89292 27.1859 4.59067L28.6236 2.43218C29.2741 1.45549 30.5482 1.20417 31.6066 1.71814C31.5084 1.56377 31.3913 1.41679 31.2557 1.28106C30.1327 0.158027 28.2663 0.32877 27.3656 1.63685L25.7725 3.95074C24.8113 5.34678 23.6805 6.61803 22.406 7.73536L20.7447 9.19179C20.3799 9.51165 20.3614 10.0734 20.7045 10.4166L22.1202 11.8323C22.4633 12.1754 23.0251 12.1569 23.3449 11.7921L23.544 11.565L22.5767 10.5977Z" fill="#E5827F"/>
<path d="M13.89 12.7642C13.8428 12.831 13.7972 12.8994 13.755 12.9708L9.45418 20.2462C9.07652 20.885 9.06752 21.6459 9.43024 22.2817C9.79774 22.9257 10.4773 23.3259 11.2036 23.3259C11.5632 23.3259 11.9229 23.2256 12.2439 23.0359L19.5192 18.735C19.5905 18.6928 19.6589 18.6472 19.7257 18.6L13.89 12.7642Z" fill="#CBC0BB"/>
<path d="M19.0252 17.8995L11.7498 22.2005C10.8011 22.7613 9.72906 21.6893 10.2899 20.7405L14.5908 13.4652C15.2596 12.3339 16.8158 12.1372 17.745 13.0664L19.4239 14.7453C20.3532 15.6746 20.1564 17.2307 19.0252 17.8995Z" fill="#DED4CF"/>
</g>
<defs>
<clipPath id="clip0_883_1259">
<rect width="32" height="32" fill="white" transform="translate(0 0.5)"/>
</clipPath>
</defs>
</svg>
