<svg width="40" height="40" viewBox="0 0 40 40" fill="none" xmlns="http://www.w3.org/2000/svg">
<path d="M31 12.3462L28.9533 14.3929C27.597 15.7492 24.4052 14.7566 21.8243 12.1757C19.2434 9.59478 18.2508 6.40313 19.6071 5.04666L21.6539 3" fill="#E2A91B"/>
<path d="M27.3292 28.8482C27.7443 28.4217 28 27.8332 28 27.1825C28 26.5327 27.7443 25.9442 27.3292 25.5177C27.0122 25.1919 26.604 24.9624 26.1463 24.8714H25.0085C26.2733 24.8705 27.2986 23.817 27.2986 22.5173C27.2986 21.8675 27.0421 21.279 26.627 20.8525C26.212 20.426 25.6392 20.1624 25.0068 20.1624L15.8071 20.1441C16.0526 19.8463 16.2853 19.5083 16.5035 19.144C17.3643 17.7096 18.0137 15.8626 18.4135 14.429C18.8116 13.0016 18.0078 11.5136 16.6186 11.1047C15.2285 10.6957 13.7805 11.5215 13.3833 12.949C13.2171 13.5427 12.762 14.2504 12.2983 14.8634C11.735 15.6078 11.0591 16.2523 10.3142 16.8023C9.11839 17.6842 6.92203 19.7509 7.00213 22.9878C7.00213 25.9014 7.00213 30.0017 7.00213 30.0017C7.00213 35.7518 12.7295 39 17.6575 39H24.083C24.7154 39 25.289 38.7364 25.704 38.3108C26.1174 37.8843 26.3748 37.2949 26.3748 36.646C26.3748 35.3446 25.3486 34.2911 24.083 34.2911L25.0188 34.2472C25.6521 34.2472 26.2248 33.9836 26.6399 33.5572C27.0549 33.1316 27.3106 32.5431 27.3106 31.8924C27.3106 31.2425 27.055 30.6532 26.6399 30.2267C26.2248 29.802 25.6521 29.5375 25.0188 29.5375H25.7092C26.3414 29.5374 26.9141 29.2747 27.3292 28.8482Z" fill="#FFCBBE"/>
<path d="M25.039 36.4222C24.6388 36.8467 24.0855 37.1104 23.4758 37.1104H17.2778C12.5245 37.1104 7 33.8678 7 28.1279C7 28.9726 7 29.5267 7 29.5267C7 35.2666 12.5245 38.5092 17.2778 38.5092H23.4758C24.0855 38.5092 24.6387 38.2454 25.039 37.8209C25.4382 37.3954 25.6862 36.807 25.6862 36.1587C25.6862 35.915 25.6514 35.6799 25.5866 35.4588C25.4788 35.8267 25.2884 36.1563 25.039 36.4222Z" fill="#F2AD9A"/>
<path d="M21.5337 33.6425C21.5337 34.0369 21.8252 34.3566 22.1847 34.3566H24.5363C25.1398 34.3566 25.6874 34.0873 26.0837 33.6539C26.4788 33.2194 26.7243 32.6187 26.7243 31.9567C26.7243 31.7079 26.6898 31.4679 26.6257 31.2422C26.519 31.6179 26.3305 31.9543 26.0837 32.2257C25.6876 32.6592 25.1398 32.9284 24.5363 32.9284H22.1847C21.8252 32.9285 21.5337 33.2481 21.5337 33.6425Z" fill="#F2AD9A"/>
<path d="M22.5728 28.4521C22.5728 28.8464 22.8642 29.1661 23.2237 29.1661H25.5754C26.1789 29.1661 26.7265 28.8969 27.1227 28.4634C27.5179 28.0289 27.7634 27.4282 27.7634 26.7663C27.7634 26.5174 27.7289 26.2775 27.6647 26.0518C27.5581 26.4274 27.3696 26.7638 27.1226 27.0353C26.7265 27.4687 26.1788 27.738 25.5753 27.738H23.2236C22.8642 27.7381 22.5728 28.0577 22.5728 28.4521Z" fill="#F2AD9A"/>
<path d="M21.5337 24.2988C21.5337 24.6931 21.8252 25.0128 22.1847 25.0128H24.5363C25.1398 25.0128 25.6874 24.7435 26.0837 24.3101C26.4788 23.8756 26.7243 23.2749 26.7243 22.613C26.7243 22.3641 26.6898 22.1241 26.6257 21.8984C26.519 22.2741 26.3305 22.6105 26.0837 22.882C25.6875 23.3154 25.1398 23.5847 24.5363 23.5847H22.1847C21.8252 23.5847 21.5337 23.9044 21.5337 24.2988Z" fill="#F2AD9A"/>
<path d="M14.9168 29.7465H14.8877C14.8983 29.7465 14.908 29.7465 14.9186 29.7473C14.9176 29.7465 14.9176 29.7456 14.9168 29.7465ZM13.9474 34.3547L13.9191 34.3555C13.9297 34.3555 13.9403 34.3555 13.9509 34.3563C13.95 34.3555 13.9482 34.3547 13.9474 34.3547ZM16.9551 11.6191C15.5164 11.2225 14.0176 12.0233 13.6066 13.4073C13.4346 13.983 12.9635 14.6691 12.4836 15.2635C11.9005 15.9853 11.201 16.6103 10.43 17.1435C9.20738 17.9884 6.97466 19.9533 7.00022 23.0263C7.00022 19.9601 10.2659 18.2432 11.4885 17.3982C12.2595 16.865 12.9591 16.24 13.5422 15.5182C14.022 14.9238 14.4931 14.2378 14.6651 13.662C15.0163 12.4809 16.1595 11.7243 17.3812 11.7744C17.2462 11.7125 17.1034 11.6598 16.9551 11.6191Z" fill="#F2AD9A"/>
<path d="M14.2671 25.0896C14.38 25.0719 14.4896 25.0466 14.5957 25.0137C14.4896 25.0474 14.38 25.0727 14.2671 25.0896Z" fill="#F2AD9A"/>
<path d="M15.6766 21.9434C15.6876 21.9799 15.6987 22.0165 15.7072 22.054C15.6979 22.0174 15.6877 21.9816 15.6758 21.946V21.9451C15.6766 21.9443 15.6766 21.9443 15.6766 21.9434Z" fill="#F2AD9A"/>
<path d="M30.5467 12.5466C31.8738 11.2195 30.9027 8.09676 28.3777 5.57177C25.8527 3.04677 22.73 2.07567 21.4029 3.40276C20.0758 4.72985 21.0469 7.85258 23.5719 10.3776C26.0969 12.9026 29.2196 13.8737 30.5467 12.5466Z" fill="#FCC938"/>
<path d="M16 19.0001C15.7501 19.3644 15.4836 19.7023 15.2024 20H13.5575C13.2499 20 13 19.7758 13 19.5C13 19.3625 13.0624 19.2374 13.163 19.1462C13.2645 19.056 13.4041 19 13.5575 19L16 19.0001Z" fill="#FFCBBE"/>
</svg>
